0
SECTION
2
HEADER
9
$INSUNITS
70
4
9
$ACADVER
1
AC1014
9
$HANDSEED
5
FFFF
0
ENDSEC
0
SECTION
2
TABLES
0
TABLE
2
VPORT
5
8
100
AcDbSymbolTable
0
ENDTAB
0
TABLE
2
LTYPE
5
5
100
AcDbSymbolTable
0
LTYPE
5
14
100
AcDbSymbolTableRecord
100
AcDbLinetypeTableRecord
2
BYBLOCK
70
0
0
LTYPE
5
15
100
AcDbSymbolTableRecord
100
AcDbLinetypeTableRecord
2
BYLAYER
70
0
0
ENDTAB
0
TABLE
2
LAYER
5
2
100
AcDbSymbolTable
70
2
0
LAYER
5
50
100
AcDbSymbolTableRecord
100
AcDbLayerTableRecord
2
0
70
0
6
CONTINUOUS
0
ENDTAB
0
TABLE
2
STYLE
5
3
100
AcDbSymbolTable
70
1
0
STYLE
5
11
100
AcDbSymbolTableRecord
100
AcDbTextStyleTableRecord
2
STANDARD
70
0
0
ENDTAB
0
TABLE
2
VIEW
5
6
100
AcDbSymbolTable
70
0
0
ENDTAB
0
TABLE
2
UCS
5
7
100
AcDbSymbolTable
70
0
0
ENDTAB
0
TABLE
2
APPID
5
9
100
AcDbSymbolTable
70
2
0
APPID
5
12
100
AcDbSymbolTableRecord
100
AcDbRegAppTableRecord
2
ACAD
70
0
0
ENDTAB
0
TABLE
2
DIMSTYLE
5
A
100
AcDbSymbolTable
70
1
0
ENDTAB
0
TABLE
2
BLOCK_RECORD
5
1
100
AcDbSymbolTable
70
1
0
BLOCK_RECORD
5
1F
100
AcDbSymbolTableRecord
100
AcDbBlockTableRecord
2
*MODEL_SPACE
0
BLOCK_RECORD
5
1B
100
AcDbSymbolTableRecord
100
AcDbBlockTableRecord
2
*PAPER_SPACE
0
ENDTAB
0
ENDSEC
0
SECTION
2
BLOCKS
0
BLOCK
5
20
100
AcDbEntity
100
AcDbBlockBegin
2
*MODEL_SPACE
0
ENDBLK
5
21
100
AcDbEntity
100
AcDbBlockEnd
0
BLOCK
5
1C
100
AcDbEntity
100
AcDbBlockBegin
2
*PAPER_SPACE
0
ENDBLK
5
1D
100
AcDbEntity
100
AcDbBlockEnd
0
ENDSEC
0
SECTION
2
ENTITIES
0
LINE
5
100
100
AcDbEntity
8
0
100
AcDbLine
10
68.257869549699549
20
44.09322702691091
30
0.10461093026282831
11
68.257869549697517
21
36.593227026910903
31
0.1046109315998249
0
LINE
5
101
100
AcDbEntity
8
0
100
AcDbLine
10
68.257869549697517
20
36.593227026910903
30
0.1046109315998249
11
69.257869549699549
21
36.593227026910903
31
0.1046109302625356
0
LINE
5
102
100
AcDbEntity
8
0
100
AcDbLine
10
69.257869549699549
20
36.593227026910903
30
0.1046109302625356
11
69.257869549699549
21
44.09322702691091
31
0.1046109302625356
0
LINE
5
103
100
AcDbEntity
8
0
100
AcDbLine
10
69.257869549699549
20
44.09322702691091
30
0.1046109302625356
11
68.257869549699549
21
44.09322702691091
31
0.10461093026282831
0
LINE
5
104
100
AcDbEntity
8
0
100
AcDbLine
10
68.757869549699549
20
44.09322702691091
30
0.10461093026282839
11
68.757869549699549
21
43.599999092519269
31
0.10461093026282839
0
LINE
5
105
100
AcDbEntity
8
0
100
AcDbLine
10
57.357869549699529
20
44.093227026910888
30
0.10461093026283727
11
57.357869549699529
21
43.599999092519255
31
0.10461093026283727
0
LINE
5
106
100
AcDbEntity
8
0
100
AcDbLine
10
57.857869549699537
20
36.593227026910895
30
0.10461093026254448
11
57.857869549699537
21
44.093227026910888
31
0.10461093026254448
0
LINE
5
107
100
AcDbEntity
8
0
100
AcDbLine
10
57.857869549699537
20
44.093227026910888
30
0.10461093026254448
11
56.857869549699544
21
44.093227026910888
31
0.10461093026283719
0
LINE
5
108
100
AcDbEntity
8
0
100
AcDbLine
10
56.857869549699544
20
44.093227026910888
30
0.10461093026283719
11
56.857869549557599
21
36.593227026910895
31
0.10461100763525474
0
LINE
5
109
100
AcDbEntity
8
0
100
AcDbLine
10
56.857869549557599
20
36.593227026910895
30
0.10461100763525474
11
57.857869549699537
21
36.593227026910895
31
0.10461093026254448
0
LINE
5
110
100
AcDbEntity
8
0
100
AcDbLine
10
34.557869549699511
20
44.09322702691091
30
0.10461093026284615
11
34.557869549699511
21
43.599999092519269
31
0.10461093026284615
0
LINE
5
111
100
AcDbEntity
8
0
100
AcDbLine
10
35.057869549699518
20
36.593227026910903
30
0.10461093026255336
11
35.057869549699518
21
44.09322702691091
31
0.10461093026255336
0
LINE
5
112
100
AcDbEntity
8
0
100
AcDbLine
10
34.057869541463411
20
36.593227026910903
30
0.10461093026255336
11
35.057869549699518
21
36.593227026910903
31
0.10461093026255336
0
LINE
5
113
100
AcDbEntity
8
0
100
AcDbLine
10
35.057869549699518
20
44.09322702691091
30
0.10461093026255336
11
34.057869549699525
21
44.09322702691091
31
0.10461093026284607
0
LINE
5
114
100
AcDbEntity
8
0
100
AcDbLine
10
34.057869549699525
20
44.09322702691091
30
0.10461093026284607
11
34.057869541463411
21
36.593227026910903
31
0.10461093026255336
0
LINE
5
115
100
AcDbEntity
8
0
100
AcDbLine
10
22.657869541463413
20
36.593227026910903
30
0.10461093026257112
11
23.657869549699523
21
36.593227026910903
31
0.10461093026257112
0
LINE
5
116
100
AcDbEntity
8
0
100
AcDbLine
10
22.657869549699527
20
44.09322702691091
30
0.10461093026286383
11
22.657869541463413
21
36.593227026910903
31
0.10461093026257112
0
LINE
5
117
100
AcDbEntity
8
0
100
AcDbLine
10
23.157869549699516
20
44.09322702691091
30
0.10461093026286392
11
23.157869549699516
21
43.599999092519269
31
0.10461093026286392
0
LINE
5
118
100
AcDbEntity
8
0
100
AcDbLine
10
23.657869549699523
20
44.09322702691091
30
0.10461093026257112
11
22.657869549699527
21
44.09322702691091
31
0.10461093026286383
0
LINE
5
119
100
AcDbEntity
8
0
100
AcDbLine
10
23.657869549699523
20
36.593227026910903
30
0.10461093026257112
11
23.657869549699523
21
44.09322702691091
31
0.10461093026257112
0
LINE
5
120
100
AcDbEntity
8
0
100
AcDbLine
10
45.457869549699524
20
44.09322702691091
30
0.10461093026284607
11
45.45786954146341
21
36.593227026910903
31
0.10461093026255336
0
LINE
5
121
100
AcDbEntity
8
0
100
AcDbLine
10
45.45786954146341
20
36.593227026910903
30
0.10461093026255336
11
46.457869549699524
21
36.593227026910903
31
0.10461093026255336
0
LINE
5
122
100
AcDbEntity
8
0
100
AcDbLine
10
45.957869549699517
20
44.09322702691091
30
0.10461093026284615
11
45.957869549699517
21
43.599999092519269
31
0.10461093026284615
0
LINE
5
123
100
AcDbEntity
8
0
100
AcDbLine
10
46.457869549699524
20
36.593227026910903
30
0.10461093026255336
11
46.457869549699524
21
44.09322702691091
31
0.10461093026255336
0
LINE
5
124
100
AcDbEntity
8
0
100
AcDbLine
10
46.457869549699524
20
44.09322702691091
30
0.10461093026255336
11
45.457869549699524
21
44.09322702691091
31
0.10461093026284607
0
LINE
5
125
100
AcDbEntity
8
0
100
AcDbLine
10
80.657869549699541
20
36.59322702691091
30
0.10461093026254004
11
80.657869549699541
21
44.09322702691091
31
0.10461093026254004
0
LINE
5
126
100
AcDbEntity
8
0
100
AcDbLine
10
80.657869549699541
20
44.09322702691091
30
0.10461093026254004
11
79.657869549699555
21
44.09322702691091
31
0.10461093026283275
0
LINE
5
127
100
AcDbEntity
8
0
100
AcDbLine
10
79.657869549699555
20
44.09322702691091
30
0.10461093026283275
11
79.657869549557617
21
36.59322702691091
31
0.1046110228803484
0
LINE
5
128
100
AcDbEntity
8
0
100
AcDbLine
10
79.657869549557617
20
36.59322702691091
30
0.1046110228803484
11
80.657869549699541
21
36.59322702691091
31
0.10461093026254004
0
LINE
5
129
100
AcDbEntity
8
0
100
AcDbLine
10
80.157869549699541
20
44.09322702691091
30
0.10461093026283283
11
80.157869549699541
21
43.599999092519269
31
0.10461093026283283
0
ENDSEC
0
SECTION
2
OBJECTS
0
DICTIONARY
5
C
100
AcDbDictionary
3
ACAD_GROUP
350
D
3
ACAD_MLINESTYLE
350
17
0
DICTIONARY
5
D
100
AcDbDictionary
0
DICTIONARY
5
1A
330
C
100
AcDbDictionary
0
DICTIONARY
5
17
100
AcDbDictionary
0
ENDSEC
0
EOF
