0
SECTION
2
HEADER
9
$INSUNITS
70
4
9
$ACADVER
1
AC1014
9
$HANDSEED
5
FFFF
0
ENDSEC
0
SECTION
2
TABLES
0
TABLE
2
VPORT
5
8
100
AcDbSymbolTable
0
ENDTAB
0
TABLE
2
LTYPE
5
5
100
AcDbSymbolTable
0
LTYPE
5
14
100
AcDbSymbolTableRecord
100
AcDbLinetypeTableRecord
2
BYBLOCK
70
0
0
LTYPE
5
15
100
AcDbSymbolTableRecord
100
AcDbLinetypeTableRecord
2
BYLAYER
70
0
0
ENDTAB
0
TABLE
2
LAYER
5
2
100
AcDbSymbolTable
70
2
0
LAYER
5
50
100
AcDbSymbolTableRecord
100
AcDbLayerTableRecord
2
0
70
0
6
CONTINUOUS
0
ENDTAB
0
TABLE
2
STYLE
5
3
100
AcDbSymbolTable
70
1
0
STYLE
5
11
100
AcDbSymbolTableRecord
100
AcDbTextStyleTableRecord
2
STANDARD
70
0
0
ENDTAB
0
TABLE
2
VIEW
5
6
100
AcDbSymbolTable
70
0
0
ENDTAB
0
TABLE
2
UCS
5
7
100
AcDbSymbolTable
70
0
0
ENDTAB
0
TABLE
2
APPID
5
9
100
AcDbSymbolTable
70
2
0
APPID
5
12
100
AcDbSymbolTableRecord
100
AcDbRegAppTableRecord
2
ACAD
70
0
0
ENDTAB
0
TABLE
2
DIMSTYLE
5
A
100
AcDbSymbolTable
70
1
0
ENDTAB
0
TABLE
2
BLOCK_RECORD
5
1
100
AcDbSymbolTable
70
1
0
BLOCK_RECORD
5
1F
100
AcDbSymbolTableRecord
100
AcDbBlockTableRecord
2
*MODEL_SPACE
0
BLOCK_RECORD
5
1B
100
AcDbSymbolTableRecord
100
AcDbBlockTableRecord
2
*PAPER_SPACE
0
ENDTAB
0
ENDSEC
0
SECTION
2
BLOCKS
0
BLOCK
5
20
100
AcDbEntity
100
AcDbBlockBegin
2
*MODEL_SPACE
0
ENDBLK
5
21
100
AcDbEntity
100
AcDbBlockEnd
0
BLOCK
5
1C
100
AcDbEntity
100
AcDbBlockBegin
2
*PAPER_SPACE
0
ENDBLK
5
1D
100
AcDbEntity
100
AcDbBlockEnd
0
ENDSEC
0
SECTION
2
ENTITIES
0
LWPOLYLINE
5
100
100
AcDbEntity
8
0
100
AcDbPolyline
90
4
70
1
43
0.0
10
-22.227882443510275
20
-5.6704401230749824
10
-22.227882443510239
20
3.3295598769249857
10
-6.2278824435105973
20
3.3295598769249599
10
-6.2278824435105973
20
-5.6704401230749912
0
LWPOLYLINE
5
101
100
AcDbEntity
8
0
100
AcDbPolyline
90
4
70
1
43
0.0
10
-42.227882443510005
20
3.3295598769249768
10
-42.227882443510005
20
-5.670440123074993
10
-58.227882443509685
20
-5.6704401230749486
10
-58.227882443509657
20
3.329559876925003
0
LWPOLYLINE
5
102
100
AcDbEntity
8
0
100
AcDbPolyline
90
4
70
1
43
0.0
10
-24.227882443510303
20
-35.670440123074584
10
-24.227882443510339
20
-44.670440123074407
10
-40.227882443510012
20
-44.670440123074407
10
-40.227882443510012
20
-35.670440123074584
0
LWPOLYLINE
5
103
100
AcDbEntity
8
0
100
AcDbPolyline
90
4
70
1
43
0.0
10
-42.22788244351004
20
-22.670440123074791
10
-42.22788244351004
20
-31.670440123074556
10
-58.227882443509728
20
-31.670440123074538
10
-58.227882443509685
20
-22.670440123074769
0
LWPOLYLINE
5
104
100
AcDbEntity
8
0
100
AcDbPolyline
90
4
70
1
43
0.0
10
-40.227882443510012
20
-18.670440123074805
10
-40.227882443509976
20
-9.6704401230749735
10
-24.227882443510268
20
-9.6704401230749557
10
-24.227882443510303
20
-18.670440123074794
0
LWPOLYLINE
5
105
100
AcDbEntity
8
0
100
AcDbPolyline
90
4
70
1
43
0.0
10
-42.22788244351004
20
-48.67044012307425
10
-42.22788244351004
20
-57.670440123074194
10
-58.227882443509728
20
-57.670440123074194
10
-58.227882443509728
20
-48.67044012307425
0
LWPOLYLINE
5
106
100
AcDbEntity
8
0
100
AcDbPolyline
90
4
70
1
43
0.0
10
-42.22788244351004
20
-44.670440123074393
10
-58.227882443509728
20
-44.670440123074393
10
-58.227882443509728
20
-35.67044012307457
10
-42.22788244351004
20
-35.67044012307457
0
LINE
5
107
100
AcDbEntity
8
0
100
AcDbLine
10
-40.227882443510012
20
-48.670440123074286
30
0
11
-40.227882443510012
21
-57.670440123074215
31
0
0
LWPOLYLINE
5
108
100
AcDbEntity
8
0
100
AcDbPolyline
90
4
70
1
43
0.0
10
-40.227882443510012
20
-31.670440123074592
10
-40.227882443510012
20
-22.670440123074791
10
-24.227882443510303
20
-22.670440123074769
10
-24.227882443510339
20
-31.670440123074574
0
LINE
5
109
100
AcDbEntity
8
0
100
AcDbLine
10
-24.227882443510339
20
-57.670440123074215
30
0
11
-24.227882443510339
21
-48.670440123074286
31
0
0
LWPOLYLINE
5
110
100
AcDbEntity
8
0
100
AcDbPolyline
90
4
70
1
43
0.0
10
31.772117556488869
20
-9.6704401230750054
10
47.772117556488702
20
-9.670440123075041
10
47.772117556488666
20
-18.670440123074844
10
31.772117556488833
20
-18.67044012307484
0
LINE
5
111
100
AcDbEntity
8
0
100
AcDbLine
10
11.772117556489111
20
-18.670440123074812
30
0
11
11.772117556489146
21
-9.6704401230750072
31
0
0
LWPOLYLINE
5
112
100
AcDbEntity
8
0
100
AcDbPolyline
90
4
70
1
43
0.0
10
-24.227882443510268
20
3.3295598769250034
10
-24.227882443510268
20
-5.6704401230749646
10
-40.227882443509976
20
-5.670440123074993
10
-40.227882443509976
20
3.3295598769249768
0
LINE
5
113
100
AcDbEntity
8
0
100
AcDbLine
10
11.772117556489146
20
-5.6704401230750268
30
0
11
11.772117556489111
21
3.329559876924943
31
0
0
LINE
5
114
100
AcDbEntity
8
0
100
AcDbLine
10
11.772117556489146
20
-9.6704401230750072
30
0
11
-4.2278824435105689
21
-9.6704401230749895
31
0
0
LWPOLYLINE
5
115
100
AcDbEntity
8
0
100
AcDbPolyline
90
4
70
1
43
0.0
10
13.772117556489135
20
-9.6704401230749895
10
29.772117556488922
20
-9.6704401230750054
10
29.772117556488887
20
-18.67044012307484
10
13.7721175564891
20
-18.670440123074794
0
LINE
5
116
100
AcDbEntity
8
0
100
AcDbLine
10
13.772117556489135
20
3.3295598769249599
30
0
11
13.772117556489135
21
-5.670440123075009
31
0
0
LINE
5
117
100
AcDbEntity
8
0
100
AcDbLine
10
-4.2278824435105689
20
-5.6704401230750001
30
0
11
11.772117556489146
21
-5.6704401230750268
31
0
0
LWPOLYLINE
5
118
100
AcDbEntity
8
0
100
AcDbPolyline
90
4
70
1
43
0.0
10
47.772117556488702
20
-5.6704401230750427
10
31.772117556488869
20
-5.6704401230750356
10
31.772117556488833
20
3.329559876924935
10
47.772117556488702
20
3.329559876924908
0
LWPOLYLINE
5
119
100
AcDbEntity
8
0
100
AcDbPolyline
90
4
70
1
43
0.0
10
-6.2278824435106328
20
-18.670440123074805
10
-22.22788244351031
20
-18.670440123074794
10
-22.227882443510275
20
-9.6704401230749557
10
-6.2278824435105973
20
-9.6704401230749895
0
LINE
5
120
100
AcDbEntity
8
0
100
AcDbLine
10
13.772117556489135
20
-5.670440123075009
30
0
11
29.772117556488922
21
-5.6704401230750348
31
0
0
LINE
5
121
100
AcDbEntity
8
0
100
AcDbLine
10
29.772117556488922
20
-5.6704401230750348
30
0
11
29.772117556488922
21
3.3295598769249346
31
0
0
LINE
5
122
100
AcDbEntity
8
0
100
AcDbLine
10
-4.2278824435106044
20
-18.670440123074805
30
0
11
11.772117556489111
21
-18.670440123074812
31
0
0
LINE
5
123
100
AcDbEntity
8
0
100
AcDbLine
10
-4.2278824435106044
20
3.329559876924951
30
0
11
-4.2278824435105689
21
-5.6704401230750001
31
0
0
LINE
5
124
100
AcDbEntity
8
0
100
AcDbLine
10
-4.2278824435105689
20
-9.6704401230749895
30
0
11
-4.2278824435106044
21
-18.670440123074805
31
0
0
LINE
5
125
100
AcDbEntity
8
0
100
AcDbLine
10
11.772117556489111
20
3.329559876924943
30
0
11
-4.2278824435106044
21
3.329559876924951
31
0
0
LINE
5
126
100
AcDbEntity
8
0
100
AcDbLine
10
29.772117556488922
20
3.3295598769249346
30
0
11
13.772117556489135
21
3.3295598769249599
31
0
0
LWPOLYLINE
5
127
100
AcDbEntity
8
0
100
AcDbPolyline
90
4
70
1
43
0.0
10
-42.22788244351004
20
-18.670440123074769
10
-58.227882443509685
20
-18.670440123074759
10
-58.227882443509685
20
-9.6704401230749557
10
-42.227882443510005
20
-9.6704401230749735
0
LINE
5
128
100
AcDbEntity
8
0
100
AcDbLine
10
-40.227882443510012
20
-57.670440123074215
30
0
11
-24.227882443510339
21
-57.670440123074215
31
0
0
LINE
5
129
100
AcDbEntity
8
0
100
AcDbLine
10
-24.227882443510339
20
-48.670440123074286
30
0
11
-40.227882443510012
21
-48.670440123074286
31
0
0
LWPOLYLINE
5
130
100
AcDbEntity
8
0
100
AcDbPolyline
90
12
70
1
43
0.0
10
-61.144060403715713
20
3.4044000821680509
10
-61.144060403715642
20
-56.924440505626201
42
0.41421356237309503
10
-59.144060403715706
20
-58.924440505626087
10
-23.710048538639775
20
-58.924440505626087
42
0.41421356237309503
10
-21.710048538639906
20
-56.924440505626201
10
-21.710048538639832
20
-23.054180130608199
42
-0.41421356237309503
10
-19.710048538639946
20
-21.054180130608316
10
47.37673085449358
20
-21.054180130608291
42
0.4142135623730534
10
49.376730854493388
20
-19.054180130608479
10
49.376730854493388
20
3.4044000821679421
42
0.41421356237309503
10
47.376730854493587
20
5.4044000821681095
10
-59.144060403715777
20
5.4044000821680802
42
0.41421356237309503
0
ENDSEC
0
SECTION
2
OBJECTS
0
DICTIONARY
5
C
100
AcDbDictionary
3
ACAD_GROUP
350
D
3
ACAD_MLINESTYLE
350
17
0
DICTIONARY
5
D
100
AcDbDictionary
0
DICTIONARY
5
1A
330
C
100
AcDbDictionary
0
DICTIONARY
5
17
100
AcDbDictionary
0
ENDSEC
0
EOF
