0
SECTION
2
HEADER
9
$INSUNITS
70
4
9
$ACADVER
1
AC1014
9
$HANDSEED
5
FFFF
0
ENDSEC
0
SECTION
2
TABLES
0
TABLE
2
VPORT
5
8
100
AcDbSymbolTable
0
ENDTAB
0
TABLE
2
LTYPE
5
5
100
AcDbSymbolTable
0
LTYPE
5
14
100
AcDbSymbolTableRecord
100
AcDbLinetypeTableRecord
2
BYBLOCK
70
0
0
LTYPE
5
15
100
AcDbSymbolTableRecord
100
AcDbLinetypeTableRecord
2
BYLAYER
70
0
0
ENDTAB
0
TABLE
2
LAYER
5
2
100
AcDbSymbolTable
70
2
0
LAYER
5
50
100
AcDbSymbolTableRecord
100
AcDbLayerTableRecord
2
0
70
0
6
CONTINUOUS
0
ENDTAB
0
TABLE
2
STYLE
5
3
100
AcDbSymbolTable
70
1
0
STYLE
5
11
100
AcDbSymbolTableRecord
100
AcDbTextStyleTableRecord
2
STANDARD
70
0
0
ENDTAB
0
TABLE
2
VIEW
5
6
100
AcDbSymbolTable
70
0
0
ENDTAB
0
TABLE
2
UCS
5
7
100
AcDbSymbolTable
70
0
0
ENDTAB
0
TABLE
2
APPID
5
9
100
AcDbSymbolTable
70
2
0
APPID
5
12
100
AcDbSymbolTableRecord
100
AcDbRegAppTableRecord
2
ACAD
70
0
0
ENDTAB
0
TABLE
2
DIMSTYLE
5
A
100
AcDbSymbolTable
70
1
0
ENDTAB
0
TABLE
2
BLOCK_RECORD
5
1
100
AcDbSymbolTable
70
1
0
BLOCK_RECORD
5
1F
100
AcDbSymbolTableRecord
100
AcDbBlockTableRecord
2
*MODEL_SPACE
0
BLOCK_RECORD
5
1B
100
AcDbSymbolTableRecord
100
AcDbBlockTableRecord
2
*PAPER_SPACE
0
ENDTAB
0
ENDSEC
0
SECTION
2
BLOCKS
0
BLOCK
5
20
100
AcDbEntity
100
AcDbBlockBegin
2
*MODEL_SPACE
0
ENDBLK
5
21
100
AcDbEntity
100
AcDbBlockEnd
0
BLOCK
5
1C
100
AcDbEntity
100
AcDbBlockBegin
2
*PAPER_SPACE
0
ENDBLK
5
1D
100
AcDbEntity
100
AcDbBlockEnd
0
ENDSEC
0
SECTION
2
ENTITIES
0
LWPOLYLINE
5
100
100
AcDbEntity
8
0
100
AcDbPolyline
90
4
70
1
43
0.0
10
50.180002383422107
20
-9.9000004702247679
10
60.180002383421936
20
-9.9000004702247626
10
60.1800023834219
20
-18.900000470224498
10
50.180002383422071
20
-18.900000470224505
0
LWPOLYLINE
5
101
100
AcDbEntity
8
0
100
AcDbPolyline
90
4
70
1
43
0.0
10
46.233344122942547
20
-35.855464220917781
10
57.233344122942469
20
-35.855464220917781
10
57.233344122942469
20
-24.85546422091787
10
46.233344122942547
20
-24.85546422091787
0
LWPOLYLINE
5
102
100
AcDbEntity
8
0
100
AcDbPolyline
90
12
70
1
43
0.0
10
47.37673085449358
20
5.4044000821677489
42
-0.41421356237309503
10
49.376730854493388
20
3.4044000821679421
10
49.376730854493672
20
-19.054180130608479
42
-0.4142135623730534
10
47.37673085449358
20
-21.054180130608291
10
-19.710048538639946
20
-21.054180130608316
42
0.41421356237309503
10
-21.710048538639978
20
-23.054180130608199
10
-21.710048538639889
20
-56.924440505626201
42
-0.41421356237309503
10
-23.710048538639775
20
-58.924440505626087
10
-59.144060403715706
20
-58.924440505626137
42
-0.41421356237309503
10
-61.144060403715642
20
-56.924440505626201
10
-61.144060403715805
20
3.4044000821680545
42
-0.41421356237309503
10
-59.144060403715777
20
5.4044000821680802
0
LWPOLYLINE
5
103
100
AcDbEntity
8
0
100
AcDbPolyline
90
4
70
1
43
0.0
10
57.23334412294254
20
-49.855464220917781
10
57.233344122942469
20
-38.855464220917888
10
46.233344122942547
20
-38.855464220917888
10
46.233344122942619
20
-49.855464220917781
0
LWPOLYLINE
5
104
100
AcDbEntity
8
0
100
AcDbPolyline
90
4
70
1
43
0.0
10
68.208297515604983
20
-40.309948227294683
10
63.208297515605061
20
-40.309948227294683
10
63.208297515605096
20
-74.309948227294583
10
68.208297515605011
20
-74.309948227294583
0
LWPOLYLINE
5
105
100
AcDbEntity
8
0
100
AcDbPolyline
90
4
70
1
43
0.0
10
70.05987298411813
20
26.246177777021028
10
61.259872984118253
20
26.246177777021028
10
61.259872984118253
20
20.246177777021103
10
70.05987298411813
20
20.246177777021103
0
LWPOLYLINE
5
106
100
AcDbEntity
8
0
100
AcDbPolyline
90
4
70
1
43
0.0
10
70.05987298411813
20
31.646177777020931
10
70.05987298411813
20
37.646177777020789
10
61.259872984118253
20
37.646177777020789
10
61.259872984118253
20
31.646177777020931
0
LWPOLYLINE
5
107
100
AcDbEntity
8
0
100
AcDbPolyline
90
4
70
1
43
0.0
10
42.233344122942633
20
-35.855464220917781
10
42.233344122942633
20
-24.85546422091787
10
31.233344122942555
20
-24.85546422091787
10
31.233344122942555
20
-35.855464220917781
0
LWPOLYLINE
5
108
100
AcDbEntity
8
0
100
AcDbPolyline
90
4
70
1
43
0.0
10
31.233344122942626
20
-49.855464220917781
10
42.233344122942704
20
-49.855464220917781
10
42.233344122942633
20
-38.855464220917888
10
31.233344122942555
20
-38.855464220917888
0
ARC
5
109
100
AcDbEntity
8
0
100
AcDbCircle
10
65.229353540675291
20
-34.683096916319606
30
7.7848062858036285e-10
40
2.0000000000000195
210
-4.43936872196212e-11
220
2.1477310979828611e-12
230
1
100
AcDbArc
50
180
51
270
0
LINE
5
110
100
AcDbEntity
8
0
100
AcDbLine
10
63.229353540675262
20
-34.683096916319613
30
3.6599547385854818e-09
11
63.229353540675191
21
-7.1830969163198439
31
9.3700332893824753e-08
0
LWPOLYLINE
5
111
100
AcDbEntity
8
0
100
AcDbPolyline
90
4
70
1
43
0.0
10
27.233344122942636
20
-49.855464220917781
10
27.233344122942707
20
-38.855464220917604
10
16.23334412294269
20
-38.855464220917639
10
16.233344122942761
20
-49.85546422091781
0
LINE
5
112
100
AcDbEntity
8
0
100
AcDbLine
10
69.229353540675135
20
-36.683096916319627
30
3.6539561253782929e-09
11
65.229353540675291
21
-36.683096916319627
31
3.7530375733883037e-09
0
LINE
5
113
100
AcDbEntity
8
0
100
AcDbLine
10
-63.770646459290816
20
-7.1830969169327021
30
2.3652744100548587e-06
11
-63.770646459320147
21
-34.683096916320409
31
4.8391819708319033e-08
0
LWPOLYLINE
5
114
100
AcDbEntity
8
0
100
AcDbPolyline
90
4
70
1
43
0.0
10
57.23334412294254
20
-52.85546422091759
10
46.233344122942619
20
-52.85546422091759
10
46.233344122942619
20
-63.855464220917639
10
57.23334412294254
20
-63.855464220917639
0
LWPOLYLINE
5
115
100
AcDbEntity
8
0
100
AcDbPolyline
90
4
70
1
43
0.0
10
50.180002383422107
20
-5.6474470949716853
10
50.180002383422071
20
3.35255290502807
10
60.1800023834219
20
3.3525529050280856
10
60.180002383421936
20
-5.647447094971688
0
CIRCLE
5
116
100
AcDbEntity
8
0
100
AcDbCircle
10
65.665714591425612
20
4.8088370960984728
30
0
40
2.0000000000000022
210
0
220
0
230
1
0
ARC
5
117
100
AcDbEntity
8
0
100
AcDbCircle
10
71.229353540675248
20
-0.68309691631975378
30
-5.0360005100908075e-09
40
0.99999999999999356
210
-1.6185488150415122e-09
220
7.7256077100670791e-09
230
1
100
AcDbArc
50
-90
51
0
0
LINE
5
118
100
AcDbEntity
8
0
100
AcDbLine
10
68.729353540675291
20
-1.6830969163197476
30
1.1920876746246652e-07
11
71.229353540675248
21
-1.6830969163197473
31
1.2325513177285202e-07
0
LWPOLYLINE
5
119
100
AcDbEntity
8
0
100
AcDbPolyline
90
4
70
1
43
0.0
10
27.233344122942707
20
-35.855464220917781
10
27.233344122942707
20
-24.85546422091787
10
16.23334412294269
20
-24.855464220917906
10
16.23334412294269
20
-35.855464220917817
0
ARC
5
120
100
AcDbEntity
8
0
100
AcDbCircle
10
68.729353540675291
20
-7.1830969163198439
30
7.5982106691914056e-09
40
5.5000000000000968
210
-1.6959584073704761e-09
220
-2.9419388326122217e-09
230
1
100
AcDbArc
50
90
51
180
0
LWPOLYLINE
5
121
100
AcDbEntity
8
0
100
AcDbPolyline
90
4
70
1
43
0.0
10
70.05987298411813
20
49.046177777020873
10
61.259872984118253
20
49.046177777020873
10
61.259872984118253
20
43.046177777020944
10
70.05987298411813
20
43.046177777020944
0
ARC
5
122
100
AcDbEntity
8
0
100
AcDbCircle
10
69.229353540675135
20
-38.683524390397409
30
2.9558214999303161e-10
40
2.0004274740777834
210
-4.6249141748553881e-11
220
4.2683363135398564e-12
230
1
100
AcDbArc
50
1.1845103258207557
51
90
0
LWPOLYLINE
5
123
100
AcDbEntity
8
0
100
AcDbPolyline
90
4
70
1
43
0.0
10
42.233344122942704
20
-52.85546422091759
10
31.233344122942626
20
-52.85546422091759
10
31.233344122942626
20
-63.855464220917639
10
42.233344122942704
20
-63.855464220917639
0
LWPOLYLINE
5
124
100
AcDbEntity
8
0
100
AcDbPolyline
90
4
70
1
43
0.0
10
23.597740707435037
20
109.42857718685158
10
23.597740707435037
20
104.42857718685158
10
35.597740707434852
20
104.4285771868515
10
35.597740707434852
20
109.4285771868515
0
LWPOLYLINE
5
125
100
AcDbEntity
8
0
100
AcDbPolyline
90
4
70
1
43
0.0
10
-2.7666558770571124
20
-35.855464220917817
10
-2.7666558770571115
20
-24.855464220917906
10
-13.766655877057094
20
-24.855464220917902
10
-13.766655877057094
20
-35.855464220917817
0
LINE
5
126
100
AcDbEntity
8
0
100
AcDbLine
10
-62.770646459323487
20
-107.55229962667238
30
3.1949201375396649e-08
11
62.229353540675291
21
-107.55229962667224
31
1.4961831944034814e-09
0
LWPOLYLINE
5
127
100
AcDbEntity
8
0
100
AcDbPolyline
90
4
70
1
43
0.0
10
70.05987298411813
20
65.846177777020813
10
70.05987298411813
20
71.846177777020699
10
61.259872984118253
20
71.846177777020699
10
61.259872984118253
20
65.846177777020813
0
LWPOLYLINE
5
128
100
AcDbEntity
8
0
100
AcDbPolyline
90
4
70
1
43
0.0
10
12.23334412294278
20
-24.855464220917906
10
1.2333441229427973
20
-24.855464220917906
10
1.2333441229427966
20
-35.855464220917817
10
12.23334412294278
20
-35.855464220917817
0
LWPOLYLINE
5
129
100
AcDbEntity
8
0
100
AcDbPolyline
90
4
70
1
43
0.0
10
20.627740707435073
20
109.42857718685158
10
8.6277407074351462
20
109.42857718685158
10
8.6277407074351444
20
104.42857718685158
10
20.627740707435073
20
104.42857718685158
0
LWPOLYLINE
5
130
100
AcDbEntity
8
0
100
AcDbPolyline
90
4
70
1
43
0.0
10
1.2333441229428677
20
-49.85546422091781
10
12.233344122942707
20
-49.85546422091781
10
12.23334412294278
20
-38.855464220917639
10
1.2333441229427973
20
-38.855464220917639
0
LWPOLYLINE
5
131
100
AcDbEntity
8
0
100
AcDbPolyline
90
4
70
1
43
0.0
10
-2.7666558770570422
20
-49.85546422091781
10
-2.7666558770571115
20
-38.855464220917639
10
-13.766655877057094
20
-38.855464220917639
10
-13.766655877057023
20
-49.855464220917803
0
LWPOLYLINE
5
132
100
AcDbEntity
8
0
100
AcDbPolyline
90
4
70
1
43
0.0
10
61.259872984118253
20
54.446177777020914
10
70.05987298411813
20
54.446177777020914
10
70.05987298411813
20
60.446177777020758
10
61.259872984118253
20
60.446177777020758
0
LWPOLYLINE
5
133
100
AcDbEntity
8
0
100
AcDbPolyline
90
4
70
1
43
0.0
10
5.6577407074351802
20
109.42857718685158
10
-6.3422592925648145
20
109.42857718685158
10
-6.3422592925648145
20
104.42857718685158
10
5.6577407074351802
20
104.42857718685158
0
LWPOLYLINE
5
134
100
AcDbEntity
8
0
100
AcDbPolyline
90
4
70
1
43
0.0
10
-2.7666558770570426
20
-52.855464220917625
10
-13.766655877057023
20
-52.855464220917618
10
-13.766655877057026
20
-63.855464220917668
10
-2.7666558770570426
20
-63.855464220917675
0
LWPOLYLINE
5
135
100
AcDbEntity
8
0
100
AcDbPolyline
90
4
70
1
43
0.0
10
70.05987298411813
20
83.24617777702062
10
61.259872984118253
20
83.24617777702062
10
61.259872984118253
20
77.246177777020677
10
70.05987298411813
20
77.246177777020677
0
LWPOLYLINE
5
136
100
AcDbEntity
8
0
100
AcDbPolyline
90
4
70
1
43
0.0
10
12.233344122942707
20
-52.855464220917625
10
1.2333441229428683
20
-52.855464220917625
10
1.2333441229428677
20
-63.855464220917675
10
12.233344122942707
20
-63.855464220917675
0
LWPOLYLINE
5
137
100
AcDbEntity
8
0
100
AcDbPolyline
90
4
70
1
43
0.0
10
57.233344122942505
20
-80.855464220917455
10
46.233344122942583
20
-80.855464220917455
10
46.233344122942583
20
-91.855464220917355
10
57.233344122942505
20
-91.855464220917355
0
ARC
5
138
100
AcDbEntity
8
0
100
AcDbCircle
10
67.729353540675163
20
100.68858732832638
30
-5.5129357766142282e-08
40
5.5000000000001137
210
1.8669378813039445e-08
220
-8.5868461635329734e-09
230
0.99999999999999989
100
AcDbArc
50
90
51
270.00000000000017
0
CIRCLE
5
139
100
AcDbEntity
8
0
100
AcDbCircle
10
-39.334992478871349
20
-101.37692982041759
30
0
40
4.6500000000000004
210
0
220
0
230
1
0
LINE
5
140
100
AcDbEntity
8
0
100
AcDbLine
10
-68.770646459323657
20
-40.309948227294569
30
0
11
-68.770646459323657
21
-74.309948227294399
31
0
0
ARC
5
141
100
AcDbEntity
8
0
100
AcDbCircle
10
-69.770646459314861
20
-38.687267017633623
30
1.1396478799154046e-08
40
2.00000000000002
210
5.4254606449694608e-10
220
-2.1906256752818866e-10
230
1
100
AcDbArc
50
89.971074571889929
51
180
0
LINE
5
142
100
AcDbEntity
8
0
100
AcDbLine
10
-71.770646459314889
20
-38.687267017633346
30
4.186042881508791e-08
11
-71.770646459314904
21
-90.901993671453809
31
4.1860425617858005e-08
0
LWPOLYLINE
5
143
100
AcDbEntity
8
0
100
AcDbPolyline
90
4
70
1
43
0.0
10
46.233344122942583
20
-77.855464220917383
10
57.233344122942505
20
-77.855464220917383
10
57.233344122942505
20
-66.855464220917597
10
46.233344122942583
20
-66.855464220917597
0
LINE
5
144
100
AcDbEntity
8
0
100
AcDbLine
10
-68.770646459323657
20
-74.309948227294399
30
0
11
-63.7706464593238
21
-74.309948227294399
31
0
0
LWPOLYLINE
5
145
100
AcDbEntity
8
0
100
AcDbPolyline
90
4
70
1
43
0.0
10
42.233344122942668
20
-91.855464220917355
10
42.233344122942668
20
-80.855464220917455
10
31.23334412294259
20
-80.855464220917455
10
31.23334412294259
20
-91.855464220917355
0
CIRCLE
5
146
100
AcDbEntity
8
0
100
AcDbCircle
10
-39.334992478871349
20
-65.376929820417928
30
0
40
4.6500000000000004
210
0
220
0
230
1
0
LINE
5
147
100
AcDbEntity
8
0
100
AcDbLine
10
-68.770646459323714
20
-40.309948227294569
30
0
11
-63.7706464593238
21
-40.309948227294569
31
0
0
ARC
5
148
100
AcDbEntity
8
0
100
AcDbCircle
10
69.229353540675163
20
-90.857422201407445
30
-2.4707266222751709e-12
40
2.0000137797578432
210
-1.7652739081062864e-12
220
-1.8299285709282418e-12
230
1
100
AcDbArc
50
-89.999999999999588
51
0.21268760474490442
0
ARC
5
149
100
AcDbEntity
8
0
100
AcDbCircle
10
-62.770646459323487
20
-106.55229962667238
30
8.4016697908389105e-10
40
0.99999999999999645
210
2.4758569637853658e-10
220
1.4474744076466604e-10
230
1
100
AcDbArc
50
180
51
270
0
LINE
5
150
100
AcDbEntity
8
0
100
AcDbLine
10
71.229353540675234
20
-38.642171288400263
30
3.7548164014978849e-09
11
71.229353540675049
21
-90.849997969344258
31
-4.2980414687064265e-11
0
LINE
5
151
100
AcDbEntity
8
0
100
AcDbLine
10
72.229353540675248
20
-0.68309691631975333
30
1.1714798112531275e-07
11
72.229353540675206
21
94.188587328326193
31
-6.1579344044834113e-07
0
LWPOLYLINE
5
152
100
AcDbEntity
8
0
100
AcDbPolyline
90
4
70
1
43
0.0
10
42.233344122942668
20
-105.85546422091724
10
42.233344122942668
20
-94.855464220917469
10
31.23334412294259
20
-94.855464220917469
10
31.23334412294259
20
-105.85546422091724
0
LWPOLYLINE
5
153
100
AcDbEntity
8
0
100
AcDbPolyline
90
4
70
1
43
0.0
10
16.233344122942761
20
-52.855464220917625
10
16.233344122942761
20
-63.855464220917675
10
27.233344122942636
20
-63.855464220917639
10
27.233344122942636
20
-52.85546422091759
0
LINE
5
154
100
AcDbEntity
8
0
100
AcDbLine
10
-69.769634666062302
20
-36.683096916320544
30
4.1213826057355941e-08
11
-69.769636771441611
21
-36.687267272501018
31
4.1212913686574151e-08
0
CIRCLE
5
155
100
AcDbEntity
8
0
100
AcDbCircle
10
-54.334992478871257
20
-89.376929820417558
30
0
40
4.6500000000000004
210
0
220
0
230
1
0
LINE
5
156
100
AcDbEntity
8
0
100
AcDbLine
10
-63.770646459323743
20
-74.309948227294399
30
0
11
-68.770646459323657
21
-74.309948227294399
31
0
0
LINE
5
157
100
AcDbEntity
8
0
100
AcDbLine
10
-63.7706464593238
20
-40.309948227294569
30
0
11
-68.770646459323657
21
-40.309948227294569
31
0
0
LINE
5
158
100
AcDbEntity
8
0
100
AcDbLine
10
67.729353540675163
20
106.18858732832646
30
-4.0776925206805522e-07
11
71.229383188271655
21
106.18920030906077
31
-3.6997890823727202e-07
0
ARC
5
159
100
AcDbEntity
8
0
100
AcDbCircle
10
-69.770646459314904
20
-90.902552408917998
30
-1.1206274752605972e-09
40
2.0000000780468885
210
1.0123315725204904e-09
220
-3.2644650682915239e-10
230
1
100
AcDbArc
50
179.98399335114556
51
270.00000000000369
0
CIRCLE
5
160
100
AcDbEntity
8
0
100
AcDbCircle
10
65.857331794983111
20
108.88998698756328
30
0
40
1.9999999999999951
210
0
220
0
230
1
0
LINE
5
161
100
AcDbEntity
8
0
100
AcDbLine
10
71.22935354067522
20
95.188587328326193
30
-5.9656471747866737e-07
11
67.729353540675177
21
95.188587328326236
31
-5.0222455986692782e-07
0
LINE
5
162
100
AcDbEntity
8
0
100
AcDbLine
10
-65.770646459320119
20
-36.683096916320494
30
4.8815879816349413e-08
11
-69.769634666062302
21
-36.683096916320544
31
4.1213826057355941e-08
0
CIRCLE
5
163
100
AcDbEntity
8
0
100
AcDbCircle
10
-54.334992478871243
20
-65.376929820417786
30
0
40
4.6500000000000004
210
0
220
0
230
1
0
LWPOLYLINE
5
164
100
AcDbEntity
8
0
100
AcDbPolyline
90
4
70
1
43
0.0
10
1.2333441229428672
20
-66.855464220917597
10
1.2333441229428677
20
-77.855464220917383
10
12.233344122942707
20
-77.855464220917383
10
12.233344122942707
20
-66.855464220917597
0
LWPOLYLINE
5
165
100
AcDbEntity
8
0
100
AcDbPolyline
90
4
70
1
43
0.0
10
16.233344122942761
20
-66.855464220917597
10
16.233344122942761
20
-77.855464220917383
10
27.233344122942636
20
-77.855464220917383
10
27.233344122942636
20
-66.855464220917597
0
LWPOLYLINE
5
166
100
AcDbEntity
8
0
100
AcDbPolyline
90
4
70
1
43
0.0
10
-2.7666558770570426
20
-80.855464220917455
10
-13.766655877057026
20
-80.855464220917455
10
-13.766655877057026
20
-91.855464220917355
10
-2.7666558770570431
20
-91.855464220917355
0
LWPOLYLINE
5
167
100
AcDbEntity
8
0
100
AcDbPolyline
90
4
70
1
43
0.0
10
1.2333441229428672
20
-94.855464220917469
10
1.2333441229428654
20
-105.85546422091724
10
12.233344122942707
20
-105.85546422091724
10
12.233344122942707
20
-94.855464220917469
0
LWPOLYLINE
5
168
100
AcDbEntity
8
0
100
AcDbPolyline
90
4
70
1
43
0.0
10
57.233344122942505
20
-94.855464220917469
10
46.233344122942583
20
-94.855464220917469
10
46.233344122942583
20
-105.85546422091724
10
57.233344122942505
20
-105.85546422091724
0
LWPOLYLINE
5
169
100
AcDbEntity
8
0
100
AcDbPolyline
90
4
70
1
43
0.0
10
-13.766655877057026
20
-66.855464220917597
10
-13.766655877057026
20
-77.855464220917383
10
-2.7666558770570426
20
-77.855464220917383
10
-2.7666558770570426
20
-66.855464220917597
0
LWPOLYLINE
5
170
100
AcDbEntity
8
0
100
AcDbPolyline
90
4
70
1
43
0.0
10
42.233344122942668
20
-77.855464220917383
10
42.233344122942668
20
-66.855464220917597
10
31.23334412294259
20
-66.855464220917597
10
31.23334412294259
20
-77.855464220917383
0
LWPOLYLINE
5
171
100
AcDbEntity
8
0
100
AcDbPolyline
90
4
70
1
43
0.0
10
-2.7666558770570426
20
-94.855464220917469
10
-13.766655877057026
20
-94.855464220917469
10
-13.766655877057028
20
-105.85546422091724
10
-2.766655877057044
20
-105.85546422091724
0
LWPOLYLINE
5
172
100
AcDbEntity
8
0
100
AcDbPolyline
90
4
70
1
43
0.0
10
16.233344122942754
20
-80.855464220917455
10
16.233344122942754
20
-91.855464220917355
10
27.233344122942626
20
-91.855464220917355
10
27.233344122942626
20
-80.855464220917455
0
LWPOLYLINE
5
173
100
AcDbEntity
8
0
100
AcDbPolyline
90
4
70
1
43
0.0
10
-36.282259292564525
20
109.42857718685158
10
-36.282259292564525
20
104.42857718685158
10
-24.282259292564653
20
104.42857718685158
10
-24.282259292564653
20
109.42857718685158
0
LWPOLYLINE
5
174
100
AcDbEntity
8
0
100
AcDbPolyline
90
4
70
1
43
0.0
10
12.233344122942707
20
-80.855464220917455
10
1.2333441229428672
20
-80.855464220917455
10
1.2333441229428677
20
-91.855464220917355
10
12.233344122942707
20
-91.855464220917355
0
CIRCLE
5
175
100
AcDbEntity
8
0
100
AcDbCircle
10
65.66571459142564
20
-83.410752066782052
30
0
40
2.0000000000000022
210
0
220
0
230
1
0
ARC
5
176
100
AcDbEntity
8
0
100
AcDbCircle
10
-69.270646462194136
20
100.68219040192547
30
-1.6508571471664299e-07
40
5.499999999999976
210
-8.5600592892472283e-08
220
-3.9273632763662413e-08
230
0.99999999999999556
100
AcDbArc
50
-89.999999996677047
51
90.000000003202572
0
LWPOLYLINE
5
177
100
AcDbEntity
8
0
100
AcDbPolyline
90
4
70
1
43
0.0
10
-61.940127015880869
20
71.846177777020671
10
-70.740127015880802
20
71.846177777020671
10
-70.740127015880802
20
65.846177777020799
10
-61.940127015880869
20
65.846177777020799
0
LWPOLYLINE
5
178
100
AcDbEntity
8
0
100
AcDbPolyline
90
4
70
1
43
0.0
10
16.233344122942754
20
-94.855464220917469
10
16.233344122942754
20
-105.85546422091724
10
27.233344122942626
20
-105.85546422091724
10
27.233344122942626
20
-94.855464220917469
0
ARC
5
179
100
AcDbEntity
8
0
100
AcDbCircle
10
-69.270646459290745
20
-7.1830969169878136
30
1.9093213991005999e-07
40
5.4999999999998881
210
4.2472048085289256e-08
220
-7.4358970633556618e-08
230
0.99999999999999645
100
AcDbArc
50
0
51
90.000000000533547
0
LWPOLYLINE
5
180
100
AcDbEntity
8
0
100
AcDbPolyline
90
4
70
1
43
0.0
10
-70.740127015880802
20
60.446177777020736
10
-70.740127015880802
20
54.446177777020893
10
-61.940127015880869
20
54.446177777020893
10
-61.940127015880869
20
60.446177777020736
0
LINE
5
181
100
AcDbEntity
8
0
100
AcDbLine
10
-72.770646464670776
20
76.54916519310656
30
-1.7446104033629051e-06
11
-72.770646460845128
21
-0.68309691706233422
31
3.0953045044153694e-06
0
ARC
5
182
100
AcDbEntity
8
0
100
AcDbCircle
10
-65.770646459320176
20
-34.683096916320473
30
2.1278874603154613e-08
40
2.000000000000024
210
6.7929703612360352e-10
220
-4.6726698211046352e-10
230
1
100
AcDbArc
50
-89.99999999999838
51
0
0
LWPOLYLINE
5
183
100
AcDbEntity
8
0
100
AcDbPolyline
90
4
70
1
43
0.0
10
-61.940127015880869
20
20.246177777021078
10
-61.940127015880869
20
26.246177777021003
10
-70.740127015880802
20
26.246177777021003
10
-70.740127015880802
20
20.246177777021078
0
CIRCLE
5
184
100
AcDbEntity
8
0
100
AcDbCircle
10
-54.334992478871257
20
-101.37692982041742
30
0
40
4.6500000000000004
210
0
220
0
230
1
0
LINE
5
185
100
AcDbEntity
8
0
100
AcDbLine
10
-63.7706464593238
20
-74.309948227294399
30
0
11
-63.7706464593238
21
-40.309948227294569
31
0
0
LINE
5
186
100
AcDbEntity
8
0
100
AcDbLine
10
-63.770646459323501
20
-98.402552486964709
30
3.0872385526480284e-08
11
-63.770646459323487
21
-106.55229962667238
31
3.2052039569775662e-08
0
CIRCLE
5
187
100
AcDbEntity
8
0
100
AcDbCircle
10
-39.334992478871349
20
-77.376929820417615
30
0
40
4.6500000000000004
210
0
220
0
230
1
0
CIRCLE
5
188
100
AcDbEntity
8
0
100
AcDbCircle
10
-24.334992478871534
20
-65.376929820417928
30
0
40
4.6500000000000004
210
0
220
0
230
1
0
LWPOLYLINE
5
189
100
AcDbEntity
8
0
100
AcDbPolyline
90
4
70
1
43
0.0
10
-70.740127015880802
20
43.046177777020922
10
-61.940127015880869
20
43.046177777020922
10
-61.940127015880869
20
49.046177777020844
10
-70.740127015880802
20
49.046177777020844
0
ARC
5
190
100
AcDbEntity
8
0
100
AcDbCircle
10
-69.270646459323387
20
-98.402552486964765
30
3.9510656525181797e-10
40
5.4999999999998828
210
1.0803896952489979e-09
220
-3.9043570884892536e-10
230
1
100
AcDbArc
50
0
51
90.000000000000441
0
CIRCLE
5
191
100
AcDbEntity
8
0
100
AcDbCircle
10
-66.412100802448194
20
-83.41075206678191
30
0
40
2.0000000000000022
210
0
220
0
230
1
0
ARC
5
192
100
AcDbEntity
8
0
100
AcDbCircle
10
62.229353540675291
20
-106.55229962667224
30
8.7919610353800929e-10
40
0.99999999999999645
210
2.4758539118553998e-10
220
1.4898859425673284e-10
230
1
100
AcDbArc
50
-90
51
0
0
LWPOLYLINE
5
193
100
AcDbEntity
8
0
100
AcDbPolyline
90
4
70
1
43
0.0
10
-70.740127015880802
20
31.646177777021048
10
-61.940127015880869
20
31.646177777021048
10
-61.940127015880869
20
37.646177777020903
10
-70.740127015880802
20
37.646177777020903
0
CIRCLE
5
194
100
AcDbEntity
8
0
100
AcDbCircle
10
-24.334992478871534
20
-77.376929820417615
30
0
40
4.6500000000000004
210
0
220
0
230
1
0
CIRCLE
5
195
100
AcDbEntity
8
0
100
AcDbCircle
10
-24.334992478871534
20
-101.37692982041759
30
0
40
4.6500000000000004
210
0
220
0
230
1
0
ARC
5
196
100
AcDbEntity
8
0
100
AcDbCircle
10
68.72935354067539
20
-98.357435981165253
30
-1.3448445956424129e-11
40
5.5000000000001137
210
-7.1652990781143714e-12
220
-5.7030892089403628e-12
230
1
100
AcDbArc
50
90.000000000000142
51
180
0
CIRCLE
5
197
100
AcDbEntity
8
0
100
AcDbCircle
10
-54.334992478871257
20
-77.376929820417587
30
0
40
4.6500000000000004
210
0
220
0
230
1
0
LINE
5
198
100
AcDbEntity
8
0
100
AcDbLine
10
-63.7706464593238
20
-40.309948227294569
30
0
11
-63.770646459323743
21
-74.309948227294399
31
0
0
CIRCLE
5
199
100
AcDbEntity
8
0
100
AcDbCircle
10
-39.334992478871349
20
-89.376929820417743
30
0
40
4.6500000000000004
210
0
220
0
230
1
0
LINE
5
200
100
AcDbEntity
8
0
100
AcDbLine
10
-69.770646459314776
20
-92.902552486964893
30
3.9182687034948616e-08
11
-69.27064645932343
21
-92.902552486964879
31
3.896192524901882e-08
0
LINE
5
201
100
AcDbEntity
8
0
100
AcDbLine
10
-71.770646460835181
20
-1.6830969170127967
30
3.1150782279622827e-06
11
-69.270646459341904
21
-1.6830969169879402
31
3.0078450130245999e-06
0
LWPOLYLINE
5
202
100
AcDbEntity
8
0
100
AcDbPolyline
90
4
70
1
43
0.0
10
-9.3122592925647094
20
104.42857718685158
10
-9.3122592925647076
20
109.42857718685158
10
-21.312259292564711
20
109.42857718685158
10
-21.312259292564711
20
104.42857718685158
0
CIRCLE
5
203
100
AcDbEntity
8
0
100
AcDbCircle
10
-66.412100802448251
20
4.8041921618323897
30
0
40
1.9999999999999978
210
0
220
0
230
1
0
LINE
5
204
100
AcDbEntity
8
0
100
AcDbLine
10
-69.270646461875202
20
95.182190401925425
30
-2.3565437304117967e-06
11
-71.770646465325797
21
95.182190402471477
31
-2.7535028167480707e-06
0
LINE
5
205
100
AcDbEntity
8
0
100
AcDbLine
10
63.229353540675284
20
-106.55229962667222
30
1.0996092673843273e-09
11
63.229353540675277
21
-98.357435981165253
31
-1.2133244908563945e-10
0
CIRCLE
5
206
100
AcDbEntity
8
0
100
AcDbCircle
10
-24.334992478871534
20
-89.376929820417743
30
0
40
4.6500000000000004
210
0
220
0
230
1
0
ARC
5
207
100
AcDbEntity
8
0
100
AcDbCircle
10
-71.770646460845199
20
-0.68309691701279984
30
-6.8875277273029939e-08
40
0.99999999999999745
210
4.2893285858293536e-08
220
6.2667009440824408e-08
230
0.99999999999999711
100
AcDbArc
50
180
51
270.00000000056997
0
LINE
5
208
100
AcDbEntity
8
0
100
AcDbLine
10
-71.770646459172696
20
106.18219040154919
30
-1.7722154507909656e-06
11
-69.270646462501631
21
106.18219040192537
31
-1.9245337787031202e-06
0
LINE
5
209
100
AcDbEntity
8
0
100
AcDbLine
10
68.729353540675376
20
-92.857435981165139
30
-5.0556313506079699e-11
11
69.229353540675177
21
-92.857435981165281
31
-5.0184430266930233e-11
0
LWPOLYLINE
5
210
100
AcDbEntity
8
0
100
AcDbPolyline
90
8
70
1
43
0.0
10
55.62990841909194
20
97.533214922718159
10
-56.170091580838516
20
97.53321492852443
42
0.41421356238831031
10
-57.170091580890443
20
96.53321492852443
10
-57.170091580890769
20
8.7332149238706283
42
0.41421356236997425
10
-56.170091580901428
20
7.7332149238706283
10
55.629908412926682
20
7.7332149226771874
42
0.41421356235586365
10
56.629908412937354
20
8.7332149226076794
10
56.629908419040021
20
96.533214922648739
42
0.4142135623782407
0
LINE
5
211
100
AcDbEntity
8
0
100
AcDbLine
10
-57.170091580890613
20
49.749165195227327
30
-6.5134534034722935e-08
11
-72.770646463343255
21
49.749165195227327
31
-6.5134547306465088e-08
0
LINE
5
212
100
AcDbEntity
8
0
100
AcDbLine
10
-72.770646462412017
20
30.949165196933262
30
1.1130052319848905e-06
11
-57.170091580890691
21
30.949165196933258
31
1.1130052783669297e-06
0
LINE
5
213
100
AcDbEntity
8
0
100
AcDbLine
10
-72.770646464670776
20
76.54916519310656
30
-1.7446104033629051e-06
11
-57.170091580890499
21
76.54916519310656
31
-1.7446104418604479e-06
0
LINE
5
214
100
AcDbEntity
8
0
100
AcDbLine
10
-57.170091580890528
20
72.549165194655828
30
-1.4939424047616197e-06
11
-72.770646464472634
21
72.549165194656112
31
-1.4939423651605592e-06
0
LINE
5
215
100
AcDbEntity
8
0
100
AcDbLine
10
-72.770646464106079
20
65.149165201429099
30
-1.0302064953369404e-06
11
-57.170091580890556
21
65.149165201429099
31
-1.0302065365545786e-06
0
LINE
5
216
100
AcDbEntity
8
0
100
AcDbLine
10
-57.170091580890585
20
61.149165180211433
30
-7.7953849051860141e-07
11
-72.770646463907951
21
61.14916518021144
31
-7.7953849608851007e-07
0
LINE
5
217
100
AcDbEntity
8
0
100
AcDbLine
10
-72.770646463541397
20
53.749165214313081
30
-3.1580261691086548e-07
11
-57.170091580890613
21
53.749165214313081
31
-3.1580261044798784e-07
0
LINE
5
218
100
AcDbEntity
8
0
100
AcDbLine
10
-72.7706464629767
20
42.349165194655725
30
3.9860130540406368e-07
11
-57.170091580890634
21
42.349165194655754
31
3.9860137626973896e-07
0
LINE
5
219
100
AcDbEntity
8
0
100
AcDbLine
10
-57.170091580890656
20
38.349165203065155
30
6.4926941206662907e-07
11
-72.770646462778558
21
38.349165203065155
31
6.4926934845821799e-07
0
LINE
5
220
100
AcDbEntity
8
0
100
AcDbLine
10
-57.170091580890691
20
26.94916518504364
30
1.3636733169594814e-06
11
-72.770646462213875
21
26.949165185043643
31
1.3636732707784775e-06
0
LINE
5
221
100
AcDbEntity
8
0
100
AcDbLine
10
56.629908417650995
20
76.549165194655814
30
-4.7951818352221701e-07
11
72.22935354067522
21
76.549165194655814
31
-4.7951818363882804e-07
0
LINE
5
222
100
AcDbEntity
8
0
100
AcDbLine
10
72.22935354067522
20
72.549165194655799
30
-4.4861575253267758e-07
11
56.629908417372974
21
72.549165194655799
31
-4.4861575247364272e-07
0
LINE
5
223
100
AcDbEntity
8
0
100
AcDbLine
10
56.629908416858612
20
65.149165194655779
30
-3.9144625503378083e-07
11
72.22935354067522
21
65.149165194655779
31
-3.914462549862994e-07
0
LINE
5
224
100
AcDbEntity
8
0
100
AcDbLine
10
72.22935354067522
20
61.149165194655751
30
-3.6054382388014889e-07
11
56.629908416580605
21
61.149165194655751
31
-3.6054382477408888e-07
0
LINE
5
225
100
AcDbEntity
8
0
100
AcDbLine
10
56.62990841606625
20
53.749165194655703
30
-3.0337432543979011e-07
11
72.22935354067522
21
53.749165194655703
31
-3.0337432633377055e-07
0
LINE
5
226
100
AcDbEntity
8
0
100
AcDbLine
10
72.22935354067522
20
49.749165194655738
30
-2.7247189522762051e-07
11
56.629908415788236
21
49.749165194655738
31
-2.7247189612155431e-07
0
LINE
5
227
100
AcDbEntity
8
0
100
AcDbLine
10
56.629908415273874
20
42.349165194655775
30
-2.1530239678725626e-07
11
72.22935354067522
21
42.349165194655775
31
-2.1530239768124281e-07
0
LINE
5
228
100
AcDbEntity
8
0
100
AcDbLine
10
72.22935354067522
20
38.349165194655782
30
-1.8439996657509256e-07
11
56.629908414995846
21
38.349165194655782
31
-1.843999674690203e-07
0
LINE
5
229
100
AcDbEntity
8
0
100
AcDbLine
10
56.62990841448152
20
30.949165194655677
30
-1.2723046813472113e-07
11
72.229353540675234
21
30.949165194655674
31
-1.2723046902871374e-07
0
LINE
5
230
100
AcDbEntity
8
0
100
AcDbLine
10
72.229353540675234
20
26.949165194655759
30
-9.6328037922564109e-08
11
56.629908414203484
21
26.949165194655759
31
-9.6328038816173082e-08
0
LWPOLYLINE
5
231
100
AcDbEntity
8
0
100
AcDbPolyline
90
4
70
1
43
0.0
10
-70.740127015880802
20
77.246177777020804
10
-61.940127015880869
20
77.246177777020804
10
-61.940127015880869
20
83.246177777020677
10
-70.740127015880802
20
83.246177777020677
0
LINE
5
232
100
AcDbEntity
8
0
100
AcDbLine
10
4.5064599850341835
20
111.70561693332856
30
-4.1590810838186986e-07
11
3.0546285264327011
21
111.70561693332856
31
-4.1590810838186986e-07
0
LINE
5
233
100
AcDbEntity
8
0
100
AcDbLine
10
-72.77064645932316
20
107.18219040154918
30
-1.7112881195358074e-06
11
-72.77064645932316
21
110.69999750331044
31
-1.711288119535807e-06
0
LINE
5
234
100
AcDbEntity
8
0
100
AcDbLine
10
72.229208052405227
20
107.18920029372448
30
-3.5918364957078625e-07
11
72.229208052405212
21
110.69999750331044
31
-3.591836495707863e-07
0
LINE
5
235
100
AcDbEntity
8
0
100
AcDbLine
10
71.229208052405227
20
111.69999750331044
30
-3.6850851734060638e-07
11
-71.770646459323174
21
111.69999750331044
31
-1.7019632517659869e-06
0
ARC
5
236
100
AcDbEntity
8
0
100
AcDbCircle
10
-71.229353540675206
20
94.188587328326179
30
-2.0587645271968253e-06
40
0.99999999999999645
210
-2.6954330746211327e-08
220
-7.7256077765372683e-09
230
-0.99999999999999967
100
AcDbArc
50
90
51
180
0
ARC
5
237
100
AcDbEntity
8
0
100
AcDbCircle
10
-71.229208052405241
20
107.18920029372448
30
1.1390532169042949e-06
40
0.99999999999998768
210
1.079714963464199e-08
220
9.7981320702739774e-24
230
-1
100
AcDbArc
50
180
51
269.98996545396182
0
ARC
5
238
100
AcDbEntity
8
0
100
AcDbCircle
10
-71.229208052405227
20
110.69999750331044
30
1.0327114637783143e-06
40
0.99999999999999645
210
9.324867769820231e-09
220
1.323488980084849e-22
230
-1
100
AcDbArc
50
90
51
180
0
LINE
5
239
100
AcDbEntity
8
0
100
AcDbLine
10
-71.770646459323174
20
111.69999750331044
30
-1.7019632517659869e-06
11
-71.770646459323174
21
111.69999750331044
31
-1.7019632517659869e-06
0
LINE
5
240
100
AcDbEntity
8
0
100
AcDbLine
10
-72.77064645932316
20
110.69999750331044
30
-1.711288119535807e-06
11
-72.77064645932316
21
110.69999750331044
31
-1.711288119535807e-06
0
LINE
5
241
100
AcDbEntity
8
0
100
AcDbLine
10
-71.770646459172696
20
106.18219040154919
30
-1.7722154507909656e-06
11
-71.77064645932316
21
106.18219040154919
31
-1.7722154507817979e-06
0
LINE
5
242
100
AcDbEntity
8
0
100
AcDbLine
10
-72.77064645932316
20
107.18219040154918
30
-1.7112881195358074e-06
11
-72.77064645932316
21
107.18219040154919
31
-1.7112881195358077e-06
0
LINE
5
243
100
AcDbEntity
8
0
100
AcDbLine
10
-71.770646465325797
20
95.182190402471477
30
-2.7535028167480707e-06
11
-71.770646464670776
21
95.182190402471463
31
-2.7535028167480712e-06
0
LINE
5
244
100
AcDbEntity
8
0
100
AcDbLine
10
-72.770646464670776
20
76.54916519310656
30
-1.7446104033629051e-06
11
-72.770646464670776
21
94.182190402471491
31
-2.6993574269335331e-06
0
ARC
5
245
100
AcDbEntity
8
0
100
AcDbCircle
10
-71.770646459323174
20
110.69999750331043
30
-2.7435509583736479e-06
40
0.99999999999999656
210
2.646977960169698e-22
220
-9.3248677698204278e-09
230
1
100
AcDbArc
50
90
51
180
0
ARC
5
246
100
AcDbEntity
8
0
100
AcDbCircle
10
-71.770646459322933
20
107.18219040154921
30
-6.1450094013478588e-06
40
0.99999999999999822
210
6.0927331245990183e-08
220
-2.6469779601696933e-22
230
0.99999999999999822
100
AcDbArc
50
180
51
270
0
ARC
5
247
100
AcDbEntity
8
0
100
AcDbCircle
10
-71.77064646467079
20
94.182190402471505
30
2.4001739859951505e-06
40
0.99999999999998024
210
1.5881867761018346e-21
220
5.4145389814537337e-08
230
0.99999999999999867
100
AcDbArc
50
89.99999999999919
51
180
0
ENDSEC
0
SECTION
2
OBJECTS
0
DICTIONARY
5
C
100
AcDbDictionary
3
ACAD_GROUP
350
D
3
ACAD_MLINESTYLE
350
17
0
DICTIONARY
5
D
100
AcDbDictionary
0
DICTIONARY
5
1A
330
C
100
AcDbDictionary
0
DICTIONARY
5
17
100
AcDbDictionary
0
ENDSEC
0
EOF
