0
SECTION
2
HEADER
9
$INSUNITS
70
4
9
$ACADVER
1
AC1014
9
$HANDSEED
5
FFFF
0
ENDSEC
0
SECTION
2
TABLES
0
TABLE
2
VPORT
5
8
100
AcDbSymbolTable
0
ENDTAB
0
TABLE
2
LTYPE
5
5
100
AcDbSymbolTable
0
LTYPE
5
14
100
AcDbSymbolTableRecord
100
AcDbLinetypeTableRecord
2
BYBLOCK
70
0
0
LTYPE
5
15
100
AcDbSymbolTableRecord
100
AcDbLinetypeTableRecord
2
BYLAYER
70
0
0
ENDTAB
0
TABLE
2
LAYER
5
2
100
AcDbSymbolTable
70
2
0
LAYER
5
50
100
AcDbSymbolTableRecord
100
AcDbLayerTableRecord
2
0
70
0
6
CONTINUOUS
0
ENDTAB
0
TABLE
2
STYLE
5
3
100
AcDbSymbolTable
70
1
0
STYLE
5
11
100
AcDbSymbolTableRecord
100
AcDbTextStyleTableRecord
2
STANDARD
70
0
0
ENDTAB
0
TABLE
2
VIEW
5
6
100
AcDbSymbolTable
70
0
0
ENDTAB
0
TABLE
2
UCS
5
7
100
AcDbSymbolTable
70
0
0
ENDTAB
0
TABLE
2
APPID
5
9
100
AcDbSymbolTable
70
2
0
APPID
5
12
100
AcDbSymbolTableRecord
100
AcDbRegAppTableRecord
2
ACAD
70
0
0
ENDTAB
0
TABLE
2
DIMSTYLE
5
A
100
AcDbSymbolTable
70
1
0
ENDTAB
0
TABLE
2
BLOCK_RECORD
5
1
100
AcDbSymbolTable
70
1
0
BLOCK_RECORD
5
1F
100
AcDbSymbolTableRecord
100
AcDbBlockTableRecord
2
*MODEL_SPACE
0
BLOCK_RECORD
5
1B
100
AcDbSymbolTableRecord
100
AcDbBlockTableRecord
2
*PAPER_SPACE
0
ENDTAB
0
ENDSEC
0
SECTION
2
BLOCKS
0
BLOCK
5
20
100
AcDbEntity
100
AcDbBlockBegin
2
*MODEL_SPACE
0
ENDBLK
5
21
100
AcDbEntity
100
AcDbBlockEnd
0
BLOCK
5
1C
100
AcDbEntity
100
AcDbBlockBegin
2
*PAPER_SPACE
0
ENDBLK
5
1D
100
AcDbEntity
100
AcDbBlockEnd
0
ENDSEC
0
SECTION
2
ENTITIES
0
CIRCLE
5
100
100
AcDbEntity
8
0
100
AcDbCircle
10
-54.334992478871257
20
-77.376929820417587
30
0
40
4.5
210
0
220
0
230
1
0
CIRCLE
5
101
100
AcDbEntity
8
0
100
AcDbCircle
10
-39.334992478871349
20
-89.376929820417743
30
0
40
4.5
210
0
220
0
230
1
0
CIRCLE
5
102
100
AcDbEntity
8
0
100
AcDbCircle
10
-24.334992478871534
20
-77.376929820417615
30
0
40
4.5
210
0
220
0
230
1
0
CIRCLE
5
103
100
AcDbEntity
8
0
100
AcDbCircle
10
-39.334992478871349
20
-77.376929820417615
30
0
40
4.5
210
0
220
0
230
1
0
CIRCLE
5
104
100
AcDbEntity
8
0
100
AcDbCircle
10
-54.334992478871243
20
-65.376929820417786
30
0
40
4.5
210
0
220
0
230
1
0
CIRCLE
5
105
100
AcDbEntity
8
0
100
AcDbCircle
10
-24.334992478871534
20
-101.37692982041759
30
0
40
4.5
210
0
220
0
230
1
0
CIRCLE
5
106
100
AcDbEntity
8
0
100
AcDbCircle
10
-54.334992478871257
20
-89.376929820417558
30
0
40
4.5
210
0
220
0
230
1
0
CIRCLE
5
107
100
AcDbEntity
8
0
100
AcDbCircle
10
-24.334992478871534
20
-65.376929820417928
30
0
40
4.5
210
0
220
0
230
1
0
CIRCLE
5
108
100
AcDbEntity
8
0
100
AcDbCircle
10
-39.334992478871349
20
-65.376929820417928
30
0
40
4.5
210
0
220
0
230
1
0
CIRCLE
5
109
100
AcDbEntity
8
0
100
AcDbCircle
10
-54.334992478871257
20
-101.37692982041742
30
0
40
4.5
210
0
220
0
230
1
0
CIRCLE
5
110
100
AcDbEntity
8
0
100
AcDbCircle
10
-24.334992478871534
20
-89.376929820417743
30
0
40
4.5
210
0
220
0
230
1
0
CIRCLE
5
111
100
AcDbEntity
8
0
100
AcDbCircle
10
-39.334992478871349
20
-101.37692982041759
30
0
40
4.5
210
0
220
0
230
1
0
LWPOLYLINE
5
112
100
AcDbEntity
8
0
100
AcDbPolyline
90
4
70
1
43
0.0
10
-3.0166558770570937
20
-35.605464220917817
10
-3.0166558770570928
20
-25.105464220917817
10
-13.516655877057095
20
-25.105464220917813
10
-13.516655877057095
20
-35.605464220917817
0
LWPOLYLINE
5
113
100
AcDbEntity
8
0
100
AcDbPolyline
90
4
70
1
43
0.0
10
1.4833441229429045
20
-35.605464220917817
10
11.983344122942906
20
-35.605464220917817
10
11.983344122942906
20
-25.105464220917817
10
1.4833441229429045
20
-25.105464220917813
0
LWPOLYLINE
5
114
100
AcDbEntity
8
0
100
AcDbPolyline
90
4
70
1
43
0.0
10
16.483344122942903
20
-35.605464220917817
10
26.983344122942906
20
-35.605464220917817
10
26.983344122942906
20
-25.105464220917817
10
16.483344122942903
20
-25.105464220917813
0
LWPOLYLINE
5
115
100
AcDbEntity
8
0
100
AcDbPolyline
90
4
70
1
43
0.0
10
31.483344122942903
20
-35.605464220917817
10
41.983344122942903
20
-35.605464220917817
10
41.983344122942903
20
-25.105464220917817
10
31.483344122942903
20
-25.105464220917813
0
LWPOLYLINE
5
116
100
AcDbEntity
8
0
100
AcDbPolyline
90
4
70
1
43
0.0
10
46.483344122942903
20
-35.605464220917817
10
56.983344122942903
20
-35.605464220917817
10
56.983344122942903
20
-25.105464220917817
10
46.483344122942903
20
-25.105464220917813
0
LWPOLYLINE
5
117
100
AcDbEntity
8
0
100
AcDbPolyline
90
4
70
1
43
0.0
10
-3.0166558770570928
20
-39.105464220917817
10
-13.516655877057095
20
-39.10546422091781
10
-13.516655877057095
20
-49.60546422091781
10
-3.0166558770570937
20
-49.60546422091781
0
LWPOLYLINE
5
118
100
AcDbEntity
8
0
100
AcDbPolyline
90
4
70
1
43
0.0
10
-3.0166558770570928
20
-53.105464220917817
10
-13.516655877057095
20
-53.10546422091781
10
-13.516655877057095
20
-63.60546422091781
10
-3.0166558770570937
20
-63.60546422091781
0
LWPOLYLINE
5
119
100
AcDbEntity
8
0
100
AcDbPolyline
90
4
70
1
43
0.0
10
-3.0166558770570928
20
-67.10546422091781
10
-13.516655877057095
20
-67.10546422091781
10
-13.516655877057095
20
-77.60546422091781
10
-3.0166558770570937
20
-77.60546422091781
0
LWPOLYLINE
5
120
100
AcDbEntity
8
0
100
AcDbPolyline
90
4
70
1
43
0.0
10
-3.0166558770570928
20
-81.10546422091781
10
-13.516655877057095
20
-81.10546422091781
10
-13.516655877057095
20
-91.60546422091781
10
-3.0166558770570937
20
-91.60546422091781
0
LWPOLYLINE
5
121
100
AcDbEntity
8
0
100
AcDbPolyline
90
4
70
1
43
0.0
10
-3.0166558770570928
20
-95.10546422091781
10
-13.516655877057095
20
-95.10546422091781
10
-13.516655877057095
20
-105.60546422091782
10
-3.0166558770570937
20
-105.60546422091782
0
LWPOLYLINE
5
122
100
AcDbEntity
8
0
100
AcDbPolyline
90
4
70
1
43
0.0
10
1.4833441229429045
20
-39.10546422091781
10
1.4833441229429045
20
-49.60546422091781
10
11.983344122942906
20
-49.60546422091781
10
11.983344122942906
20
-39.105464220917817
0
LWPOLYLINE
5
123
100
AcDbEntity
8
0
100
AcDbPolyline
90
4
70
1
43
0.0
10
16.483344122942903
20
-39.10546422091781
10
16.483344122942903
20
-49.60546422091781
10
26.983344122942906
20
-49.60546422091781
10
26.983344122942906
20
-39.105464220917817
0
LWPOLYLINE
5
124
100
AcDbEntity
8
0
100
AcDbPolyline
90
4
70
1
43
0.0
10
31.483344122942903
20
-39.10546422091781
10
31.483344122942903
20
-49.60546422091781
10
41.983344122942903
20
-49.60546422091781
10
41.983344122942903
20
-39.105464220917817
0
LWPOLYLINE
5
125
100
AcDbEntity
8
0
100
AcDbPolyline
90
4
70
1
43
0.0
10
46.483344122942903
20
-39.10546422091781
10
46.483344122942903
20
-49.60546422091781
10
56.983344122942903
20
-49.60546422091781
10
56.983344122942903
20
-39.105464220917817
0
LWPOLYLINE
5
126
100
AcDbEntity
8
0
100
AcDbPolyline
90
4
70
1
43
0.0
10
11.983344122942906
20
-53.105464220917817
10
1.4833441229429045
20
-53.10546422091781
10
1.4833441229429045
20
-63.60546422091781
10
11.983344122942906
20
-63.60546422091781
0
LWPOLYLINE
5
127
100
AcDbEntity
8
0
100
AcDbPolyline
90
4
70
1
43
0.0
10
26.983344122942906
20
-53.105464220917817
10
16.483344122942903
20
-53.10546422091781
10
16.483344122942903
20
-63.60546422091781
10
26.983344122942906
20
-63.60546422091781
0
LWPOLYLINE
5
128
100
AcDbEntity
8
0
100
AcDbPolyline
90
4
70
1
43
0.0
10
41.983344122942903
20
-53.105464220917817
10
31.483344122942903
20
-53.10546422091781
10
31.483344122942903
20
-63.60546422091781
10
41.983344122942903
20
-63.60546422091781
0
LWPOLYLINE
5
129
100
AcDbEntity
8
0
100
AcDbPolyline
90
4
70
1
43
0.0
10
56.983344122942903
20
-53.105464220917817
10
46.483344122942903
20
-53.10546422091781
10
46.483344122942903
20
-63.60546422091781
10
56.983344122942903
20
-63.60546422091781
0
LWPOLYLINE
5
130
100
AcDbEntity
8
0
100
AcDbPolyline
90
4
70
1
43
0.0
10
1.4833441229429045
20
-67.10546422091781
10
1.4833441229429045
20
-77.60546422091781
10
11.983344122942906
20
-77.60546422091781
10
11.983344122942906
20
-67.10546422091781
0
LWPOLYLINE
5
131
100
AcDbEntity
8
0
100
AcDbPolyline
90
4
70
1
43
0.0
10
16.483344122942903
20
-67.10546422091781
10
16.483344122942903
20
-77.60546422091781
10
26.983344122942906
20
-77.60546422091781
10
26.983344122942906
20
-67.10546422091781
0
LWPOLYLINE
5
132
100
AcDbEntity
8
0
100
AcDbPolyline
90
4
70
1
43
0.0
10
31.483344122942903
20
-67.10546422091781
10
31.483344122942903
20
-77.60546422091781
10
41.983344122942903
20
-77.60546422091781
10
41.983344122942903
20
-67.10546422091781
0
LWPOLYLINE
5
133
100
AcDbEntity
8
0
100
AcDbPolyline
90
4
70
1
43
0.0
10
46.483344122942903
20
-67.10546422091781
10
46.483344122942903
20
-77.60546422091781
10
56.983344122942903
20
-77.60546422091781
10
56.983344122942903
20
-67.10546422091781
0
LWPOLYLINE
5
134
100
AcDbEntity
8
0
100
AcDbPolyline
90
4
70
1
43
0.0
10
1.4833441229429045
20
-91.60546422091781
10
11.983344122942906
20
-91.60546422091781
10
11.983344122942906
20
-81.10546422091781
10
1.4833441229429045
20
-81.10546422091781
0
LWPOLYLINE
5
135
100
AcDbEntity
8
0
100
AcDbPolyline
90
4
70
1
43
0.0
10
16.483344122942903
20
-91.60546422091781
10
26.983344122942906
20
-91.60546422091781
10
26.983344122942906
20
-81.10546422091781
10
16.483344122942903
20
-81.10546422091781
0
LWPOLYLINE
5
136
100
AcDbEntity
8
0
100
AcDbPolyline
90
4
70
1
43
0.0
10
31.483344122942903
20
-91.60546422091781
10
41.983344122942903
20
-91.60546422091781
10
41.983344122942903
20
-81.10546422091781
10
31.483344122942903
20
-81.10546422091781
0
LWPOLYLINE
5
137
100
AcDbEntity
8
0
100
AcDbPolyline
90
4
70
1
43
0.0
10
46.483344122942903
20
-91.60546422091781
10
56.983344122942903
20
-91.60546422091781
10
56.983344122942903
20
-81.10546422091781
10
46.483344122942903
20
-81.10546422091781
0
LWPOLYLINE
5
138
100
AcDbEntity
8
0
100
AcDbPolyline
90
4
70
1
43
0.0
10
1.4833441229429045
20
-105.60546422091782
10
11.983344122942906
20
-105.60546422091782
10
11.983344122942906
20
-95.10546422091781
10
1.4833441229429045
20
-95.10546422091781
0
LWPOLYLINE
5
139
100
AcDbEntity
8
0
100
AcDbPolyline
90
4
70
1
43
0.0
10
16.483344122942903
20
-105.60546422091782
10
26.983344122942906
20
-105.60546422091782
10
26.983344122942906
20
-95.10546422091781
10
16.483344122942903
20
-95.10546422091781
0
LWPOLYLINE
5
140
100
AcDbEntity
8
0
100
AcDbPolyline
90
4
70
1
43
0.0
10
31.483344122942903
20
-105.60546422091782
10
41.983344122942903
20
-105.60546422091782
10
41.983344122942903
20
-95.10546422091781
10
31.483344122942903
20
-95.10546422091781
0
LWPOLYLINE
5
141
100
AcDbEntity
8
0
100
AcDbPolyline
90
4
70
1
43
0.0
10
46.483344122942903
20
-105.60546422091782
10
56.983344122942903
20
-105.60546422091782
10
56.983344122942903
20
-95.10546422091781
10
46.483344122942903
20
-95.10546422091781
0
LWPOLYLINE
5
142
100
AcDbEntity
8
0
100
AcDbPolyline
90
4
70
1
43
0.0
10
-57.977882443509685
20
-5.4204401230749983
10
-57.97788244350965
20
3.0795598769250025
10
-42.47788244350965
20
3.0795598769249768
10
-42.47788244350965
20
-5.4204401230750419
0
LWPOLYLINE
5
143
100
AcDbEntity
8
0
100
AcDbPolyline
90
4
70
1
43
0.0
10
-39.97788244350965
20
3.0795598769250025
10
-24.477882443509653
20
3.0795598769249768
10
-24.477882443509653
20
-5.4204401230750419
10
-39.977882443509685
20
-5.4204401230749983
0
LWPOLYLINE
5
144
100
AcDbEntity
8
0
100
AcDbPolyline
90
4
70
1
43
0.0
10
-21.97788244350965
20
3.0795598769250025
10
-6.4778824435096505
20
3.0795598769249768
10
-6.4778824435096505
20
-5.4204401230750419
10
-21.977882443509685
20
-5.4204401230749983
0
LWPOLYLINE
5
145
100
AcDbEntity
8
0
100
AcDbPolyline
90
4
70
1
43
0.0
10
-3.977882443509646
20
3.0795598769250025
10
11.522117556490352
20
3.0795598769249768
10
11.522117556490352
20
-5.4204401230750419
10
-3.9778824435096816
20
-5.4204401230749983
0
LWPOLYLINE
5
146
100
AcDbEntity
8
0
100
AcDbPolyline
90
4
70
1
43
0.0
10
14.022117556490352
20
3.0795598769250025
10
29.52211755649035
20
3.0795598769249768
10
29.52211755649035
20
-5.4204401230750419
10
14.022117556490317
20
-5.4204401230749983
0
LWPOLYLINE
5
147
100
AcDbEntity
8
0
100
AcDbPolyline
90
4
70
1
43
0.0
10
32.02211755649035
20
3.0795598769250025
10
47.52211755649035
20
3.0795598769249768
10
47.52211755649035
20
-5.4204401230750419
10
32.022117556490315
20
-5.4204401230749983
0
LWPOLYLINE
5
148
100
AcDbEntity
8
0
100
AcDbPolyline
90
4
70
1
43
0.0
10
-42.47788244350965
20
-9.9204401230750232
10
-42.47788244350965
20
-18.420440123075043
10
-57.977882443509685
20
-18.420440123075
10
-57.97788244350965
20
-9.9204401230749983
0
LWPOLYLINE
5
149
100
AcDbEntity
8
0
100
AcDbPolyline
90
4
70
1
43
0.0
10
-42.47788244350965
20
-22.920440123075025
10
-42.47788244350965
20
-31.420440123075043
10
-57.977882443509685
20
-31.420440123074997
10
-57.97788244350965
20
-22.920440123074997
0
LWPOLYLINE
5
150
100
AcDbEntity
8
0
100
AcDbPolyline
90
4
70
1
43
0.0
10
-42.47788244350965
20
-35.920440123075025
10
-42.47788244350965
20
-44.420440123075046
10
-57.977882443509685
20
-44.420440123074997
10
-57.97788244350965
20
-35.920440123074997
0
LWPOLYLINE
5
151
100
AcDbEntity
8
0
100
AcDbPolyline
90
4
70
1
43
0.0
10
-42.47788244350965
20
-48.920440123075025
10
-42.47788244350965
20
-57.420440123075039
10
-57.977882443509685
20
-57.420440123074997
10
-57.97788244350965
20
-48.920440123075004
0
LWPOLYLINE
5
152
100
AcDbEntity
8
0
100
AcDbPolyline
90
4
70
1
43
0.0
10
-24.477882443509653
20
-31.420440123075043
10
-39.977882443509685
20
-31.420440123074997
10
-39.97788244350965
20
-22.920440123074997
10
-24.477882443509653
20
-22.920440123075025
0
LWPOLYLINE
5
153
100
AcDbEntity
8
0
100
AcDbPolyline
90
4
70
1
43
0.0
10
-39.977882443509685
20
-44.420440123074997
10
-39.97788244350965
20
-35.920440123074997
10
-24.477882443509653
20
-35.920440123075025
10
-24.477882443509653
20
-44.420440123075046
0
LWPOLYLINE
5
154
100
AcDbEntity
8
0
100
AcDbPolyline
90
4
70
1
43
0.0
10
-39.977882443509685
20
-57.420440123074997
10
-39.97788244350965
20
-48.920440123075004
10
-24.477882443509653
20
-48.920440123075025
10
-24.477882443509653
20
-57.420440123075039
0
LWPOLYLINE
5
155
100
AcDbEntity
8
0
100
AcDbPolyline
90
4
70
1
43
0.0
10
-39.977882443509685
20
-18.420440123075
10
-39.97788244350965
20
-9.9204401230749983
10
-24.477882443509653
20
-9.9204401230750232
10
-24.477882443509653
20
-18.420440123075043
0
LWPOLYLINE
5
156
100
AcDbEntity
8
0
100
AcDbPolyline
90
4
70
1
43
0.0
10
-21.977882443509689
20
-18.420440123075
10
-21.977882443509653
20
-9.9204401230749983
10
-6.4778824435096531
20
-9.9204401230750232
10
-6.4778824435096531
20
-18.420440123075043
0
LWPOLYLINE
5
157
100
AcDbEntity
8
0
100
AcDbPolyline
90
4
70
1
43
0.0
10
-3.977882443509686
20
-18.420440123075
10
-3.9778824435096505
20
-9.9204401230749983
10
11.522117556490347
20
-9.9204401230750232
10
11.522117556490347
20
-18.420440123075043
0
LWPOLYLINE
5
158
100
AcDbEntity
8
0
100
AcDbPolyline
90
4
70
1
43
0.0
10
14.022117556490317
20
-18.420440123075
10
14.022117556490352
20
-9.9204401230749983
10
29.52211755649035
20
-9.9204401230750232
10
29.52211755649035
20
-18.420440123075043
0
LWPOLYLINE
5
159
100
AcDbEntity
8
0
100
AcDbPolyline
90
4
70
1
43
0.0
10
32.022117556490315
20
-18.420440123075
10
32.02211755649035
20
-9.9204401230749983
10
47.52211755649035
20
-9.9204401230750232
10
47.52211755649035
20
-18.420440123075043
0
LWPOLYLINE
5
160
100
AcDbEntity
8
0
100
AcDbPolyline
90
4
70
1
43
0.0
10
59.9300023834219
20
-18.650000470224764
10
50.430002383421893
20
-18.650000470224771
10
50.430002383421936
20
-10.150000470224768
10
59.930002383421936
20
-10.150000470224763
0
LWPOLYLINE
5
161
100
AcDbEntity
8
0
100
AcDbPolyline
90
4
70
1
43
0.0
10
59.930002383421936
20
-5.3974470949719153
10
50.430002383421936
20
-5.3974470949719127
10
50.430002383421893
20
3.1025529050280696
10
59.9300023834219
20
3.1025529050280856
0
ENDSEC
0
SECTION
2
OBJECTS
0
DICTIONARY
5
C
100
AcDbDictionary
3
ACAD_GROUP
350
D
3
ACAD_MLINESTYLE
350
17
0
DICTIONARY
5
D
100
AcDbDictionary
0
DICTIONARY
5
1A
330
C
100
AcDbDictionary
0
DICTIONARY
5
17
100
AcDbDictionary
0
ENDSEC
0
EOF
