0
SECTION
2
HEADER
9
$INSUNITS
70
4
9
$ACADVER
1
AC1014
9
$HANDSEED
5
FFFF
0
ENDSEC
0
SECTION
2
TABLES
0
TABLE
2
VPORT
5
8
100
AcDbSymbolTable
0
ENDTAB
0
TABLE
2
LTYPE
5
5
100
AcDbSymbolTable
0
LTYPE
5
14
100
AcDbSymbolTableRecord
100
AcDbLinetypeTableRecord
2
BYBLOCK
70
0
0
LTYPE
5
15
100
AcDbSymbolTableRecord
100
AcDbLinetypeTableRecord
2
BYLAYER
70
0
0
ENDTAB
0
TABLE
2
LAYER
5
2
100
AcDbSymbolTable
70
2
0
LAYER
5
50
100
AcDbSymbolTableRecord
100
AcDbLayerTableRecord
2
0
70
0
6
CONTINUOUS
0
ENDTAB
0
TABLE
2
STYLE
5
3
100
AcDbSymbolTable
70
1
0
STYLE
5
11
100
AcDbSymbolTableRecord
100
AcDbTextStyleTableRecord
2
STANDARD
70
0
0
ENDTAB
0
TABLE
2
VIEW
5
6
100
AcDbSymbolTable
70
0
0
ENDTAB
0
TABLE
2
UCS
5
7
100
AcDbSymbolTable
70
0
0
ENDTAB
0
TABLE
2
APPID
5
9
100
AcDbSymbolTable
70
2
0
APPID
5
12
100
AcDbSymbolTableRecord
100
AcDbRegAppTableRecord
2
ACAD
70
0
0
ENDTAB
0
TABLE
2
DIMSTYLE
5
A
100
AcDbSymbolTable
70
1
0
ENDTAB
0
TABLE
2
BLOCK_RECORD
5
1
100
AcDbSymbolTable
70
1
0
BLOCK_RECORD
5
1F
100
AcDbSymbolTableRecord
100
AcDbBlockTableRecord
2
*MODEL_SPACE
0
BLOCK_RECORD
5
1B
100
AcDbSymbolTableRecord
100
AcDbBlockTableRecord
2
*PAPER_SPACE
0
ENDTAB
0
ENDSEC
0
SECTION
2
BLOCKS
0
BLOCK
5
20
100
AcDbEntity
100
AcDbBlockBegin
2
*MODEL_SPACE
0
ENDBLK
5
21
100
AcDbEntity
100
AcDbBlockEnd
0
BLOCK
5
1C
100
AcDbEntity
100
AcDbBlockBegin
2
*PAPER_SPACE
0
ENDBLK
5
1D
100
AcDbEntity
100
AcDbBlockEnd
0
ENDSEC
0
SECTION
2
ENTITIES
0
LWPOLYLINE
5
100
100
AcDbEntity
8
0
100
AcDbPolyline
90
8
70
1
43
0.0
10
71.199998379498737
20
113.49999747425318
10
-71.800001620501291
20
113.49999747425318
42
0.41421356237309503
10
-72.800001620501291
20
112.49999747425318
10
-72.800001620501291
20
-110.50000252574679
42
0.41421356237309503
10
-71.800001620501277
20
-111.50000252574682
10
71.199998379498737
20
-111.50000252574682
42
0.41421356237309503
10
72.199998379498723
20
-110.50000252574682
10
72.199998379498723
20
112.49999747425319
42
0.41421356237309503
0
CIRCLE
5
101
100
AcDbEntity
8
0
100
AcDbCircle
10
-66.412100802448165
20
108.88998698756336
30
0
40
1.9999999999999951
210
0
220
0
230
1
0
CIRCLE
5
102
100
AcDbEntity
8
0
100
AcDbCircle
10
-68.27295189969459
20
100.67997313489853
30
0
40
1.9999999999999951
210
0
220
0
230
1
0
CIRCLE
5
103
100
AcDbEntity
8
0
100
AcDbCircle
10
65.857331794983111
20
108.88998698756328
30
0
40
1.9999999999999951
210
0
220
0
230
1
0
CIRCLE
5
104
100
AcDbEntity
8
0
100
AcDbCircle
10
67.729402735012883
20
100.68844247664751
30
0
40
1.9999999999999951
210
0
220
0
230
1
0
CIRCLE
5
105
100
AcDbEntity
8
0
100
AcDbCircle
10
-66.412100802448251
20
4.8041921618323897
30
0
40
1.9999999999999978
210
0
220
0
230
1
0
CIRCLE
5
106
100
AcDbEntity
8
0
100
AcDbCircle
10
-68.270666656841726
20
-7.1830935352420759
30
0
40
1.9999999999999978
210
0
220
0
230
1
0
CIRCLE
5
107
100
AcDbEntity
8
0
100
AcDbCircle
10
-66.412070559869974
20
-83.410740610691676
30
0
40
1.9999999999999978
210
0
220
0
230
1
0
CIRCLE
5
108
100
AcDbEntity
8
0
100
AcDbCircle
10
65.666312253640072
20
-83.411114625795904
30
0
40
1.9999999999999978
210
0
220
0
230
1
0
CIRCLE
5
109
100
AcDbEntity
8
0
100
AcDbCircle
10
65.665780471085
20
4.8088667272119547
30
0
40
1.9999999999999978
210
0
220
0
230
1
0
CIRCLE
5
110
100
AcDbEntity
8
0
100
AcDbCircle
10
-68.270598208882035
20
-98.402548587249598
30
0
40
1.9999999999999978
210
0
220
0
230
1
0
CIRCLE
5
111
100
AcDbEntity
8
0
100
AcDbCircle
10
67.729412462339965
20
-98.357380340790371
30
0
40
1.9999999999999978
210
0
220
0
230
1
0
CIRCLE
5
112
100
AcDbEntity
8
0
100
AcDbCircle
10
67.729318719283924
20
-7.183041944336459
30
0
40
1.9999999999999978
210
0
220
0
230
1
0
LWPOLYLINE
5
113
100
AcDbEntity
8
0
100
AcDbPolyline
90
12
70
1
43
0.0
10
47.37673085449358
20
4.4044000821677525
42
-0.41421356237309503
10
48.376730854493388
20
3.4044000821679421
10
48.376730854493672
20
-19.054180130608337
42
-0.4142135623730534
10
47.37673085449358
20
-20.054180130608291
10
-19.710048538639946
20
-20.054180130608316
42
0.41421356237309503
10
-22.710048538639978
20
-23.054180130608199
10
-22.710048538639885
20
-56.924440505626201
42
-0.41421356237309503
10
-23.710048538639775
20
-57.924440505626087
10
-59.144060403715706
20
-57.924440505626144
42
-0.41421356237309503
10
-60.144060403715649
20
-56.924440505626201
10
-60.144060403715798
20
3.4044000821680545
42
-0.41421356237309503
10
-59.144060403715777
20
4.4044000821680811
0
LWPOLYLINE
5
114
100
AcDbEntity
8
0
100
AcDbPolyline
90
4
70
1
43
0.0
10
-57.170091583454479
20
7.7332149243744475
10
56.629908416545533
20
7.7332149243744475
10
56.629908416545533
20
97.533214924374448
10
-57.170091583454479
20
97.533214924374448
0
LWPOLYLINE
5
115
100
AcDbEntity
8
0
100
AcDbPolyline
90
4
70
1
43
0.0
10
-61.300000908970837
20
84.00000125169754
10
-71.300001057982442
20
84.00000125169754
10
-71.300001057982442
20
19.000000283122063
10
-61.300000908970837
20
19.000000283122063
0
LWPOLYLINE
5
116
100
AcDbEntity
8
0
100
AcDbPolyline
90
4
70
1
43
0.0
10
37.300000558793542
20
110.80000163912773
10
-37.700000558793548
20
110.80000163912773
10
-37.700000558793548
20
103.30000152736902
10
37.300000558793542
20
103.30000152736902
0
LWPOLYLINE
5
117
100
AcDbEntity
8
0
100
AcDbPolyline
90
4
70
1
43
0.0
10
58.001821069764347
20
-22.500000335276127
10
-15.000000223517418
20
-22.500000335276127
10
-15.000000223517418
20
-106.50551644199167
10
58.001821069764347
20
-106.50551644199167
0
LWPOLYLINE
5
118
100
AcDbEntity
8
0
100
AcDbPolyline
90
4
70
1
43
0.0
10
60.499998647719622
20
5.000000074505806
10
50.00000074505806
20
5.000000074505806
10
50.00000074505806
20
-19.499999564141035
10
60.499998647719622
20
-19.499999564141035
0
LWPOLYLINE
5
119
100
AcDbEntity
8
0
100
AcDbPolyline
90
4
70
1
43
0.0
10
63.208297515605061
20
-40.309948227294683
10
63.208297515605096
20
-74.309948227294583
10
68.208297515605011
20
-74.309948227294583
10
68.208297515604983
20
-40.309948227294683
0
LINE
5
120
100
AcDbEntity
8
0
100
AcDbLine
10
-63.7706464593238
20
-40.309948227294569
30
0
11
-68.770646459323657
21
-40.309948227294569
31
0
0
LINE
5
121
100
AcDbEntity
8
0
100
AcDbLine
10
-63.7706464593238
20
-40.309948227294569
30
0
11
-63.770646459323743
21
-74.309948227294399
31
0
0
LINE
5
122
100
AcDbEntity
8
0
100
AcDbLine
10
-68.770646459323657
20
-40.309948227294569
30
0
11
-68.770646459323657
21
-74.309948227294399
31
0
0
LINE
5
123
100
AcDbEntity
8
0
100
AcDbLine
10
-63.7706464593238
20
-74.309948227294399
30
0
11
-63.7706464593238
21
-40.309948227294569
31
0
0
LINE
5
124
100
AcDbEntity
8
0
100
AcDbLine
10
-68.770646459323714
20
-40.309948227294569
30
0
11
-63.7706464593238
21
-40.309948227294569
31
0
0
LINE
5
125
100
AcDbEntity
8
0
100
AcDbLine
10
-63.770646459323743
20
-74.309948227294399
30
0
11
-68.770646459323657
21
-74.309948227294399
31
0
0
LINE
5
126
100
AcDbEntity
8
0
100
AcDbLine
10
-68.770646459323657
20
-74.309948227294399
30
0
11
-63.7706464593238
21
-74.309948227294399
31
0
0
LWPOLYLINE
5
127
100
AcDbEntity
8
0
100
AcDbPolyline
90
4
70
1
43
0.0
10
70.699999091029198
20
19.000000283122063
10
70.699999091029198
20
84.50000125169754
10
60.699998942017579
20
84.50000125169754
10
60.699998942017579
20
19.000000283122063
0
CIRCLE
5
128
100
AcDbEntity
8
0
100
AcDbCircle
10
-39.334992478871349
20
-77.376929820417615
30
0
40
5
210
0
220
0
230
1
0
CIRCLE
5
129
100
AcDbEntity
8
0
100
AcDbCircle
10
-39.334992478871349
20
-101.37692982041759
30
0
40
5
210
0
220
0
230
1
0
CIRCLE
5
130
100
AcDbEntity
8
0
100
AcDbCircle
10
-54.334992478871243
20
-65.376929820417786
30
0
40
5
210
0
220
0
230
1
0
CIRCLE
5
131
100
AcDbEntity
8
0
100
AcDbCircle
10
-54.334992478871257
20
-77.376929820417587
30
0
40
5
210
0
220
0
230
1
0
CIRCLE
5
132
100
AcDbEntity
8
0
100
AcDbCircle
10
-39.334992478871349
20
-89.376929820417743
30
0
40
5
210
0
220
0
230
1
0
CIRCLE
5
133
100
AcDbEntity
8
0
100
AcDbCircle
10
-54.334992478871257
20
-101.37692982041742
30
0
40
5
210
0
220
0
230
1
0
CIRCLE
5
134
100
AcDbEntity
8
0
100
AcDbCircle
10
-24.334992478871534
20
-101.37692982041759
30
0
40
5
210
0
220
0
230
1
0
CIRCLE
5
135
100
AcDbEntity
8
0
100
AcDbCircle
10
-54.334992478871257
20
-89.376929820417558
30
0
40
5
210
0
220
0
230
1
0
CIRCLE
5
136
100
AcDbEntity
8
0
100
AcDbCircle
10
-39.334992478871349
20
-65.376929820417928
30
0
40
5
210
0
220
0
230
1
0
CIRCLE
5
137
100
AcDbEntity
8
0
100
AcDbCircle
10
-24.334992478871534
20
-77.376929820417615
30
0
40
5
210
0
220
0
230
1
0
CIRCLE
5
138
100
AcDbEntity
8
0
100
AcDbCircle
10
-24.334992478871534
20
-89.376929820417743
30
0
40
5
210
0
220
0
230
1
0
CIRCLE
5
139
100
AcDbEntity
8
0
100
AcDbCircle
10
-24.334992478871534
20
-65.376929820417928
30
0
40
5
210
0
220
0
230
1
0
ENDSEC
0
SECTION
2
OBJECTS
0
DICTIONARY
5
C
100
AcDbDictionary
3
ACAD_GROUP
350
D
3
ACAD_MLINESTYLE
350
17
0
DICTIONARY
5
D
100
AcDbDictionary
0
DICTIONARY
5
1A
330
C
100
AcDbDictionary
0
DICTIONARY
5
17
100
AcDbDictionary
0
ENDSEC
0
EOF
