0
SECTION
2
HEADER
9
$INSUNITS
70
4
9
$ACADVER
1
AC1014
9
$HANDSEED
5
FFFF
0
ENDSEC
0
SECTION
2
TABLES
0
TABLE
2
VPORT
5
8
100
AcDbSymbolTable
0
ENDTAB
0
TABLE
2
LTYPE
5
5
100
AcDbSymbolTable
0
LTYPE
5
14
100
AcDbSymbolTableRecord
100
AcDbLinetypeTableRecord
2
BYBLOCK
70
0
0
LTYPE
5
15
100
AcDbSymbolTableRecord
100
AcDbLinetypeTableRecord
2
BYLAYER
70
0
0
ENDTAB
0
TABLE
2
LAYER
5
2
100
AcDbSymbolTable
70
2
0
LAYER
5
50
100
AcDbSymbolTableRecord
100
AcDbLayerTableRecord
2
0
70
0
6
CONTINUOUS
0
ENDTAB
0
TABLE
2
STYLE
5
3
100
AcDbSymbolTable
70
1
0
STYLE
5
11
100
AcDbSymbolTableRecord
100
AcDbTextStyleTableRecord
2
STANDARD
70
0
0
ENDTAB
0
TABLE
2
VIEW
5
6
100
AcDbSymbolTable
70
0
0
ENDTAB
0
TABLE
2
UCS
5
7
100
AcDbSymbolTable
70
0
0
ENDTAB
0
TABLE
2
APPID
5
9
100
AcDbSymbolTable
70
2
0
APPID
5
12
100
AcDbSymbolTableRecord
100
AcDbRegAppTableRecord
2
ACAD
70
0
0
ENDTAB
0
TABLE
2
DIMSTYLE
5
A
100
AcDbSymbolTable
70
1
0
ENDTAB
0
TABLE
2
BLOCK_RECORD
5
1
100
AcDbSymbolTable
70
1
0
BLOCK_RECORD
5
1F
100
AcDbSymbolTableRecord
100
AcDbBlockTableRecord
2
*MODEL_SPACE
0
BLOCK_RECORD
5
1B
100
AcDbSymbolTableRecord
100
AcDbBlockTableRecord
2
*PAPER_SPACE
0
ENDTAB
0
ENDSEC
0
SECTION
2
BLOCKS
0
BLOCK
5
20
100
AcDbEntity
100
AcDbBlockBegin
2
*MODEL_SPACE
0
ENDBLK
5
21
100
AcDbEntity
100
AcDbBlockEnd
0
BLOCK
5
1C
100
AcDbEntity
100
AcDbBlockBegin
2
*PAPER_SPACE
0
ENDBLK
5
1D
100
AcDbEntity
100
AcDbBlockEnd
0
ENDSEC
0
SECTION
2
ENTITIES
0
LWPOLYLINE
5
100
100
AcDbEntity
8
0
100
AcDbPolyline
90
4
70
1
43
0.0
10
27.233344122942626
20
-105.85546422091724
10
27.233344122942626
20
-94.855464220917469
10
16.233344122942754
20
-94.855464220917469
10
16.233344122942754
20
-105.85546422091724
0
LWPOLYLINE
5
101
100
AcDbEntity
8
0
100
AcDbPolyline
90
4
70
1
43
0.0
10
31.233344122942555
20
-35.855464220917781
10
42.233344122942633
20
-35.855464220917781
10
42.233344122942633
20
-24.85546422091787
10
31.233344122942555
20
-24.85546422091787
0
LWPOLYLINE
5
102
100
AcDbEntity
8
0
100
AcDbPolyline
90
4
70
1
43
0.0
10
46.233344122942547
20
-38.855464220917888
10
46.233344122942619
20
-49.855464220917781
10
57.23334412294254
20
-49.855464220917781
10
57.233344122942469
20
-38.855464220917888
0
LWPOLYLINE
5
103
100
AcDbEntity
8
0
100
AcDbPolyline
90
12
70
1
43
0.0
10
-59.144060403715706
20
-58.924440505626137
42
-0.41421356237309503
10
-61.144060403715642
20
-56.924440505626201
10
-61.144060403715805
20
3.4044000821680545
42
-0.41421356237309503
10
-59.144060403715777
20
5.4044000821680802
10
47.37673085449358
20
5.4044000821677489
42
-0.41421356237309503
10
49.376730854493388
20
3.4044000821679421
10
49.376730854493672
20
-19.054180130608479
42
-0.4142135623730534
10
47.37673085449358
20
-21.054180130608291
10
-19.710048538639946
20
-21.054180130608316
42
0.41421356237309503
10
-21.710048538639978
20
-23.054180130608199
10
-21.710048538639889
20
-56.924440505626201
42
-0.41421356237309503
10
-23.710048538639775
20
-58.924440505626087
0
LWPOLYLINE
5
104
100
AcDbEntity
8
0
100
AcDbPolyline
90
41
70
1
43
0.0
10
64.229353540675291
20
-36.683096916319585
10
68.229353540675135
20
-36.683096916319592
42
-0.40817128523685053
10
70.229353540675248
20
-38.64217128840022
10
70.229353540675035
20
-90.849997969344258
42
-0.41530122940411418
10
68.229353540675163
20
-92.857435981165281
10
67.729353540675262
20
-92.857435981165139
42
0.41421356237309503
10
62.229353540675305
20
-98.357435981165253
10
62.229353540675312
20
-106.55229962667227
42
-0.41421356237310025
10
61.229353540675298
20
-107.55229962667227
10
-61.7706464593238
20
-107.55229962667227
42
-0.41421356237309503
10
-62.7706464593238
20
-106.55229962667227
10
-62.7706464593238
20
-98.402552486963515
42
0.41421356237309503
10
-68.270646459323686
20
-92.902552486963572
10
-68.770646459323729
20
-92.902552486963572
42
-0.41429538994553244
10
-70.770646459323714
20
-90.901993671452374
10
-70.770646459323771
20
-38.687267017652218
42
-0.41421356237309631
10
-68.770646459323743
20
-36.687267017652196
10
-68.770646459323714
20
-36.683096916319613
10
-64.770646459323743
20
-36.683096916319613
42
0.41421356237309503
10
-62.770646459323856
20
-34.683096916319592
10
-62.770646459323856
20
-7.1830969163197347
42
0.41421356237309503
10
-68.270646459323743
20
-1.68309691631978
10
-70.770646459323757
20
-1.6830969163197818
42
-0.41421356237309764
10
-71.770646459323757
20
-0.68309691631977643
10
-71.770646459323672
20
95.182190410227179
10
-68.270646459323657
20
95.182190410227179
42
0.99999999999999989
10
-68.270646459323657
20
106.18219041022709
10
-71.770646459323672
20
106.18219041022724
10
-71.770646459323657
20
110.26128317234983
42
-0.41421356237308982
10
-70.770646459323686
20
111.26128317234983
10
70.22935354067522
20
111.26128317234975
42
-0.41421356237309503
10
71.229353540675206
20
110.26128317234976
10
71.229353540675206
20
106.18858732832638
10
67.729353540675191
20
106.18858732832638
42
0.99999999999999989
10
67.729353540675191
20
95.188587328326335
10
71.229353540675206
20
95.188587328326335
10
71.229353540675248
20
-0.68309691631975078
42
-0.41421356237309687
10
70.229353540675248
20
-1.6830969163197509
10
67.729353540675234
20
-1.6830969163197507
42
0.41421356237309503
10
62.22935354067527
20
-7.1830969163198466
10
62.22935354067527
20
-34.683096916319698
42
0.41421356237309503
0
LWPOLYLINE
5
105
100
AcDbEntity
8
0
100
AcDbPolyline
90
4
70
1
43
0.0
10
46.233344122942583
20
-94.855464220917469
10
46.233344122942583
20
-105.85546422091724
10
57.233344122942505
20
-105.85546422091724
10
57.233344122942505
20
-94.855464220917469
0
LWPOLYLINE
5
106
100
AcDbEntity
8
0
100
AcDbPolyline
90
4
70
1
43
0.0
10
46.233344122942547
20
-24.85546422091787
10
46.233344122942547
20
-35.855464220917781
10
57.233344122942469
20
-35.855464220917781
10
57.233344122942469
20
-24.85546422091787
0
LWPOLYLINE
5
107
100
AcDbEntity
8
0
100
AcDbPolyline
90
4
70
1
43
0.0
10
57.23334412294254
20
-63.855464220917639
10
57.23334412294254
20
-52.85546422091759
10
46.233344122942619
20
-52.85546422091759
10
46.233344122942619
20
-63.855464220917639
0
LWPOLYLINE
5
108
100
AcDbEntity
8
0
100
AcDbPolyline
90
4
70
1
43
0.0
10
12.233344122942707
20
-94.855464220917469
10
1.2333441229428672
20
-94.855464220917469
10
1.2333441229428654
20
-105.85546422091724
10
12.233344122942707
20
-105.85546422091724
0
LWPOLYLINE
5
109
100
AcDbEntity
8
0
100
AcDbPolyline
90
4
70
1
43
0.0
10
-13.766655877057028
20
-105.85546422091724
10
-2.766655877057044
20
-105.85546422091724
10
-2.7666558770570426
20
-94.855464220917469
10
-13.766655877057026
20
-94.855464220917469
0
CIRCLE
5
110
100
AcDbEntity
8
0
100
AcDbCircle
10
-39.334992478871349
20
-101.37692982041759
30
0
40
4.6500000000000004
210
0
220
0
230
1
0
LWPOLYLINE
5
111
100
AcDbEntity
8
0
100
AcDbPolyline
90
4
70
1
43
0.0
10
42.233344122942633
20
-38.855464220917888
10
31.233344122942555
20
-38.855464220917888
10
31.233344122942626
20
-49.855464220917781
10
42.233344122942704
20
-49.855464220917781
0
LWPOLYLINE
5
112
100
AcDbEntity
8
0
100
AcDbPolyline
90
4
70
1
43
0.0
10
27.233344122942636
20
-63.855464220917639
10
27.233344122942636
20
-52.85546422091759
10
16.233344122942761
20
-52.855464220917625
10
16.233344122942761
20
-63.855464220917675
0
CIRCLE
5
113
100
AcDbEntity
8
0
100
AcDbCircle
10
-24.334992478871534
20
-101.37692982041759
30
0
40
4.6500000000000004
210
0
220
0
230
1
0
LWPOLYLINE
5
114
100
AcDbEntity
8
0
100
AcDbPolyline
90
4
70
1
43
0.0
10
61.259872984118253
20
20.246177777021103
10
70.05987298411813
20
20.246177777021103
10
70.05987298411813
20
26.246177777021028
10
61.259872984118253
20
26.246177777021028
0
LWPOLYLINE
5
115
100
AcDbEntity
8
0
100
AcDbPolyline
90
4
70
1
43
0.0
10
-2.7666558770570426
20
-63.855464220917675
10
-2.7666558770570426
20
-52.855464220917625
10
-13.766655877057023
20
-52.855464220917618
10
-13.766655877057026
20
-63.855464220917668
0
CIRCLE
5
116
100
AcDbEntity
8
0
100
AcDbCircle
10
65.665714591425612
20
4.8088370960984728
30
0
40
2.0000000000000022
210
0
220
0
230
1
0
LWPOLYLINE
5
117
100
AcDbEntity
8
0
100
AcDbPolyline
90
4
70
1
43
0.0
10
16.23334412294269
20
-38.855464220917639
10
16.233344122942761
20
-49.85546422091781
10
27.233344122942636
20
-49.855464220917781
10
27.233344122942707
20
-38.855464220917604
0
LWPOLYLINE
5
118
100
AcDbEntity
8
0
100
AcDbPolyline
90
4
70
1
43
0.0
10
-2.7666558770571115
20
-38.855464220917639
10
-13.766655877057094
20
-38.855464220917639
10
-13.766655877057023
20
-49.855464220917803
10
-2.7666558770570422
20
-49.85546422091781
0
LWPOLYLINE
5
119
100
AcDbEntity
8
0
100
AcDbPolyline
90
4
70
1
43
0.0
10
1.2333441229428677
20
-77.855464220917383
10
12.233344122942707
20
-77.855464220917383
10
12.233344122942707
20
-66.855464220917597
10
1.2333441229428672
20
-66.855464220917597
0
LWPOLYLINE
5
120
100
AcDbEntity
8
0
100
AcDbPolyline
90
4
70
1
43
0.0
10
57.233344122942505
20
-66.855464220917597
10
46.233344122942583
20
-66.855464220917597
10
46.233344122942583
20
-77.855464220917383
10
57.233344122942505
20
-77.855464220917383
0
LWPOLYLINE
5
121
100
AcDbEntity
8
0
100
AcDbPolyline
90
4
70
1
43
0.0
10
31.23334412294259
20
-66.855464220917597
10
31.23334412294259
20
-77.855464220917383
10
42.233344122942668
20
-77.855464220917383
10
42.233344122942668
20
-66.855464220917597
0
LWPOLYLINE
5
122
100
AcDbEntity
8
0
100
AcDbPolyline
90
4
70
1
43
0.0
10
12.233344122942707
20
-49.85546422091781
10
12.23334412294278
20
-38.855464220917639
10
1.2333441229427973
20
-38.855464220917639
10
1.2333441229428677
20
-49.85546422091781
0
LINE
5
123
100
AcDbEntity
8
0
100
AcDbLine
10
-63.770646459323743
20
-74.309948227294399
30
0
11
-68.770646459323657
21
-74.309948227294399
31
0
0
LWPOLYLINE
5
124
100
AcDbEntity
8
0
100
AcDbPolyline
90
4
70
1
43
0.0
10
5.6577407074351802
20
109.42857718685158
10
-6.3422592925648145
20
109.42857718685158
10
-6.3422592925648145
20
104.42857718685158
10
5.6577407074351802
20
104.42857718685158
0
LWPOLYLINE
5
125
100
AcDbEntity
8
0
100
AcDbPolyline
90
4
70
1
43
0.0
10
70.05987298411813
20
31.646177777020931
10
70.05987298411813
20
37.646177777020789
10
61.259872984118253
20
37.646177777020789
10
61.259872984118253
20
31.646177777020931
0
LWPOLYLINE
5
126
100
AcDbEntity
8
0
100
AcDbPolyline
90
4
70
1
43
0.0
10
-2.7666558770570431
20
-91.855464220917355
10
-2.7666558770570426
20
-80.855464220917455
10
-13.766655877057026
20
-80.855464220917455
10
-13.766655877057026
20
-91.855464220917355
0
LWPOLYLINE
5
127
100
AcDbEntity
8
0
100
AcDbPolyline
90
4
70
1
43
0.0
10
-2.7666558770571124
20
-35.855464220917817
10
-2.7666558770571115
20
-24.855464220917906
10
-13.766655877057094
20
-24.855464220917902
10
-13.766655877057094
20
-35.855464220917817
0
LWPOLYLINE
5
128
100
AcDbEntity
8
0
100
AcDbPolyline
90
4
70
1
43
0.0
10
12.233344122942707
20
-80.855464220917455
10
1.2333441229428672
20
-80.855464220917455
10
1.2333441229428677
20
-91.855464220917355
10
12.233344122942707
20
-91.855464220917355
0
LWPOLYLINE
5
129
100
AcDbEntity
8
0
100
AcDbPolyline
90
4
70
1
43
0.0
10
1.2333441229428677
20
-63.855464220917675
10
12.233344122942707
20
-63.855464220917675
10
12.233344122942707
20
-52.855464220917625
10
1.2333441229428683
20
-52.855464220917625
0
LWPOLYLINE
5
130
100
AcDbEntity
8
0
100
AcDbPolyline
90
4
70
1
43
0.0
10
16.233344122942761
20
-77.855464220917383
10
27.233344122942636
20
-77.855464220917383
10
27.233344122942636
20
-66.855464220917597
10
16.233344122942761
20
-66.855464220917597
0
LWPOLYLINE
5
131
100
AcDbEntity
8
0
100
AcDbPolyline
90
4
70
1
43
0.0
10
27.233344122942707
20
-24.85546422091787
10
16.23334412294269
20
-24.855464220917906
10
16.23334412294269
20
-35.855464220917817
10
27.233344122942707
20
-35.855464220917781
0
LWPOLYLINE
5
132
100
AcDbEntity
8
0
100
AcDbPolyline
90
4
70
1
43
0.0
10
46.233344122942583
20
-80.855464220917455
10
46.233344122942583
20
-91.855464220917355
10
57.233344122942505
20
-91.855464220917355
10
57.233344122942505
20
-80.855464220917455
0
CIRCLE
5
133
100
AcDbEntity
8
0
100
AcDbCircle
10
-54.334992478871257
20
-89.376929820417558
30
0
40
4.6500000000000004
210
0
220
0
230
1
0
LWPOLYLINE
5
134
100
AcDbEntity
8
0
100
AcDbPolyline
90
4
70
1
43
0.0
10
42.233344122942668
20
-91.855464220917355
10
42.233344122942668
20
-80.855464220917455
10
31.23334412294259
20
-80.855464220917455
10
31.23334412294259
20
-91.855464220917355
0
CIRCLE
5
135
100
AcDbEntity
8
0
100
AcDbCircle
10
-39.334992478871349
20
-89.376929820417743
30
0
40
4.6500000000000004
210
0
220
0
230
1
0
LWPOLYLINE
5
136
100
AcDbEntity
8
0
100
AcDbPolyline
90
4
70
1
43
0.0
10
-2.7666558770570426
20
-77.855464220917383
10
-2.7666558770570426
20
-66.855464220917597
10
-13.766655877057026
20
-66.855464220917597
10
-13.766655877057026
20
-77.855464220917383
0
LWPOLYLINE
5
137
100
AcDbEntity
8
0
100
AcDbPolyline
90
4
70
1
43
0.0
10
12.23334412294278
20
-24.855464220917906
10
1.2333441229427973
20
-24.855464220917906
10
1.2333441229427966
20
-35.855464220917817
10
12.23334412294278
20
-35.855464220917817
0
CIRCLE
5
138
100
AcDbEntity
8
0
100
AcDbCircle
10
-66.412100802448194
20
-83.41075206678191
30
0
40
2.0000000000000022
210
0
220
0
230
1
0
CIRCLE
5
139
100
AcDbEntity
8
0
100
AcDbCircle
10
-54.334992478871257
20
-77.376929820417587
30
0
40
4.6500000000000004
210
0
220
0
230
1
0
LWPOLYLINE
5
140
100
AcDbEntity
8
0
100
AcDbPolyline
90
4
70
1
43
0.0
10
61.259872984118253
20
49.046177777020873
10
61.259872984118253
20
43.046177777020944
10
70.05987298411813
20
43.046177777020944
10
70.05987298411813
20
49.046177777020873
0
LWPOLYLINE
5
141
100
AcDbEntity
8
0
100
AcDbPolyline
90
4
70
1
43
0.0
10
-61.940127015880869
20
49.046177777020844
10
-70.740127015880802
20
49.046177777020844
10
-70.740127015880802
20
43.046177777020922
10
-61.940127015880869
20
43.046177777020922
0
LWPOLYLINE
5
142
100
AcDbEntity
8
0
100
AcDbPolyline
90
4
70
1
43
0.0
10
-61.940127015880869
20
37.646177777020903
10
-70.740127015880802
20
37.646177777020903
10
-70.740127015880802
20
31.646177777021048
10
-61.940127015880869
20
31.646177777021048
0
LWPOLYLINE
5
143
100
AcDbEntity
8
0
100
AcDbPolyline
90
4
70
1
43
0.0
10
-61.940127015880869
20
65.846177777020799
10
-61.940127015880869
20
71.846177777020671
10
-70.740127015880802
20
71.846177777020671
10
-70.740127015880802
20
65.846177777020799
0
LWPOLYLINE
5
144
100
AcDbEntity
8
0
100
AcDbPolyline
90
4
70
1
43
0.0
10
-61.940127015880869
20
83.246177777020591
10
-70.740127015880802
20
83.246177777020591
10
-70.740127015880802
20
77.246177777020662
10
-61.940127015880869
20
77.246177777020662
0
LWPOLYLINE
5
145
100
AcDbEntity
8
0
100
AcDbPolyline
90
4
70
1
43
0.0
10
-61.940127015880869
20
54.446177777020893
10
-61.940127015880869
20
60.446177777020736
10
-70.740127015880802
20
60.446177777020736
10
-70.740127015880802
20
54.446177777020893
0
LWPOLYLINE
5
146
100
AcDbEntity
8
0
100
AcDbPolyline
90
4
70
1
43
0.0
10
-24.282259292564653
20
109.42857718685158
10
-36.282259292564525
20
109.42857718685158
10
-36.282259292564525
20
104.42857718685158
10
-24.282259292564653
20
104.42857718685158
0
LWPOLYLINE
5
147
100
AcDbEntity
8
0
100
AcDbPolyline
90
4
70
1
43
0.0
10
31.233344122942626
20
-52.85546422091759
10
31.233344122942626
20
-63.855464220917639
10
42.233344122942704
20
-63.855464220917639
10
42.233344122942704
20
-52.85546422091759
0
LWPOLYLINE
5
148
100
AcDbEntity
8
0
100
AcDbPolyline
90
4
70
1
43
0.0
10
68.208297515604983
20
-40.309948227294683
10
63.208297515605061
20
-40.309948227294683
10
63.208297515605096
20
-74.309948227294583
10
68.208297515605011
20
-74.309948227294583
0
LINE
5
149
100
AcDbEntity
8
0
100
AcDbLine
10
-63.7706464593238
20
-40.309948227294569
30
0
11
-63.770646459323743
21
-74.309948227294399
31
0
0
LWPOLYLINE
5
150
100
AcDbEntity
8
0
100
AcDbPolyline
90
4
70
1
43
0.0
10
31.23334412294259
20
-105.85546422091724
10
42.233344122942668
20
-105.85546422091724
10
42.233344122942668
20
-94.855464220917469
10
31.23334412294259
20
-94.855464220917469
0
CIRCLE
5
151
100
AcDbEntity
8
0
100
AcDbCircle
10
-54.334992478871257
20
-101.37692982041742
30
0
40
4.6500000000000004
210
0
220
0
230
1
0
LWPOLYLINE
5
152
100
AcDbEntity
8
0
100
AcDbPolyline
90
4
70
1
43
0.0
10
70.05987298411813
20
60.446177777020758
10
61.259872984118253
20
60.446177777020758
10
61.259872984118253
20
54.446177777020914
10
70.05987298411813
20
54.446177777020914
0
LWPOLYLINE
5
153
100
AcDbEntity
8
0
100
AcDbPolyline
90
4
70
1
43
0.0
10
-21.312259292564711
20
109.42857718685158
10
-21.312259292564711
20
104.42857718685158
10
-9.3122592925647094
20
104.42857718685158
10
-9.3122592925647076
20
109.42857718685158
0
CIRCLE
5
154
100
AcDbEntity
8
0
100
AcDbCircle
10
65.857331794983111
20
108.88998698756328
30
0
40
1.9999999999999951
210
0
220
0
230
1
0
LWPOLYLINE
5
155
100
AcDbEntity
8
0
100
AcDbPolyline
90
4
70
1
43
0.0
10
8.6277407074351462
20
109.42857718685158
10
8.6277407074351444
20
104.42857718685158
10
20.627740707435073
20
104.42857718685158
10
20.627740707435073
20
109.42857718685158
0
LWPOLYLINE
5
156
100
AcDbEntity
8
0
100
AcDbPolyline
90
4
70
1
43
0.0
10
23.597740707435037
20
109.42857718685158
10
23.597740707435037
20
104.42857718685158
10
35.597740707434852
20
104.4285771868515
10
35.597740707434852
20
109.4285771868515
0
CIRCLE
5
157
100
AcDbEntity
8
0
100
AcDbCircle
10
65.66571459142564
20
-83.410752066782052
30
0
40
2.0000000000000022
210
0
220
0
230
1
0
LWPOLYLINE
5
158
100
AcDbEntity
8
0
100
AcDbPolyline
90
4
70
1
43
0.0
10
61.259872984118253
20
71.846177777020699
10
61.259872984118253
20
65.846177777020813
10
70.05987298411813
20
65.846177777020813
10
70.05987298411813
20
71.846177777020699
0
CIRCLE
5
159
100
AcDbEntity
8
0
100
AcDbCircle
10
-54.334992478871243
20
-65.376929820417786
30
0
40
4.6500000000000004
210
0
220
0
230
1
0
LWPOLYLINE
5
160
100
AcDbEntity
8
0
100
AcDbPolyline
90
4
70
1
43
0.0
10
27.233344122942626
20
-80.855464220917455
10
16.233344122942754
20
-80.855464220917455
10
16.233344122942754
20
-91.855464220917355
10
27.233344122942626
20
-91.855464220917355
0
CIRCLE
5
161
100
AcDbEntity
8
0
100
AcDbCircle
10
-39.334992478871349
20
-77.376929820417615
30
0
40
4.6500000000000004
210
0
220
0
230
1
0
CIRCLE
5
162
100
AcDbEntity
8
0
100
AcDbCircle
10
-66.412100802448165
20
108.88998698756336
30
0
40
1.9999999999999951
210
0
220
0
230
1
0
LWPOLYLINE
5
163
100
AcDbEntity
8
0
100
AcDbPolyline
90
4
70
1
43
0.0
10
70.05987298411813
20
77.246177777020677
10
70.05987298411813
20
83.24617777702062
10
61.259872984118253
20
83.24617777702062
10
61.259872984118253
20
77.246177777020677
0
LWPOLYLINE
5
164
100
AcDbEntity
8
0
100
AcDbPolyline
90
4
70
1
43
0.0
10
-61.940127015880869
20
26.246177777021003
10
-70.740127015880802
20
26.246177777021003
10
-70.740127015880802
20
20.246177777021078
10
-61.940127015880869
20
20.246177777021078
0
CIRCLE
5
165
100
AcDbEntity
8
0
100
AcDbCircle
10
-24.334992478871534
20
-89.376929820417743
30
0
40
4.6500000000000004
210
0
220
0
230
1
0
CIRCLE
5
166
100
AcDbEntity
8
0
100
AcDbCircle
10
-24.334992478871534
20
-65.376929820417928
30
0
40
4.6500000000000004
210
0
220
0
230
1
0
LINE
5
167
100
AcDbEntity
8
0
100
AcDbLine
10
-68.770646459323714
20
-40.309948227294569
30
0
11
-63.7706464593238
21
-40.309948227294569
31
0
0
CIRCLE
5
168
100
AcDbEntity
8
0
100
AcDbCircle
10
-39.334992478871349
20
-65.376929820417928
30
0
40
4.6500000000000004
210
0
220
0
230
1
0
CIRCLE
5
169
100
AcDbEntity
8
0
100
AcDbCircle
10
-24.334992478871534
20
-77.376929820417615
30
0
40
4.6500000000000004
210
0
220
0
230
1
0
CIRCLE
5
170
100
AcDbEntity
8
0
100
AcDbCircle
10
-66.412100802448251
20
4.8041921618323897
30
0
40
1.9999999999999978
210
0
220
0
230
1
0
LWPOLYLINE
5
171
100
AcDbEntity
8
0
100
AcDbPolyline
90
4
70
1
43
0.0
10
51.629908416545533
20
92.533214924374448
10
-52.170091583454479
20
92.533214924374448
10
-52.170091583454479
20
12.733214924374447
10
51.629908416545533
20
12.733214924374447
0
LWPOLYLINE
5
172
100
AcDbEntity
8
0
100
AcDbPolyline
90
4
70
1
43
0.0
10
60.1800023834219
20
-18.900000470224498
10
50.180002383422071
20
-18.900000470224505
10
50.180002383422107
20
-9.9000004702247679
10
60.180002383421936
20
-9.9000004702247626
0
LWPOLYLINE
5
173
100
AcDbEntity
8
0
100
AcDbPolyline
90
4
70
1
43
0.0
10
50.180002383422071
20
3.35255290502807
10
60.1800023834219
20
3.3525529050280856
10
60.180002383421936
20
-5.647447094971688
10
50.180002383422107
20
-5.6474470949716853
0
LINE
5
174
100
AcDbEntity
8
0
100
AcDbLine
10
-63.7706464593238
20
-40.309948227294569
30
0
11
-68.770646459323657
21
-40.309948227294569
31
0
0
LINE
5
175
100
AcDbEntity
8
0
100
AcDbLine
10
-68.770646459323657
20
-40.309948227294569
30
0
11
-68.770646459323657
21
-74.309948227294399
31
0
0
LINE
5
176
100
AcDbEntity
8
0
100
AcDbLine
10
-68.770646459323657
20
-74.309948227294399
30
0
11
-63.7706464593238
21
-74.309948227294399
31
0
0
LINE
5
177
100
AcDbEntity
8
0
100
AcDbLine
10
-63.7706464593238
20
-74.309948227294399
30
0
11
-63.7706464593238
21
-40.309948227294569
31
0
0
ENDSEC
0
SECTION
2
OBJECTS
0
DICTIONARY
5
C
100
AcDbDictionary
3
ACAD_GROUP
350
D
3
ACAD_MLINESTYLE
350
17
0
DICTIONARY
5
D
100
AcDbDictionary
0
DICTIONARY
5
1A
330
C
100
AcDbDictionary
0
DICTIONARY
5
17
100
AcDbDictionary
0
ENDSEC
0
EOF
