0
SECTION
2
HEADER
9
$INSUNITS
70
4
9
$ACADVER
1
AC1014
9
$HANDSEED
5
FFFF
0
ENDSEC
0
SECTION
2
TABLES
0
TABLE
2
VPORT
5
8
100
AcDbSymbolTable
0
ENDTAB
0
TABLE
2
LTYPE
5
5
100
AcDbSymbolTable
0
LTYPE
5
14
100
AcDbSymbolTableRecord
100
AcDbLinetypeTableRecord
2
BYBLOCK
70
0
0
LTYPE
5
15
100
AcDbSymbolTableRecord
100
AcDbLinetypeTableRecord
2
BYLAYER
70
0
0
ENDTAB
0
TABLE
2
LAYER
5
2
100
AcDbSymbolTable
70
2
0
LAYER
5
50
100
AcDbSymbolTableRecord
100
AcDbLayerTableRecord
2
0
70
0
6
CONTINUOUS
0
ENDTAB
0
TABLE
2
STYLE
5
3
100
AcDbSymbolTable
70
1
0
STYLE
5
11
100
AcDbSymbolTableRecord
100
AcDbTextStyleTableRecord
2
STANDARD
70
0
0
ENDTAB
0
TABLE
2
VIEW
5
6
100
AcDbSymbolTable
70
0
0
ENDTAB
0
TABLE
2
UCS
5
7
100
AcDbSymbolTable
70
0
0
ENDTAB
0
TABLE
2
APPID
5
9
100
AcDbSymbolTable
70
2
0
APPID
5
12
100
AcDbSymbolTableRecord
100
AcDbRegAppTableRecord
2
ACAD
70
0
0
ENDTAB
0
TABLE
2
DIMSTYLE
5
A
100
AcDbSymbolTable
70
1
0
ENDTAB
0
TABLE
2
BLOCK_RECORD
5
1
100
AcDbSymbolTable
70
1
0
BLOCK_RECORD
5
1F
100
AcDbSymbolTableRecord
100
AcDbBlockTableRecord
2
*MODEL_SPACE
0
BLOCK_RECORD
5
1B
100
AcDbSymbolTableRecord
100
AcDbBlockTableRecord
2
*PAPER_SPACE
0
ENDTAB
0
ENDSEC
0
SECTION
2
BLOCKS
0
BLOCK
5
20
100
AcDbEntity
100
AcDbBlockBegin
2
*MODEL_SPACE
0
ENDBLK
5
21
100
AcDbEntity
100
AcDbBlockEnd
0
BLOCK
5
1C
100
AcDbEntity
100
AcDbBlockBegin
2
*PAPER_SPACE
0
ENDBLK
5
1D
100
AcDbEntity
100
AcDbBlockEnd
0
ENDSEC
0
SECTION
2
ENTITIES
0
LWPOLYLINE
5
100
100
AcDbEntity
8
0
100
AcDbPolyline
90
8
70
1
43
0.0
10
71.199998379498737
20
113.49999747425318
10
-71.800001620501291
20
113.49999747425318
42
0.41421356237309503
10
-72.800001620501291
20
112.49999747425318
10
-72.800001620501291
20
-110.50000252574679
42
0.41421356237309503
10
-71.800001620501277
20
-111.50000252574682
10
71.199998379498737
20
-111.50000252574682
42
0.41421356237309503
10
72.199998379498723
20
-110.50000252574682
10
72.199998379498723
20
112.49999747425319
42
0.41421356237309503
0
CIRCLE
5
101
100
AcDbEntity
8
0
100
AcDbCircle
10
-66.412100802448165
20
108.88998698756336
30
0
40
1.9999999999999951
210
0
220
0
230
1
0
CIRCLE
5
102
100
AcDbEntity
8
0
100
AcDbCircle
10
-68.27295189969459
20
100.67997313489853
30
0
40
1.9999999999999951
210
0
220
0
230
1
0
CIRCLE
5
103
100
AcDbEntity
8
0
100
AcDbCircle
10
65.857331794983111
20
108.88998698756328
30
0
40
1.9999999999999951
210
0
220
0
230
1
0
CIRCLE
5
104
100
AcDbEntity
8
0
100
AcDbCircle
10
67.729402735012883
20
100.68844247664751
30
0
40
1.9999999999999951
210
0
220
0
230
1
0
CIRCLE
5
105
100
AcDbEntity
8
0
100
AcDbCircle
10
-66.412100802448251
20
4.8041921618323897
30
0
40
1.9999999999999978
210
0
220
0
230
1
0
CIRCLE
5
106
100
AcDbEntity
8
0
100
AcDbCircle
10
-68.270666656841726
20
-7.1830935352420759
30
0
40
1.9999999999999978
210
0
220
0
230
1
0
CIRCLE
5
107
100
AcDbEntity
8
0
100
AcDbCircle
10
-66.412070559869974
20
-83.410740610691676
30
0
40
1.9999999999999978
210
0
220
0
230
1
0
CIRCLE
5
108
100
AcDbEntity
8
0
100
AcDbCircle
10
65.666312253640072
20
-83.411114625795904
30
0
40
1.9999999999999978
210
0
220
0
230
1
0
CIRCLE
5
109
100
AcDbEntity
8
0
100
AcDbCircle
10
65.665780471085
20
4.8088667272119547
30
0
40
1.9999999999999978
210
0
220
0
230
1
0
CIRCLE
5
110
100
AcDbEntity
8
0
100
AcDbCircle
10
-68.270598208882035
20
-98.402548587249598
30
0
40
1.9999999999999978
210
0
220
0
230
1
0
CIRCLE
5
111
100
AcDbEntity
8
0
100
AcDbCircle
10
67.729412462339965
20
-98.357380340790371
30
0
40
1.9999999999999978
210
0
220
0
230
1
0
CIRCLE
5
112
100
AcDbEntity
8
0
100
AcDbCircle
10
67.729318719283924
20
-7.183041944336459
30
0
40
1.9999999999999978
210
0
220
0
230
1
0
LWPOLYLINE
5
113
100
AcDbEntity
8
0
100
AcDbPolyline
90
4
70
1
43
0.0
10
-57.170091583454479
20
7.7332149243744475
10
56.629908416545533
20
7.7332149243744475
10
56.629908416545533
20
97.533214924374448
10
-57.170091583454479
20
97.533214924374448
0
LWPOLYLINE
5
114
100
AcDbEntity
8
0
100
AcDbPolyline
90
4
70
1
43
0.0
10
-61.300000908970837
20
84.00000125169754
10
-71.300001057982442
20
84.00000125169754
10
-71.300001057982442
20
19.000000283122063
10
-61.300000908970837
20
19.000000283122063
0
LWPOLYLINE
5
115
100
AcDbEntity
8
0
100
AcDbPolyline
90
4
70
1
43
0.0
10
37.300000558793542
20
110.80000163912773
10
-37.700000558793548
20
110.80000163912773
10
-37.700000558793548
20
103.30000152736902
10
37.300000558793542
20
103.30000152736902
0
LWPOLYLINE
5
116
100
AcDbEntity
8
0
100
AcDbPolyline
90
4
70
1
43
0.0
10
63.208297515605061
20
-40.309948227294683
10
63.208297515605096
20
-74.309948227294583
10
68.208297515605011
20
-74.309948227294583
10
68.208297515604983
20
-40.309948227294683
0
LINE
5
117
100
AcDbEntity
8
0
100
AcDbLine
10
-63.7706464593238
20
-40.309948227294569
30
0
11
-68.770646459323657
21
-40.309948227294569
31
0
0
LINE
5
118
100
AcDbEntity
8
0
100
AcDbLine
10
-63.7706464593238
20
-40.309948227294569
30
0
11
-63.770646459323743
21
-74.309948227294399
31
0
0
LINE
5
119
100
AcDbEntity
8
0
100
AcDbLine
10
-68.770646459323657
20
-40.309948227294569
30
0
11
-68.770646459323657
21
-74.309948227294399
31
0
0
LINE
5
120
100
AcDbEntity
8
0
100
AcDbLine
10
-63.7706464593238
20
-74.309948227294399
30
0
11
-63.7706464593238
21
-40.309948227294569
31
0
0
LINE
5
121
100
AcDbEntity
8
0
100
AcDbLine
10
-68.770646459323714
20
-40.309948227294569
30
0
11
-63.7706464593238
21
-40.309948227294569
31
0
0
LINE
5
122
100
AcDbEntity
8
0
100
AcDbLine
10
-63.770646459323743
20
-74.309948227294399
30
0
11
-68.770646459323657
21
-74.309948227294399
31
0
0
LINE
5
123
100
AcDbEntity
8
0
100
AcDbLine
10
-68.770646459323657
20
-74.309948227294399
30
0
11
-63.7706464593238
21
-74.309948227294399
31
0
0
LWPOLYLINE
5
124
100
AcDbEntity
8
0
100
AcDbPolyline
90
4
70
1
43
0.0
10
70.699999091029198
20
19.000000283122063
10
70.699999091029198
20
84.50000125169754
10
60.699998942017579
20
84.50000125169754
10
60.699998942017579
20
19.000000283122063
0
CIRCLE
5
125
100
AcDbEntity
8
0
100
AcDbCircle
10
-39.334992478871349
20
-77.376929820417615
30
0
40
5
210
0
220
0
230
1
0
CIRCLE
5
126
100
AcDbEntity
8
0
100
AcDbCircle
10
-39.334992478871349
20
-101.37692982041759
30
0
40
5
210
0
220
0
230
1
0
CIRCLE
5
127
100
AcDbEntity
8
0
100
AcDbCircle
10
-54.334992478871243
20
-65.376929820417786
30
0
40
5
210
0
220
0
230
1
0
CIRCLE
5
128
100
AcDbEntity
8
0
100
AcDbCircle
10
-54.334992478871257
20
-77.376929820417587
30
0
40
5
210
0
220
0
230
1
0
CIRCLE
5
129
100
AcDbEntity
8
0
100
AcDbCircle
10
-39.334992478871349
20
-89.376929820417743
30
0
40
5
210
0
220
0
230
1
0
CIRCLE
5
130
100
AcDbEntity
8
0
100
AcDbCircle
10
-54.334992478871257
20
-101.37692982041742
30
0
40
5
210
0
220
0
230
1
0
CIRCLE
5
131
100
AcDbEntity
8
0
100
AcDbCircle
10
-24.334992478871534
20
-101.37692982041759
30
0
40
5
210
0
220
0
230
1
0
CIRCLE
5
132
100
AcDbEntity
8
0
100
AcDbCircle
10
-54.334992478871257
20
-89.376929820417558
30
0
40
5
210
0
220
0
230
1
0
CIRCLE
5
133
100
AcDbEntity
8
0
100
AcDbCircle
10
-39.334992478871349
20
-65.376929820417928
30
0
40
5
210
0
220
0
230
1
0
CIRCLE
5
134
100
AcDbEntity
8
0
100
AcDbCircle
10
-24.334992478871534
20
-77.376929820417615
30
0
40
5
210
0
220
0
230
1
0
CIRCLE
5
135
100
AcDbEntity
8
0
100
AcDbCircle
10
-24.334992478871534
20
-89.376929820417743
30
0
40
5
210
0
220
0
230
1
0
CIRCLE
5
136
100
AcDbEntity
8
0
100
AcDbCircle
10
-24.334992478871534
20
-65.376929820417928
30
0
40
5
210
0
220
0
230
1
0
LWPOLYLINE
5
137
100
AcDbEntity
8
0
100
AcDbPolyline
90
4
70
1
43
0.0
10
57.233344122942505
20
-105.85546422091724
10
57.233344122942505
20
-94.855464220917469
10
46.233344122942583
20
-94.855464220917469
10
46.233344122942583
20
-105.85546422091724
0
LWPOLYLINE
5
138
100
AcDbEntity
8
0
100
AcDbPolyline
90
4
70
1
43
0.0
10
-14.066655877057094
20
-36.155464220917814
10
-2.4666558770571125
20
-36.155464220917814
10
-2.4666558770571134
20
-24.555464220917909
10
-14.066655877057094
20
-24.555464220917905
0
LWPOLYLINE
5
139
100
AcDbEntity
8
0
100
AcDbPolyline
90
4
70
1
43
0.0
10
12.533344122942886
20
-24.555464220917909
10
0.93334412294290514
20
-24.555464220917905
10
0.93334412294290514
20
-36.155464220917814
10
12.533344122942886
20
-36.155464220917814
0
LWPOLYLINE
5
140
100
AcDbEntity
8
0
100
AcDbPolyline
90
4
70
1
43
0.0
10
27.533344122942886
20
-24.555464220917909
10
15.933344122942906
20
-24.555464220917905
10
15.933344122942906
20
-36.155464220917814
10
27.533344122942886
20
-36.155464220917814
0
LWPOLYLINE
5
141
100
AcDbEntity
8
0
100
AcDbPolyline
90
4
70
1
43
0.0
10
42.533344122942879
20
-24.555464220917909
10
30.933344122942906
20
-24.555464220917905
10
30.933344122942906
20
-36.155464220917814
10
42.533344122942893
20
-36.155464220917814
0
LWPOLYLINE
5
142
100
AcDbEntity
8
0
100
AcDbPolyline
90
4
70
1
43
0.0
10
57.533344122942879
20
-24.555464220917909
10
45.933344122942906
20
-24.555464220917905
10
45.933344122942906
20
-36.155464220917814
10
57.533344122942893
20
-36.155464220917814
0
LWPOLYLINE
5
143
100
AcDbEntity
8
0
100
AcDbPolyline
90
4
70
1
43
0.0
10
-2.4666558770571134
20
-38.555464220917905
10
-14.066655877057094
20
-38.555464220917905
10
-14.066655877057094
20
-50.155464220917807
10
-2.4666558770571125
20
-50.155464220917807
0
LWPOLYLINE
5
144
100
AcDbEntity
8
0
100
AcDbPolyline
90
4
70
1
43
0.0
10
-2.4666558770571134
20
-52.555464220917905
10
-14.066655877057094
20
-52.555464220917898
10
-14.066655877057094
20
-64.155464220917807
10
-2.4666558770571125
20
-64.155464220917807
0
LWPOLYLINE
5
145
100
AcDbEntity
8
0
100
AcDbPolyline
90
4
70
1
43
0.0
10
-2.4666558770571134
20
-66.555464220917898
10
-14.066655877057094
20
-66.555464220917898
10
-14.066655877057094
20
-78.155464220917807
10
-2.4666558770571125
20
-78.155464220917807
0
LWPOLYLINE
5
146
100
AcDbEntity
8
0
100
AcDbPolyline
90
4
70
1
43
0.0
10
-2.4666558770571134
20
-80.555464220917912
10
-14.066655877057094
20
-80.555464220917912
10
-14.066655877057094
20
-92.155464220917793
10
-2.4666558770571125
20
-92.155464220917793
0
LWPOLYLINE
5
147
100
AcDbEntity
8
0
100
AcDbPolyline
90
4
70
1
43
0.0
10
-2.4666558770571134
20
-94.555464220917912
10
-14.066655877057094
20
-94.555464220917912
10
-14.066655877057094
20
-106.15546422091782
10
-2.4666558770571125
20
-106.15546422091782
0
LWPOLYLINE
5
148
100
AcDbEntity
8
0
100
AcDbPolyline
90
4
70
1
43
0.0
10
12.533344122942886
20
-38.555464220917905
10
0.93334412294290514
20
-38.555464220917905
10
0.93334412294290514
20
-50.155464220917807
10
12.533344122942886
20
-50.155464220917807
0
LWPOLYLINE
5
149
100
AcDbEntity
8
0
100
AcDbPolyline
90
4
70
1
43
0.0
10
27.533344122942886
20
-38.555464220917905
10
15.933344122942906
20
-38.555464220917905
10
15.933344122942906
20
-50.155464220917807
10
27.533344122942886
20
-50.155464220917807
0
LWPOLYLINE
5
150
100
AcDbEntity
8
0
100
AcDbPolyline
90
4
70
1
43
0.0
10
42.533344122942879
20
-38.555464220917905
10
30.933344122942906
20
-38.555464220917905
10
30.933344122942906
20
-50.155464220917807
10
42.533344122942893
20
-50.155464220917807
0
LWPOLYLINE
5
151
100
AcDbEntity
8
0
100
AcDbPolyline
90
4
70
1
43
0.0
10
57.533344122942879
20
-38.555464220917905
10
45.933344122942906
20
-38.555464220917905
10
45.933344122942906
20
-50.155464220917807
10
57.533344122942893
20
-50.155464220917807
0
LWPOLYLINE
5
152
100
AcDbEntity
8
0
100
AcDbPolyline
90
4
70
1
43
0.0
10
12.533344122942886
20
-52.555464220917905
10
0.93334412294290514
20
-52.555464220917898
10
0.93334412294290514
20
-64.155464220917807
10
12.533344122942886
20
-64.155464220917807
0
LWPOLYLINE
5
153
100
AcDbEntity
8
0
100
AcDbPolyline
90
4
70
1
43
0.0
10
27.533344122942886
20
-52.555464220917905
10
15.933344122942906
20
-52.555464220917898
10
15.933344122942906
20
-64.155464220917807
10
27.533344122942886
20
-64.155464220917807
0
LWPOLYLINE
5
154
100
AcDbEntity
8
0
100
AcDbPolyline
90
4
70
1
43
0.0
10
42.533344122942879
20
-52.555464220917905
10
30.933344122942906
20
-52.555464220917898
10
30.933344122942906
20
-64.155464220917807
10
42.533344122942893
20
-64.155464220917807
0
LWPOLYLINE
5
155
100
AcDbEntity
8
0
100
AcDbPolyline
90
4
70
1
43
0.0
10
57.533344122942879
20
-52.555464220917905
10
45.933344122942906
20
-52.555464220917898
10
45.933344122942906
20
-64.155464220917807
10
57.533344122942893
20
-64.155464220917807
0
LINE
5
156
100
AcDbEntity
8
0
100
AcDbLine
10
0.93334412294290514
20
-66.555464220917898
30
0
11
12.533344122942886
21
-66.555464220917898
31
0
0
LINE
5
157
100
AcDbEntity
8
0
100
AcDbLine
10
12.533344122942886
20
-66.555464220917898
30
0
11
12.533344122942886
21
-78.155464220917807
31
0
0
LINE
5
158
100
AcDbEntity
8
0
100
AcDbLine
10
0.93334412294290514
20
-78.155464220917807
30
0
11
0.93334412294290514
21
-66.555464220917898
31
0
0
LINE
5
159
100
AcDbEntity
8
0
100
AcDbLine
10
15.933344122942906
20
-66.555464220917898
30
0
11
27.533344122942886
21
-66.555464220917898
31
0
0
LINE
5
160
100
AcDbEntity
8
0
100
AcDbLine
10
27.533344122942886
20
-66.555464220917898
30
0
11
27.533344122942886
21
-78.155464220917807
31
0
0
LINE
5
161
100
AcDbEntity
8
0
100
AcDbLine
10
15.933344122942906
20
-78.155464220917807
30
0
11
15.933344122942906
21
-66.555464220917898
31
0
0
LINE
5
162
100
AcDbEntity
8
0
100
AcDbLine
10
30.933344122942906
20
-66.555464220917898
30
0
11
42.533344122942879
21
-66.555464220917898
31
0
0
LINE
5
163
100
AcDbEntity
8
0
100
AcDbLine
10
42.533344122942879
20
-66.555464220917898
30
0
11
42.533344122942893
21
-78.155464220917807
31
0
0
LINE
5
164
100
AcDbEntity
8
0
100
AcDbLine
10
30.933344122942906
20
-78.155464220917807
30
0
11
30.933344122942906
21
-66.555464220917898
31
0
0
LINE
5
165
100
AcDbEntity
8
0
100
AcDbLine
10
45.933344122942906
20
-66.555464220917898
30
0
11
57.533344122942879
21
-66.555464220917898
31
0
0
LINE
5
166
100
AcDbEntity
8
0
100
AcDbLine
10
57.533344122942879
20
-66.555464220917898
30
0
11
57.533344122942893
21
-78.155464220917807
31
0
0
LINE
5
167
100
AcDbEntity
8
0
100
AcDbLine
10
45.933344122942906
20
-78.155464220917807
30
0
11
45.933344122942906
21
-66.555464220917898
31
0
0
LWPOLYLINE
5
168
100
AcDbEntity
8
0
100
AcDbPolyline
90
4
70
1
43
0.0
10
12.533344122942886
20
-80.555464220917912
10
0.93334412294290514
20
-80.555464220917912
10
0.93334412294290514
20
-92.155464220917793
10
12.533344122942886
20
-92.155464220917793
0
LWPOLYLINE
5
169
100
AcDbEntity
8
0
100
AcDbPolyline
90
4
70
1
43
0.0
10
27.533344122942886
20
-80.555464220917912
10
15.933344122942906
20
-80.555464220917912
10
15.933344122942906
20
-92.155464220917793
10
27.533344122942886
20
-92.155464220917793
0
LWPOLYLINE
5
170
100
AcDbEntity
8
0
100
AcDbPolyline
90
4
70
1
43
0.0
10
42.533344122942879
20
-80.555464220917912
10
30.933344122942906
20
-80.555464220917912
10
30.933344122942906
20
-92.155464220917793
10
42.533344122942893
20
-92.155464220917793
0
LWPOLYLINE
5
171
100
AcDbEntity
8
0
100
AcDbPolyline
90
4
70
1
43
0.0
10
57.533344122942879
20
-80.555464220917912
10
45.933344122942906
20
-80.555464220917912
10
45.933344122942906
20
-92.155464220917793
10
57.533344122942893
20
-92.155464220917793
0
LWPOLYLINE
5
172
100
AcDbEntity
8
0
100
AcDbPolyline
90
4
70
1
43
0.0
10
12.533344122942886
20
-94.555464220917912
10
0.93334412294290514
20
-94.555464220917912
10
0.93334412294290514
20
-106.15546422091782
10
12.533344122942886
20
-106.15546422091782
0
LINE
5
173
100
AcDbEntity
8
0
100
AcDbLine
10
0.93334412294290514
20
-92.155464220917793
30
0
11
0.93334412294290514
21
-80.555464220917912
31
0
0
LWPOLYLINE
5
174
100
AcDbEntity
8
0
100
AcDbPolyline
90
4
70
1
43
0.0
10
27.533344122942886
20
-94.555464220917912
10
15.933344122942906
20
-94.555464220917912
10
15.933344122942906
20
-106.15546422091782
10
27.533344122942886
20
-106.15546422091782
0
LINE
5
175
100
AcDbEntity
8
0
100
AcDbLine
10
15.933344122942906
20
-92.155464220917793
30
0
11
15.933344122942906
21
-80.555464220917912
31
0
0
LWPOLYLINE
5
176
100
AcDbEntity
8
0
100
AcDbPolyline
90
4
70
1
43
0.0
10
42.533344122942879
20
-94.555464220917912
10
30.933344122942906
20
-94.555464220917912
10
30.933344122942906
20
-106.15546422091782
10
42.533344122942893
20
-106.15546422091782
0
LINE
5
177
100
AcDbEntity
8
0
100
AcDbLine
10
30.933344122942906
20
-92.155464220917793
30
0
11
30.933344122942906
21
-80.555464220917912
31
0
0
LWPOLYLINE
5
178
100
AcDbEntity
8
0
100
AcDbPolyline
90
4
70
1
43
0.0
10
57.533344122942879
20
-94.555464220917912
10
45.933344122942906
20
-94.555464220917912
10
45.933344122942906
20
-106.15546422091782
10
57.533344122942893
20
-106.15546422091782
0
LINE
5
179
100
AcDbEntity
8
0
100
AcDbLine
10
45.933344122942906
20
-92.155464220917793
30
0
11
45.933344122942906
21
-80.555464220917912
31
0
0
LINE
5
180
100
AcDbEntity
8
0
100
AcDbLine
10
12.533344122942886
20
-78.155464220917807
30
0
11
0.93334412294290514
21
-78.155464220917807
31
0
0
LINE
5
181
100
AcDbEntity
8
0
100
AcDbLine
10
27.533344122942886
20
-78.155464220917807
30
0
11
15.933344122942906
21
-78.155464220917807
31
0
0
LINE
5
182
100
AcDbEntity
8
0
100
AcDbLine
10
42.533344122942893
20
-78.155464220917807
30
0
11
30.933344122942906
21
-78.155464220917807
31
0
0
LINE
5
183
100
AcDbEntity
8
0
100
AcDbLine
10
57.533344122942893
20
-78.155464220917807
30
0
11
45.933344122942906
21
-78.155464220917807
31
0
0
LWPOLYLINE
5
184
100
AcDbEntity
8
0
100
AcDbPolyline
90
4
70
1
43
0.0
10
-41.927882443510001
20
3.6295598769249757
10
-41.927882443510001
20
-5.9704401230749946
10
-58.527882443509689
20
-5.9704401230749484
10
-58.527882443509654
20
3.6295598769250037
0
LWPOLYLINE
5
185
100
AcDbEntity
8
0
100
AcDbPolyline
90
4
70
1
43
0.0
10
-40.527882443509981
20
3.6295598769249766
10
-23.927882443510271
20
3.6295598769250037
10
-23.927882443510271
20
-5.9704401230749653
10
-40.527882443509981
20
-5.9704401230749937
0
LWPOLYLINE
5
186
100
AcDbEntity
8
0
100
AcDbPolyline
90
4
70
1
43
0.0
10
31.472117556488868
20
-5.9704401230750346
10
31.472117556488833
20
3.6295598769249358
10
48.072117556488706
20
3.6295598769249082
10
48.072117556488706
20
-5.9704401230750426
0
LWPOLYLINE
5
187
100
AcDbEntity
8
0
100
AcDbPolyline
90
4
70
1
43
0.0
10
-40.527882443509981
20
-9.3704401230749728
10
-23.927882443510271
20
-9.370440123074955
10
-23.927882443510306
20
-18.970440123074795
10
-40.527882443510009
20
-18.970440123074805
0
LWPOLYLINE
5
188
100
AcDbEntity
8
0
100
AcDbPolyline
90
4
70
1
43
0.0
10
12.072117556489149
20
-9.3704401230750065
10
12.072117556489106
20
-18.970440123074813
10
-4.527882443510606
20
-18.970440123074802
10
-4.5278824435105687
20
-9.3704401230749887
0
LWPOLYLINE
5
189
100
AcDbEntity
8
0
100
AcDbPolyline
90
4
70
1
43
0.0
10
30.072117556488923
20
-5.9704401230750346
10
13.472117556489136
20
-5.9704401230750097
10
13.472117556489136
20
3.6295598769249611
10
30.072117556488923
20
3.629559876924934
0
LWPOLYLINE
5
190
100
AcDbEntity
8
0
100
AcDbPolyline
90
4
70
1
43
0.0
10
-22.527882443510308
20
-18.970440123074795
10
-22.527882443510272
20
-9.370440123074955
10
-5.9278824435105957
20
-9.3704401230749905
10
-5.9278824435106348
20
-18.970440123074802
0
LWPOLYLINE
5
191
100
AcDbEntity
8
0
100
AcDbPolyline
90
4
70
1
43
0.0
10
13.472117556489138
20
-9.3704401230749887
10
30.072117556488923
20
-9.3704401230750065
10
30.072117556488887
20
-18.970440123074837
10
13.472117556489099
20
-18.970440123074795
0
LWPOLYLINE
5
192
100
AcDbEntity
8
0
100
AcDbPolyline
90
4
70
1
43
0.0
10
12.072117556489108
20
3.6295598769249429
10
12.07211755648915
20
-5.9704401230750275
10
-4.5278824435105678
20
-5.9704401230750008
10
-4.5278824435106042
20
3.6295598769249509
0
LWPOLYLINE
5
193
100
AcDbEntity
8
0
100
AcDbPolyline
90
4
70
1
43
0.0
10
31.472117556488833
20
-18.970440123074837
10
31.472117556488868
20
-9.3704401230750047
10
48.072117556488706
20
-9.370440123075042
10
48.072117556488664
20
-18.970440123074845
0
LWPOLYLINE
5
194
100
AcDbEntity
8
0
100
AcDbPolyline
90
4
70
1
43
0.0
10
-22.527882443510272
20
-5.9704401230749831
10
-22.527882443510236
20
3.6295598769249864
10
-5.9278824435105975
20
3.6295598769249593
10
-5.9278824435105975
20
-5.9704401230749919
0
LWPOLYLINE
5
195
100
AcDbEntity
8
0
100
AcDbPolyline
90
4
70
1
43
0.0
10
-58.527882443509689
20
-18.970440123074759
10
-58.527882443509689
20
-9.370440123074955
10
-41.927882443510001
20
-9.3704401230749728
10
-41.927882443510036
20
-18.97044012307477
0
LWPOLYLINE
5
196
100
AcDbEntity
8
0
100
AcDbPolyline
90
4
70
1
43
0.0
10
-41.927882443510036
20
-57.970440123074198
10
-58.527882443509725
20
-57.970440123074198
10
-58.527882443509725
20
-48.370440123074246
10
-41.927882443510036
20
-48.370440123074246
0
LWPOLYLINE
5
197
100
AcDbEntity
8
0
100
AcDbPolyline
90
4
70
1
43
0.0
10
-58.527882443509725
20
-44.970440123074397
10
-58.527882443509725
20
-35.370440123074573
10
-41.927882443510036
20
-35.370440123074573
10
-41.927882443510036
20
-44.970440123074397
0
LWPOLYLINE
5
198
100
AcDbEntity
8
0
100
AcDbPolyline
90
4
70
1
43
0.0
10
-40.527882443510009
20
-31.970440123074589
10
-40.527882443510009
20
-22.37044012307479
10
-23.927882443510306
20
-22.370440123074772
10
-23.927882443510342
20
-31.970440123074575
0
LWPOLYLINE
5
199
100
AcDbEntity
8
0
100
AcDbPolyline
90
4
70
1
43
0.0
10
-23.927882443510306
20
-35.370440123074587
10
-23.927882443510342
20
-44.970440123074411
10
-40.527882443510009
20
-44.970440123074411
10
-40.527882443510009
20
-35.370440123074587
0
LWPOLYLINE
5
200
100
AcDbEntity
8
0
100
AcDbPolyline
90
4
70
1
43
0.0
10
-41.927882443510036
20
-31.970440123074553
10
-58.527882443509725
20
-31.970440123074539
10
-58.527882443509689
20
-22.370440123074772
10
-41.927882443510036
20
-22.37044012307479
0
LWPOLYLINE
5
201
100
AcDbEntity
8
0
100
AcDbPolyline
90
4
70
1
43
0.0
10
-23.927882443510342
20
-48.370440123074289
10
-23.927882443510342
20
-57.970440123074212
10
-40.527882443510009
20
-57.970440123074212
10
-40.527882443510009
20
-48.370440123074289
0
LWPOLYLINE
5
202
100
AcDbEntity
8
0
100
AcDbPolyline
90
4
70
1
43
0.0
10
60.480002383421905
20
3.6525529050280872
10
60.48000238342194
20
-5.9474470949716887
10
49.880002383422102
20
-5.9474470949716851
10
49.880002383422067
20
3.6525529050280698
0
LWPOLYLINE
5
203
100
AcDbEntity
8
0
100
AcDbPolyline
90
4
70
1
43
0.0
10
49.880002383422067
20
-19.200000470224506
10
49.880002383422102
20
-9.6000004702247672
10
60.48000238342194
20
-9.6000004702247619
10
60.480002383421905
20
-19.200000470224495
0
ENDSEC
0
SECTION
2
OBJECTS
0
DICTIONARY
5
C
100
AcDbDictionary
3
ACAD_GROUP
350
D
3
ACAD_MLINESTYLE
350
17
0
DICTIONARY
5
D
100
AcDbDictionary
0
DICTIONARY
5
1A
330
C
100
AcDbDictionary
0
DICTIONARY
5
17
100
AcDbDictionary
0
ENDSEC
0
EOF
