0
SECTION
2
HEADER
9
$INSUNITS
70
4
9
$ACADVER
1
AC1014
9
$HANDSEED
5
FFFF
0
ENDSEC
0
SECTION
2
TABLES
0
TABLE
2
VPORT
5
8
100
AcDbSymbolTable
0
ENDTAB
0
TABLE
2
LTYPE
5
5
100
AcDbSymbolTable
0
LTYPE
5
14
100
AcDbSymbolTableRecord
100
AcDbLinetypeTableRecord
2
BYBLOCK
70
0
0
LTYPE
5
15
100
AcDbSymbolTableRecord
100
AcDbLinetypeTableRecord
2
BYLAYER
70
0
0
ENDTAB
0
TABLE
2
LAYER
5
2
100
AcDbSymbolTable
70
2
0
LAYER
5
50
100
AcDbSymbolTableRecord
100
AcDbLayerTableRecord
2
0
70
0
6
CONTINUOUS
0
ENDTAB
0
TABLE
2
STYLE
5
3
100
AcDbSymbolTable
70
1
0
STYLE
5
11
100
AcDbSymbolTableRecord
100
AcDbTextStyleTableRecord
2
STANDARD
70
0
0
ENDTAB
0
TABLE
2
VIEW
5
6
100
AcDbSymbolTable
70
0
0
ENDTAB
0
TABLE
2
UCS
5
7
100
AcDbSymbolTable
70
0
0
ENDTAB
0
TABLE
2
APPID
5
9
100
AcDbSymbolTable
70
2
0
APPID
5
12
100
AcDbSymbolTableRecord
100
AcDbRegAppTableRecord
2
ACAD
70
0
0
ENDTAB
0
TABLE
2
DIMSTYLE
5
A
100
AcDbSymbolTable
70
1
0
ENDTAB
0
TABLE
2
BLOCK_RECORD
5
1
100
AcDbSymbolTable
70
1
0
BLOCK_RECORD
5
1F
100
AcDbSymbolTableRecord
100
AcDbBlockTableRecord
2
*MODEL_SPACE
0
BLOCK_RECORD
5
1B
100
AcDbSymbolTableRecord
100
AcDbBlockTableRecord
2
*PAPER_SPACE
0
ENDTAB
0
ENDSEC
0
SECTION
2
BLOCKS
0
BLOCK
5
20
100
AcDbEntity
100
AcDbBlockBegin
2
*MODEL_SPACE
0
ENDBLK
5
21
100
AcDbEntity
100
AcDbBlockEnd
0
BLOCK
5
1C
100
AcDbEntity
100
AcDbBlockBegin
2
*PAPER_SPACE
0
ENDBLK
5
1D
100
AcDbEntity
100
AcDbBlockEnd
0
ENDSEC
0
SECTION
2
ENTITIES
0
LWPOLYLINE
5
100
100
AcDbEntity
8
0
100
AcDbPolyline
90
8
70
1
43
0.0
10
130.80000286549327
20
41.499999072402716
10
-127.1999971345067
20
41.499999072402716
42
0.41421356237308982
10
-128.1999971345067
20
40.499999072402737
10
-128.1999971345067
20
-47.500000927597284
42
0.41421356237309503
10
-127.19999713450669
20
-48.500000927597284
10
130.8000028654933
20
-48.500000927597291
42
0.41421356237309243
10
131.80000286549327
20
-47.500000927597306
10
131.80000286549327
20
40.499999072402716
42
0.41421356237310025
0
LWPOLYLINE
5
101
100
AcDbEntity
8
0
100
AcDbPolyline
90
8
70
1
43
0.0
10
-40.690557731106495
20
-32.82041429809491
10
-55.690557731106509
20
-32.82041429809491
42
0.41421356237309631
10
-56.690557731106502
20
-33.82041429809491
10
-56.690557731106502
20
-43.82041429809491
42
0.41421356237309503
10
-55.690557731106509
20
-44.82041429809491
10
-40.690557731106495
20
-44.82041429809491
42
0.41421356237309503
10
-39.690557731106502
20
-43.82041429809491
10
-39.690557731106502
20
-33.82041429809491
42
0.41421356237309631
0
LWPOLYLINE
5
102
100
AcDbEntity
8
0
100
AcDbPolyline
90
8
70
1
43
0.0
10
57.309442268893505
20
-43.82041429809491
10
57.309442268893505
20
-33.82041429809491
42
0.41421356237309631
10
56.309442268893513
20
-32.82041429809491
10
41.309442268893505
20
-32.82041429809491
42
0.41421356237309631
10
40.309442268893505
20
-33.82041429809491
10
40.309442268893505
20
-43.82041429809491
42
0.41421356237309503
10
41.309442268893505
20
-44.82041429809491
10
56.309442268893513
20
-44.82041429809491
42
0.41421356237309503
0
LWPOLYLINE
5
103
100
AcDbEntity
8
0
100
AcDbPolyline
90
8
70
1
43
0.0
10
94.30944226889352
20
-44.82041429809491
10
109.30944226889352
20
-44.82041429809491
42
0.41421356237309503
10
110.30944226889352
20
-43.82041429809491
10
110.30944226889352
20
-33.82041429809491
42
0.41421356237309631
10
109.30944226889352
20
-32.82041429809491
10
94.30944226889352
20
-32.82041429809491
42
0.41421356237309631
10
93.309442268893505
20
-33.82041429809491
10
93.309442268893505
20
-43.82041429809491
42
0.41421356237309503
0
LWPOLYLINE
5
104
100
AcDbEntity
8
0
100
AcDbPolyline
90
8
70
1
43
0.0
10
10.309442268893498
20
-44.32041429809491
10
10.309442268893498
20
-29.320414298094907
42
0.41421356237309503
10
9.3094422688935019
20
-28.32041429809491
10
-5.690557731106507
20
-28.32041429809491
42
0.41421356237309503
10
-6.6905577311065034
20
-29.320414298094907
10
-6.6905577311065034
20
-44.32041429809491
42
0.41421356237309503
10
-5.690557731106507
20
-45.320414298094903
10
9.3094422688935019
20
-45.320414298094903
42
0.41421356237309503
0
LWPOLYLINE
5
105
100
AcDbEntity
8
0
100
AcDbPolyline
90
8
70
1
43
0.0
10
-17.990557731106506
20
-9.3204142980949065
10
-17.990557731106506
20
-24.32041429809491
42
0.41421356237309503
10
-16.990557731106509
20
-25.320414298094907
10
-1.9905577311064993
20
-25.320414298094907
42
0.41421356237309503
10
-0.9905577311065028
20
-24.32041429809491
10
-0.9905577311065028
20
-9.3204142980949065
42
0.41421356237309503
10
-1.9905577311064993
20
-8.3204142980949101
10
-16.990557731106509
20
-8.3204142980949101
42
0.41421356237309503
0
LWPOLYLINE
5
106
100
AcDbEntity
8
0
100
AcDbPolyline
90
8
70
1
43
0.0
10
21.509442268893501
20
-24.32041429809491
42
-0.41421356237309503
10
20.509442268893501
20
-25.320414298094907
10
5.5094422688934923
20
-25.320414298094907
42
-0.41421356237309503
10
4.5094422688934959
20
-24.32041429809491
10
4.5094422688934959
20
-9.3204142980949065
42
-0.41421356237309503
10
5.5094422688934923
20
-8.3204142980949101
10
20.509442268893501
20
-8.3204142980949101
42
-0.41421356237309503
10
21.509442268893501
20
-9.3204142980949065
0
CIRCLE
5
107
100
AcDbEntity
8
0
100
AcDbCircle
10
1.9011997932477078
20
0.28593282824892119
30
0
40
5
210
0
220
0
230
1
0
CIRCLE
5
108
100
AcDbEntity
8
0
100
AcDbCircle
10
48.889457066266488
20
-8.6079902706057805
30
0
40
3.25
210
0
220
0
230
1
0
CIRCLE
5
109
100
AcDbEntity
8
0
100
AcDbCircle
10
101.88945706626649
20
-8.6079902706057805
30
0
40
3.25
210
0
220
0
230
1
0
CIRCLE
5
110
100
AcDbEntity
8
0
100
AcDbCircle
10
-48.210542933733521
20
-8.6079902706057805
30
0
40
3.25
210
0
220
0
230
1
0
CIRCLE
5
111
100
AcDbEntity
8
0
100
AcDbCircle
10
-92.110542933733512
20
-8.6079902706057805
30
0
40
3.25
210
0
220
0
230
1
0
LWPOLYLINE
5
112
100
AcDbEntity
8
0
100
AcDbPolyline
90
8
70
1
43
0.0
10
-1.9999975591897901
20
34.599999222159383
10
-107.99999755918981
20
34.599999222159383
42
0.41421356237309764
10
-108.99999755918981
20
33.599999222159383
10
-108.99999755918981
20
14.599999222159372
42
0.41421356237309437
10
-107.99999755918981
20
13.599999222159372
10
-1.9999975591897896
20
13.599999222159372
42
0.41421356237309404
10
-0.99999755918978916
20
14.59999922215937
10
-0.99999755918978694
20
33.599999222159383
42
0.41421356237309309
0
CIRCLE
5
113
100
AcDbEntity
8
0
100
AcDbCircle
10
-116.09880020675229
20
0.28593282824892119
30
0
40
5
210
0
220
0
230
1
0
LWPOLYLINE
5
114
100
AcDbEntity
8
0
100
AcDbPolyline
90
8
70
1
43
0.0
10
5.0000024408102028
20
33.599999222159383
10
5.0000024408102028
20
14.599999222159372
42
0.41421356237309437
10
6.0000024408101993
20
13.599999222159372
10
112.00000244081022
20
13.599999222159372
42
0.41421356237309437
10
113.00000244081021
20
14.59999922215937
10
113.00000244081021
20
33.599999222159383
42
0.4142135623730937
10
112.00000244081022
20
34.599999222159383
10
6.0000024408101993
20
34.599999222159383
42
0.41421356237309764
0
CIRCLE
5
115
100
AcDbEntity
8
0
100
AcDbCircle
10
-123.1999971345067
20
36.499999072402716
30
0
40
1.5000000000000013
210
0
220
0
230
1
0
CIRCLE
5
116
100
AcDbEntity
8
0
100
AcDbCircle
10
126.8000028654933
20
36.499999072402716
30
0
40
1.5000000000000013
210
0
220
0
230
1
0
CIRCLE
5
117
100
AcDbEntity
8
0
100
AcDbCircle
10
126.80000286549328
20
-43.500000927597291
30
0
40
1.5000000000000013
210
0
220
0
230
1
0
CIRCLE
5
118
100
AcDbEntity
8
0
100
AcDbCircle
10
-123.19999713450672
20
-43.500000927597291
30
0
40
1.5000000000000013
210
0
220
0
230
1
0
ENDSEC
0
SECTION
2
OBJECTS
0
DICTIONARY
5
C
100
AcDbDictionary
3
ACAD_GROUP
350
D
3
ACAD_MLINESTYLE
350
17
0
DICTIONARY
5
D
100
AcDbDictionary
0
DICTIONARY
5
1A
330
C
100
AcDbDictionary
0
DICTIONARY
5
17
100
AcDbDictionary
0
ENDSEC
0
EOF
