0
SECTION
2
HEADER
9
$INSUNITS
70
4
9
$ACADVER
1
AC1014
9
$HANDSEED
5
FFFF
0
ENDSEC
0
SECTION
2
TABLES
0
TABLE
2
VPORT
5
8
100
AcDbSymbolTable
0
ENDTAB
0
TABLE
2
LTYPE
5
5
100
AcDbSymbolTable
0
LTYPE
5
14
100
AcDbSymbolTableRecord
100
AcDbLinetypeTableRecord
2
BYBLOCK
70
0
0
LTYPE
5
15
100
AcDbSymbolTableRecord
100
AcDbLinetypeTableRecord
2
BYLAYER
70
0
0
ENDTAB
0
TABLE
2
LAYER
5
2
100
AcDbSymbolTable
70
2
0
LAYER
5
50
100
AcDbSymbolTableRecord
100
AcDbLayerTableRecord
2
0
70
0
6
CONTINUOUS
0
ENDTAB
0
TABLE
2
STYLE
5
3
100
AcDbSymbolTable
70
1
0
STYLE
5
11
100
AcDbSymbolTableRecord
100
AcDbTextStyleTableRecord
2
STANDARD
70
0
0
ENDTAB
0
TABLE
2
VIEW
5
6
100
AcDbSymbolTable
70
0
0
ENDTAB
0
TABLE
2
UCS
5
7
100
AcDbSymbolTable
70
0
0
ENDTAB
0
TABLE
2
APPID
5
9
100
AcDbSymbolTable
70
2
0
APPID
5
12
100
AcDbSymbolTableRecord
100
AcDbRegAppTableRecord
2
ACAD
70
0
0
ENDTAB
0
TABLE
2
DIMSTYLE
5
A
100
AcDbSymbolTable
70
1
0
ENDTAB
0
TABLE
2
BLOCK_RECORD
5
1
100
AcDbSymbolTable
70
1
0
BLOCK_RECORD
5
1F
100
AcDbSymbolTableRecord
100
AcDbBlockTableRecord
2
*MODEL_SPACE
0
BLOCK_RECORD
5
1B
100
AcDbSymbolTableRecord
100
AcDbBlockTableRecord
2
*PAPER_SPACE
0
ENDTAB
0
ENDSEC
0
SECTION
2
BLOCKS
0
BLOCK
5
20
100
AcDbEntity
100
AcDbBlockBegin
2
*MODEL_SPACE
0
ENDBLK
5
21
100
AcDbEntity
100
AcDbBlockEnd
0
BLOCK
5
1C
100
AcDbEntity
100
AcDbBlockBegin
2
*PAPER_SPACE
0
ENDBLK
5
1D
100
AcDbEntity
100
AcDbBlockEnd
0
ENDSEC
0
SECTION
2
ENTITIES
0
CIRCLE
5
100
100
AcDbEntity
8
0
100
AcDbCircle
10
5
20
5
30
0
40
1.5000000000000002
210
0
220
0
230
1
0
LWPOLYLINE
5
101
100
AcDbEntity
8
0
100
AcDbPolyline
90
8
70
1
43
0.0
10
1.0000000000000142
20
0
10
259
20
0
42
0.41421356237309398
10
260
20
0.99999999999999645
10
260.00000000000006
20
88
42
0.41421356237309503
10
259
20
89
10
1
20
89
42
0.41421356237309503
10
0
20
88
10
0
20
1.0000000000000002
42
0.41421356237309925
0
CIRCLE
5
102
100
AcDbEntity
8
0
100
AcDbCircle
10
228
20
38.920000000000002
30
0
40
3.0000000000000004
210
0
220
0
230
1
0
LWPOLYLINE
5
103
100
AcDbEntity
8
0
100
AcDbPolyline
90
8
70
1
43
0.0
10
241
20
81.420000000000016
10
241
20
62.420000000000009
42
-0.41421356237309503
10
240
20
61.420000000000016
10
133
20
61.420000000000016
42
-0.41421356237309503
10
132
20
62.420000000000009
10
132
20
81.420000000000016
42
-0.41421356237309503
10
133
20
82.420000000000016
10
240
20
82.42000000000003
42
-0.41421356237309503
0
CIRCLE
5
104
100
AcDbEntity
8
0
100
AcDbCircle
10
177
20
38.920000000000002
30
0
40
3.0000000000000004
210
0
220
0
230
1
0
CIRCLE
5
105
100
AcDbEntity
8
0
100
AcDbCircle
10
255
20
84
30
0
40
1.5000000000000002
210
0
220
0
230
1
0
LWPOLYLINE
5
106
100
AcDbEntity
8
0
100
AcDbPolyline
90
8
70
1
43
0.0
10
20
20
61.420000000000016
42
-0.41421356237309503
10
19
20
62.420000000000009
10
19.000000000000004
20
81.420000000000016
42
-0.41421356237309503
10
20
20
82.420000000000016
10
127.00000000000001
20
82.420000000000016
42
-0.41421356237309503
10
128
20
81.420000000000016
10
128
20
62.420000000000009
42
-0.41421356237309503
10
127.00000000000001
20
61.420000000000002
0
CIRCLE
5
107
100
AcDbEntity
8
0
100
AcDbCircle
10
36
20
38.920000000000002
30
0
40
3.0000000000000004
210
0
220
0
230
1
0
CIRCLE
5
108
100
AcDbEntity
8
0
100
AcDbCircle
10
79
20
38.920000000000002
30
0
40
3.0000000000000004
210
0
220
0
230
1
0
CIRCLE
5
109
100
AcDbEntity
8
0
100
AcDbCircle
10
5
20
84
30
0
40
1.5000000000000002
210
0
220
0
230
1
0
LWPOLYLINE
5
110
100
AcDbEntity
8
0
100
AcDbPolyline
90
8
70
1
43
0.0
10
139.01499999999999
20
5
42
-0.41421356237309503
10
138.01499999999999
20
4
10
122.01500000000001
20
4.0000000000000036
42
-0.41421356237309503
10
121.01500000000001
20
5
10
121.01500000000001
20
21
42
-0.41421356237309503
10
122.01500000000001
20
22
10
138.01499999999999
20
21.999999999999996
42
-0.41421356237309503
10
139.01499999999999
20
21
0
LWPOLYLINE
5
111
100
AcDbEntity
8
0
100
AcDbPolyline
90
8
70
1
43
0.0
10
133.51499999999999
20
24.000000000000004
42
-0.41421356237309503
10
132.51499999999999
20
25
10
132.51499999999999
20
41.000000000000007
42
-0.41421356237309503
10
133.51499999999999
20
42
10
149.51499999999999
20
42
42
-0.41421356237309503
10
150.51499999999999
20
41.000000000000007
10
150.51499999999999
20
25
42
-0.41421356237309503
10
149.51499999999999
20
24
0
LWPOLYLINE
5
112
100
AcDbEntity
8
0
100
AcDbPolyline
90
8
70
1
43
0.0
10
126.515
20
24.000000000000004
10
110.51500000000001
20
24.000000000000004
42
-0.41421356237309503
10
109.51500000000001
20
25
10
109.51500000000001
20
41.000000000000007
42
-0.41421356237309503
10
110.51500000000001
20
42
10
126.515
20
42
42
-0.41421356237309503
10
127.515
20
41.000000000000007
10
127.515
20
25
42
-0.41421356237309503
0
LWPOLYLINE
5
113
100
AcDbEntity
8
0
100
AcDbPolyline
90
8
70
1
43
0.0
10
71
20
1.4200000000000035
42
-0.41421356237309503
10
70.000000000000014
20
2.4199999999999999
10
70
20
13.420000000000002
42
-0.41421356237309503
10
71
20
14.420000000000002
10
87.000000000000014
20
14.419999999999998
42
-0.41421356237309503
10
88
20
13.420000000000002
10
88
20
2.4199999999999999
42
-0.41421356237309503
10
87.000000000000014
20
1.4199999999999999
0
CIRCLE
5
114
100
AcDbEntity
8
0
100
AcDbCircle
10
130
20
50.920000000000002
30
0
40
5
210
0
220
0
230
1
0
CIRCLE
5
115
100
AcDbEntity
8
0
100
AcDbCircle
10
255
20
5
30
0
40
1.5000000000000002
210
0
220
0
230
1
0
LWPOLYLINE
5
116
100
AcDbEntity
8
0
100
AcDbPolyline
90
8
70
1
43
0.0
10
237.00000000000003
20
2.4199999999999999
42
-0.41421356237309503
10
236
20
1.4199999999999999
10
220
20
1.4199999999999857
42
-0.41421356237309503
10
219
20
2.4199999999999999
10
219
20
13.420000000000002
42
-0.41421356237309503
10
220
20
14.420000000000002
10
236
20
14.420000000000016
42
-0.41421356237309503
10
237.00000000000003
20
13.420000000000002
0
CIRCLE
5
117
100
AcDbEntity
8
0
100
AcDbCircle
10
206
20
50.920000000000002
30
0
40
5
210
0
220
0
230
1
0
CIRCLE
5
118
100
AcDbEntity
8
0
100
AcDbCircle
10
11
20
50.920000000000002
30
0
40
5
210
0
220
0
230
1
0
LWPOLYLINE
5
119
100
AcDbEntity
8
0
100
AcDbPolyline
90
8
70
1
43
0.0
10
168
20
13.420000000000002
42
-0.41421356237309503
10
169.00000000000003
20
14.420000000000002
10
185
20
14.420000000000016
42
-0.41421356237309503
10
186
20
13.420000000000002
10
186
20
2.4199999999999999
42
-0.41421356237309503
10
185
20
1.4199999999999999
10
169.00000000000003
20
1.4199999999999857
42
-0.41421356237309503
10
168
20
2.4199999999999999
0
ENDSEC
0
SECTION
2
OBJECTS
0
DICTIONARY
5
C
100
AcDbDictionary
3
ACAD_GROUP
350
D
3
ACAD_MLINESTYLE
350
17
0
DICTIONARY
5
D
100
AcDbDictionary
0
DICTIONARY
5
1A
330
C
100
AcDbDictionary
0
DICTIONARY
5
17
100
AcDbDictionary
0
ENDSEC
0
EOF
