0
SECTION
2
HEADER
9
$INSUNITS
70
4
9
$ACADVER
1
AC1014
9
$HANDSEED
5
FFFF
0
ENDSEC
0
SECTION
2
TABLES
0
TABLE
2
VPORT
5
8
100
AcDbSymbolTable
0
ENDTAB
0
TABLE
2
LTYPE
5
5
100
AcDbSymbolTable
0
LTYPE
5
14
100
AcDbSymbolTableRecord
100
AcDbLinetypeTableRecord
2
BYBLOCK
70
0
0
LTYPE
5
15
100
AcDbSymbolTableRecord
100
AcDbLinetypeTableRecord
2
BYLAYER
70
0
0
ENDTAB
0
TABLE
2
LAYER
5
2
100
AcDbSymbolTable
70
2
0
LAYER
5
50
100
AcDbSymbolTableRecord
100
AcDbLayerTableRecord
2
0
70
0
6
CONTINUOUS
0
ENDTAB
0
TABLE
2
STYLE
5
3
100
AcDbSymbolTable
70
1
0
STYLE
5
11
100
AcDbSymbolTableRecord
100
AcDbTextStyleTableRecord
2
STANDARD
70
0
0
ENDTAB
0
TABLE
2
VIEW
5
6
100
AcDbSymbolTable
70
0
0
ENDTAB
0
TABLE
2
UCS
5
7
100
AcDbSymbolTable
70
0
0
ENDTAB
0
TABLE
2
APPID
5
9
100
AcDbSymbolTable
70
2
0
APPID
5
12
100
AcDbSymbolTableRecord
100
AcDbRegAppTableRecord
2
ACAD
70
0
0
ENDTAB
0
TABLE
2
DIMSTYLE
5
A
100
AcDbSymbolTable
70
1
0
ENDTAB
0
TABLE
2
BLOCK_RECORD
5
1
100
AcDbSymbolTable
70
1
0
BLOCK_RECORD
5
1F
100
AcDbSymbolTableRecord
100
AcDbBlockTableRecord
2
*MODEL_SPACE
0
BLOCK_RECORD
5
1B
100
AcDbSymbolTableRecord
100
AcDbBlockTableRecord
2
*PAPER_SPACE
0
ENDTAB
0
ENDSEC
0
SECTION
2
BLOCKS
0
BLOCK
5
20
100
AcDbEntity
100
AcDbBlockBegin
2
*MODEL_SPACE
0
ENDBLK
5
21
100
AcDbEntity
100
AcDbBlockEnd
0
BLOCK
5
1C
100
AcDbEntity
100
AcDbBlockBegin
2
*PAPER_SPACE
0
ENDBLK
5
1D
100
AcDbEntity
100
AcDbBlockEnd
0
ENDSEC
0
SECTION
2
ENTITIES
0
LWPOLYLINE
5
100
100
AcDbEntity
8
0
100
AcDbPolyline
90
8
70
1
43
0.0
10
-1.0000000000000002
20
0
42
-0.41421356237309548
10
0
20
-1.0000000000000009
10
-5.5511151231257827e-16
20
-17
42
-0.4142135623730962
10
-1.0000000000000009
20
-18
10
-17
20
-18
42
-0.41421356237309631
10
-18
20
-17
10
-18
20
-1
42
-0.41421356237309587
10
-17
20
0
0
LINE
5
101
100
AcDbEntity
8
0
100
AcDbLine
10
-17.999928065460576
20
-18.000000268220901
30
0
11
-17.999928065460576
21
0
31
0
0
LINE
5
102
100
AcDbEntity
8
0
100
AcDbLine
10
-17.999928065460576
20
0
30
0
11
-0.46998520631498619
21
0
31
0
0
LINE
5
103
100
AcDbEntity
8
0
100
AcDbLine
10
-2.7755575615628578e-16
20
-9
30
0
11
-17.99992788763922
21
-8.9490486527395028
31
0
0
LWPOLYLINE
5
104
100
AcDbEntity
8
0
100
AcDbPolyline
90
4
70
1
43
0.0
10
-11.971989743343261
20
-6.4783001541407916
10
-5.9719897433432774
20
-6.4781903005164789
10
-5.9738946834985951
20
-2.4781907541161399
10
-11.97389468349858
20
-2.4783006077404517
0
LWPOLYLINE
5
105
100
AcDbEntity
8
0
100
AcDbPolyline
90
4
70
1
43
0.0
10
-4.974370813906793
20
-1.4781724537285896
10
-12.974371023267903
20
-1.4783189252315065
10
-12.971513612935059
20
-7.4783184545283401
10
-4.9715134035739519
20
-7.4781719830254234
0
LINE
5
106
100
AcDbEntity
8
0
100
AcDbLine
10
-17.99992788763922
20
-8.9490486527395028
30
0
11
-17.999928065460576
21
-8.8488242802021251
31
0
0
LINE
5
107
100
AcDbEntity
8
0
100
AcDbLine
10
-2.8702679413449301
20
-15.016761556653233
30
0
11
-3.2911757889250977
21
-15.016763178939044
31
0
0
LINE
5
108
100
AcDbEntity
8
0
100
AcDbLine
10
-3.2911873516879568
20
-12.016763059752035
30
0
11
-2.8702795041077893
21
-12.016761437466227
31
0
0
LINE
5
109
100
AcDbEntity
8
0
100
AcDbLine
10
-2.8702795041077893
20
-12.016761437466227
30
0
11
-2.8702679413449301
21
-15.016761556653233
31
0
0
LINE
5
110
100
AcDbEntity
8
0
100
AcDbLine
10
-3.2911809420679754
20
-13.679761855249025
30
0
11
-4.5312084889413944
21
-13.679766634630319
31
0
0
LINE
5
111
100
AcDbEntity
8
0
100
AcDbLine
10
-4.5312084889413944
20
-13.679766634630319
30
0
11
-4.5312100317029369
21
-13.279491642644157
31
0
0
LINE
5
112
100
AcDbEntity
8
0
100
AcDbLine
10
-4.5312100317029369
20
-13.279491642644157
30
0
11
-3.2911824848295179
21
-13.279486863262861
31
0
0
LINE
5
113
100
AcDbEntity
8
0
100
AcDbLine
10
-3.0765953424449863
20
-15.016762351891471
30
0
11
-4.7581635179867723
21
-15.016768833082558
31
0
0
LINE
5
114
100
AcDbEntity
8
0
100
AcDbLine
10
-4.7581635179867723
20
-15.016768833082558
30
0
11
-4.7581650607483148
21
-14.616493841096396
31
0
0
LINE
5
115
100
AcDbEntity
8
0
100
AcDbLine
10
-4.7581650607483148
20
-14.616493841096396
30
0
11
-3.2911773316866402
21
-14.61648818695288
31
0
0
LWPOLYLINE
5
116
100
AcDbEntity
8
0
100
AcDbPolyline
90
8
70
1
43
0.0
10
-6.4087827267872255
20
-15.016775194988464
10
-6.0497729244484315
20
-15.016773811273449
10
-4.9438697752672951
20
-12.016769429610097
10
-5.3977901396438064
20
-12.016771179134535
10
-5.6239156380607822
20
-12.674956340616813
10
-6.8346582010086152
20
-12.674961007126338
10
-7.0607889351407929
20
-12.016777588754515
10
-7.5147092995173033
20
-12.016779338278951
0
LWPOLYLINE
5
117
100
AcDbEntity
8
0
100
AcDbPolyline
90
3
70
1
43
0.0
10
-6.6971366184214931
20
-13.07523576709854
10
-5.7614340365436165
20
-13.075232160662999
10
-6.2292799112252659
20
-14.436994609974825
0
SPLINE
5
118
100
AcDbEntity
8
0
100
AcDbSpline
70
0
71
2
72
6
73
3
74
0
42
0.000000001
43
0.0000000001
44
0.0000000001
40
0
40
0
40
0
40
1
40
1
40
1
10
-8.9796330390161785
20
-11.985835868713925
30
0
10
-8.6474462208957821
20
-11.985834588381508
30
0
10
-8.4112009182147887
20
-12.116851541583507
30
0
0
SPLINE
5
119
100
AcDbEntity
8
0
100
AcDbSpline
70
0
71
2
72
6
73
3
74
0
42
0.000000001
43
0.0000000001
44
0.0000000001
40
0
40
0
40
0
40
1
40
1
40
1
10
-8.4112009182147887
20
-12.116851541583507
30
0
10
-8.1749556155337988
20
-12.247868494785504
30
0
10
-8.0511581863071591
20
-12.498555914845964
30
0
0
SPLINE
5
120
100
AcDbEntity
8
0
100
AcDbSpline
70
0
71
2
72
6
73
3
74
0
42
0.000000001
43
0.0000000001
44
0.0000000001
40
0
40
0
40
0
40
1
40
1
40
1
10
-8.0511581863071591
20
-12.498555914845964
30
0
10
-7.9273607570816669
20
-12.749243036883202
30
0
10
-7.9273593972242633
20
-13.102062896862119
30
0
0
LINE
5
121
100
AcDbEntity
8
0
100
AcDbLine
10
-7.9273593972242615
20
-13.102062896862121
30
0
11
-7.9273520174139147
21
-15.016781047940427
31
0
0
LINE
5
122
100
AcDbEntity
8
0
100
AcDbLine
10
-7.9273520174139147
20
-15.016781047940427
30
0
11
-8.3482597532353751
21
-15.016782670225805
31
0
0
LINE
5
123
100
AcDbEntity
8
0
100
AcDbLine
10
-8.3482597532353751
20
-15.016782670225805
30
0
11
-8.3482671887119491
21
-13.08762171767208
31
0
0
SPLINE
5
124
100
AcDbEntity
8
0
100
AcDbSpline
70
0
71
2
72
6
73
3
74
0
42
0.000000001
43
0.0000000001
44
0.0000000001
40
0
40
0
40
0
40
1
40
1
40
1
10
-8.3482671887119491
20
-13.08762171767208
30
0
10
-8.3482684531412072
20
-12.75956103108623
30
0
10
-8.5133310956805079
20
-12.580056915119151
30
0
0
SPLINE
5
125
100
AcDbEntity
8
0
100
AcDbSpline
70
0
71
2
72
6
73
3
74
0
42
0.000000001
43
0.0000000001
44
0.0000000001
40
0
40
0
40
0
40
1
40
1
40
1
10
-8.5133310956805079
20
-12.580056915119151
30
0
10
-8.6783937382198104
20
-12.40055279915207
30
0
10
-8.9796314405872621
20
-12.400553960198728
30
0
0
SPLINE
5
126
100
AcDbEntity
8
0
100
AcDbSpline
70
0
71
2
72
6
73
3
74
0
42
0.000000001
43
0.0000000001
44
0.0000000001
40
0
40
0
40
0
40
1
40
1
40
1
10
-8.9796314405872621
20
-12.400553960198728
30
0
10
-9.2829332518032697
20
-12.400555129200988
30
0
10
-9.4490256709833105
20
-12.580060521523833
30
0
0
SPLINE
5
127
100
AcDbEntity
8
0
100
AcDbSpline
70
0
71
2
72
6
73
3
74
0
42
0.000000001
43
0.0000000001
44
0.0000000001
40
0
40
0
40
0
40
1
40
1
40
1
10
-9.4490256709833105
20
-12.580060521523833
30
0
10
-9.6151186862098008
20
-12.759565913848974
30
0
10
-9.6151174217805426
20
-13.087626600434826
30
0
0
LINE
5
128
100
AcDbEntity
8
0
100
AcDbLine
10
-9.6151174217805426
20
-13.087626600434826
30
0
11
-9.6151099863039686
21
-15.01678755298855
31
0
0
LINE
5
129
100
AcDbEntity
8
0
100
AcDbLine
10
-9.6151099863039686
20
-15.01678755298855
30
0
11
-10.036017722125427
21
-15.01678917527393
31
0
0
LINE
5
130
100
AcDbEntity
8
0
100
AcDbLine
10
-10.036017722125427
20
-15.01678917527393
30
0
11
-10.036025101935774
21
-13.102071024195624
31
0
0
SPLINE
5
131
100
AcDbEntity
8
0
100
AcDbSpline
70
0
71
2
72
6
73
3
74
0
42
0.000000001
43
0.0000000001
44
0.0000000001
40
0
40
0
40
0
40
1
40
1
40
1
10
-10.036025101935774
20
-13.102071024195624
30
0
10
-10.036026461793178
20
-12.749251164216705
30
0
10
-9.9122309649951177
20
-12.498563087893411
30
0
0
SPLINE
5
132
100
AcDbEntity
8
0
100
AcDbSpline
70
0
71
2
72
6
73
3
74
0
42
0.000000001
43
0.0000000001
44
0.0000000001
40
0
40
0
40
0
40
1
40
1
40
1
10
-9.9122309649951177
20
-12.498563087893411
30
0
10
-9.7884360642446531
20
-12.247874713549187
30
0
10
-9.5511600151148919
20
-12.116855935275566
30
0
0
SPLINE
5
133
100
AcDbEntity
8
0
100
AcDbSpline
70
0
71
2
72
6
73
3
74
0
42
0.000000001
43
0.0000000001
44
0.0000000001
40
0
40
0
40
0
40
1
40
1
40
1
10
-9.5511600151148919
20
-12.116855935275566
30
0
10
-9.3138839659851325
20
-11.985837157001942
30
0
10
-8.9796330390161785
20
-11.985835868713925
30
0
0
LINE
5
134
100
AcDbEntity
8
0
100
AcDbLine
10
-10.737531012525491
20
-15.016791879084428
30
0
11
-11.158438748346949
21
-15.016793501369808
31
0
0
LINE
5
135
100
AcDbEntity
8
0
100
AcDbLine
10
-11.158438748346949
20
-15.016793501369808
30
0
11
-11.158448768348265
21
-12.417068374168965
31
0
0
LINE
5
136
100
AcDbEntity
8
0
100
AcDbLine
10
-11.158450311109808
20
-12.016793382182801
30
0
11
-10.73754257528835
21
-12.016791759897421
31
0
0
LINE
5
137
100
AcDbEntity
8
0
100
AcDbLine
10
-10.73754257528835
20
-12.016791759897421
30
0
11
-10.737531012525491
21
-15.016791879084428
31
0
0
LINE
5
138
100
AcDbEntity
8
0
100
AcDbLine
10
-11.158448768348265
20
-12.417068374168965
30
0
11
-12.664638472278424
21
-12.417074179406853
31
0
0
LINE
5
139
100
AcDbEntity
8
0
100
AcDbLine
10
-12.664638472278424
20
-12.417074179406853
30
0
11
-12.664640015039968
21
-12.016799187420691
31
0
0
LINE
5
140
100
AcDbEntity
8
0
100
AcDbLine
10
-12.664640015039968
20
-12.016799187420691
30
0
11
-10.947996443199077
21
-12.016792571040112
31
0
0
LWPOLYLINE
5
141
100
AcDbEntity
8
0
100
AcDbPolyline
90
8
70
1
43
0.0
10
-14.01608473625185
20
-12.016804396232089
10
-14.016074716250532
20
-14.616529523432934
10
-14.864079534206882
20
-14.616532791859008
10
-14.864077991445338
20
-15.01680778384517
10
-12.747159427618289
20
-15.016799624703051
10
-12.747160970379829
20
-14.616524632716887
10
-13.595166980429074
20
-14.616527901147556
10
-13.595177000430391
20
-12.016802773946711
0
SPLINE
5
142
100
AcDbEntity
8
0
100
AcDbSpline
70
0
71
2
72
6
73
3
74
0
42
0.000000001
43
0.0000000001
44
0.0000000001
40
0
40
0
40
0
40
1
40
1
40
1
10
-7.477132178412953
20
-2.9726166567843753
30
0
10
-7.1635147976810192
20
-2.9722568864333292
30
0
10
-6.9240177866211194
20
-3.1091900406425053
30
0
0
SPLINE
5
143
100
AcDbEntity
8
0
100
AcDbSpline
70
0
71
2
72
6
73
3
74
0
42
0.000000001
43
0.0000000001
44
0.0000000001
40
0
40
0
40
0
40
1
40
1
40
1
10
-6.9240177866211194
20
-3.1091900406425053
30
0
10
-6.6845207759031
20
-3.2461228968286537
30
0
10
-6.5532153813408556
20
-3.4966603302541239
30
0
0
SPLINE
5
144
100
AcDbEntity
8
0
100
AcDbSpline
70
0
71
2
72
6
73
3
74
0
42
0.000000001
43
0.0000000001
44
0.0000000001
40
0
40
0
40
0
40
1
40
1
40
1
10
-6.5532153813408556
20
-3.4966603302541239
30
0
10
-6.4219099871204914
20
-3.7471974656565661
30
0
10
-6.4215312813438583
20
-4.0773211498051403
30
0
0
LINE
5
145
100
AcDbEntity
8
0
100
AcDbLine
10
-6.4215312813438583
20
-4.0773211498051403
30
0
11
-6.4205561141057812
21
-4.927389517278506
31
0
0
SPLINE
5
146
100
AcDbEntity
8
0
100
AcDbSpline
70
0
71
2
72
6
73
3
74
0
42
0.000000001
43
0.0000000001
44
0.0000000001
40
0
40
0
40
0
40
1
40
1
40
1
10
-6.4205561141057812
20
-4.927389517278506
30
0
10
-6.4201774085000887
20
-5.2575130524155655
30
0
10
-6.5509076436982605
20
-5.5083509344884396
30
0
0
SPLINE
5
147
100
AcDbEntity
8
0
100
AcDbSpline
70
0
71
2
72
6
73
3
74
0
42
0.000000001
43
0.0000000001
44
0.0000000001
40
0
40
0
40
0
40
1
40
1
40
1
10
-6.5509076436982605
20
-5.5083509344884396
30
0
10
-6.6816378787254918
20
-5.759188965572827
30
0
10
-6.9208200904718122
20
-5.8966712430213644
30
0
0
SPLINE
5
148
100
AcDbEntity
8
0
100
AcDbSpline
70
0
71
2
72
6
73
3
74
0
42
0.000000001
43
0.0000000001
44
0.0000000001
40
0
40
0
40
0
40
1
40
1
40
1
10
-6.9208200904718122
20
-5.8966712430213644
30
0
10
-7.1600023025600148
20
-6.0341532224468732
30
0
10
-7.4736196832919477
20
-6.0345129927979189
30
0
0
SPLINE
5
149
100
AcDbEntity
8
0
100
AcDbSpline
70
0
71
2
72
6
73
3
74
0
42
0.000000001
43
0.0000000001
44
0.0000000001
40
0
40
0
40
0
40
1
40
1
40
1
10
-7.4736196832919477
20
-6.0345129927979189
30
0
10
-7.7872370640238824
20
-6.0348727631489654
30
0
10
-8.0267340747419009
20
-5.8979399069628169
30
0
0
SPLINE
5
150
100
AcDbEntity
8
0
100
AcDbSpline
70
0
71
2
72
6
73
3
74
0
42
0.000000001
43
0.0000000001
44
0.0000000001
40
0
40
0
40
0
40
1
40
1
40
1
10
-8.0267340747419009
20
-5.8979399069628169
30
0
10
-8.2662310858018007
20
-5.7610067527536399
30
0
10
-8.3975364431111661
20
-5.5104693192854359
30
0
0
SPLINE
5
151
100
AcDbEntity
8
0
100
AcDbSpline
70
0
71
2
72
6
73
3
74
0
42
0.000000001
43
0.0000000001
44
0.0000000001
40
0
40
0
40
0
40
1
40
1
40
1
10
-8.3975364431111661
20
-5.5104693192854359
30
0
10
-8.5288418002495945
20
-5.2599320348287453
30
0
10
-8.5292205058552852
20
-4.9298084996916849
30
0
0
LINE
5
152
100
AcDbEntity
8
0
100
AcDbLine
10
-8.5292205058552852
20
-4.929808499691684
30
0
11
-8.5301956730933632
21
-4.0797401322183182
31
0
0
SPLINE
5
153
100
AcDbEntity
8
0
100
AcDbSpline
70
0
71
2
72
6
73
3
74
0
42
0.000000001
43
0.0000000001
44
0.0000000001
40
0
40
0
40
0
40
1
40
1
40
1
10
-8.5301956730933632
20
-4.0797401322183182
30
0
10
-8.5305743788699964
20
-3.7496164480697445
30
0
10
-8.399844180753762
20
-3.4987787150511203
30
0
0
SPLINE
5
154
100
AcDbEntity
8
0
100
AcDbSpline
70
0
71
2
72
6
73
3
74
0
42
0.000000001
43
0.0000000001
44
0.0000000001
40
0
40
0
40
0
40
1
40
1
40
1
10
-8.399844180753762
20
-3.4987787150511203
30
0
10
-8.2691139829794107
20
-3.2479406840094671
30
0
10
-8.0299317708912081
20
-3.1104587045839582
30
0
0
SPLINE
5
155
100
AcDbEntity
8
0
100
AcDbSpline
70
0
71
2
72
6
73
3
74
0
42
0.000000001
43
0.0000000001
44
0.0000000001
40
0
40
0
40
0
40
1
40
1
40
1
10
-8.0299317708912081
20
-3.1104587045839582
30
0
10
-7.7907495591448868
20
-2.9729764271354213
30
0
10
-7.477132178412953
20
-2.9726166567843753
30
0
0
SPLINE
5
156
100
AcDbEntity
8
0
100
AcDbSpline
70
0
71
2
72
6
73
3
74
0
42
0.000000001
43
0.0000000001
44
0.0000000001
40
0
40
0
40
0
40
1
40
1
40
1
10
-7.4766564293494344
20
-3.3873344753914161
30
0
10
-7.6623510016830068
20
-3.3875474973907704
30
0
10
-7.8035892846599273
20
-3.4712720094693044
30
0
0
SPLINE
5
157
100
AcDbEntity
8
0
100
AcDbSpline
70
0
71
2
72
6
73
3
74
0
42
0.000000001
43
0.0000000001
44
0.0000000001
40
0
40
0
40
0
40
1
40
1
40
1
10
-7.8035892846599273
20
-3.4712720094693044
30
0
10
-7.9448275672949675
20
-3.5549968195708663
30
0
10
-8.0220239710267975
20
-3.708799299959733
30
0
0
SPLINE
5
158
100
AcDbEntity
8
0
100
AcDbSpline
70
0
71
2
72
6
73
3
74
0
42
0.000000001
43
0.0000000001
44
0.0000000001
40
0
40
0
40
0
40
1
40
1
40
1
10
-8.0220239710267975
20
-3.708799299959733
30
0
10
-8.0992203747586267
20
-3.8626017803485988
30
0
10
-8.0989884173336861
20
-4.0648026560988111
30
0
0
LINE
5
159
100
AcDbEntity
8
0
100
AcDbLine
10
-8.0989884173336861
20
-4.0648026560988111
30
0
11
-8.0979801134427163
21
-4.9437567565282698
31
0
0
SPLINE
5
160
100
AcDbEntity
8
0
100
AcDbSpline
70
0
71
2
72
6
73
3
74
0
42
0.000000001
43
0.0000000001
44
0.0000000001
40
0
40
0
40
0
40
1
40
1
40
1
10
-8.0979801134427181
20
-4.9437567565282698
30
0
10
-8.0977481563596587
20
-5.1459573342554545
30
0
10
-8.0201990829759033
20
-5.2995824453230389
30
0
0
SPLINE
5
161
100
AcDbEntity
8
0
100
AcDbSpline
70
0
71
2
72
6
73
3
74
0
42
0.000000001
43
0.0000000001
44
0.0000000001
40
0
40
0
40
0
40
1
40
1
40
1
10
-8.0201990829759033
20
-5.2995824453230389
30
0
10
-7.9426500095921497
20
-5.453207556390625
30
0
10
-7.8012200070551243
20
-5.5366079507961867
30
0
0
SPLINE
5
162
100
AcDbEntity
8
0
100
AcDbSpline
70
0
71
2
72
6
73
3
74
0
42
0.000000001
43
0.0000000001
44
0.0000000001
40
0
40
0
40
0
40
1
40
1
40
1
10
-7.8012200070551243
20
-5.5366079507961867
30
0
10
-7.6597900046890395
20
-5.6200081961902342
30
0
10
-7.4740954323554671
20
-5.6197951741908794
30
0
0
SPLINE
5
163
100
AcDbEntity
8
0
100
AcDbSpline
70
0
71
2
72
6
73
3
74
0
42
0.000000001
43
0.0000000001
44
0.0000000001
40
0
40
0
40
0
40
1
40
1
40
1
10
-7.4740954323554671
20
-5.6197951741908794
30
0
10
-7.288400934527651
20
-5.6195821522769949
30
0
10
-7.1471626515507305
20
-5.5358576401984605
30
0
0
SPLINE
5
164
100
AcDbEntity
8
0
100
AcDbSpline
70
0
71
2
72
6
73
3
74
0
42
0.000000001
43
0.0000000001
44
0.0000000001
40
0
40
0
40
0
40
1
40
1
40
1
10
-7.1471626515507305
20
-5.5358576401984605
30
0
10
-7.0059242942389934
20
-5.4521329790229416
30
0
10
-6.928727890678104
20
-5.298330349622562
30
0
0
SPLINE
5
165
100
AcDbEntity
8
0
100
AcDbSpline
70
0
71
2
72
6
73
3
74
0
42
0.000000001
43
0.0000000001
44
0.0000000001
40
0
40
0
40
0
40
1
40
1
40
1
10
-6.928727890678104
20
-5.298330349622562
30
0
10
-6.8515314871172155
20
-5.1445277202221815
30
0
10
-6.8517634442002739
20
-4.9423271424949968
30
0
0
LINE
5
166
100
AcDbEntity
8
0
100
AcDbLine
10
-6.8517634442002739
20
-4.9423271424949968
30
0
11
-6.8527717480912429
21
-4.0633730420655381
31
0
0
SPLINE
5
167
100
AcDbEntity
8
0
100
AcDbSpline
70
0
71
2
72
6
73
3
74
0
42
0.000000001
43
0.0000000001
44
0.0000000001
40
0
40
0
40
0
40
1
40
1
40
1
10
-6.8527717480912429
20
-4.063373042065539
30
0
10
-6.8530037055161834
20
-3.8611721663153267
30
0
10
-6.9305527787289982
20
-3.7075472042592557
30
0
0
SPLINE
5
168
100
AcDbEntity
8
0
100
AcDbSpline
70
0
71
2
72
6
73
3
74
0
42
0.000000001
43
0.0000000001
44
0.0000000001
40
0
40
0
40
0
40
1
40
1
40
1
10
-6.9305527787289982
20
-3.7075472042592557
30
0
10
-7.0081018519418112
20
-3.5539222422031842
30
0
10
-7.1495319291555335
20
-3.470521698871579
30
0
0
SPLINE
5
169
100
AcDbEntity
8
0
100
AcDbSpline
70
0
71
2
72
6
73
3
74
0
42
0.000000001
43
0.0000000001
44
0.0000000001
40
0
40
0
40
0
40
1
40
1
40
1
10
-7.1495319291555335
20
-3.470521698871579
30
0
10
-7.2909619315216183
20
-3.3871214534775316
30
0
10
-7.4766564293494344
20
-3.3873344753914161
30
0
0
LWPOLYLINE
5
170
100
AcDbEntity
8
0
100
AcDbPolyline
90
10
70
1
43
0.0
10
-9.5905729539336022
20
-6.0059923477913717
10
-9.2088674441368141
20
-6.0055544692371434
10
-9.212306565081974
20
-3.0076195374227805
10
-9.6290875971103382
20
-3.0080976533290227
10
-9.626556121335053
20
-5.2148242491021159
10
-11.04242932184839
20
-3.0097189870933381
10
-11.428261556510853
20
-3.0101615996749032
10
-11.424822435565694
20
-6.0080965314892669
10
-11.008041105514302
20
-6.0076184152411427
10
-11.010611709735791
20
-3.766782947583823
0
LINE
5
171
100
AcDbEntity
8
0
100
AcDbLine
10
-3.2911773316866402
20
-14.61648818695288
30
0
11
-3.2911809420679754
21
-13.679761855249025
31
0
0
LINE
5
172
100
AcDbEntity
8
0
100
AcDbLine
10
-3.2911824848295179
20
-13.279486863262861
30
0
11
-3.2911873516879568
21
-12.016763059752035
31
0
0
ENDSEC
0
SECTION
2
OBJECTS
0
DICTIONARY
5
C
100
AcDbDictionary
3
ACAD_GROUP
350
D
3
ACAD_MLINESTYLE
350
17
0
DICTIONARY
5
D
100
AcDbDictionary
0
DICTIONARY
5
1A
330
C
100
AcDbDictionary
0
DICTIONARY
5
17
100
AcDbDictionary
0
ENDSEC
0
EOF
