0
SECTION
2
HEADER
9
$INSUNITS
70
4
9
$ACADVER
1
AC1014
9
$HANDSEED
5
FFFF
0
ENDSEC
0
SECTION
2
TABLES
0
TABLE
2
VPORT
5
8
100
AcDbSymbolTable
0
ENDTAB
0
TABLE
2
LTYPE
5
5
100
AcDbSymbolTable
0
LTYPE
5
14
100
AcDbSymbolTableRecord
100
AcDbLinetypeTableRecord
2
BYBLOCK
70
0
0
LTYPE
5
15
100
AcDbSymbolTableRecord
100
AcDbLinetypeTableRecord
2
BYLAYER
70
0
0
ENDTAB
0
TABLE
2
LAYER
5
2
100
AcDbSymbolTable
70
2
0
LAYER
5
50
100
AcDbSymbolTableRecord
100
AcDbLayerTableRecord
2
0
70
0
6
CONTINUOUS
0
ENDTAB
0
TABLE
2
STYLE
5
3
100
AcDbSymbolTable
70
1
0
STYLE
5
11
100
AcDbSymbolTableRecord
100
AcDbTextStyleTableRecord
2
STANDARD
70
0
0
ENDTAB
0
TABLE
2
VIEW
5
6
100
AcDbSymbolTable
70
0
0
ENDTAB
0
TABLE
2
UCS
5
7
100
AcDbSymbolTable
70
0
0
ENDTAB
0
TABLE
2
APPID
5
9
100
AcDbSymbolTable
70
2
0
APPID
5
12
100
AcDbSymbolTableRecord
100
AcDbRegAppTableRecord
2
ACAD
70
0
0
ENDTAB
0
TABLE
2
DIMSTYLE
5
A
100
AcDbSymbolTable
70
1
0
ENDTAB
0
TABLE
2
BLOCK_RECORD
5
1
100
AcDbSymbolTable
70
1
0
BLOCK_RECORD
5
1F
100
AcDbSymbolTableRecord
100
AcDbBlockTableRecord
2
*MODEL_SPACE
0
BLOCK_RECORD
5
1B
100
AcDbSymbolTableRecord
100
AcDbBlockTableRecord
2
*PAPER_SPACE
0
ENDTAB
0
ENDSEC
0
SECTION
2
BLOCKS
0
BLOCK
5
20
100
AcDbEntity
100
AcDbBlockBegin
2
*MODEL_SPACE
0
ENDBLK
5
21
100
AcDbEntity
100
AcDbBlockEnd
0
BLOCK
5
1C
100
AcDbEntity
100
AcDbBlockBegin
2
*PAPER_SPACE
0
ENDBLK
5
1D
100
AcDbEntity
100
AcDbBlockEnd
0
ENDSEC
0
SECTION
2
ENTITIES
0
LWPOLYLINE
5
100
100
AcDbEntity
8
0
100
AcDbPolyline
90
8
70
1
43
0.0
10
-1.0000000000000002
20
0
42
-0.41421356237309548
10
0
20
-1.0000000000000009
10
-5.5511151231257827e-16
20
-17
42
-0.4142135623730962
10
-1.0000000000000009
20
-18
10
-17
20
-18
42
-0.41421356237309631
10
-18
20
-17
10
-18
20
-1
42
-0.41421356237309587
10
-17
20
0
0
LINE
5
101
100
AcDbEntity
8
0
100
AcDbLine
10
0
20
-18.000000268220901
30
0
11
-18.000000268220901
21
0
31
0
0
LINE
5
102
100
AcDbEntity
8
0
100
AcDbLine
10
-18
20
-18.000000268220901
30
0
11
0
21
0
31
0
0
LINE
5
103
100
AcDbEntity
8
0
100
AcDbLine
10
-2.7755575615628578e-16
20
-9
30
0
11
-18
21
-9
31
0
0
LINE
5
104
100
AcDbEntity
8
0
100
AcDbLine
10
-2.7755575615628578e-16
20
-9
30
0
11
-18
21
-18.000000268220901
31
0
0
LINE
5
105
100
AcDbEntity
8
0
100
AcDbLine
10
-18
20
-9
30
0
11
0
21
-18.000000268220901
31
0
0
LINE
5
106
100
AcDbEntity
8
0
100
AcDbLine
10
-2.7755575615628578e-16
20
-9
30
0
11
-18.000000268220901
21
0
31
0
0
LINE
5
107
100
AcDbEntity
8
0
100
AcDbLine
10
-18
20
-9
30
0
11
0
21
0
31
0
0
LWPOLYLINE
5
108
100
AcDbEntity
8
0
100
AcDbPolyline
90
4
70
1
43
0.0
10
-13.526877192390337
20
-7.4731229864235971
10
-4.5268771923903373
20
-7.4731229864235971
10
-4.5268771923903373
20
-1.4731229864235962
10
-13.526877192390337
20
-1.4731229864235962
0
LWPOLYLINE
5
109
100
AcDbEntity
8
0
100
AcDbPolyline
90
4
70
1
43
0.0
10
-5.5268772072914985
20
-2.4731230013247574
10
-12.526877177489176
20
-2.4731230013247574
10
-12.526877177489176
20
-6.4731229715224359
10
-5.5268772072914985
20
-6.4731229715224359
0
LINE
5
110
100
AcDbEntity
8
0
100
AcDbLine
10
-5.5268772072914985
20
-6.4731229715224359
30
0
11
-6.0000000894069672
21
-6.4731229715224359
31
0
0
SPLINE
5
111
100
AcDbEntity
8
0
100
AcDbSpline
70
4
71
3
72
8
73
4
74
0
42
0.000000001
43
0.0000000001
44
0.0000000001
40
0
40
0
40
0
40
0
40
1
40
1
40
1
40
1
41
1
41
1
41
1
41
1
10
-3.5242187716828042
20
-12.256574321633774
30
0
10
-3.5427522957917921
20
-12.121136992555135
30
0
10
-3.6111837456491931
20
-12.054131230099491
30
0
10
-3.7309387949196307
20
-12.056982618640145
30
0
0
SPLINE
5
112
100
AcDbEntity
8
0
100
AcDbSpline
70
4
71
3
72
8
73
4
74
0
42
0.000000001
43
0.0000000001
44
0.0000000001
40
0
40
0
40
0
40
0
40
1
40
1
40
1
40
1
41
1
41
1
41
1
41
1
10
-3.7309387949196307
20
-12.056982618640145
30
0
10
-3.850693871664328
20
-12.058408203013432
30
0
10
-3.914848355476356
20
-12.125413965469068
30
0
10
-3.9248279681002933
20
-12.256574321633774
30
0
0
LINE
5
113
100
AcDbEntity
8
0
100
AcDbLine
10
-3.9248279681002933
20
-12.25657432163378
30
0
11
-3.9248279681002933
21
-13.392821664118262
31
0
0
LINE
5
114
100
AcDbEntity
8
0
100
AcDbLine
10
-3.9248279681002933
20
-13.392821664118262
30
0
11
-4.8443757159353948
21
-13.392821664118262
31
0
0
SPLINE
5
115
100
AcDbEntity
8
0
100
AcDbSpline
70
4
71
3
72
8
73
4
74
0
42
0.000000001
43
0.0000000001
44
0.0000000001
40
0
40
0
40
0
40
0
40
1
40
1
40
1
40
1
41
1
41
1
41
1
41
1
10
-4.8443757159353984
20
-13.392821664118262
30
0
10
-4.9783873507437146
20
-13.412780834417621
30
0
10
-5.0453931131993537
20
-13.481212291143594
30
0
10
-5.0439674189290287
20
-13.600967312939769
30
0
0
SPLINE
5
116
100
AcDbEntity
8
0
100
AcDbSpline
70
4
71
3
72
8
73
4
74
0
42
0.000000001
43
0.0000000001
44
0.0000000001
40
0
40
0
40
0
40
0
40
1
40
1
40
1
40
1
41
1
41
1
41
1
41
1
10
-5.0439674189290287
20
-13.600967312939769
30
0
10
-5.0411161402854159
20
-13.719296750362657
30
0
10
-4.9755359622030664
20
-13.783451234174679
30
0
10
-4.8443757159353993
20
-13.793430874272879
30
0
0
LINE
5
117
100
AcDbEntity
8
0
100
AcDbLine
10
-4.8443757159353993
20
-13.793430874272879
30
0
11
-3.9248279681002978
21
-13.793430874272879
31
0
0
LINE
5
118
100
AcDbEntity
8
0
100
AcDbLine
10
-3.9248279681002978
20
-13.793430874272879
30
0
11
-3.9248279681002938
21
-14.573264347589667
31
0
0
LINE
5
119
100
AcDbEntity
8
0
100
AcDbLine
10
-3.9248279681002938
20
-14.573264347589667
30
0
11
-5.1038450397241526
21
-14.573264347589667
31
0
0
SPLINE
5
120
100
AcDbEntity
8
0
100
AcDbSpline
70
4
71
3
72
8
73
4
74
0
42
0.000000001
43
0.0000000001
44
0.0000000001
40
0
40
0
40
0
40
0
40
1
40
1
40
1
40
1
41
1
41
1
41
1
41
1
10
-5.1038450397241588
20
-14.573264347589667
30
0
10
-5.237856564635436
20
-14.581818265943287
30
0
10
-5.3048625468851522
20
-14.647398444025635
30
0
10
-5.3048625468851522
20
-14.771430438735752
30
0
0
SPLINE
5
121
100
AcDbEntity
8
0
100
AcDbSpline
70
4
71
3
72
8
73
4
74
0
42
0.000000001
43
0.0000000001
44
0.0000000001
40
0
40
0
40
0
40
0
40
1
40
1
40
1
40
1
41
1
41
1
41
1
41
1
10
-5.3048625468851522
20
-14.771430438735752
30
0
10
-5.3048625468851522
20
-14.895462460920124
30
0
10
-5.2378566745324733
20
-14.962468264587152
30
0
10
-5.1066964282648097
20
-14.973873502795772
30
0
0
LINE
5
122
100
AcDbEntity
8
0
100
AcDbLine
10
-5.1066964282648097
20
-14.973873502795778
30
0
11
-3.7266618494799513
21
-14.973873502795772
31
0
0
SPLINE
5
123
100
AcDbEntity
8
0
100
AcDbSpline
70
4
71
3
72
8
73
4
74
0
42
0.000000001
43
0.0000000001
44
0.0000000001
40
0
40
0
40
0
40
0
40
1
40
1
40
1
40
1
41
1
41
1
41
1
41
1
10
-3.7266618494799513
20
-14.973873502795772
30
0
10
-3.6083324395313237
20
-14.963893941686063
30
0
10
-3.541326635864293
20
-14.896888134584753
30
0
10
-3.5242187716828051
20
-14.771430466210012
30
0
0
LINE
5
124
100
AcDbEntity
8
0
100
AcDbLine
10
-3.5242187716828086
20
-14.771430466210012
30
0
11
-3.5242187716828042
21
-12.256574321633774
31
0
0
LWPOLYLINE
5
125
100
AcDbEntity
8
0
100
AcDbPolyline
90
3
70
1
43
0.0
10
-6.3783809899308945
20
-12.990786759693309
10
-7.2480305372749942
20
-12.990786759693309
10
-6.8146313479762277
20
-14.18833736229473
0
LINE
5
126
100
AcDbEntity
8
0
100
AcDbLine
10
-6.8146313479762277
20
-14.18833736229473
30
0
11
-7.2480305372749942
21
-12.990786759693309
31
0
0
LINE
5
127
100
AcDbEntity
8
0
100
AcDbLine
10
-7.2480305372749942
20
-12.990786759693309
30
0
11
-6.8146313479762277
21
-14.18833736229473
31
0
0
SPLINE
5
128
100
AcDbEntity
8
0
100
AcDbSpline
70
4
71
3
72
8
73
4
74
0
42
0.000000001
43
0.0000000001
44
0.0000000001
40
0
40
0
40
0
40
0
40
1
40
1
40
1
40
1
41
1
41
1
41
1
41
1
10
-5.7140254830735753
20
-12.329282641376642
30
0
10
-5.6783841153887913
20
-12.200973673752586
30
0
10
-5.7168786299668266
20
-12.115434435267908
30
0
10
-5.8295035319558144
20
-12.074090290501815
30
0
0
SPLINE
5
129
100
AcDbEntity
8
0
100
AcDbSpline
70
4
71
3
72
8
73
4
74
0
42
0.000000001
43
0.0000000001
44
0.0000000001
40
0
40
0
40
0
40
0
40
1
40
1
40
1
40
1
41
1
41
1
41
1
41
1
10
-5.8295035319558144
20
-12.074090290501815
30
0
10
-5.9407046079241201
20
-12.032746145735727
30
0
10
-6.0276696505761578
20
-12.072666024892982
30
0
10
-6.0889728557445721
20
-12.19241972792471
30
0
0
LINE
5
130
100
AcDbEntity
8
0
100
AcDbLine
10
-6.0889728557445721
20
-12.19241972792471
30
0
11
-6.2315383264837276
21
-12.590177769332758
31
0
0
LINE
5
131
100
AcDbEntity
8
0
100
AcDbLine
10
-6.2315383264837276
20
-12.590177769332758
30
0
11
-7.3934476163488769
21
-12.590177769332765
31
0
0
LINE
5
132
100
AcDbEntity
8
0
100
AcDbLine
10
-7.3934476163488769
20
-12.590177769332765
30
0
11
-7.5402898402078931
21
-12.182440197723555
31
0
0
SPLINE
5
133
100
AcDbEntity
8
0
100
AcDbSpline
70
4
71
3
72
8
73
4
74
0
42
0.000000001
43
0.0000000001
44
0.0000000001
40
0
40
0
40
0
40
0
40
1
40
1
40
1
40
1
41
1
41
1
41
1
41
1
10
-7.5402898402078931
20
-12.182440197723555
30
0
10
-7.6001674610030197
20
-12.062685175927372
30
0
10
-7.6842813349084906
20
-12.022766835328643
30
0
10
-7.7954821910827121
20
-12.062685175927372
30
0
0
SPLINE
5
134
100
AcDbEntity
8
0
100
AcDbSpline
70
4
71
3
72
8
73
4
74
0
42
0.000000001
43
0.0000000001
44
0.0000000001
40
0
40
0
40
0
40
0
40
1
40
1
40
1
40
1
41
1
41
1
41
1
41
1
10
-7.7954821910827121
20
-12.062685175927372
30
0
10
-7.9052579024718019
20
-12.101177932152812
30
0
10
-7.9466016076497414
20
-12.188142755010778
30
0
10
-7.9180886014195409
20
-12.322154499716131
30
0
0
LINE
5
135
100
AcDbEntity
8
0
100
AcDbLine
10
-7.9180886014195409
20
-12.322154499716136
30
0
11
-7.0042435207686964
21
-14.842713229053846
31
0
0
SPLINE
5
136
100
AcDbEntity
8
0
100
AcDbSpline
70
4
71
3
72
8
73
4
74
0
42
0.000000001
43
0.0000000001
44
0.0000000001
40
0
40
0
40
0
40
0
40
1
40
1
40
1
40
1
41
1
41
1
41
1
41
1
10
-7.0042435207686964
20
-14.842713229053846
30
0
10
-6.9714535416245571
20
-14.931103869816303
30
0
10
-6.9087247520828585
20
-14.973873530270032
30
0
10
-6.8160571521435944
20
-14.973873530270032
30
0
0
SPLINE
5
137
100
AcDbEntity
8
0
100
AcDbSpline
70
4
71
3
72
8
73
4
74
0
42
0.000000001
43
0.0000000001
44
0.0000000001
40
0
40
0
40
0
40
0
40
1
40
1
40
1
40
1
41
1
41
1
41
1
41
1
10
-6.8160571521435944
20
-14.973873530270032
30
0
10
-6.7219637480369627
20
-14.972447877211096
30
0
10
-6.6606605428685528
20
-14.928252556829865
30
0
10
-6.6292961480977048
20
-14.842713229053846
30
0
0
SPLINE
5
138
100
AcDbEntity
8
0
100
AcDbSpline
70
4
71
3
72
8
73
4
74
0
42
0.000000001
43
0.0000000001
44
0.0000000001
40
0
40
0
40
0
40
0
40
1
40
1
40
1
40
1
41
1
41
1
41
1
41
1
10
-6.6292961480977048
20
-14.842713229053846
30
0
10
-6.4753253429900219
20
-14.423570542870188
30
0
10
-6.3227803420497075
20
-14.004427911635043
30
0
10
-6.1702351213153115
20
-13.585285115554342
30
0
0
SPLINE
5
139
100
AcDbEntity
8
0
100
AcDbSpline
70
4
71
3
72
8
73
4
74
0
42
0.000000001
43
0.0000000001
44
0.0000000001
40
0
40
0
40
0
40
0
40
1
40
1
40
1
40
1
41
1
41
1
41
1
41
1
10
-6.1702351213153115
20
-13.585285115554342
30
0
10
-6.0176901203749953
20
-13.166142429370677
30
0
10
-5.8651448996406046
20
-12.7484253275603
30
0
10
-5.7140254830735753
20
-12.329282641376642
30
0
0
LINE
5
140
100
AcDbEntity
8
0
100
AcDbLine
10
-10.120726355186298
20
-13.016448597176938
30
0
11
-10.120726355186294
21
-14.774281772327885
31
0
0
SPLINE
5
141
100
AcDbEntity
8
0
100
AcDbSpline
70
4
71
3
72
8
73
4
74
0
42
0.000000001
43
0.0000000001
44
0.0000000001
40
0
40
0
40
0
40
0
40
1
40
1
40
1
40
1
41
1
41
1
41
1
41
1
10
-10.120726355186294
20
-14.774281772327885
30
0
10
-10.120726355186294
20
-14.89403682159832
30
0
10
-10.059423150017883
20
-14.959616972206412
30
0
10
-9.9382423240543343
20
-14.97102222415216
30
0
0
SPLINE
5
142
100
AcDbEntity
8
0
100
AcDbSpline
70
4
71
3
72
8
73
4
74
0
42
0.000000001
43
0.0000000001
44
0.0000000001
40
0
40
0
40
0
40
0
40
1
40
1
40
1
40
1
41
1
41
1
41
1
41
1
10
-9.9382423240543343
20
-14.97102222415216
30
0
10
-9.8156359137175109
20
-14.982427467512203
30
0
10
-9.7443531783479322
20
-14.929678216757367
30
0
10
-9.7229680939841696
20
-14.812774473604801
30
0
0
SPLINE
5
143
100
AcDbEntity
8
0
100
AcDbSpline
70
4
71
3
72
8
73
4
74
0
42
0.000000001
43
0.0000000001
44
0.0000000001
40
0
40
0
40
0
40
0
40
1
40
1
40
1
40
1
41
1
41
1
41
1
41
1
10
-9.7229680939841696
20
-14.812774473604801
30
0
10
-9.7201103314153379
20
-14.804220555251186
30
0
10
-9.7201103314153379
20
-14.791389636509376
30
0
10
-9.7201103314153379
20
-14.774281799802145
30
0
0
LINE
5
144
100
AcDbEntity
8
0
100
AcDbLine
10
-9.7201103314153379
20
-14.774281799802152
30
0
11
-9.7201103314153379
21
-13.016448597176938
31
0
0
SPLINE
5
145
100
AcDbEntity
8
0
100
AcDbSpline
70
4
71
3
72
8
73
4
74
0
42
0.000000001
43
0.0000000001
44
0.0000000001
40
0
40
0
40
0
40
0
40
1
40
1
40
1
40
1
41
1
41
1
41
1
41
1
10
-9.7201103314153379
20
-13.016448597176938
30
0
10
-9.7115550668230082
20
-12.916652635783084
30
0
10
-9.6873188137126718
20
-12.82541084001118
30
0
10
-9.6459759877110329
20
-12.742722770273074
30
0
0
SPLINE
5
146
100
AcDbEntity
8
0
100
AcDbSpline
70
4
71
3
72
8
73
4
74
0
42
0.000000001
43
0.0000000001
44
0.0000000001
40
0
40
0
40
0
40
0
40
1
40
1
40
1
40
1
41
1
41
1
41
1
41
1
10
-9.6459759877110329
20
-12.742722770273074
30
0
10
-9.6046340408856956
20
-12.660034700534972
30
0
10
-9.5404774690299536
20
-12.591603353706047
30
0
10
-9.4520868420046273
20
-12.540279678738795
30
0
0
SPLINE
5
147
100
AcDbEntity
8
0
100
AcDbSpline
70
4
71
3
72
8
73
4
74
0
42
0.000000001
43
0.0000000001
44
0.0000000001
40
0
40
0
40
0
40
0
40
1
40
1
40
1
40
1
41
1
41
1
41
1
41
1
10
-9.4520868420046273
20
-12.540279678738795
30
0
10
-9.2553469671397988
20
-12.421950241315908
30
0
10
-9.0671605985146915
20
-12.417673488196044
30
0
10
-8.8889537600907431
20
-12.526023175623704
30
0
0
SPLINE
5
148
100
AcDbEntity
8
0
100
AcDbSpline
70
4
71
3
72
8
73
4
74
0
42
0.000000001
43
0.0000000001
44
0.0000000001
40
0
40
0
40
0
40
0
40
1
40
1
40
1
40
1
41
1
41
1
41
1
41
1
10
-8.8889537600907431
20
-12.526023175623704
30
0
10
-8.710753075900918
20
-12.634373082845427
30
0
10
-8.6152340874210047
20
-12.796897613986907
30
0
10
-8.6009778040999763
20
-13.016448597176939
30
0
0
LINE
5
149
100
AcDbEntity
8
0
100
AcDbLine
10
-8.6009778040999763
20
-13.016448597176939
30
0
11
-8.6009778040999745
21
-14.774281772327889
31
0
0
SPLINE
5
150
100
AcDbEntity
8
0
100
AcDbSpline
70
4
71
3
72
8
73
4
74
0
42
0.000000001
43
0.0000000001
44
0.0000000001
40
0
40
0
40
0
40
0
40
1
40
1
40
1
40
1
41
1
41
1
41
1
41
1
10
-8.6009778040999745
20
-14.774281772327889
30
0
10
-8.6009778040999745
20
-14.882631583389706
30
0
10
-8.5468029603861488
20
-14.948211733997798
30
0
10
-8.4413044417050731
20
-14.969596557356095
30
0
0
SPLINE
5
151
100
AcDbEntity
8
0
100
AcDbSpline
70
4
71
3
72
8
73
4
74
0
42
0.000000001
43
0.0000000001
44
0.0000000001
40
0
40
0
40
0
40
0
40
1
40
1
40
1
40
1
41
1
41
1
41
1
41
1
10
-8.4413044417050731
20
-14.969596557356095
30
0
10
-8.335805923023992
20
-14.989555732806888
30
0
10
-8.2602459949464002
20
-14.951063036681392
30
0
10
-8.214625536648601
20
-14.851267161144596
30
0
0
SPLINE
5
152
100
AcDbEntity
8
0
100
AcDbSpline
70
4
71
3
72
8
73
4
74
0
42
0.000000001
43
0.0000000001
44
0.0000000001
40
0
40
0
40
0
40
0
40
1
40
1
40
1
40
1
41
1
41
1
41
1
41
1
10
-8.214625536648601
20
-14.851267161144596
30
0
10
-8.2032217408386003
20
-14.828456684727357
30
0
10
-8.1989441085424399
20
-14.802794874717991
30
0
10
-8.1989441085424399
20
-14.774281772327889
30
0
0
LINE
5
153
100
AcDbEntity
8
0
100
AcDbLine
10
-8.1989441085424399
20
-14.774281772327889
30
0
11
-8.1989441085424399
21
-13.016448597176939
31
0
0
LINE
5
154
100
AcDbEntity
8
0
100
AcDbLine
10
-8.1989441085424399
20
-13.016448597176939
30
0
11
-8.1989441085424399
21
-12.987935590946735
31
0
0
SPLINE
5
155
100
AcDbEntity
8
0
100
AcDbSpline
70
4
71
3
72
8
73
4
74
0
42
0.000000001
43
0.0000000001
44
0.0000000001
40
0
40
0
40
0
40
0
40
1
40
1
40
1
40
1
41
1
41
1
41
1
41
1
10
-8.1989441085424399
20
-12.987935590946741
30
0
10
-8.214625536648601
20
-12.691399315099902
30
0
10
-8.3158477417979686
20
-12.464720190249359
30
0
10
-8.5026089656379362
20
-12.310749165347605
30
0
0
SPLINE
5
156
100
AcDbEntity
8
0
100
AcDbSpline
70
4
71
3
72
8
73
4
74
0
42
0.000000001
43
0.0000000001
44
0.0000000001
40
0
40
0
40
0
40
0
40
1
40
1
40
1
40
1
41
1
41
1
41
1
41
1
10
-8.5026089656379362
20
-12.310749165347605
30
0
10
-8.6893697498897602
20
-12.155352775866641
30
0
10
-8.896089594543902
20
-12.072664706128535
30
0
10
-9.121343354815231
20
-12.064110760300657
30
0
0
SPLINE
5
157
100
AcDbEntity
8
0
100
AcDbSpline
70
4
71
3
72
8
73
4
74
0
42
0.000000001
43
0.0000000001
44
0.0000000001
40
0
40
0
40
0
40
0
40
1
40
1
40
1
40
1
41
1
41
1
41
1
41
1
10
-9.121343354815231
20
-12.064110760300657
30
0
10
-9.3465966754984127
20
-12.055556594678707
30
0
10
-9.5575937128605712
20
-12.119711408181846
30
0
10
-9.7571856356482769
20
-12.257999906007065
30
0
0
SPLINE
5
158
100
AcDbEntity
8
0
100
AcDbSpline
70
4
71
3
72
8
73
4
74
0
42
0.000000001
43
0.0000000001
44
0.0000000001
40
0
40
0
40
0
40
0
40
1
40
1
40
1
40
1
41
1
41
1
41
1
41
1
10
-9.7571856356482769
20
-12.257999906007065
30
0
10
-9.9553519740626957
20
-12.396288623626361
30
0
10
-10.075106776064796
20
-12.61156241410837
30
0
10
-10.115025336457602
20
-12.902396132667985
30
0
0
SPLINE
5
159
100
AcDbEntity
8
0
100
AcDbSpline
70
4
71
3
72
8
73
4
74
0
42
0.000000001
43
0.0000000001
44
0.0000000001
40
0
40
0
40
0
40
0
40
1
40
1
40
1
40
1
41
1
41
1
41
1
41
1
10
-10.115025336457602
20
-12.902396132667985
30
0
10
-10.115025336457602
20
-12.910950298289933
30
0
10
-10.117883099026436
20
-12.939463304520133
30
0
10
-10.120727234362601
20
-12.987935371152659
30
0
0
LINE
5
160
100
AcDbEntity
8
0
100
AcDbLine
10
-10.120727234362601
20
-12.987935371152663
30
0
11
-10.120726355186298
21
-13.016448597176938
31
0
0
LINE
5
161
100
AcDbEntity
8
0
100
AcDbLine
10
-10.671029177740589
20
-12.05270564572621
30
0
11
-12.185074951745609
21
-12.05270564572621
31
0
0
SPLINE
5
162
100
AcDbEntity
8
0
100
AcDbSpline
70
4
71
3
72
8
73
4
74
0
42
0.000000001
43
0.0000000001
44
0.0000000001
40
0
40
0
40
0
40
0
40
1
40
1
40
1
40
1
41
1
41
1
41
1
41
1
10
-12.185074951745609
20
-12.05270564572621
30
0
10
-12.317660892283602
20
-12.061259811348158
30
0
10
-12.384666434945169
20
-12.12541396546907
30
0
10
-12.386092458906601
20
-12.246594791432617
30
0
0
SPLINE
5
163
100
AcDbEntity
8
0
100
AcDbSpline
70
4
71
3
72
8
73
4
74
0
42
0.000000001
43
0.0000000001
44
0.0000000001
40
0
40
0
40
0
40
0
40
1
40
1
40
1
40
1
41
1
41
1
41
1
41
1
10
-12.386092458906601
20
-12.246594791432617
30
0
10
-12.387521120396949
20
-12.367775617396157
30
0
10
-12.320512061030175
20
-12.436206964225081
30
0
10
-12.186500975707048
20
-12.451889051713469
30
0
0
LINE
5
164
100
AcDbEntity
8
0
100
AcDbLine
10
-12.186500975707048
20
-12.451889051713469
30
0
11
-10.870621100528293
21
-12.450464786104632
31
0
0
LINE
5
165
100
AcDbEntity
8
0
100
AcDbLine
10
-10.870621100528293
20
-12.450464786104632
30
0
11
-10.870621100528293
21
-14.77143046621001
31
0
0
SPLINE
5
166
100
AcDbEntity
8
0
100
AcDbSpline
70
4
71
3
72
8
73
4
74
0
42
0.000000001
43
0.0000000001
44
0.0000000001
40
0
40
0
40
0
40
0
40
1
40
1
40
1
40
1
41
1
41
1
41
1
41
1
10
-10.870621100528293
20
-14.771430466210017
30
0
10
-10.859215546365689
20
-14.902590760557633
30
0
10
-10.795061612038859
20
-14.969596564224661
30
0
10
-10.676731954821886
20
-14.972447877211097
30
0
0
SPLINE
5
167
100
AcDbEntity
8
0
100
AcDbSpline
70
4
71
3
72
8
73
4
74
0
42
0.000000001
43
0.0000000001
44
0.0000000001
40
0
40
0
40
0
40
0
40
1
40
1
40
1
40
1
41
1
41
1
41
1
41
1
10
-10.676731954821886
20
-14.972447877211097
30
0
10
-10.556976713231634
20
-14.975299186763253
30
0
10
-10.488545586196782
20
-14.908293379661938
30
0
10
-10.468586086206301
20
-14.771430466210017
30
0
0
LINE
5
168
100
AcDbEntity
8
0
100
AcDbLine
10
-10.468586086206301
20
-14.771430466210017
30
0
11
-10.468586086206308
21
-12.250871764346554
31
0
0
SPLINE
5
169
100
AcDbEntity
8
0
100
AcDbSpline
70
4
71
3
72
8
73
4
74
0
42
0.000000001
43
0.0000000001
44
0.0000000001
40
0
40
0
40
0
40
0
40
1
40
1
40
1
40
1
41
1
41
1
41
1
41
1
10
-10.468586086206308
20
-12.250871764346554
30
0
10
-10.485696175802811
20
-12.125414185263143
30
0
10
-10.554125104896915
20
-12.059834007180799
30
0
10
-10.671029177740589
20
-12.05270564572621
30
0
0
SPLINE
5
170
100
AcDbEntity
8
0
100
AcDbSpline
70
4
71
3
72
8
73
4
74
0
42
0.000000001
43
0.0000000001
44
0.0000000001
40
0
40
0
40
0
40
0
40
1
40
1
40
1
40
1
41
1
41
1
41
1
41
1
10
-13.515211549833539
20
-12.253722933093128
30
0
10
-13.523766814425864
20
-12.122562576928424
30
0
10
-13.587920309164556
20
-12.05555681447278
30
0
10
-13.706249526793375
20
-12.054131230099493
30
0
0
SPLINE
5
171
100
AcDbEntity
8
0
100
AcDbSpline
70
4
71
3
72
8
73
4
74
0
42
0.000000001
43
0.0000000001
44
0.0000000001
40
0
40
0
40
0
40
0
40
1
40
1
40
1
40
1
41
1
41
1
41
1
41
1
10
-13.706249526793375
20
-12.054131230099493
30
0
10
-13.824578744422187
20
-12.051278083206238
30
0
10
-13.894435455830322
20
-12.118285823808554
30
0
10
-13.917246564155523
20
-12.253722933093128
30
0
0
LINE
5
172
100
AcDbEntity
8
0
100
AcDbLine
10
-13.917246564155528
20
-12.253722933093128
30
0
11
-13.917246564155521
21
-14.571838708267864
31
0
0
LINE
5
173
100
AcDbEntity
8
0
100
AcDbLine
10
-13.917246564155521
20
-14.571838708267864
30
0
11
-14.439035940891465
21
-14.571838708267869
31
0
0
SPLINE
5
174
100
AcDbEntity
8
0
100
AcDbSpline
70
4
71
3
72
8
73
4
74
0
42
0.000000001
43
0.0000000001
44
0.0000000001
40
0
40
0
40
0
40
0
40
1
40
1
40
1
40
1
41
1
41
1
41
1
41
1
10
-14.439035940891465
20
-14.571838708267869
30
0
10
-14.57019673664432
20
-14.580392626621483
30
0
10
-14.635776255344448
20
-14.647398444025637
30
0
10
-14.635776255344448
20
-14.771430466210017
30
0
0
SPLINE
5
175
100
AcDbEntity
8
0
100
AcDbSpline
70
4
71
3
72
8
73
4
74
0
42
0.000000001
43
0.0000000001
44
0.0000000001
40
0
40
0
40
0
40
0
40
1
40
1
40
1
40
1
41
1
41
1
41
1
41
1
10
-14.635776255344448
20
-14.771430466210017
30
0
10
-14.635776255344448
20
-14.895462488394386
30
0
10
-14.570195857468018
20
-14.962468292061414
30
0
10
-14.439035940891465
20
-14.973873530270033
30
0
0
LINE
5
176
100
AcDbEntity
8
0
100
AcDbLine
10
-14.439035940891465
20
-14.973873530270041
30
0
11
-12.991996149136158
21
-14.973873530270033
31
0
0
SPLINE
5
177
100
AcDbEntity
8
0
100
AcDbSpline
70
4
71
3
72
8
73
4
74
0
42
0.000000001
43
0.0000000001
44
0.0000000001
40
0
40
0
40
0
40
0
40
1
40
1
40
1
40
1
41
1
41
1
41
1
41
1
10
-12.991996149136158
20
-14.973873530270033
30
0
10
-12.85941020859817
20
-14.962468285192847
30
0
10
-12.792404665936605
20
-14.894036828466888
30
0
10
-12.792404665936605
20
-14.771430466210017
30
0
0
SPLINE
5
178
100
AcDbEntity
8
0
100
AcDbSpline
70
4
71
3
72
8
73
4
74
0
42
0.000000001
43
0.0000000001
44
0.0000000001
40
0
40
0
40
0
40
0
40
1
40
1
40
1
40
1
41
1
41
1
41
1
41
1
10
-12.792404665936605
20
-14.771430466210017
30
0
10
-12.792404665936605
20
-14.648824083347439
30
0
10
-12.857985063813031
20
-14.581818293417545
30
0
10
-12.991996149136158
20
-14.571838708267869
30
0
0
LINE
5
179
100
AcDbEntity
8
0
100
AcDbLine
10
-12.991996149136158
20
-14.571838708267869
30
0
11
-13.515211549833538
21
-14.571838708267869
31
0
0
LINE
5
180
100
AcDbEntity
8
0
100
AcDbLine
10
-13.515211549833538
20
-14.571838708267869
30
0
11
-13.515211549833539
21
-12.253722933093128
31
0
0
SPLINE
5
181
100
AcDbEntity
8
0
100
AcDbSpline
70
4
71
3
72
8
73
4
74
0
42
0.000000001
43
0.0000000001
44
0.0000000001
40
0
40
0
40
0
40
0
40
1
40
1
40
1
40
1
41
1
41
1
41
1
41
1
10
-8.7259841833870055
20
-5.1165613869616111
30
0
10
-8.6467854583155184
20
-5.3292246302091204
30
0
10
-8.5309206568220493
20
-5.5257547998309562
30
0
10
-8.3783897789065929
20
-5.7076185388839997
30
0
0
SPLINE
5
182
100
AcDbEntity
8
0
100
AcDbSpline
70
4
71
3
72
8
73
4
74
0
42
0.000000001
43
0.0000000001
44
0.0000000001
40
0
40
0
40
0
40
0
40
1
40
1
40
1
40
1
41
1
41
1
41
1
41
1
10
-8.3783897789065929
20
-5.7076185388839997
30
0
10
-8.2258589009911383
20
-5.8894822779370415
30
0
10
-8.0293287313693025
20
-5.9804141474635628
30
0
10
-7.7887992700410846
20
-5.9804141474635628
30
0
0
SPLINE
5
183
100
AcDbEntity
8
0
100
AcDbSpline
70
4
71
3
72
8
73
4
74
0
42
0.000000001
43
0.0000000001
44
0.0000000001
40
0
40
0
40
0
40
0
40
1
40
1
40
1
40
1
41
1
41
1
41
1
41
1
10
-7.7887992700410846
20
-5.9804141474635628
30
0
10
-7.6626679671494582
20
-5.9804141474635628
30
0
10
-7.5409365934284702
20
-5.9466813571553363
30
0
10
-7.4265384349918779
20
-5.8806824195957654
30
0
0
SPLINE
5
184
100
AcDbEntity
8
0
100
AcDbSpline
70
4
71
3
72
8
73
4
74
0
42
0.000000001
43
0.0000000001
44
0.0000000001
40
0
40
0
40
0
40
0
40
1
40
1
40
1
40
1
41
1
41
1
41
1
41
1
10
-7.4265384349918779
20
-5.8806824195957654
30
0
10
-7.18894225977742
20
-5.7442846153059834
30
0
10
-7.0173450221225329
20
-5.5272214428878366
30
0
10
-6.9088134359134585
20
-5.2280262592844426
30
0
0
SPLINE
5
185
100
AcDbEntity
8
0
100
AcDbSpline
70
4
71
3
72
8
73
4
74
0
42
0.000000001
43
0.0000000001
44
0.0000000001
40
0
40
0
40
0
40
0
40
1
40
1
40
1
40
1
41
1
41
1
41
1
41
1
10
-6.9088134359134585
20
-5.2280262592844426
30
0
10
-6.8002818497043851
20
-4.9288310756810505
30
0
10
-6.7577492010548834
20
-4.6208360337363814
30
0
10
-6.7812154899649535
20
-4.3055077765073166
30
0
0
SPLINE
5
186
100
AcDbEntity
8
0
100
AcDbSpline
70
4
71
3
72
8
73
4
74
0
42
0.000000001
43
0.0000000001
44
0.0000000001
40
0
40
0
40
0
40
0
40
1
40
1
40
1
40
1
41
1
41
1
41
1
41
1
10
-6.7812154899649535
20
-4.3055077765073166
30
0
10
-6.8046855982579837
20
-3.990179519278251
30
0
10
-6.8941470053446654
20
-3.7041841231867725
30
0
10
-7.052544455487638
20
-3.4475215882328811
30
0
0
SPLINE
5
187
100
AcDbEntity
8
0
100
AcDbSpline
70
4
71
3
72
8
73
4
74
0
42
0.000000001
43
0.0000000001
44
0.0000000001
40
0
40
0
40
0
40
0
40
1
40
1
40
1
40
1
41
1
41
1
41
1
41
1
10
-7.052544455487638
20
-3.4475215882328811
30
0
10
-7.2094752625737311
20
-3.1893924102221116
30
0
10
-7.4368049363900344
20
-3.0353948892497771
30
0
10
-7.7330668338796684
20
-2.9840623822589989
30
0
0
SPLINE
5
188
100
AcDbEntity
8
0
100
AcDbSpline
70
4
71
3
72
8
73
4
74
0
42
0.000000001
43
0.0000000001
44
0.0000000001
40
0
40
0
40
0
40
0
40
1
40
1
40
1
40
1
41
1
41
1
41
1
41
1
10
-7.7330668338796684
20
-2.9840623822589989
30
0
10
-7.9149305729327102
20
-2.9517962350076528
30
0
10
-8.0806612383600793
20
-2.9884699501955585
30
0
10
-8.2317254732186562
20
-3.0940606115249518
30
0
0
SPLINE
5
189
100
AcDbEntity
8
0
100
AcDbSpline
70
4
71
3
72
8
73
4
74
0
42
0.000000001
43
0.0000000001
44
0.0000000001
40
0
40
0
40
0
40
0
40
1
40
1
40
1
40
1
41
1
41
1
41
1
41
1
10
-8.2317254732186562
20
-3.0940606115249518
30
0
10
-8.3813230650203518
20
-3.1981922685633881
30
0
10
-8.5001211526275817
20
-3.3257902145118932
30
0
10
-8.5881197360403441
20
-3.4753878063135897
30
0
0
SPLINE
5
190
100
AcDbEntity
8
0
100
AcDbSpline
70
4
71
3
72
8
73
4
74
0
42
0.000000001
43
0.0000000001
44
0.0000000001
40
0
40
0
40
0
40
0
40
1
40
1
40
1
40
1
41
1
41
1
41
1
41
1
10
-8.5881197360403441
20
-3.4753878063135897
30
0
10
-8.7259841833870055
20
-3.7159172676418075
30
0
10
-8.8051829084584909
20
-3.9813796609369745
30
0
10
-8.8271825543116815
20
-4.2732416292559696
30
0
0
SPLINE
5
191
100
AcDbEntity
8
0
100
AcDbSpline
70
4
71
3
72
8
73
4
74
0
42
0.000000001
43
0.0000000001
44
0.0000000001
40
0
40
0
40
0
40
0
40
1
40
1
40
1
40
1
41
1
41
1
41
1
41
1
10
-8.8271825543116815
20
-4.2732416292559696
30
0
10
-8.8491783807819129
20
-4.5636369545180866
30
0
10
-8.8154494098566474
20
-4.8452324214389266
30
0
10
-8.7259841833870055
20
-5.1165613869616111
30
0
0
SPLINE
5
192
100
AcDbEntity
8
0
100
AcDbSpline
70
4
71
3
72
8
73
4
74
0
42
0.000000001
43
0.0000000001
44
0.0000000001
40
0
40
0
40
0
40
0
40
1
40
1
40
1
40
1
41
1
41
1
41
1
41
1
10
-7.8005324144961197
20
-5.5638875193098203
30
0
10
-7.8254615270801073
20
-5.5638875193098203
30
0
10
-7.8474611729332988
20
-5.5609847882597467
30
0
10
-7.8679941757296099
20
-5.5550800222026231
30
0
0
SPLINE
5
193
100
AcDbEntity
8
0
100
AcDbSpline
70
4
71
3
72
8
73
4
74
0
42
0.000000001
43
0.0000000001
44
0.0000000001
40
0
40
0
40
0
40
0
40
1
40
1
40
1
40
1
41
1
41
1
41
1
41
1
10
-7.8679941757296099
20
-5.5550800222026231
30
0
10
-8.0175917675313055
20
-5.5140063778440798
30
0
10
-8.1319899259678969
20
-5.4216155040266001
30
0
10
-8.2141219371531431
20
-5.2749511983386626
30
0
0
SPLINE
5
194
100
AcDbEntity
8
0
100
AcDbSpline
70
4
71
3
72
8
73
4
74
0
42
0.000000001
43
0.0000000001
44
0.0000000001
40
0
40
0
40
0
40
0
40
1
40
1
40
1
40
1
41
1
41
1
41
1
41
1
10
-8.2141219371531431
20
-5.2749511983386626
30
0
10
-8.294791124664469
20
-5.1282868926507241
30
0
10
-8.3490530983860456
20
-4.9640228702802345
30
0
10
-8.3769193164667541
20
-4.7821591312271918
30
0
0
SPLINE
5
195
100
AcDbEntity
8
0
100
AcDbSpline
70
4
71
3
72
8
73
4
74
0
42
0.000000001
43
0.0000000001
44
0.0000000001
40
0
40
0
40
0
40
0
40
1
40
1
40
1
40
1
41
1
41
1
41
1
41
1
10
-8.3769193164667541
20
-4.7821591312271918
30
0
10
-8.4047817151645017
20
-4.6002953921741501
30
0
10
-8.4091892831010604
20
-4.4169650100642279
30
0
10
-8.3901152845957068
20
-4.2351012710111844
30
0
0
SPLINE
5
196
100
AcDbEntity
8
0
100
AcDbSpline
70
4
71
3
72
8
73
4
74
0
42
0.000000001
43
0.0000000001
44
0.0000000001
40
0
40
0
40
0
40
0
40
1
40
1
40
1
40
1
41
1
41
1
41
1
41
1
10
-8.3901152845957068
20
-4.2351012710111844
30
0
10
-8.3710527442392362
20
-4.0517708889012631
30
0
10
-8.3358494914911692
20
-3.9036399401564461
30
0
10
-8.2845169845003923
20
-3.7921750678336137
30
0
0
SPLINE
5
197
100
AcDbEntity
8
0
100
AcDbSpline
70
4
71
3
72
8
73
4
74
0
42
0.000000001
43
0.0000000001
44
0.0000000001
40
0
40
0
40
0
40
0
40
1
40
1
40
1
40
1
41
1
41
1
41
1
41
1
10
-8.2845169845003923
20
-3.7921750678336137
30
0
10
-8.2331844775096137
20
-3.6821768385676599
30
0
10
-8.158385681608765
20
-3.5780451815292249
30
0
10
-8.0586539537409685
20
-3.4812467397751861
30
0
0
SPLINE
5
198
100
AcDbEntity
8
0
100
AcDbSpline
70
4
71
3
72
8
73
4
74
0
42
0.000000001
43
0.0000000001
44
0.0000000001
40
0
40
0
40
0
40
0
40
1
40
1
40
1
40
1
41
1
41
1
41
1
41
1
10
-8.0586539537409685
20
-3.4812467397751861
30
0
10
-7.9589222258731702
20
-3.3844482980211472
30
0
10
-7.8415907813228198
20
-3.3565820799404387
30
0
10
-7.7051929770330387
20
-3.4005813716468203
30
0
0
SPLINE
5
199
100
AcDbEntity
8
0
100
AcDbSpline
70
4
71
3
72
8
73
4
74
0
42
0.000000001
43
0.0000000001
44
0.0000000001
40
0
40
0
40
0
40
0
40
1
40
1
40
1
40
1
41
1
41
1
41
1
41
1
10
-7.7051929770330387
20
-3.4005813716468203
30
0
10
-7.5878615324826884
20
-3.4357808050119254
30
0
10
-7.4925297337855294
20
-3.5091129578558942
30
0
10
-7.4206642239984397
20
-3.6205778301787266
30
0
0
SPLINE
5
200
100
AcDbEntity
8
0
100
AcDbSpline
70
4
71
3
72
8
73
4
74
0
42
0.000000001
43
0.0000000001
44
0.0000000001
40
0
40
0
40
0
40
0
40
1
40
1
40
1
40
1
41
1
41
1
41
1
41
1
10
-7.4206642239984397
20
-3.6205778301787266
30
0
10
-7.3473358905374315
20
-3.732042702501559
30
0
10
-7.2930662780499347
20
-3.856707362336306
30
0
10
-7.2578668446848296
20
-3.9945718096829674
30
0
0
SPLINE
5
201
100
AcDbEntity
8
0
100
AcDbSpline
70
4
71
3
72
8
73
4
74
0
42
0.000000001
43
0.0000000001
44
0.0000000001
40
0
40
0
40
0
40
0
40
1
40
1
40
1
40
1
41
1
41
1
41
1
41
1
10
-7.2578668446848296
20
-3.9945718096829674
30
0
10
-7.2212007682628441
20
-4.1324362570296289
30
0
10
-7.200667765466533
20
-4.2732339904900485
30
0
10
-7.1962716556788564
20
-4.4154983670073475
30
0
0
SPLINE
5
202
100
AcDbEntity
8
0
100
AcDbSpline
70
4
71
3
72
8
73
4
74
0
42
0.000000001
43
0.0000000001
44
0.0000000001
40
0
40
0
40
0
40
0
40
1
40
1
40
1
40
1
41
1
41
1
41
1
41
1
10
-7.1962716556788564
20
-4.4154983670073475
30
0
10
-7.1903630702387709
20
-4.556296100467768
30
0
10
-7.1977726731823815
20
-4.678027474188756
30
0
10
-7.2168084778581276
20
-4.7777592020565542
30
0
0
SPLINE
5
203
100
AcDbEntity
8
0
100
AcDbSpline
70
4
71
3
72
8
73
4
74
0
42
0.000000001
43
0.0000000001
44
0.0000000001
40
0
40
0
40
0
40
0
40
1
40
1
40
1
40
1
41
1
41
1
41
1
41
1
10
-7.2168084778581276
20
-4.7777592020565542
30
0
10
-7.2402785861511587
20
-4.9141570063463362
30
0
10
-7.2989404890433729
20
-5.0798876717737054
30
0
10
-7.3913390016267737
20
-5.2734845552817822
30
0
0
SPLINE
5
204
100
AcDbEntity
8
0
100
AcDbSpline
70
4
71
3
72
8
73
4
74
0
42
0.000000001
43
0.0000000001
44
0.0000000001
40
0
40
0
40
0
40
0
40
1
40
1
40
1
40
1
41
1
41
1
41
1
41
1
10
-7.3913390016267737
20
-5.2734845552817822
30
0
10
-7.4837336948272135
20
-5.4670814387898599
30
0
10
-7.6201353184999565
20
-5.5638798805438991
30
0
10
-7.8005324144961197
20
-5.5638875193098203
30
0
0
LINE
5
205
100
AcDbEntity
8
0
100
AcDbLine
10
-11.247143598162651
20
-3.1791259088239561
30
0
11
-11.247143598162651
21
-5.7692175472729339
31
0
0
SPLINE
5
206
100
AcDbEntity
8
0
100
AcDbSpline
70
4
71
3
72
8
73
4
74
0
42
0.000000001
43
0.0000000001
44
0.0000000001
40
0
40
0
40
0
40
0
40
1
40
1
40
1
40
1
41
1
41
1
41
1
41
1
10
-11.247143598162651
20
-5.7692175472729321
30
0
10
-11.236880916147456
20
-5.905615351562715
30
0
10
-11.169407696765084
20
-5.9745475752360457
30
0
10
-11.046213499370177
20
-5.9760142182929243
30
0
0
SPLINE
5
207
100
AcDbEntity
8
0
100
AcDbSpline
70
4
71
3
72
8
73
4
74
0
42
0.000000001
43
0.0000000001
44
0.0000000001
40
0
40
0
40
0
40
0
40
1
40
1
40
1
40
1
41
1
41
1
41
1
41
1
10
-11.046213499370177
20
-5.9760142182929243
30
0
10
-10.923015482592309
20
-5.9775190551794104
30
0
10
-10.851149972805221
20
-5.908548637676474
30
0
10
-10.833550256122669
20
-5.7692175472729321
30
0
0
LINE
5
208
100
AcDbEntity
8
0
100
AcDbLine
10
-10.833550256122669
20
-5.7692175472729321
30
0
11
-10.833550256122669
21
-3.9007142928086083
31
0
0
LINE
5
209
100
AcDbEntity
8
0
100
AcDbLine
10
-10.833550256122669
20
-3.9007142928086083
30
0
11
-9.6015700883439923
21
-5.8792157765388868
31
0
0
SPLINE
5
210
100
AcDbEntity
8
0
100
AcDbSpline
70
4
71
3
72
8
73
4
74
0
42
0.000000001
43
0.0000000001
44
0.0000000001
40
0
40
0
40
0
40
0
40
1
40
1
40
1
40
1
41
1
41
1
41
1
41
1
10
-9.6015700883439905
20
-5.8792157765388868
30
0
10
-9.5414377230119385
20
-5.9716219278882079
30
0
10
-9.4666389271110898
20
-6.0024137933167534
30
0
10
-9.377173700641448
20
-5.9701476460654064
30
0
0
SPLINE
5
211
100
AcDbEntity
8
0
100
AcDbSpline
70
4
71
3
72
8
73
4
74
0
42
0.000000001
43
0.0000000001
44
0.0000000001
40
0
40
0
40
0
40
0
40
1
40
1
40
1
40
1
41
1
41
1
41
1
41
1
10
-9.377173700641448
20
-5.9701476460654064
30
0
10
-9.2877122935547654
20
-5.9378814988140602
30
0
10
-9.2363759671810275
20
-5.8704159181976099
30
0
10
-9.2217095366122344
20
-5.7692175472729321
30
0
0
LINE
5
212
100
AcDbEntity
8
0
100
AcDbLine
10
-9.2217095366122344
20
-5.7692175472729321
30
0
11
-9.2217095366122344
21
-3.1791259088239556
31
0
0
SPLINE
5
213
100
AcDbEntity
8
0
100
AcDbSpline
70
4
71
3
72
8
73
4
74
0
42
0.000000001
43
0.0000000001
44
0.0000000001
40
0
40
0
40
0
40
0
40
1
40
1
40
1
40
1
41
1
41
1
41
1
41
1
10
-9.2217095366122344
20
-3.1791259088239561
30
0
10
-9.2422463587915065
20
-3.041261461477295
30
0
10
-9.3097081200249967
20
-2.9737958808608433
30
0
10
-9.4270395645753453
20
-2.9737958808608433
30
0
0
SPLINE
5
214
100
AcDbEntity
8
0
100
AcDbSpline
70
4
71
3
72
8
73
4
74
0
42
0.000000001
43
0.0000000001
44
0.0000000001
40
0
40
0
40
0
40
0
40
1
40
1
40
1
40
1
41
1
41
1
41
1
41
1
10
-9.4270395645753453
20
-2.9737958808608433
30
0
10
-9.5443710091256957
20
-2.9737958808608433
30
0
10
-9.6133032327990264
20
-3.041261461477295
30
0
10
-9.635302878652217
20
-3.1791259088239561
30
0
0
LINE
5
215
100
AcDbEntity
8
0
100
AcDbLine
10
-9.635302878652217
20
-3.1791259088239556
30
0
11
-9.635302878652217
21
-5.0461625202314009
31
0
0
LINE
5
216
100
AcDbEntity
8
0
100
AcDbLine
10
-9.635302878652217
20
-5.0461625202314009
30
0
11
-10.867283046430893
21
-3.0705943226148822
31
0
0
SPLINE
5
217
100
AcDbEntity
8
0
100
AcDbSpline
70
4
71
3
72
8
73
4
74
0
42
0.000000001
43
0.0000000001
44
0.0000000001
40
0
40
0
40
0
40
0
40
1
40
1
40
1
40
1
41
1
41
1
41
1
41
1
10
-10.867283046430893
20
-3.0705943226148817
30
0
10
-10.921548839535431
20
-2.9840547434930773
30
0
10
-10.997814278493156
20
-2.9547295211214113
30
0
10
-11.097546006360954
20
-2.9825957392021198
30
0
0
SPLINE
5
218
100
AcDbEntity
8
0
100
AcDbSpline
70
4
71
3
72
8
73
4
74
0
42
0.000000001
43
0.0000000001
44
0.0000000001
40
0
40
0
40
0
40
0
40
1
40
1
40
1
40
1
41
1
41
1
41
1
41
1
10
-11.097546006360954
20
-2.9825957392021198
30
0
10
-11.197277734228752
20
-3.0104619572828279
30
0
10
-11.247143598162651
20
-3.0764608948423993
30
0
10
-11.247143598162651
20
-3.1791259088239561
30
0
0
ENDSEC
0
SECTION
2
OBJECTS
0
DICTIONARY
5
C
100
AcDbDictionary
3
ACAD_GROUP
350
D
3
ACAD_MLINESTYLE
350
17
0
DICTIONARY
5
D
100
AcDbDictionary
0
DICTIONARY
5
1A
330
C
100
AcDbDictionary
0
DICTIONARY
5
17
100
AcDbDictionary
0
ENDSEC
0
EOF
