0
SECTION
2
HEADER
9
$INSUNITS
70
4
9
$ACADVER
1
AC1014
9
$HANDSEED
5
FFFF
0
ENDSEC
0
SECTION
2
TABLES
0
TABLE
2
VPORT
5
8
100
AcDbSymbolTable
0
ENDTAB
0
TABLE
2
LTYPE
5
5
100
AcDbSymbolTable
0
LTYPE
5
14
100
AcDbSymbolTableRecord
100
AcDbLinetypeTableRecord
2
BYBLOCK
70
0
0
LTYPE
5
15
100
AcDbSymbolTableRecord
100
AcDbLinetypeTableRecord
2
BYLAYER
70
0
0
ENDTAB
0
TABLE
2
LAYER
5
2
100
AcDbSymbolTable
70
2
0
LAYER
5
50
100
AcDbSymbolTableRecord
100
AcDbLayerTableRecord
2
0
70
0
6
CONTINUOUS
0
ENDTAB
0
TABLE
2
STYLE
5
3
100
AcDbSymbolTable
70
1
0
STYLE
5
11
100
AcDbSymbolTableRecord
100
AcDbTextStyleTableRecord
2
STANDARD
70
0
0
ENDTAB
0
TABLE
2
VIEW
5
6
100
AcDbSymbolTable
70
0
0
ENDTAB
0
TABLE
2
UCS
5
7
100
AcDbSymbolTable
70
0
0
ENDTAB
0
TABLE
2
APPID
5
9
100
AcDbSymbolTable
70
2
0
APPID
5
12
100
AcDbSymbolTableRecord
100
AcDbRegAppTableRecord
2
ACAD
70
0
0
ENDTAB
0
TABLE
2
DIMSTYLE
5
A
100
AcDbSymbolTable
70
1
0
ENDTAB
0
TABLE
2
BLOCK_RECORD
5
1
100
AcDbSymbolTable
70
1
0
BLOCK_RECORD
5
1F
100
AcDbSymbolTableRecord
100
AcDbBlockTableRecord
2
*MODEL_SPACE
0
BLOCK_RECORD
5
1B
100
AcDbSymbolTableRecord
100
AcDbBlockTableRecord
2
*PAPER_SPACE
0
ENDTAB
0
ENDSEC
0
SECTION
2
BLOCKS
0
BLOCK
5
20
100
AcDbEntity
100
AcDbBlockBegin
2
*MODEL_SPACE
0
ENDBLK
5
21
100
AcDbEntity
100
AcDbBlockEnd
0
BLOCK
5
1C
100
AcDbEntity
100
AcDbBlockBegin
2
*PAPER_SPACE
0
ENDBLK
5
1D
100
AcDbEntity
100
AcDbBlockEnd
0
ENDSEC
0
SECTION
2
ENTITIES
0
CIRCLE
5
100
100
AcDbEntity
8
0
100
AcDbCircle
10
11.000000522471968
20
50.945067125411228
30
0
40
6.5
210
0
220
0
230
1
0
CIRCLE
5
101
100
AcDbEntity
8
0
100
AcDbCircle
10
11.000000522471968
20
50.945067125411228
30
0
40
7
210
0
220
0
230
1
0
CIRCLE
5
102
100
AcDbEntity
8
0
100
AcDbCircle
10
36.000001709908247
20
38.920001848600805
30
0
40
13
210
0
220
0
230
1
0
CIRCLE
5
103
100
AcDbEntity
8
0
100
AcDbCircle
10
36.000001709908247
20
38.920001848600805
30
0
40
13.499999999999996
210
0
220
0
230
1
0
CIRCLE
5
104
100
AcDbEntity
8
0
100
AcDbCircle
10
79.000003752298653
20
38.920001848600805
30
0
40
13
210
0
220
0
230
1
0
CIRCLE
5
105
100
AcDbEntity
8
0
100
AcDbCircle
10
79.000003752298653
20
38.920001848600805
30
0
40
13.499999999999998
210
0
220
0
230
1
0
CIRCLE
5
106
100
AcDbEntity
8
0
100
AcDbCircle
10
177.00000840704888
20
38.920001848600805
30
0
40
12.999999999999993
210
0
220
0
230
1
0
CIRCLE
5
107
100
AcDbEntity
8
0
100
AcDbCircle
10
228.0000108294189
20
38.920001848600805
30
0
40
12.999999999999996
210
0
220
0
230
1
0
CIRCLE
5
108
100
AcDbEntity
8
0
100
AcDbCircle
10
228.0000108294189
20
38.920001848600805
30
0
40
13.499999999999993
210
0
220
0
230
1
0
CIRCLE
5
109
100
AcDbEntity
8
0
100
AcDbCircle
10
130.00000617466867
20
50.92000241857022
30
0
40
6.5000000000000027
210
0
220
0
230
1
0
CIRCLE
5
110
100
AcDbEntity
8
0
100
AcDbCircle
10
130.00000617466867
20
50.92000241857022
30
0
40
7
210
0
220
0
230
1
0
CIRCLE
5
111
100
AcDbEntity
8
0
100
AcDbCircle
10
206.00000978447497
20
50.92000241857022
30
0
40
6.500000000000008
210
0
220
0
230
1
0
CIRCLE
5
112
100
AcDbEntity
8
0
100
AcDbCircle
10
206.00000978447497
20
50.92000241857022
30
0
40
7.000000000000016
210
0
220
0
230
1
0
LWPOLYLINE
5
113
100
AcDbEntity
8
0
100
AcDbPolyline
90
4
70
1
43
0.0
10
104.51500000000001
20
52.420000000000009
10
104.015
20
52.420000000000016
10
104.015
20
3.4200000000000115
10
104.51500000000001
20
3.4200000000000053
0
LWPOLYLINE
5
114
100
AcDbEntity
8
0
100
AcDbPolyline
90
4
70
1
43
0.0
10
156.01499999999999
20
52.420000000000002
10
155.51499999999999
20
52.420000000000002
10
155.51499999999999
20
3.4200000000000053
10
156.01499999999999
20
3.4200000000000053
0
LINE
5
115
100
AcDbEntity
8
0
100
AcDbLine
10
130.00000617466867
20
50.92000241857022
30
0
11
130.25002807728742
21
50.92000241857022
31
0
0
LINE
5
116
100
AcDbEntity
8
0
100
AcDbLine
10
170.48531220882214
20
50.6977397987161
30
0
11
183.48531220882217
21
50.6977397987161
31
0
0
LWPOLYLINE
5
117
100
AcDbEntity
8
0
100
AcDbPolyline
90
8
70
1
43
0.0
10
169.55897648926364
20
52.470280950472542
10
170.46651833136227
20
50.733701837634911
42
-0.25721163247439383
10
183.4940537701132
20
50.755430646175611
10
184.38106846670769
20
52.499336597445172
10
184.82673182354409
20
52.272655825491995
10
183.92840759994289
20
50.506514897137265
42
-3.6091379581966971
10
170.03314931793241
20
50.483430165168315
10
169.11584120132454
20
52.238697020582912
0
LINE
5
118
100
AcDbEntity
8
0
100
AcDbLine
10
246.61939442885262
20
44.823791005537103
30
0
11
247.37455193101169
21
44.824829159871811
31
0
0
SPLINE
5
119
100
AcDbEntity
8
0
100
AcDbSpline
70
0
71
2
72
6
73
3
74
0
42
0.000000001
43
0.0000000001
44
0.0000000001
40
0
40
0
40
0
40
1
40
1
40
1
10
247.37455193101169
20
44.824829159871811
30
0
10
247.51072785203871
20
44.825016368000306
30
0
10
247.61380369128386
20
44.889119876473529
30
0
0
SPLINE
5
120
100
AcDbEntity
8
0
100
AcDbSpline
70
0
71
2
72
6
73
3
74
0
42
0.000000001
43
0.0000000001
44
0.0000000001
40
0
40
0
40
0
40
1
40
1
40
1
10
247.61380369128386
20
44.889119876473529
30
0
10
247.71687938233694
20
44.953222788696017
30
0
10
247.77345769420279
20
45.070907499658077
30
0
0
SPLINE
5
121
100
AcDbEntity
8
0
100
AcDbSpline
70
0
71
2
72
6
73
3
74
0
42
0.000000001
43
0.0000000001
44
0.0000000001
40
0
40
0
40
0
40
1
40
1
40
1
10
247.77345769420279
20
45.070907499658077
30
0
10
247.83003600647839
20
45.188591912597204
30
0
10
247.82982610628167
20
45.341274132303866
30
0
0
SPLINE
5
122
100
AcDbEntity
8
0
100
AcDbSpline
70
0
71
2
72
6
73
3
74
0
42
0.000000001
43
0.0000000001
44
0.0000000001
40
0
40
0
40
0
40
1
40
1
40
1
10
247.82982610628167
20
45.341274132303866
30
0
10
247.8296133698837
20
45.496019415828293
30
0
10
247.77271169809478
20
45.613547970936857
30
0
0
SPLINE
5
123
100
AcDbEntity
8
0
100
AcDbSpline
70
0
71
2
72
6
73
3
74
0
42
0.000000001
43
0.0000000001
44
0.0000000001
40
0
40
0
40
0
40
1
40
1
40
1
10
247.77271169809478
20
45.613547970936857
30
0
10
247.71581002630583
20
45.731076526045413
30
0
10
247.61255705536496
20
45.79592769390176
30
0
0
SPLINE
5
124
100
AcDbEntity
8
0
100
AcDbSpline
70
0
71
2
72
6
73
3
74
0
42
0.000000001
43
0.0000000001
44
0.0000000001
40
0
40
0
40
0
40
1
40
1
40
1
10
247.61255705536496
20
45.79592769390176
30
0
10
247.50930393520775
20
45.860779010564734
30
0
10
247.37312801418079
20
45.860591802436232
30
0
0
LINE
5
125
100
AcDbEntity
8
0
100
AcDbLine
10
247.37312801418079
20
45.860591802436232
30
0
11
246.61797051202169
21
45.859553648101524
31
0
0
LINE
5
126
100
AcDbEntity
8
0
100
AcDbLine
10
246.41315635212962
20
46.259547449649943
30
0
11
247.35813479899031
21
46.260846560720168
31
0
0
SPLINE
5
127
100
AcDbEntity
8
0
100
AcDbSpline
70
0
71
2
72
6
73
3
74
0
42
0.000000001
43
0.0000000001
44
0.0000000001
40
0
40
0
40
0
40
1
40
1
40
1
10
247.35813479899031
20
46.260846560720168
30
0
10
247.62636021538583
20
46.261215304164971
30
0
10
247.83078137275513
20
46.146984674890057
30
0
0
SPLINE
5
128
100
AcDbEntity
8
0
100
AcDbSpline
70
0
71
2
72
6
73
3
74
0
42
0.000000001
43
0.0000000001
44
0.0000000001
40
0
40
0
40
0
40
1
40
1
40
1
10
247.83078137275513
20
46.146984674890057
30
0
10
248.03520282855703
20
46.032753748001909
30
0
10
248.14793784022342
20
45.824517880635334
30
0
0
SPLINE
5
129
100
AcDbEntity
8
0
100
AcDbSpline
70
0
71
2
72
6
73
3
74
0
42
0.000000001
43
0.0000000001
44
0.0000000001
40
0
40
0
40
0
40
1
40
1
40
1
10
248.14793784022342
20
45.824517880635334
30
0
10
248.26067255386681
20
45.616282012859045
30
0
10
248.26104980653
20
45.34186695797581
30
0
0
SPLINE
5
130
100
AcDbEntity
8
0
100
AcDbSpline
70
0
71
2
72
6
73
3
74
0
42
0.000000001
43
0.0000000001
44
0.0000000001
40
0
40
0
40
0
40
1
40
1
40
1
10
248.26104980653
20
45.34186695797581
30
0
10
248.26142705939802
20
45.067451754081119
30
0
10
248.14926389797125
20
44.859938315851188
30
0
0
SPLINE
5
131
100
AcDbEntity
8
0
100
AcDbSpline
70
0
71
2
72
6
73
3
74
0
42
0.000000001
43
0.0000000001
44
0.0000000001
40
0
40
0
40
0
40
1
40
1
40
1
10
248.14926389797125
20
44.859938315851188
30
0
10
248.03710043831668
20
44.652425026223014
30
0
10
247.83299241460674
20
44.538664229965761
30
0
0
SPLINE
5
132
100
AcDbEntity
8
0
100
AcDbSpline
70
0
71
2
72
6
73
3
74
0
42
0.000000001
43
0.0000000001
44
0.0000000001
40
0
40
0
40
0
40
1
40
1
40
1
10
247.83299241460674
20
44.538664229965761
30
0
10
247.62888468891981
20
44.424903434118221
30
0
10
247.36065927252426
20
44.424534690673418
30
0
0
LINE
5
133
100
AcDbEntity
8
0
100
AcDbLine
10
247.36065927252426
20
44.424534690673418
30
0
11
246.61994470720413
21
44.423516391795943
31
0
0
LINE
5
134
100
AcDbEntity
8
0
100
AcDbLine
10
246.1965127465794
20
46.259249618406074
30
0
11
246.61742023367015
21
46.259828261842692
31
0
0
LINE
5
135
100
AcDbEntity
8
0
100
AcDbLine
10
246.62154448612952
20
43.259830977544354
30
0
11
246.20063699903875
21
43.259252334107728
31
0
0
LINE
5
136
100
AcDbEntity
8
0
100
AcDbLine
10
246.20063699903875
20
43.259252334107728
30
0
11
246.1965127465794
21
46.259249618406074
31
0
0
SPLINE
5
137
100
AcDbEntity
8
0
100
AcDbSpline
70
0
71
2
72
6
73
3
74
0
42
0.000000001
43
0.0000000001
44
0.0000000001
40
0
40
0
40
0
40
1
40
1
40
1
10
249.84235464698003
20
43.23330964796142
30
0
10
249.51016784474092
20
43.23285297346942
30
0
10
249.27374315337019
20
43.363545935695555
30
0
0
SPLINE
5
138
100
AcDbEntity
8
0
100
AcDbSpline
70
0
71
2
72
6
73
3
74
0
42
0.000000001
43
0.0000000001
44
0.0000000001
40
0
40
0
40
0
40
1
40
1
40
1
10
249.27374315337019
20
43.363545935695555
30
0
10
249.03731846199943
20
43.494238897921676
30
0
10
248.91317748259223
20
43.744756368952203
30
0
0
SPLINE
5
139
100
AcDbEntity
8
0
100
AcDbSpline
70
0
71
2
72
6
73
3
74
0
42
0.000000001
43
0.0000000001
44
0.0000000001
40
0
40
0
40
0
40
1
40
1
40
1
10
248.91317748259223
20
43.744756368952203
30
0
10
248.78903650359473
20
43.99527354195979
30
0
10
248.78855146422225
20
44.348093068537047
30
0
0
LINE
5
140
100
AcDbEntity
8
0
100
AcDbLine
10
248.78855146422225
20
44.348093068537047
30
0
11
248.78591920397898
21
46.262809410277832
31
0
0
LINE
5
141
100
AcDbEntity
8
0
100
AcDbLine
10
248.78591920397898
20
46.262809410277832
30
0
11
249.20682654205825
21
46.263388053509587
31
0
0
LINE
5
142
100
AcDbEntity
8
0
100
AcDbLine
10
249.20682654205825
20
46.263388053509587
30
0
11
249.20947865755392
21
44.334228923941303
31
0
0
SPLINE
5
143
100
AcDbEntity
8
0
100
AcDbSpline
70
0
71
2
72
6
73
3
74
0
42
0.000000001
43
0.0000000001
44
0.0000000001
40
0
40
0
40
0
40
1
40
1
40
1
10
249.20947865755392
20
44.334228923941296
30
0
10
249.20992965923381
20
44.006168547360609
30
0
10
249.37523822823414
20
43.826890883871101
30
0
0
SPLINE
5
144
100
AcDbEntity
8
0
100
AcDbSpline
70
0
71
2
72
6
73
3
74
0
42
0.000000001
43
0.0000000001
44
0.0000000001
40
0
40
0
40
0
40
1
40
1
40
1
10
249.37523822823414
20
43.826890883871101
30
0
10
249.54054679723447
20
43.647613220381587
30
0
10
249.84178451296643
20
43.64802734755304
30
0
0
SPLINE
5
145
100
AcDbEntity
8
0
100
AcDbSpline
70
0
71
2
72
6
73
3
74
0
42
0.000000001
43
0.0000000001
44
0.0000000001
40
0
40
0
40
0
40
1
40
1
40
1
10
249.84178451296643
20
43.64802734755304
30
0
10
250.14508514350467
20
43.648444310720869
30
0
10
250.31093191934033
20
43.828177230704185
30
0
0
SPLINE
5
146
100
AcDbEntity
8
0
100
AcDbSpline
70
0
71
2
72
6
73
3
74
0
42
0.000000001
43
0.0000000001
44
0.0000000001
40
0
40
0
40
0
40
1
40
1
40
1
10
250.31093191934033
20
43.828177230704185
30
0
10
250.47677869517599
20
44.007910150687508
30
0
10
250.47632769349607
20
44.335970527268188
30
0
0
LINE
5
147
100
AcDbEntity
8
0
100
AcDbLine
10
250.47632769349607
20
44.335970527268188
30
0
11
250.47367557800044
21
46.265129656836478
31
0
0
LINE
5
148
100
AcDbEntity
8
0
100
AcDbLine
10
250.47367557800044
20
46.265129656836478
30
0
11
250.89458291607971
21
46.265708300068241
31
0
0
LINE
5
149
100
AcDbEntity
8
0
100
AcDbLine
10
250.89458291607971
20
46.265708300068241
30
0
11
250.89721517632299
21
44.350991958327455
31
0
0
SPLINE
5
150
100
AcDbEntity
8
0
100
AcDbSpline
70
0
71
2
72
6
73
3
74
0
42
0.000000001
43
0.0000000001
44
0.0000000001
40
0
40
0
40
0
40
1
40
1
40
1
10
250.89721517632299
20
44.350991958327455
30
0
10
250.89770021569547
20
43.998172431750206
30
0
10
250.77424850263554
20
43.747314880178187
30
0
0
SPLINE
5
151
100
AcDbEntity
8
0
100
AcDbSpline
70
0
71
2
72
6
73
3
74
0
42
0.000000001
43
0.0000000001
44
0.0000000001
40
0
40
0
40
0
40
1
40
1
40
1
10
250.77424850263554
20
43.747314880178187
30
0
10
250.65079678998532
20
43.49645703058323
30
0
10
250.41370057700539
20
43.365113094516524
30
0
0
SPLINE
5
152
100
AcDbEntity
8
0
100
AcDbSpline
70
0
71
2
72
6
73
3
74
0
42
0.000000001
43
0.0000000001
44
0.0000000001
40
0
40
0
40
0
40
1
40
1
40
1
10
250.41370057700539
20
43.365113094516524
30
0
10
250.17660436402548
20
43.23376915844981
30
0
10
249.84235464698003
20
43.23330964796142
30
0
0
SPLINE
5
153
100
AcDbEntity
8
0
100
AcDbSpline
70
0
71
2
72
6
73
3
74
0
42
0.000000001
43
0.0000000001
44
0.0000000001
40
0
40
0
40
0
40
1
40
1
40
1
10
252.50191227772234
20
43.236965880303515
30
0
10
252.28526867217209
20
43.236668049059645
30
0
10
252.09126457205139
20
43.277666868188177
30
0
0
SPLINE
5
154
100
AcDbEntity
8
0
100
AcDbSpline
70
0
71
2
72
6
73
3
74
0
42
0.000000001
43
0.0000000001
44
0.0000000001
40
0
40
0
40
0
40
1
40
1
40
1
10
252.09126457205139
20
43.277666868188177
30
0
10
251.89725987588477
20
43.318665686497297
30
0
10
251.72898995142594
20
43.400965410402534
30
0
0
SPLINE
5
155
100
AcDbEntity
8
0
100
AcDbSpline
70
0
71
2
72
6
73
3
74
0
42
0.000000001
43
0.0000000001
44
0.0000000001
40
0
40
0
40
0
40
1
40
1
40
1
10
251.72898995142594
20
43.400965410402534
30
0
10
251.56072002696715
20
43.483265134307771
30
0
10
251.4140572564659
20
43.606860089358094
30
0
0
LINE
5
156
100
AcDbEntity
8
0
100
AcDbLine
10
251.4140572564659
20
43.606860089358094
30
0
11
251.67565024470863
21
43.929090465222032
31
0
0
SPLINE
5
157
100
AcDbEntity
8
0
100
AcDbSpline
70
0
71
2
72
6
73
3
74
0
42
0.000000001
43
0.0000000001
44
0.0000000001
40
0
40
0
40
0
40
1
40
1
40
1
10
251.67565024470861
20
43.929090465222046
30
0
10
251.84710620289903
20
43.780770397867705
30
0
10
252.0535355597676
20
43.706776298658745
30
0
0
SPLINE
5
158
100
AcDbEntity
8
0
100
AcDbSpline
70
0
71
2
72
6
73
3
74
0
42
0.000000001
43
0.0000000001
44
0.0000000001
40
0
40
0
40
0
40
1
40
1
40
1
10
252.0535355597676
20
43.706776298658745
30
0
10
252.25996491663622
20
43.6327821994498
30
0
10
252.50136767218305
20
43.633114068386234
30
0
0
SPLINE
5
159
100
AcDbEntity
8
0
100
AcDbSpline
70
0
71
2
72
6
73
3
74
0
42
0.000000001
43
0.0000000001
44
0.0000000001
40
0
40
0
40
0
40
1
40
1
40
1
10
252.50136767218305
20
43.633114068386234
30
0
10
252.82736423988862
20
43.633562232840532
30
0
10
253.00670348399871
20
43.754510385728686
30
0
0
SPLINE
5
160
100
AcDbEntity
8
0
100
AcDbSpline
70
0
71
2
72
6
73
3
74
0
42
0.000000001
43
0.0000000001
44
0.0000000001
40
0
40
0
40
0
40
1
40
1
40
1
10
253.00670348399871
20
43.754510385728686
30
0
10
253.18604213206294
20
43.875458537797421
30
0
10
253.18573862800679
20
44.096228569006122
30
0
0
LINE
5
161
100
AcDbEntity
8
0
100
AcDbLine
10
253.18573862800679
20
44.096228569006122
30
0
11
253.18573579119101
21
44.09829207985829
31
0
0
SPLINE
5
162
100
AcDbEntity
8
0
100
AcDbSpline
70
0
71
2
72
6
73
3
74
0
42
0.000000001
43
0.0000000001
44
0.0000000001
40
0
40
0
40
0
40
1
40
1
40
1
10
253.18573579119101
20
44.09829207985829
30
0
10
253.18552021818206
20
44.255100725223414
30
0
10
253.1038948527019
20
44.346804188205297
30
0
0
SPLINE
5
163
100
AcDbEntity
8
0
100
AcDbSpline
70
0
71
2
72
6
73
3
74
0
42
0.000000001
43
0.0000000001
44
0.0000000001
40
0
40
0
40
0
40
1
40
1
40
1
10
253.1038948527019
20
44.346804188205297
30
0
10
253.0222688907661
20
44.438507948390694
30
0
10
252.89325337948782
20
44.482690786797001
30
0
0
SPLINE
5
164
100
AcDbEntity
8
0
100
AcDbSpline
70
0
71
2
72
6
73
3
74
0
42
0.000000001
43
0.0000000001
44
0.0000000001
40
0
40
0
40
0
40
1
40
1
40
1
10
252.89325337948782
20
44.482690786797001
30
0
10
252.76423786779984
20
44.526873923226233
30
0
10
252.55992307873197
20
44.563731836233195
30
0
0
SPLINE
5
165
100
AcDbEntity
8
0
100
AcDbSpline
70
0
71
2
72
6
73
3
74
0
42
0.000000001
43
0.0000000001
44
0.0000000001
40
0
40
0
40
0
40
1
40
1
40
1
10
252.55992307873197
20
44.563731836233195
30
0
10
252.55373030540554
20
44.565786837457367
30
0
10
252.54650920951474
20
44.565776910240885
30
0
0
SPLINE
5
166
100
AcDbEntity
8
0
100
AcDbSpline
70
0
71
2
72
6
73
3
74
0
42
0.000000001
43
0.0000000001
44
0.0000000001
40
0
40
0
40
0
40
1
40
1
40
1
10
252.54650920951474
20
44.565776910240885
30
0
10
252.53928751757803
20
44.565766982204991
30
0
10
252.53309474466133
20
44.567821685406216
30
0
0
LINE
5
167
100
AcDbEntity
8
0
100
AcDbLine
10
252.53309474466133
20
44.567821685406216
30
0
11
252.50213714893587
21
44.573968776573338
31
0
0
SPLINE
5
168
100
AcDbEntity
8
0
100
AcDbSpline
70
0
71
2
72
6
73
3
74
0
42
0.000000001
43
0.0000000001
44
0.0000000001
40
0
40
0
40
0
40
1
40
1
40
1
10
252.50213714893587
20
44.573968776573338
30
0
10
252.2008288190259
20
44.625136460656904
30
0
10
252.01195028029534
20
44.689870063598953
30
0
0
SPLINE
5
169
100
AcDbEntity
8
0
100
AcDbSpline
70
0
71
2
72
6
73
3
74
0
42
0.000000001
43
0.0000000001
44
0.0000000001
40
0
40
0
40
0
40
1
40
1
40
1
10
252.01195028029534
20
44.689870063598953
30
0
10
251.8230711455189
20
44.754603665721589
30
0
10
251.68872159065191
20
44.926702482617898
30
0
0
SPLINE
5
170
100
AcDbEntity
8
0
100
AcDbSpline
70
0
71
2
72
6
73
3
74
0
42
0.000000001
43
0.0000000001
44
0.0000000001
40
0
40
0
40
0
40
1
40
1
40
1
10
251.68872159065191
20
44.926702482617898
30
0
10
251.55437203578498
20
45.098801299514207
30
0
10
251.55393521675009
20
45.416545164914375
30
0
0
LINE
5
171
100
AcDbEntity
8
0
100
AcDbLine
10
251.55393521675009
20
45.416545164914375
30
0
11
251.55393238034401
21
45.418608377743595
31
0
0
SPLINE
5
172
100
AcDbEntity
8
0
100
AcDbSpline
70
0
71
2
72
6
73
3
74
0
42
0.000000001
43
0.0000000001
44
0.0000000001
40
0
40
0
40
0
40
1
40
1
40
1
10
251.55393238034401
20
45.418608377743595
30
0
10
251.55354945445893
20
45.697150156308204
30
0
10
251.67810667134714
20
45.89436425162507
30
0
0
SPLINE
5
173
100
AcDbEntity
8
0
100
AcDbSpline
70
0
71
2
72
6
73
3
74
0
42
0.000000001
43
0.0000000001
44
0.0000000001
40
0
40
0
40
0
40
1
40
1
40
1
10
251.67810667134714
20
45.89436425162507
30
0
10
251.80266388844018
20
46.091578197930467
30
0
10
252.04186130873296
20
46.195070851741697
30
0
0
SPLINE
5
174
100
AcDbEntity
8
0
100
AcDbSpline
70
0
71
2
72
6
73
3
74
0
42
0.000000001
43
0.0000000001
44
0.0000000001
40
0
40
0
40
0
40
1
40
1
40
1
10
252.04186130873296
20
46.195070851741697
30
0
10
252.28105932507162
20
46.298563506372339
30
0
10
252.61737225494625
20
46.299025853266819
30
0
0
SPLINE
5
175
100
AcDbEntity
8
0
100
AcDbSpline
70
0
71
2
72
6
73
3
74
0
42
0.000000001
43
0.0000000001
44
0.0000000001
40
0
40
0
40
0
40
1
40
1
40
1
10
252.61737225494625
20
46.299025853266819
30
0
10
252.77830762399276
20
46.299247099497585
30
0
10
252.93413303208752
20
46.264385742342625
30
0
0
SPLINE
5
176
100
AcDbEntity
8
0
100
AcDbSpline
70
0
71
2
72
6
73
3
74
0
42
0.000000001
43
0.0000000001
44
0.0000000001
40
0
40
0
40
0
40
1
40
1
40
1
10
252.93413303208752
20
46.264385742342625
30
0
10
253.08995844059194
20
46.229524087164727
30
0
10
253.2417036291169
20
46.16061300161568
30
0
0
SPLINE
5
177
100
AcDbEntity
8
0
100
AcDbSpline
70
0
71
2
72
6
73
3
74
0
42
0.000000001
43
0.0000000001
44
0.0000000001
40
0
40
0
40
0
40
1
40
1
40
1
10
253.2417036291169
20
46.16061300161568
30
0
10
253.39344941368776
20
46.091701916886045
30
0
10
253.54008605966882
20
45.98667647252519
30
0
0
LINE
5
178
100
AcDbEntity
8
0
100
AcDbLine
10
253.54008605966882
20
45.98667647252519
30
0
11
253.30120632587236
21
45.652097425336194
31
0
0
SPLINE
5
179
100
AcDbEntity
8
0
100
AcDbSpline
70
0
71
2
72
6
73
3
74
0
42
0.000000001
43
0.0000000001
44
0.0000000001
40
0
40
0
40
0
40
1
40
1
40
1
10
253.30120632587239
20
45.652097425336208
30
0
10
253.12978156896847
20
45.7777215555232
30
0
10
252.95947508012995
20
45.84041747370059
30
0
0
SPLINE
5
180
100
AcDbEntity
8
0
100
AcDbSpline
70
0
71
2
72
6
73
3
74
0
42
0.000000001
43
0.0000000001
44
0.0000000001
40
0
40
0
40
0
40
1
40
1
40
1
10
252.95947508012995
20
45.84041747370059
30
0
10
252.78916859170113
20
45.903113093855048
30
0
10
252.61791686048556
20
45.902877665184107
30
0
0
SPLINE
5
181
100
AcDbEntity
8
0
100
AcDbSpline
70
0
71
2
72
6
73
3
74
0
42
0.000000001
43
0.0000000001
44
0.0000000001
40
0
40
0
40
0
40
1
40
1
40
1
10
252.61791686048556
20
45.902877665184107
30
0
10
252.31048950626592
20
45.902455028794371
30
0
10
252.14043830135083
20
45.779456427928693
30
0
0
SPLINE
5
182
100
AcDbEntity
8
0
100
AcDbSpline
70
0
71
2
72
6
73
3
74
0
42
0.000000001
43
0.0000000001
44
0.0000000001
40
0
40
0
40
0
40
1
40
1
40
1
10
252.14043830135083
20
45.779456427928693
30
0
10
251.97038709664054
20
45.656457678051545
30
0
10
251.97069627371371
20
45.431561072172926
30
0
0
LINE
5
183
100
AcDbEntity
8
0
100
AcDbLine
10
251.97069627371371
20
45.431561072172926
30
0
11
251.97069911032463
21
45.429497710332228
31
0
0
SPLINE
5
184
100
AcDbEntity
8
0
100
AcDbSpline
70
0
71
2
72
6
73
3
74
0
42
0.000000001
43
0.0000000001
44
0.0000000001
40
0
40
0
40
0
40
1
40
1
40
1
10
251.97069911032463
20
45.429497710332221
30
0
10
251.9709118467226
20
45.274752426807801
30
0
10
252.05872289410425
20
45.186152292697756
30
0
0
SPLINE
5
185
100
AcDbEntity
8
0
100
AcDbSpline
70
0
71
2
72
6
73
3
74
0
42
0.000000001
43
0.0000000001
44
0.0000000001
40
0
40
0
40
0
40
1
40
1
40
1
10
252.05872289410425
20
45.186152292697756
30
0
10
252.14653394148593
20
45.097552158587703
30
0
10
252.27761012741513
20
45.055435220814957
30
0
0
SPLINE
5
186
100
AcDbEntity
8
0
100
AcDbSpline
70
0
71
2
72
6
73
3
74
0
42
0.000000001
43
0.0000000001
44
0.0000000001
40
0
40
0
40
0
40
1
40
1
40
1
10
252.27761012741513
20
45.055435220814957
30
0
10
252.40868571750329
20
45.013318133211328
30
0
10
252.64189802410132
20
44.96824693120017
30
0
0
SPLINE
5
187
100
AcDbEntity
8
0
100
AcDbSpline
70
0
71
2
72
6
73
3
74
0
42
0.000000001
43
0.0000000001
44
0.0000000001
40
0
40
0
40
0
40
1
40
1
40
1
10
252.64189802410132
20
44.96824693120017
30
0
10
252.65015371223402
20
44.966194765972382
30
0
10
252.65737682257861
20
44.965172938582192
30
0
0
SPLINE
5
188
100
AcDbEntity
8
0
100
AcDbSpline
70
0
71
2
72
6
73
3
74
0
42
0.000000001
43
0.0000000001
44
0.0000000001
40
0
40
0
40
0
40
1
40
1
40
1
10
252.65737682257861
20
44.965172938582192
30
0
10
252.66459993251348
20
44.964151409214949
30
0
10
252.67285562023648
20
44.962099542010108
30
0
0
SPLINE
5
189
100
AcDbEntity
8
0
100
AcDbSpline
70
0
71
2
72
6
73
3
74
0
42
0.000000001
43
0.0000000001
44
0.0000000001
40
0
40
0
40
0
40
1
40
1
40
1
10
252.67285562023648
20
44.962099542010108
30
0
10
252.68317481922136
20
44.96005021359813
30
0
10
252.69555752823896
20
44.958004318047827
30
0
0
SPLINE
5
190
100
AcDbEntity
8
0
100
AcDbSpline
70
0
71
2
72
6
73
3
74
0
42
0.000000001
43
0.0000000001
44
0.0000000001
40
0
40
0
40
0
40
1
40
1
40
1
10
252.69555752823896
20
44.958004318047827
30
0
10
252.70793964203011
20
44.95595782563224
30
0
10
252.71825884060524
20
44.953908795243208
30
0
0
SPLINE
5
191
100
AcDbEntity
8
0
100
AcDbSpline
70
0
71
2
72
6
73
3
74
0
42
0.000000001
43
0.0000000001
44
0.0000000001
40
0
40
0
40
0
40
1
40
1
40
1
10
252.71825884060524
20
44.953908795243208
30
0
10
252.99068726808213
20
44.898574676973496
30
0
10
253.17339206678633
20
44.822484745650669
30
0
0
SPLINE
5
192
100
AcDbEntity
8
0
100
AcDbSpline
70
0
71
2
72
6
73
3
74
0
42
0.000000001
43
0.0000000001
44
0.0000000001
40
0
40
0
40
0
40
1
40
1
40
1
10
253.17339206678633
20
44.822484745650669
30
0
10
253.35609626944463
20
44.746394813508417
30
0
10
253.4790948703104
20
44.576343608593248
30
0
0
SPLINE
5
193
100
AcDbEntity
8
0
100
AcDbSpline
70
0
71
2
72
6
73
3
74
0
42
0.000000001
43
0.0000000001
44
0.0000000001
40
0
40
0
40
0
40
1
40
1
40
1
10
253.4790948703104
20
44.576343608593248
30
0
10
253.60209406722197
20
44.406292404497485
30
0
10
253.60249968476555
20
44.111244625276143
30
0
0
LINE
5
194
100
AcDbEntity
8
0
100
AcDbLine
10
253.60249968476555
20
44.111244625276143
30
0
11
253.60250535798744
21
44.107117901594755
31
0
0
SPLINE
5
195
100
AcDbEntity
8
0
100
AcDbSpline
70
0
71
2
72
6
73
3
74
0
42
0.000000001
43
0.0000000001
44
0.0000000001
40
0
40
0
40
0
40
1
40
1
40
1
10
253.60250535798744
20
44.107117901594755
30
0
10
253.60288261065062
20
43.832702846711527
30
0
10
253.47316437606693
20
43.637545022015274
30
0
0
SPLINE
5
196
100
AcDbEntity
8
0
100
AcDbSpline
70
0
71
2
72
6
73
3
74
0
42
0.000000001
43
0.0000000001
44
0.0000000001
40
0
40
0
40
0
40
1
40
1
40
1
10
253.47316437606693
20
43.637545022015274
30
0
10
253.34344614148324
20
43.442387197319015
30
0
10
253.09702561125559
20
43.339916072875027
30
0
0
SPLINE
5
197
100
AcDbEntity
8
0
100
AcDbSpline
70
0
71
2
72
6
73
3
74
0
42
0.000000001
43
0.0000000001
44
0.0000000001
40
0
40
0
40
0
40
1
40
1
40
1
10
253.09702561125559
20
43.339916072875027
30
0
10
252.85060508061821
20
43.237445246453987
30
0
10
252.50191227772234
20
43.236965880303515
30
0
0
LWPOLYLINE
5
198
100
AcDbEntity
8
0
100
AcDbPolyline
90
12
70
1
43
0.0
10
256.32305173576555
20
46.273171098782271
10
255.90214320559451
20
46.27259245391167
10
255.90396139393491
20
44.950035181465751
10
254.62060665535893
20
44.9482708868901
10
254.61878846701853
20
46.27082815933602
10
254.19788112893926
20
46.270249516104258
10
254.20200538139858
20
43.27025223180592
10
254.62291271947791
20
43.270830875037689
10
254.62115693371047
20
44.547996273148925
10
255.90451167228645
20
44.54976056772459
10
255.90626745805389
20
43.272595169613339
10
256.32717598822489
20
43.27317381448394
0
LWPOLYLINE
5
199
100
AcDbEntity
8
0
100
AcDbPolyline
90
8
70
1
43
0.0
10
250.28177489173703
20
39.258130829246163
10
250.28173397505236
20
41.857855956144327
10
251.12973938895638
20
41.857869302775271
10
251.12973308908821
20
42.258144294714832
10
249.0128142274844
20
42.258110976844058
10
249.01282052735257
20
41.857835984904497
10
249.86082623927987
20
41.857849331540137
10
249.8608671559646
20
39.258124204641973
0
SPLINE
5
200
100
AcDbEntity
8
0
100
AcDbSpline
70
0
71
2
72
6
73
3
74
0
42
0.000000001
43
0.0000000001
44
0.0000000001
40
0
40
0
40
0
40
1
40
1
40
1
10
252.45233931480524
20
39.227215875679427
30
0
10
252.13872172775453
20
39.227210939698914
30
0
10
251.89937950138128
20
39.364414978854626
30
0
0
SPLINE
5
201
100
AcDbEntity
8
0
100
AcDbSpline
70
0
71
2
72
6
73
3
74
0
42
0.000000001
43
0.0000000001
44
0.0000000001
40
0
40
0
40
0
40
1
40
1
40
1
10
251.89937950138128
20
39.364414978854626
30
0
10
251.66003787105916
20
39.5016187199965
30
0
10
251.52901635980882
20
39.752304555104843
30
0
0
SPLINE
5
202
100
AcDbEntity
8
0
100
AcDbSpline
70
0
71
2
72
6
73
3
74
0
42
0.000000001
43
0.0000000001
44
0.0000000001
40
0
40
0
40
0
40
1
40
1
40
1
10
251.52901635980882
20
39.752304555104843
30
0
10
251.39799425251678
20
40.002990092180582
30
0
10
251.3979890567461
20
40.333113993506878
30
0
0
LINE
5
203
100
AcDbEntity
8
0
100
AcDbLine
10
251.39798905674607
20
40.333113993506878
30
0
11
251.39797567763847
21
41.183182920212815
31
0
0
SPLINE
5
204
100
AcDbEntity
8
0
100
AcDbSpline
70
0
71
2
72
6
73
3
74
0
42
0.000000001
43
0.0000000001
44
0.0000000001
40
0
40
0
40
0
40
1
40
1
40
1
10
251.39797567763847
20
41.183182920212815
30
0
10
251.39797048187012
20
41.513306672527499
30
0
10
251.52898469809062
20
41.763996482765535
30
0
0
SPLINE
5
205
100
AcDbEntity
8
0
100
AcDbSpline
70
0
71
2
72
6
73
3
74
0
42
0.000000001
43
0.0000000001
44
0.0000000001
40
0
40
0
40
0
40
1
40
1
40
1
10
251.52898469809062
20
41.763996482765535
30
0
10
251.65999831826235
20
42.014686442005797
30
0
10
251.89933562960292
20
42.151898015027484
30
0
0
SPLINE
5
206
100
AcDbEntity
8
0
100
AcDbSpline
70
0
71
2
72
6
73
3
74
0
42
0.000000001
43
0.0000000001
44
0.0000000001
40
0
40
0
40
0
40
1
40
1
40
1
10
251.89933562960292
20
42.151898015027484
30
0
10
252.13867353699465
20
42.28910929003532
30
0
10
252.4522911240453
20
42.289114226015833
30
0
0
SPLINE
5
207
100
AcDbEntity
8
0
100
AcDbSpline
70
0
71
2
72
6
73
3
74
0
42
0.000000001
43
0.0000000001
44
0.0000000001
40
0
40
0
40
0
40
1
40
1
40
1
10
252.4522911240453
20
42.289114226015833
30
0
10
252.76590871109602
20
42.289119161996339
30
0
10
253.00525093746458
20
42.151915420863844
30
0
0
SPLINE
5
208
100
AcDbEntity
8
0
100
AcDbSpline
70
0
71
2
72
6
73
3
74
0
42
0.000000001
43
0.0000000001
44
0.0000000001
40
0
40
0
40
0
40
1
40
1
40
1
10
253.00525093746458
20
42.151915420863844
30
0
10
253.24459316383786
20
42.014711381708132
30
0
10
253.37561407904172
20
41.76402554659041
30
0
0
SPLINE
5
209
100
AcDbEntity
8
0
100
AcDbSpline
70
0
71
2
72
6
73
3
74
0
42
0.000000001
43
0.0000000001
44
0.0000000001
40
0
40
0
40
0
40
1
40
1
40
1
10
253.37561407904172
20
41.76402554659041
30
0
10
253.50663618633615
20
41.513339860503052
30
0
10
253.50664138210448
20
41.183216108188375
30
0
0
LINE
5
210
100
AcDbEntity
8
0
100
AcDbLine
10
253.5066413821045
20
41.183216108188375
30
0
11
253.5066547612121
21
40.333147181482438
31
0
0
SPLINE
5
211
100
AcDbEntity
8
0
100
AcDbSpline
70
0
71
2
72
6
73
3
74
0
42
0.000000001
43
0.0000000001
44
0.0000000001
40
0
40
0
40
0
40
1
40
1
40
1
10
253.50665476121208
20
40.333147181482438
30
0
10
253.50665995698279
20
40.003023280156143
30
0
10
253.37564574075995
20
39.752333618929718
30
0
0
SPLINE
5
212
100
AcDbEntity
8
0
100
AcDbSpline
70
0
71
2
72
6
73
3
74
0
42
0.000000001
43
0.0000000001
44
0.0000000001
40
0
40
0
40
0
40
1
40
1
40
1
10
253.37564574075995
20
39.752333618929718
30
0
10
253.24463271663467
20
39.501643659698836
30
0
10
253.00529480924297
20
39.364432384691
30
0
0
SPLINE
5
213
100
AcDbEntity
8
0
100
AcDbSpline
70
0
71
2
72
6
73
3
74
0
42
0.000000001
43
0.0000000001
44
0.0000000001
40
0
40
0
40
0
40
1
40
1
40
1
10
253.00529480924297
20
39.364432384691
30
0
10
252.76595690185593
20
39.227220811659933
30
0
10
252.45233931480524
20
39.227215875679427
30
0
0
SPLINE
5
214
100
AcDbEntity
8
0
100
AcDbSpline
70
0
71
2
72
6
73
3
74
0
42
0.000000001
43
0.0000000001
44
0.0000000001
40
0
40
0
40
0
40
1
40
1
40
1
10
252.45233278761927
20
39.641933967115946
30
0
10
252.63802748211532
20
39.641936889737089
30
0
10
252.77936010456614
20
39.725501547880178
30
0
0
SPLINE
5
215
100
AcDbEntity
8
0
100
AcDbSpline
70
0
71
2
72
6
73
3
74
0
42
0.000000001
43
0.0000000001
44
0.0000000001
40
0
40
0
40
0
40
1
40
1
40
1
10
252.77936010456614
20
39.725501547880178
30
0
10
252.92069332305869
20
39.80906650405587
30
0
10
252.9980636931532
20
39.96278154416045
30
0
0
SPLINE
5
216
100
AcDbEntity
8
0
100
AcDbSpline
70
0
71
2
72
6
73
3
74
0
42
0.000000001
43
0.0000000001
44
0.0000000001
40
0
40
0
40
0
40
1
40
1
40
1
10
252.9980636931532
20
39.96278154416045
30
0
10
253.07543406324771
20
40.116496584265029
30
0
10
253.07543088083631
20
40.318697593036674
30
0
0
LINE
5
217
100
AcDbEntity
8
0
100
AcDbLine
10
253.07543088083631
20
40.318697593036674
30
0
11
253.07541704710016
21
41.197652271701692
31
0
0
SPLINE
5
218
100
AcDbEntity
8
0
100
AcDbSpline
70
0
71
2
72
6
73
3
74
0
42
0.000000001
43
0.0000000001
44
0.0000000001
40
0
40
0
40
0
40
1
40
1
40
1
10
253.07541704710013
20
41.197652271701699
30
0
10
253.07541386469339
20
41.39985298245012
30
0
10
252.99803865603889
20
41.553565736048689
30
0
0
SPLINE
5
219
100
AcDbEntity
8
0
100
AcDbSpline
70
0
71
2
72
6
73
3
74
0
42
0.000000001
43
0.0000000001
44
0.0000000001
40
0
40
0
40
0
40
1
40
1
40
1
10
252.99803865603889
20
41.553565736048689
30
0
10
252.92066344738433
20
41.707278489647251
30
0
10
252.77932759853144
20
41.790838847924974
30
0
0
SPLINE
5
220
100
AcDbEntity
8
0
100
AcDbSpline
70
0
71
2
72
6
73
3
74
0
42
0.000000001
43
0.0000000001
44
0.0000000001
40
0
40
0
40
0
40
1
40
1
40
1
10
252.77932759853144
20
41.790838847924974
30
0
10
252.63799234572733
20
41.874399057200463
30
0
10
252.45229765123131
20
41.874396134579314
30
0
0
SPLINE
5
221
100
AcDbEntity
8
0
100
AcDbSpline
70
0
71
2
72
6
73
3
74
0
42
0.000000001
43
0.0000000001
44
0.0000000001
40
0
40
0
40
0
40
1
40
1
40
1
10
252.45229765123131
20
41.874396134579314
30
0
10
252.2666035527817
20
41.874393211967543
30
0
10
252.12527033428444
20
41.790828553815075
30
0
0
SPLINE
5
222
100
AcDbEntity
8
0
100
AcDbSpline
70
0
71
2
72
6
73
3
74
0
42
0.000000001
43
0.0000000001
44
0.0000000001
40
0
40
0
40
0
40
1
40
1
40
1
10
252.12527033428444
20
41.790828553815075
30
0
10
251.9839371157895
20
41.707263746650995
30
0
10
251.90656674569738
20
41.553548557534803
30
0
0
SPLINE
5
223
100
AcDbEntity
8
0
100
AcDbSpline
70
0
71
2
72
6
73
3
74
0
42
0.000000001
43
0.0000000001
44
0.0000000001
40
0
40
0
40
0
40
1
40
1
40
1
10
251.90656674569738
20
41.553548557534803
30
0
10
251.82919637560519
20
41.399833368418612
30
0
10
251.82919955801194
20
41.197632657670191
30
0
0
LINE
5
224
100
AcDbEntity
8
0
100
AcDbLine
10
251.82919955801194
20
41.197632657670191
30
0
11
251.82921339174808
21
40.318677979005173
31
0
0
SPLINE
5
225
100
AcDbEntity
8
0
100
AcDbSpline
70
0
71
2
72
6
73
3
74
0
42
0.000000001
43
0.0000000001
44
0.0000000001
40
0
40
0
40
0
40
1
40
1
40
1
10
251.82921339174808
20
40.318677979005173
30
0
10
251.82921657415949
20
40.116476970233521
30
0
10
251.90659178281169
20
39.962764365646564
30
0
0
SPLINE
5
226
100
AcDbEntity
8
0
100
AcDbSpline
70
0
71
2
72
6
73
3
74
0
42
0.000000001
43
0.0000000001
44
0.0000000001
40
0
40
0
40
0
40
1
40
1
40
1
10
251.90659178281169
20
39.962764365646564
30
0
10
251.98396699146389
20
39.809051761059607
30
0
10
252.12530284031914
20
39.725491253770279
30
0
0
SPLINE
5
227
100
AcDbEntity
8
0
100
AcDbSpline
70
0
71
2
72
6
73
3
74
0
42
0.000000001
43
0.0000000001
44
0.0000000001
40
0
40
0
40
0
40
1
40
1
40
1
10
252.12530284031914
20
39.725491253770279
30
0
10
252.26663868916967
20
39.641931044504176
30
0
10
252.45233278761927
20
39.641933967115946
30
0
0
LINE
5
228
100
AcDbEntity
8
0
100
AcDbLine
10
245.3196088106663
20
38.395881053526402
30
0
11
245.7405166567371
21
38.395916735939799
31
0
0
LINE
5
229
100
AcDbEntity
8
0
100
AcDbLine
10
245.7405166567371
20
38.395916735939799
30
0
11
245.7407370481111
21
35.796191618061464
31
0
0
LINE
5
230
100
AcDbEntity
8
0
100
AcDbLine
10
245.74077098137369
20
35.39591662751068
30
0
11
245.31986313530291
21
35.395880945097275
31
0
0
LINE
5
231
100
AcDbEntity
8
0
100
AcDbLine
10
245.31986313530291
20
35.395880945097275
30
0
11
245.3196088106663
21
38.395881053526402
31
0
0
LINE
5
232
100
AcDbEntity
8
0
100
AcDbLine
10
245.7407370481111
20
35.796191618061464
30
0
11
247.24692689565171
21
35.796319305129536
31
0
0
LINE
5
233
100
AcDbEntity
8
0
100
AcDbLine
10
247.24692689565171
20
35.796319305129536
30
0
11
247.2469608289143
21
35.396044314578745
31
0
0
LINE
5
234
100
AcDbEntity
8
0
100
AcDbLine
10
247.2469608289143
20
35.396044314578745
30
0
11
245.53031707696476
21
35.395898786305558
31
0
0
LINE
5
235
100
AcDbEntity
8
0
100
AcDbLine
10
247.74189220553751
20
38.396086402317742
30
0
11
248.16279993984961
21
38.396122084721668
31
0
0
LINE
5
236
100
AcDbEntity
8
0
100
AcDbLine
10
248.16305426448622
20
35.396121976292541
30
0
11
247.7421465301741
21
35.396086293888622
31
0
0
LINE
5
237
100
AcDbEntity
8
0
100
AcDbLine
10
247.7421465301741
20
35.396086293888622
30
0
11
247.74189220553751
21
38.396086402317742
31
0
0
LINE
5
238
100
AcDbEntity
8
0
100
AcDbLine
10
248.16302033122361
20
35.796396966843332
30
0
11
249.66921032777583
21
35.796524653924038
31
0
0
LINE
5
239
100
AcDbEntity
8
0
100
AcDbLine
10
249.66921032777583
20
35.796524653924038
30
0
11
249.66924426103844
21
35.396249663373247
31
0
0
LINE
5
240
100
AcDbEntity
8
0
100
AcDbLine
10
249.66924426103844
20
35.396249663373247
30
0
11
247.9464107530157
21
35.396103610364207
31
0
0
LINE
5
241
100
AcDbEntity
8
0
100
AcDbLine
10
248.16291101008048
20
37.085943451925075
30
0
11
249.44214112328157
21
37.086051898508224
31
0
0
LINE
5
242
100
AcDbEntity
8
0
100
AcDbLine
10
249.44214112328157
20
37.086051898508224
30
0
11
249.44217505656945
21
36.685776609934209
31
0
0
LINE
5
243
100
AcDbEntity
8
0
100
AcDbLine
10
249.44217505656945
20
36.685776609934209
30
0
11
248.16294494336833
21
36.68566816335106
31
0
0
LINE
5
244
100
AcDbEntity
8
0
100
AcDbLine
10
247.94615642837911
20
38.396103718793327
30
0
11
249.66898993640186
21
38.396249771802367
31
0
0
LINE
5
245
100
AcDbEntity
8
0
100
AcDbLine
10
249.66898993640186
20
38.396249771802367
30
0
11
249.66902386966444
21
37.995974781251576
31
0
0
LINE
5
246
100
AcDbEntity
8
0
100
AcDbLine
10
249.66902386966444
20
37.995974781251576
30
0
11
248.16283387311219
21
37.99584709417087
31
0
0
LWPOLYLINE
5
247
100
AcDbEntity
8
0
100
AcDbPolyline
90
7
70
1
43
0.0
10
250.41589484332872
20
38.396313090578445
10
249.95784805103696
20
38.396274259715234
10
250.93609419154095
20
35.39635706042786
10
251.33636918209174
20
35.396390993693345
10
252.31410667332256
20
38.39647401126421
10
251.8560598810308
20
38.396435180400992
10
251.13617676389424
20
36.044241942747085
0
LINE
5
248
100
AcDbEntity
8
0
100
AcDbLine
10
252.74739488835647
20
38.396510743221938
30
0
11
253.16830262266853
21
38.396546425625857
31
0
0
LINE
5
249
100
AcDbEntity
8
0
100
AcDbLine
10
253.16855694730515
20
35.396546317196737
30
0
11
252.74764921299305
21
35.396510634792818
31
0
0
LINE
5
250
100
AcDbEntity
8
0
100
AcDbLine
10
252.74764921299305
20
35.396510634792818
30
0
11
252.74739488835647
21
38.396510743221938
31
0
0
LINE
5
251
100
AcDbEntity
8
0
100
AcDbLine
10
253.16852301404253
20
35.796821307747528
30
0
11
254.67471271257153
21
35.796948994802968
31
0
0
LINE
5
252
100
AcDbEntity
8
0
100
AcDbLine
10
254.67471271257153
20
35.796948994802968
30
0
11
254.67474664583415
21
35.396674004252169
31
0
0
LINE
5
253
100
AcDbEntity
8
0
100
AcDbLine
10
254.67474664583415
20
35.396674004252169
30
0
11
252.95191313781143
21
35.396527951243137
31
0
0
LINE
5
254
100
AcDbEntity
8
0
100
AcDbLine
10
253.16841369289943
20
37.086367792829257
30
0
11
254.4476438061005
21
37.086476239412406
31
0
0
LINE
5
255
100
AcDbEntity
8
0
100
AcDbLine
10
254.4476438061005
20
37.086476239412406
30
0
11
254.44767773938835
21
36.686200950838398
31
0
0
LINE
5
256
100
AcDbEntity
8
0
100
AcDbLine
10
254.44767773938835
20
36.686200950838398
30
0
11
253.16844762618729
21
36.686092504255249
31
0
0
LINE
5
257
100
AcDbEntity
8
0
100
AcDbLine
10
252.95165881317484
20
38.396528059672256
30
0
11
254.67449232119759
21
38.396674112681296
31
0
0
LINE
5
258
100
AcDbEntity
8
0
100
AcDbLine
10
254.67449232119759
20
38.396674112681296
30
0
11
254.67452625446018
21
37.996399122130498
31
0
0
LINE
5
259
100
AcDbEntity
8
0
100
AcDbLine
10
254.67452625446018
20
37.996399122130498
30
0
11
253.16833655593115
21
37.996271435075066
31
0
0
LINE
5
260
100
AcDbEntity
8
0
100
AcDbLine
10
255.27284248632196
20
38.396724837746525
30
0
11
255.69374902854116
21
38.396760520049391
31
0
0
LINE
5
261
100
AcDbEntity
8
0
100
AcDbLine
10
255.69374902854116
20
38.396760520049391
30
0
11
255.69396941991513
21
35.797035402171055
31
0
0
LINE
5
262
100
AcDbEntity
8
0
100
AcDbLine
10
255.69400335317772
20
35.396760411620264
30
0
11
255.27309681095855
21
35.396724729317405
31
0
0
LINE
5
263
100
AcDbEntity
8
0
100
AcDbLine
10
255.27309681095855
20
35.396724729317405
30
0
11
255.27284248632196
21
38.396724837746525
31
0
0
LINE
5
264
100
AcDbEntity
8
0
100
AcDbLine
10
255.69396941991513
20
35.797035402171055
30
0
11
257.20015971449061
21
35.797163089277021
31
0
0
LINE
5
265
100
AcDbEntity
8
0
100
AcDbLine
10
257.20015971449061
20
35.797163089277021
30
0
11
257.20019364775317
21
35.39688809872623
31
0
0
LINE
5
266
100
AcDbEntity
8
0
100
AcDbLine
10
257.20019364775317
20
35.39688809872623
30
0
11
255.48355127416102
21
35.396742570569899
31
0
0
SPLINE
5
267
100
AcDbEntity
8
0
100
AcDbSpline
70
0
71
2
72
6
73
3
74
0
42
0.000000001
43
0.0000000001
44
0.0000000001
40
0
40
0
40
0
40
1
40
1
40
1
10
248.8612041983215
20
31.241033921328082
30
0
10
248.54758712697225
20
31.240465159342641
30
0
10
248.30799891810571
20
31.377238684560144
30
0
0
SPLINE
5
268
100
AcDbEntity
8
0
100
AcDbSpline
70
0
71
2
72
6
73
3
74
0
42
0.000000001
43
0.0000000001
44
0.0000000001
40
0
40
0
40
0
40
1
40
1
40
1
10
248.30799891810571
20
31.377238684560144
30
0
10
248.06841070977967
20
31.514011911754913
30
0
10
247.93693842580274
20
31.764461788921714
30
0
0
SPLINE
5
269
100
AcDbEntity
8
0
100
AcDbSpline
70
0
71
2
72
6
73
3
74
0
42
0.000000001
43
0.0000000001
44
0.0000000001
40
0
40
0
40
0
40
1
40
1
40
1
10
247.93693842580274
20
31.764461788921714
30
0
10
247.8054661423663
20
32.014911368065789
30
0
10
247.80486744531197
20
32.345034726548235
30
0
0
LINE
5
270
100
AcDbEntity
8
0
100
AcDbLine
10
247.80486744531197
20
32.345034726548235
30
0
11
247.80332580061321
21
33.195102255431436
31
0
0
SPLINE
5
271
100
AcDbEntity
8
0
100
AcDbSpline
70
0
71
2
72
6
73
3
74
0
42
0.000000001
43
0.0000000001
44
0.0000000001
40
0
40
0
40
0
40
1
40
1
40
1
10
247.80332580061321
20
33.195102255431436
30
0
10
247.80272710382906
20
33.525225464902519
30
0
10
247.93329011670875
20
33.776150408628652
30
0
0
SPLINE
5
272
100
AcDbEntity
8
0
100
AcDbSpline
70
0
71
2
72
6
73
3
74
0
42
0.000000001
43
0.0000000001
44
0.0000000001
40
0
40
0
40
0
40
1
40
1
40
1
10
247.93329011670875
20
33.776150408628652
30
0
10
248.06385312931815
20
34.027075501366163
30
0
10
248.3029436710421
20
34.164717137096282
30
0
0
SPLINE
5
273
100
AcDbEntity
8
0
100
AcDbSpline
70
0
71
2
72
6
73
3
74
0
42
0.000000001
43
0.0000000001
44
0.0000000001
40
0
40
0
40
0
40
1
40
1
40
1
10
248.3029436710421
20
34.164717137096282
30
0
10
248.54203421330649
20
34.302358474803675
30
0
10
248.85565128465572
20
34.302927236789117
30
0
0
SPLINE
5
274
100
AcDbEntity
8
0
100
AcDbSpline
70
0
71
2
72
6
73
3
74
0
42
0.000000001
43
0.0000000001
44
0.0000000001
40
0
40
0
40
0
40
1
40
1
40
1
10
248.85565128465572
20
34.302927236789117
30
0
10
249.16926835600495
20
34.303495998774558
30
0
10
249.40885656433099
20
34.166722771579792
30
0
0
SPLINE
5
275
100
AcDbEntity
8
0
100
AcDbSpline
70
0
71
2
72
6
73
3
74
0
42
0.000000001
43
0.0000000001
44
0.0000000001
40
0
40
0
40
0
40
1
40
1
40
1
10
249.40885656433099
20
34.166722771579792
30
0
10
249.64844477319755
20
34.029949246362285
30
0
10
249.77991705717446
20
33.779499369195484
30
0
0
SPLINE
5
276
100
AcDbEntity
8
0
100
AcDbSpline
70
0
71
2
72
6
73
3
74
0
42
0.000000001
43
0.0000000001
44
0.0000000001
40
0
40
0
40
0
40
1
40
1
40
1
10
249.77991705717446
20
33.779499369195484
30
0
10
249.91138934088113
20
33.529049641040046
30
0
10
249.91198803766525
20
33.198926431568964
30
0
0
LINE
5
277
100
AcDbEntity
8
0
100
AcDbLine
10
249.91198803766525
20
33.198926431568964
30
0
11
249.91352968236401
21
32.348858902685762
31
0
0
SPLINE
5
278
100
AcDbEntity
8
0
100
AcDbSpline
70
0
71
2
72
6
73
3
74
0
42
0.000000001
43
0.0000000001
44
0.0000000001
40
0
40
0
40
0
40
1
40
1
40
1
10
249.91352968236401
20
32.348858902685762
30
0
10
249.91412837941837
20
32.018735544203317
30
0
10
249.78356536626845
20
31.767810749488543
30
0
0
SPLINE
5
279
100
AcDbEntity
8
0
100
AcDbSpline
70
0
71
2
72
6
73
3
74
0
42
0.000000001
43
0.0000000001
44
0.0000000001
40
0
40
0
40
0
40
1
40
1
40
1
10
249.78356536626845
20
31.767810749488543
30
0
10
249.65300235365902
20
31.516885656751036
30
0
10
249.41391181139463
20
31.379244319043647
30
0
0
SPLINE
5
280
100
AcDbEntity
8
0
100
AcDbSpline
70
0
71
2
72
6
73
3
74
0
42
0.000000001
43
0.0000000001
44
0.0000000001
40
0
40
0
40
0
40
1
40
1
40
1
10
249.41391181139463
20
31.379244319043647
30
0
10
249.1748212696707
20
31.241602683313523
30
0
10
248.8612041983215
20
31.241033921328082
30
0
0
SPLINE
5
281
100
AcDbEntity
8
0
100
AcDbSpline
70
0
71
2
72
6
73
3
74
0
42
0.000000001
43
0.0000000001
44
0.0000000001
40
0
40
0
40
0
40
1
40
1
40
1
10
248.86045208525505
20
31.655751330817111
30
0
10
249.04614647440141
20
31.656088097910185
30
0
10
249.18732893277959
20
31.73990671128071
30
0
0
SPLINE
5
282
100
AcDbEntity
8
0
100
AcDbSpline
70
0
71
2
72
6
73
3
74
0
42
0.000000001
43
0.0000000001
44
0.0000000001
40
0
40
0
40
0
40
1
40
1
40
1
10
249.18732893277959
20
31.73990671128071
30
0
10
249.32851139061725
20
31.823725622673969
30
0
10
249.40560528466182
20
31.977579511880379
30
0
0
SPLINE
5
283
100
AcDbEntity
8
0
100
AcDbSpline
70
0
71
2
72
6
73
3
74
0
42
0.000000001
43
0.0000000001
44
0.0000000001
40
0
40
0
40
0
40
1
40
1
40
1
10
249.40560528466182
20
31.977579511880379
30
0
10
249.48269917870644
20
32.131433401086788
30
0
10
249.48233247654443
20
32.333634077366384
30
0
0
LINE
5
284
100
AcDbEntity
8
0
100
AcDbLine
10
249.48233247654443
20
32.333634077366384
30
0
11
249.48073844601555
21
33.212587310709978
31
0
0
SPLINE
5
285
100
AcDbEntity
8
0
100
AcDbSpline
70
0
71
2
72
6
73
3
74
0
42
0.000000001
43
0.0000000001
44
0.0000000001
40
0
40
0
40
0
40
1
40
1
40
1
10
249.48073844601555
20
33.212587310709985
30
0
10
249.48037174439406
20
33.41478768896684
30
0
10
249.40272031387977
20
33.568361087940389
30
0
0
SPLINE
5
286
100
AcDbEntity
8
0
100
AcDbSpline
70
0
71
2
72
6
73
3
74
0
42
0.000000001
43
0.0000000001
44
0.0000000001
40
0
40
0
40
0
40
1
40
1
40
1
10
249.40272031387977
20
33.568361087940389
30
0
10
249.32506888336545
20
33.721934486913938
30
0
10
249.18358333498188
20
33.805240615159235
30
0
0
SPLINE
5
287
100
AcDbEntity
8
0
100
AcDbSpline
70
0
71
2
72
6
73
3
74
0
42
0.000000001
43
0.0000000001
44
0.0000000001
40
0
40
0
40
0
40
1
40
1
40
1
10
249.18358333498188
20
33.805240615159235
30
0
10
249.04209778686851
20
33.888546594393162
30
0
10
248.85640339772212
20
33.888209827300088
30
0
0
SPLINE
5
288
100
AcDbEntity
8
0
100
AcDbSpline
70
0
71
2
72
6
73
3
74
0
42
0.000000001
43
0.0000000001
44
0.0000000001
40
0
40
0
40
0
40
1
40
1
40
1
10
248.85640339772212
20
33.888209827300088
30
0
10
248.67070900857578
20
33.887873060207021
30
0
10
248.5295265501976
20
33.804054446836489
30
0
0
SPLINE
5
289
100
AcDbEntity
8
0
100
AcDbSpline
70
0
71
2
72
6
73
3
74
0
42
0.000000001
43
0.0000000001
44
0.0000000001
40
0
40
0
40
0
40
1
40
1
40
1
10
248.5295265501976
20
33.804054446836489
30
0
10
248.38834409208971
20
33.720235684454593
30
0
10
248.31125019831535
20
33.56638164623682
30
0
0
SPLINE
5
290
100
AcDbEntity
8
0
100
AcDbSpline
70
0
71
2
72
6
73
3
74
0
42
0.000000001
43
0.0000000001
44
0.0000000001
40
0
40
0
40
0
40
1
40
1
40
1
10
248.31125019831535
20
33.56638164623682
30
0
10
248.23415630454099
20
33.41252760801904
30
0
10
248.2345230061625
20
33.210327229762186
30
0
0
LINE
5
291
100
AcDbEntity
8
0
100
AcDbLine
10
248.2345230061625
20
33.210327229762179
30
0
11
248.23611703669138
21
32.331373996418584
31
0
0
SPLINE
5
292
100
AcDbEntity
8
0
100
AcDbSpline
70
0
71
2
72
6
73
3
74
0
42
0.000000001
43
0.0000000001
44
0.0000000001
40
0
40
0
40
0
40
1
40
1
40
1
10
248.23611703669141
20
32.331373996418584
30
0
10
248.23648373885337
20
32.129173320138996
30
0
10
248.31413516909745
20
31.975600070176814
30
0
0
SPLINE
5
293
100
AcDbEntity
8
0
100
AcDbSpline
70
0
71
2
72
6
73
3
74
0
42
0.000000001
43
0.0000000001
44
0.0000000001
40
0
40
0
40
0
40
1
40
1
40
1
10
248.31413516909745
20
31.975600070176814
30
0
10
248.39178659934149
20
31.822026820214631
30
0
10
248.53327214799532
20
31.738720542957964
30
0
0
SPLINE
5
294
100
AcDbEntity
8
0
100
AcDbSpline
70
0
71
2
72
6
73
3
74
0
42
0.000000001
43
0.0000000001
44
0.0000000001
40
0
40
0
40
0
40
1
40
1
40
1
10
248.53327214799532
20
31.738720542957964
30
0
10
248.67475769610866
20
31.655414563724037
30
0
10
248.86045208525505
20
31.655751330817111
30
0
0
LINE
5
295
100
AcDbEntity
8
0
100
AcDbLine
10
250.59091795790064
20
34.275125072674754
30
0
11
251.01182500154755
21
34.275888410986667
31
0
0
LINE
5
296
100
AcDbEntity
8
0
100
AcDbLine
10
251.07223734023825
20
31.275992919438657
30
0
11
250.59635861586872
21
31.275129886929175
31
0
0
LINE
5
297
100
AcDbEntity
8
0
100
AcDbLine
10
250.59635861586872
20
31.275129886929175
30
0
11
250.59091795790064
21
34.275125072674754
31
0
0
LINE
5
298
100
AcDbEntity
8
0
100
AcDbLine
10
251.06922140447554
20
32.938988980166698
30
0
11
252.25427523142537
21
32.94113814113097
31
0
0
LINE
5
299
100
AcDbEntity
8
0
100
AcDbLine
10
252.25427523142537
20
32.94113814113097
30
0
11
252.25500115117131
21
32.540863807389194
31
0
0
LINE
5
300
100
AcDbEntity
8
0
100
AcDbLine
10
252.25500115117131
20
32.540863807389194
30
0
11
251.06994732422154
21
32.538714646424921
31
0
0
LINE
5
301
100
AcDbEntity
8
0
100
AcDbLine
10
250.79724505695214
20
34.275499258333724
30
0
11
252.47881031817661
21
34.278548870373371
31
0
0
LINE
5
302
100
AcDbEntity
8
0
100
AcDbLine
10
252.47881031817661
20
34.278548870373371
30
0
11
252.47953623792267
21
33.878274536631594
31
0
0
LINE
5
303
100
AcDbEntity
8
0
100
AcDbLine
10
252.47953623792267
20
33.878274536631594
30
0
11
251.0675226020162
21
33.875713771442456
31
0
0
LINE
5
304
100
AcDbEntity
8
0
100
AcDbLine
10
252.95336264599516
20
34.279409497388997
30
0
11
253.37426968964209
21
34.280172835700917
31
0
0
LINE
5
305
100
AcDbEntity
8
0
100
AcDbLine
10
253.37971034761017
20
31.280177649955338
30
0
11
252.95880330396326
21
31.279414311643428
31
0
0
LINE
5
306
100
AcDbEntity
8
0
100
AcDbLine
10
252.95880330396326
20
31.279414311643428
30
0
11
252.95336264599516
21
34.279409497388997
31
0
0
LINE
5
307
100
AcDbEntity
8
0
100
AcDbLine
10
253.37669441184744
20
32.943173710683389
30
0
11
254.61671991951988
21
32.94542256584522
31
0
0
LINE
5
308
100
AcDbEntity
8
0
100
AcDbLine
10
254.61671991951988
20
32.94542256584522
30
0
11
254.61744583926588
21
32.545148232103443
31
0
0
LINE
5
309
100
AcDbEntity
8
0
100
AcDbLine
10
254.61744583926588
20
32.545148232103443
30
0
11
253.37742033159347
21
32.542899376941605
31
0
0
LINE
5
310
100
AcDbEntity
8
0
100
AcDbLine
10
253.15968974504671
20
34.279783683047974
30
0
11
254.84125500627118
21
34.28283329508762
31
0
0
LINE
5
311
100
AcDbEntity
8
0
100
AcDbLine
10
254.84125500627118
20
34.28283329508762
30
0
11
254.84198092601719
21
33.882558961345843
31
0
0
LINE
5
312
100
AcDbEntity
8
0
100
AcDbLine
10
254.84198092601719
20
33.882558961345843
30
0
11
253.37499560938809
21
33.87989850195914
31
0
0
LINE
5
313
100
AcDbEntity
8
0
100
AcDbLine
10
246.61797051202169
20
45.859553648101524
30
0
11
246.61939442885262
21
44.823791005537103
31
0
0
LINE
5
314
100
AcDbEntity
8
0
100
AcDbLine
10
246.61994470720413
20
44.423516391795943
30
0
11
246.62154448612952
21
43.259830977544354
31
0
0
LINE
5
315
100
AcDbEntity
8
0
100
AcDbLine
10
248.16283387311219
20
37.99584709417087
30
0
11
248.16291101008048
21
37.085943451925075
31
0
0
LINE
5
316
100
AcDbEntity
8
0
100
AcDbLine
10
248.16294494336833
20
36.68566816335106
30
0
11
248.16302033122361
21
35.796396966843332
31
0
0
LINE
5
317
100
AcDbEntity
8
0
100
AcDbLine
10
253.16833655593115
20
37.996271435075066
30
0
11
253.16841369289943
21
37.086367792829257
31
0
0
LINE
5
318
100
AcDbEntity
8
0
100
AcDbLine
10
253.16844762618729
20
36.686092504255249
30
0
11
253.16852301404253
21
35.796821307747528
31
0
0
LINE
5
319
100
AcDbEntity
8
0
100
AcDbLine
10
251.0675226020162
20
33.875713771442456
30
0
11
251.06922140447554
21
32.938988980166698
31
0
0
LINE
5
320
100
AcDbEntity
8
0
100
AcDbLine
10
251.06994732422154
20
32.538714646424921
30
0
11
251.07223734023825
21
31.275992919438657
31
0
0
LWPOLYLINE
5
321
100
AcDbEntity
8
0
100
AcDbPolyline
90
13
70
1
43
0.0
10
201.44174922003205
20
40.391010470542412
10
201.04766683178397
20
40.389483215809989
10
200.17433165827379
20
38.405340944211417
10
199.28564412776694
20
40.382654548522119
10
198.89156177677151
20
40.381127293934057
10
198.90318810189783
20
37.381149703381126
10
199.31377649420546
20
37.382740926647962
10
199.30591977057293
20
39.410036273763332
10
200.03017519726839
20
37.802301744932102
10
200.32315784033761
20
37.803437190568573
10
201.03477478806514
20
39.456849522025344
10
201.04278696658767
20
37.389441656000784
10
201.45337554515839
20
37.391032879989474
0
LINE
5
322
100
AcDbEntity
8
0
100
AcDbLine
10
202.18452212215152
20
40.393889065130011
30
0
11
202.60542669714764
21
40.395520268460167
31
0
0
LINE
5
323
100
AcDbEntity
8
0
100
AcDbLine
10
202.61705302227401
20
37.39554267790723
30
0
11
202.19614844727789
21
37.393911474577081
31
0
0
LINE
5
324
100
AcDbEntity
8
0
100
AcDbLine
10
202.19614844727789
20
37.393911474577081
30
0
11
202.18452212215152
21
40.393889065130011
31
0
0
LINE
5
325
100
AcDbEntity
8
0
100
AcDbLine
10
202.61550177993669
20
37.795814664010564
30
0
11
204.12168076911041
21
37.801651816488558
31
0
0
LINE
5
326
100
AcDbEntity
8
0
100
AcDbLine
10
204.12168076911041
20
37.801651816488558
30
0
11
204.1232320114477
21
37.401379830385224
31
0
0
LINE
5
327
100
AcDbEntity
8
0
100
AcDbLine
10
204.1232320114477
20
37.401379830385224
30
0
11
202.4004111369207
21
37.394703088637286
31
0
0
LINE
5
328
100
AcDbEntity
8
0
100
AcDbLine
10
202.6105042178836
20
39.085351469809957
30
0
11
203.8897247292366
21
39.09030905136661
31
0
0
LINE
5
329
100
AcDbEntity
8
0
100
AcDbLine
10
203.8897247292366
20
39.09030905136661
30
0
11
203.89127597272889
21
38.690036767242283
31
0
0
LINE
5
330
100
AcDbEntity
8
0
100
AcDbLine
10
203.89127597272889
20
38.690036767242283
30
0
11
202.61205546137589
21
38.68507918568563
31
0
0
LINE
5
331
100
AcDbEntity
8
0
100
AcDbLine
10
202.38878481179432
20
40.394680679190216
30
0
11
204.11160568632135
21
40.401357420938162
31
0
0
LINE
5
332
100
AcDbEntity
8
0
100
AcDbLine
10
204.11160568632135
20
40.401357420938162
30
0
11
204.11315692865861
21
40.00108543483482
31
0
0
LINE
5
333
100
AcDbEntity
8
0
100
AcDbLine
10
204.11315692865861
20
40.00108543483482
30
0
11
202.60697793948492
21
39.995248282356826
31
0
0
LWPOLYLINE
5
334
100
AcDbEntity
8
0
100
AcDbPolyline
90
8
70
1
43
0.0
10
205.57782952838943
20
37.407017080381095
10
205.56775444560031
20
40.006722684830692
10
206.41575349146882
20
40.010009080250839
10
206.41420224913156
20
40.410281066354173
10
204.29729898635645
20
40.402077069873805
10
204.29885022869374
20
40.001805083770456
10
205.14684927456221
20
40.005091479190604
10
205.15692435735133
20
37.405385874741
0
LINE
5
335
100
AcDbEntity
8
0
100
AcDbLine
10
207.17038513325411
20
39.08238995769598
30
0
11
207.95648700848625
21
39.085436472447519
31
0
0
SPLINE
5
336
100
AcDbEntity
8
0
100
AcDbSpline
70
0
71
2
72
6
73
3
74
0
42
0.000000001
43
0.0000000001
44
0.0000000001
40
0
40
0
40
0
40
1
40
1
40
1
10
207.95648700848625
20
39.085436472447519
30
0
10
208.07615554723085
20
39.085900244358093
30
0
10
208.16877830658393
20
39.144031287923625
30
0
0
SPLINE
5
337
100
AcDbEntity
8
0
100
AcDbSpline
70
0
71
2
72
6
73
3
74
0
42
0.000000001
43
0.0000000001
44
0.0000000001
40
0
40
0
40
0
40
1
40
1
40
1
10
208.16877830658393
20
39.144031287923625
30
0
10
208.26140106593701
20
39.202162331489163
30
0
10
208.31153899074928
20
39.308615978851229
30
0
0
SPLINE
5
338
100
AcDbEntity
8
0
100
AcDbSpline
70
0
71
2
72
6
73
3
74
0
42
0.000000001
43
0.0000000001
44
0.0000000001
40
0
40
0
40
0
40
1
40
1
40
1
10
208.31153899074928
20
39.308615978851229
30
0
10
208.36167691498403
20
39.415069775223785
30
0
10
208.36114117679392
20
39.553308001597088
30
0
0
SPLINE
5
339
100
AcDbEntity
8
0
100
AcDbSpline
70
0
71
2
72
6
73
3
74
0
42
0.000000001
43
0.0000000001
44
0.0000000001
40
0
40
0
40
0
40
1
40
1
40
1
10
208.36114117679392
20
39.553308001597088
30
0
10
208.36060543802634
20
39.691546376980881
30
0
10
208.30964391568074
20
39.797608216401962
30
0
0
SPLINE
5
340
100
AcDbEntity
8
0
100
AcDbSpline
70
0
71
2
72
6
73
3
74
0
42
0.000000001
43
0.0000000001
44
0.0000000001
40
0
40
0
40
0
40
1
40
1
40
1
10
208.30964391568074
20
39.797608216401962
30
0
10
208.25868239275763
20
39.903670204833539
30
0
10
208.16664360072861
20
39.961085597975064
30
0
0
SPLINE
5
341
100
AcDbEntity
8
0
100
AcDbSpline
70
0
71
2
72
6
73
3
74
0
42
0.000000001
43
0.0000000001
44
0.0000000001
40
0
40
0
40
0
40
1
40
1
40
1
10
208.16664360072861
20
39.961085597975064
30
0
10
208.0746048092771
20
40.018500842106093
30
0
10
207.95287277322643
20
40.018029073172258
30
0
0
LINE
5
342
100
AcDbEntity
8
0
100
AcDbLine
10
207.95287277322643
20
40.018029073172258
30
0
11
207.16677089799433
21
40.014982558420719
31
0
0
LINE
5
343
100
AcDbEntity
8
0
100
AcDbLine
10
206.92794488223498
20
40.414335291127287
30
0
11
207.93481533941156
21
40.418237388040325
31
0
0
SPLINE
5
344
100
AcDbEntity
8
0
100
AcDbSpline
70
0
71
2
72
6
73
3
74
0
42
0.000000001
43
0.0000000001
44
0.0000000001
40
0
40
0
40
0
40
1
40
1
40
1
10
207.93481533941156
20
40.418237388040325
30
0
10
208.19478560183552
20
40.419244895164255
30
0
10
208.39224274282586
20
40.312718882052849
30
0
0
SPLINE
5
345
100
AcDbEntity
8
0
100
AcDbSpline
70
0
71
2
72
6
73
3
74
0
42
0.000000001
43
0.0000000001
44
0.0000000001
40
0
40
0
40
0
40
1
40
1
40
1
10
208.39224274282586
20
40.312718882052849
30
0
10
208.58969988266122
20
40.206193166962436
30
0
10
208.69878460113708
20
40.009571917061344
30
0
0
SPLINE
5
346
100
AcDbEntity
8
0
100
AcDbSpline
70
0
71
2
72
6
73
3
74
0
42
0.000000001
43
0.0000000001
44
0.0000000001
40
0
40
0
40
0
40
1
40
1
40
1
10
208.69878460113708
20
40.009571917061344
30
0
10
208.80786932019046
20
39.812950518149748
30
0
10
208.80886883260106
20
39.555043156989875
30
0
0
SPLINE
5
347
100
AcDbEntity
8
0
100
AcDbSpline
70
0
71
2
72
6
73
3
74
0
42
0.000000001
43
0.0000000001
44
0.0000000001
40
0
40
0
40
0
40
1
40
1
40
1
10
208.80886883260106
20
39.555043156989875
30
0
10
208.80986834443419
20
39.297135944840484
30
0
10
208.70127853599573
20
39.099670805671913
30
0
0
SPLINE
5
348
100
AcDbEntity
8
0
100
AcDbSpline
70
0
71
2
72
6
73
3
74
0
42
0.000000001
43
0.0000000001
44
0.0000000001
40
0
40
0
40
0
40
1
40
1
40
1
10
208.70127853599573
20
39.099670805671913
30
0
10
208.59268991848626
20
38.902205969144212
30
0
10
208.39606437205254
20
38.794152998166396
30
0
0
LINE
5
349
100
AcDbEntity
8
0
100
AcDbLine
10
207.79855770627972
20
38.684546126147843
30
0
11
207.1719363767464
21
38.682117673571661
31
0
0
LINE
5
350
100
AcDbEntity
8
0
100
AcDbLine
10
206.74431507950595
20
40.413623639214897
30
0
11
207.16521965450204
21
40.415254842545053
31
0
0
LINE
5
351
100
AcDbEntity
8
0
100
AcDbLine
10
207.1768539754967
20
37.413214052707026
30
0
11
206.75594940050058
21
37.411582849376884
31
0
0
LINE
5
352
100
AcDbEntity
8
0
100
AcDbLine
10
206.75594940050058
20
37.411582849376884
30
0
11
206.74431507950595
21
40.413623639214897
31
0
0
LINE
5
353
100
AcDbEntity
8
0
100
AcDbLine
10
208.24621494798325
20
38.730121769277147
30
0
11
208.94300263105239
21
37.420058709999026
31
0
0
LINE
5
354
100
AcDbEntity
8
0
100
AcDbLine
10
208.94300263105239
20
37.420058709999026
30
0
11
208.44369469509726
21
37.418123656743994
31
0
0
LINE
5
355
100
AcDbEntity
8
0
100
AcDbLine
10
208.44369469509726
20
37.418123656743994
30
0
11
207.79855770627972
21
38.684546126147843
31
0
0
LWPOLYLINE
5
356
100
AcDbEntity
8
0
100
AcDbPolyline
90
4
70
1
43
0.0
10
209.51040001768808
20
37.422257641922265
10
209.93130459268423
20
37.423888845252414
10
209.91967826755783
20
40.423866435805351
10
209.49877369256171
20
40.422235232475202
0
SPLINE
5
357
100
AcDbEntity
8
0
100
AcDbSpline
70
0
71
2
72
6
73
3
74
0
42
0.000000001
43
0.0000000001
44
0.0000000001
40
0
40
0
40
0
40
1
40
1
40
1
10
211.65630801194357
20
37.399624697219515
30
0
10
211.34475568124566
20
37.398417285303516
30
0
10
211.10797632339953
20
37.535739956460731
30
0
0
SPLINE
5
358
100
AcDbEntity
8
0
100
AcDbSpline
70
0
71
2
72
6
73
3
74
0
42
0.000000001
43
0.0000000001
44
0.0000000001
40
0
40
0
40
0
40
1
40
1
40
1
10
211.10797632339953
20
37.535739956460731
30
0
10
210.87119815648236
20
37.67306293025883
30
0
10
210.74022861168834
20
37.926339837800676
30
0
0
SPLINE
5
359
100
AcDbEntity
8
0
100
AcDbSpline
70
0
71
2
72
6
73
3
74
0
42
0.000000001
43
0.0000000001
44
0.0000000001
40
0
40
0
40
0
40
1
40
1
40
1
10
210.74022861168834
20
37.926339837800676
30
0
10
210.60926025897831
20
38.179616749962406
30
0
10
210.60796489020117
20
38.513864868838198
30
0
0
LINE
5
360
100
AcDbEntity
8
0
100
AcDbLine
10
210.60796489020117
20
38.513864868838198
30
0
11
210.60477444808794
21
39.337104778233247
31
0
0
SPLINE
5
361
100
AcDbEntity
8
0
100
AcDbSpline
70
0
71
2
72
6
73
3
74
0
42
0.000000001
43
0.0000000001
44
0.0000000001
40
0
40
0
40
0
40
1
40
1
40
1
10
210.60477444808794
20
39.337104778233247
30
0
10
210.60347908046577
20
39.671352599088053
30
0
10
210.73248039356025
20
39.925637165074271
30
0
0
SPLINE
5
362
100
AcDbEntity
8
0
100
AcDbSpline
70
0
71
2
72
6
73
3
74
0
42
0.000000001
43
0.0000000001
44
0.0000000001
40
0
40
0
40
0
40
1
40
1
40
1
10
210.73248039356025
20
39.925637165074271
30
0
10
210.86148289931612
20
40.179921586669884
30
0
10
211.09718559018646
20
40.320107112292405
30
0
0
SPLINE
5
363
100
AcDbEntity
8
0
100
AcDbSpline
70
0
71
2
72
6
73
3
74
0
42
0.000000001
43
0.0000000001
44
0.0000000001
40
0
40
0
40
0
40
1
40
1
40
1
10
211.09718559018646
20
40.320107112292405
30
0
10
211.33288947314074
20
40.460292642534824
30
0
10
211.64444180383867
20
40.461500054450823
30
0
0
SPLINE
5
364
100
AcDbEntity
8
0
100
AcDbSpline
70
0
71
2
72
6
73
3
74
0
42
0.000000001
43
0.0000000001
44
0.0000000001
40
0
40
0
40
0
40
1
40
1
40
1
10
211.64444180383867
20
40.461500054450823
30
0
10
211.90234916499855
20
40.462499566861439
30
0
10
212.11941913945361
20
40.352954866314128
30
0
0
SPLINE
5
365
100
AcDbEntity
8
0
100
AcDbSpline
70
0
71
2
72
6
73
3
74
0
42
0.000000001
43
0.0000000001
44
0.0000000001
40
0
40
0
40
0
40
1
40
1
40
1
10
212.11941913945361
20
40.352954866314128
30
0
10
212.3364879218247
20
40.243410161146926
30
0
10
212.48273200580616
20
40.041774696581697
30
0
0
SPLINE
5
366
100
AcDbEntity
8
0
100
AcDbSpline
70
0
71
2
72
6
73
3
74
0
42
0.000000001
43
0.0000000001
44
0.0000000001
40
0
40
0
40
0
40
1
40
1
40
1
10
212.48273200580616
20
40.041774696581697
30
0
10
212.6289748988587
20
39.840138929375584
30
0
10
212.68158786755194
20
39.574178524547015
30
0
0
LINE
5
367
100
AcDbEntity
8
0
100
AcDbLine
10
212.68158786755191
20
39.574178524547015
30
0
11
212.25036699810943
21
39.572507340720442
31
0
0
SPLINE
5
368
100
AcDbEntity
8
0
100
AcDbSpline
70
0
71
2
72
6
73
3
74
0
42
0.000000001
43
0.0000000001
44
0.0000000001
40
0
40
0
40
0
40
1
40
1
40
1
10
212.2503669981094
20
39.572507340720442
30
0
10
212.21062158299401
20
39.712656990426879
30
0
10
212.11837829450675
20
39.822685453132976
30
0
0
SPLINE
5
369
100
AcDbEntity
8
0
100
AcDbSpline
70
0
71
2
72
6
73
3
74
0
42
0.000000001
43
0.0000000001
44
0.0000000001
40
0
40
0
40
0
40
1
40
1
40
1
10
212.11837829450675
20
39.822685453132976
30
0
10
212.02613619810347
20
39.932713920458959
30
0
10
211.90210877763647
20
39.992068721895151
30
0
0
SPLINE
5
370
100
AcDbEntity
8
0
100
AcDbSpline
70
0
71
2
72
6
73
3
74
0
42
0.000000001
43
0.0000000001
44
0.0000000001
40
0
40
0
40
0
40
1
40
1
40
1
10
211.90210877763647
20
39.992068721895151
30
0
10
211.77808135716947
20
40.051423523331344
30
0
10
211.6460330266724
20
40.050911773901092
30
0
0
SPLINE
5
371
100
AcDbEntity
8
0
100
AcDbSpline
70
0
71
2
72
6
73
3
74
0
42
0.000000001
43
0.0000000001
44
0.0000000001
40
0
40
0
40
0
40
1
40
1
40
1
10
211.6460330266724
20
40.050911773901092
30
0
10
211.4624020318594
20
40.050200117368817
30
0
10
211.32450823425933
20
39.96094413004127
30
0
0
SPLINE
5
372
100
AcDbEntity
8
0
100
AcDbSpline
70
0
71
2
72
6
73
3
74
0
42
0.000000001
43
0.0000000001
44
0.0000000001
40
0
40
0
40
0
40
1
40
1
40
1
10
211.32450823425933
20
39.96094413004127
30
0
10
211.18661324399781
20
39.87168828710432
30
0
10
211.11089307746195
20
39.711490019294082
30
0
0
SPLINE
5
373
100
AcDbEntity
8
0
100
AcDbSpline
70
0
71
2
72
6
73
3
74
0
42
0.000000001
43
0.0000000001
44
0.0000000001
40
0
40
0
40
0
40
1
40
1
40
1
10
211.11089307746195
20
39.711490019294082
30
0
10
211.03517171941962
20
39.551291597853464
30
0
10
211.03599531753048
20
39.33877596205982
30
0
0
LINE
5
374
100
AcDbEntity
8
0
100
AcDbLine
10
211.03599531753051
20
39.338775962059827
30
0
11
211.03918575964371
21
38.515536052664771
31
0
0
SPLINE
5
375
100
AcDbEntity
8
0
100
AcDbSpline
70
0
71
2
72
6
73
3
74
0
42
0.000000001
43
0.0000000001
44
0.0000000001
40
0
40
0
40
0
40
1
40
1
40
1
10
211.03918575964369
20
38.515536052664771
30
0
10
211.04000136246373
20
38.305083467145721
30
0
10
211.11696611325186
20
38.144445310116041
30
0
0
SPLINE
5
376
100
AcDbEntity
8
0
100
AcDbSpline
70
0
71
2
72
6
73
3
74
0
42
0.000000001
43
0.0000000001
44
0.0000000001
40
0
40
0
40
0
40
1
40
1
40
1
10
211.11696611325186
20
38.144445310116041
30
0
10
211.19392967311103
20
37.983806850445497
30
0
10
211.33250832974593
20
37.896654088151188
30
0
0
SPLINE
5
377
100
AcDbEntity
8
0
100
AcDbSpline
70
0
71
2
72
6
73
3
74
0
42
0.000000001
43
0.0000000001
44
0.0000000001
40
0
40
0
40
0
40
1
40
1
40
1
10
211.33250832974593
20
37.896654088151188
30
0
10
211.47108579429687
20
37.809501321236986
30
0
10
211.65471678910987
20
37.810212977769254
30
0
0
SPLINE
5
378
100
AcDbEntity
8
0
100
AcDbSpline
70
0
71
2
72
6
73
3
74
0
42
0.000000001
43
0.0000000001
44
0.0000000001
40
0
40
0
40
0
40
1
40
1
40
1
10
211.65471678910987
20
37.810212977769254
30
0
10
211.78882861691301
20
37.810732724222774
30
0
10
211.91137591020106
20
37.866916658181417
30
0
0
SPLINE
5
379
100
AcDbEntity
8
0
100
AcDbSpline
70
0
71
2
72
6
73
3
74
0
42
0.000000001
43
0.0000000001
44
0.0000000001
40
0
40
0
40
0
40
1
40
1
40
1
10
211.91137591020106
20
37.866916658181417
30
0
10
212.03392439672803
20
37.923100298738966
30
0
10
212.12531490832649
20
38.032808962725397
30
0
0
SPLINE
5
380
100
AcDbEntity
8
0
100
AcDbSpline
70
0
71
2
72
6
73
3
74
0
42
0.000000001
43
0.0000000001
44
0.0000000001
40
0
40
0
40
0
40
1
40
1
40
1
10
212.12531490832649
20
38.032808962725397
30
0
10
212.21670661316386
20
38.142517333310728
30
0
10
212.25532457793361
20
38.293287276398928
30
0
0
LINE
5
381
100
AcDbEntity
8
0
100
AcDbLine
10
212.25532457793361
20
38.293287276398928
30
0
11
212.68654544737612
21
38.294958460225502
31
0
0
SPLINE
5
382
100
AcDbEntity
8
0
100
AcDbSpline
70
0
71
2
72
6
73
3
74
0
42
0.000000001
43
0.0000000001
44
0.0000000001
40
0
40
0
40
0
40
1
40
1
40
1
10
212.68654544737612
20
38.294958460225502
30
0
10
212.63599547218288
20
38.028598101422183
30
0
10
212.49028746966422
20
37.825831185112222
30
0
0
SPLINE
5
383
100
AcDbEntity
8
0
100
AcDbSpline
70
0
71
2
72
6
73
3
74
0
42
0.000000001
43
0.0000000001
44
0.0000000001
40
0
40
0
40
0
40
1
40
1
40
1
10
212.49028746966422
20
37.825831185112222
30
0
10
212.34458066038451
20
37.623063975401166
30
0
10
212.12836626809093
20
37.511840094004015
30
0
0
SPLINE
5
384
100
AcDbEntity
8
0
100
AcDbSpline
70
0
71
2
72
6
73
3
74
0
42
0.000000001
43
0.0000000001
44
0.0000000001
40
0
40
0
40
0
40
1
40
1
40
1
10
212.12836626809093
20
37.511840094004015
30
0
10
211.91215187579741
20
37.40061621260687
30
0
10
211.65630801194357
20
37.399624697219515
30
0
0
LWPOLYLINE
5
385
100
AcDbEntity
8
0
100
AcDbPolyline
90
8
70
1
43
0.0
10
204.06305347730165
20
36.888298777498349
10
203.70404465576772
20
36.889105462978961
10
202.59139172060509
20
33.891597878795949
10
203.04531080870132
20
33.890577931887186
10
203.27291727703545
20
34.548252456296275
10
204.48365678353443
20
34.545531949383587
10
204.70830540605502
20
33.886841217033506
10
205.16222447552485
20
33.885821270166602
0
LWPOLYLINE
5
386
100
AcDbEntity
8
0
100
AcDbPolyline
90
3
70
1
43
0.0
10
204.34703654828155
20
34.946115232747907
10
203.41133632853015
20
34.948217732007556
10
203.88224627900658
20
36.30892369078726
0
LINE
5
387
100
AcDbEntity
8
0
100
AcDbLine
10
205.62288461590964
20
36.884793868826875
30
0
11
206.04379158719661
21
36.883848099469525
31
0
0
LINE
5
388
100
AcDbEntity
8
0
100
AcDbLine
10
206.04379158719661
20
36.883848099469525
30
0
11
206.03795007274417
21
34.284129535122844
31
0
0
LINE
5
389
100
AcDbEntity
8
0
100
AcDbLine
10
206.0370506652929
20
33.883855553607503
30
0
11
205.6161436940059
21
33.884801322964861
31
0
0
LINE
5
390
100
AcDbEntity
8
0
100
AcDbLine
10
205.6161436940059
20
33.884801322964861
30
0
11
205.62288461590964
21
36.884793868826875
31
0
0
LINE
5
391
100
AcDbEntity
8
0
100
AcDbLine
10
206.03795007274417
20
34.284129535122844
30
0
11
207.54413597438639
21
34.280745166201847
31
0
0
LINE
5
392
100
AcDbEntity
8
0
100
AcDbLine
10
207.54413597438639
20
34.280745166201847
30
0
11
207.54323656693515
21
33.880471184686506
31
0
0
LINE
5
393
100
AcDbEntity
8
0
100
AcDbLine
10
207.54323656693515
20
33.880471184686506
30
0
11
205.8265970306382
21
33.884328438621012
31
0
0
LWPOLYLINE
5
394
100
AcDbEntity
8
0
100
AcDbPolyline
90
8
70
1
43
0.0
10
208.89467787650381
20
33.877434523699527
10
208.90051939095625
20
36.477153088046208
10
209.74852266421891
20
36.475247642032002
10
209.74942207167018
20
36.875521623547336
10
207.6325082558354
20
36.880278285602756
10
207.63160884838413
20
36.480004304087423
10
208.47961212164682
20
36.47809885807321
10
208.47377060719441
20
33.878380293726536
0
LINE
5
395
100
AcDbEntity
8
0
100
AcDbLine
10
207.16677089799433
20
40.014982558420719
30
0
11
207.17038513325411
21
39.08238995769598
31
0
0
LINE
5
396
100
AcDbEntity
8
0
100
AcDbLine
10
207.1719363767464
20
38.682117673571661
30
0
11
207.1768539754967
21
37.413214052707026
31
0
0
SPLINE
5
397
100
AcDbEntity
8
0
100
AcDbSpline
70
0
71
2
72
6
73
3
74
0
42
0.000000001
43
0.0000000001
44
0.0000000001
40
0
40
0
40
0
40
0.36077039179045345
40
0.36077039179045345
40
0.36077039179045345
10
208.39606437205254
20
38.794152998166396
30
0
10
208.32512769704633
20
38.755170577975463
30
0
10
208.24621494798325
20
38.73012176927714
30
0
0
LWPOLYLINE
5
398
100
AcDbEntity
8
0
100
AcDbPolyline
90
7
70
1
43
0.0
10
181.87278742625378
20
53.583055411202196
10
182.29369530787753
20
53.583107413914242
10
182.29332466112098
20
56.58310751022703
10
181.87241677949726
20
56.583055507514985
10
181.44535430148946
20
56.298271056120853
10
181.44540808861234
20
55.862920224120181
10
181.87247337068118
20
56.125008717073186
0
SPLINE
5
399
100
AcDbEntity
8
0
100
AcDbSpline
70
0
71
2
72
6
73
3
74
0
42
0.000000001
43
0.0000000001
44
0.0000000001
40
0
40
0
40
0
40
1
40
1
40
1
10
183.83083816308744
20
53.552348210256646
30
0
10
183.4099304304753
20
53.55229620756301
30
0
10
183.19222722869887
20
53.777166279696161
30
0
0
SPLINE
5
400
100
AcDbEntity
8
0
100
AcDbSpline
70
0
71
2
72
6
73
3
74
0
42
0.000000001
43
0.0000000001
44
0.0000000001
40
0
40
0
40
0
40
1
40
1
40
1
10
183.19222722869887
20
53.777166279696161
30
0
10
182.97452402695927
20
54.00203605380608
30
0
10
182.97447431847399
20
54.404374555526623
30
0
0
LINE
5
401
100
AcDbEntity
8
0
100
AcDbLine
10
182.97447431847399
20
54.404374555526623
30
0
11
182.97430581949874
21
55.768198555013015
31
0
0
SPLINE
5
402
100
AcDbEntity
8
0
100
AcDbSpline
70
0
71
2
72
6
73
3
74
0
42
0.000000001
43
0.0000000001
44
0.0000000001
40
0
40
0
40
0
40
1
40
1
40
1
10
182.97430581949874
20
55.768198555013022
30
0
10
182.97425585610551
20
56.172600271496719
30
0
10
183.19293522118372
20
56.39649250181354
30
0
0
SPLINE
5
403
100
AcDbEntity
8
0
100
AcDbSpline
70
0
71
2
72
6
73
3
74
0
42
0.000000001
43
0.0000000001
44
0.0000000001
40
0
40
0
40
0
40
1
40
1
40
1
10
183.19293522118372
20
56.39649250181354
30
0
10
183.41161458626192
20
56.620384732130361
30
0
10
183.8304591041109
20
56.620436479916052
30
0
0
SPLINE
5
404
100
AcDbEntity
8
0
100
AcDbSpline
70
0
71
2
72
6
73
3
74
0
42
0.000000001
43
0.0000000001
44
0.0000000001
40
0
40
0
40
0
40
1
40
1
40
1
10
183.8304591041109
20
56.620436479916052
30
0
10
184.25136713474629
20
56.6204884826465
30
0
10
184.46906993260313
20
56.397681625258102
30
0
0
SPLINE
5
405
100
AcDbEntity
8
0
100
AcDbSpline
70
0
71
2
72
6
73
3
74
0
42
0.000000001
43
0.0000000001
44
0.0000000001
40
0
40
0
40
0
40
1
40
1
40
1
10
184.46906993260313
20
56.397681625258102
30
0
10
184.68677273042317
20
56.17487506589292
30
0
10
184.68682294872437
20
55.768410134646075
30
0
0
LINE
5
406
100
AcDbEntity
8
0
100
AcDbLine
10
184.68682294872437
20
55.768410134646075
30
0
11
184.6869914476996
21
54.404586135159683
31
0
0
SPLINE
5
407
100
AcDbEntity
8
0
100
AcDbSpline
70
0
71
2
72
6
73
3
74
0
42
0.000000001
43
0.0000000001
44
0.0000000001
40
0
40
0
40
0
40
1
40
1
40
1
10
184.6869914476996
20
54.404586135159676
30
0
10
184.68704141109285
20
54.000184418675978
30
0
10
184.46836234403787
20
53.776292188395978
30
0
0
SPLINE
5
408
100
AcDbEntity
8
0
100
AcDbSpline
70
0
71
2
72
6
73
3
74
0
42
0.000000001
43
0.0000000001
44
0.0000000001
40
0
40
0
40
0
40
1
40
1
40
1
10
184.46836234403787
20
53.776292188395978
30
0
10
184.24968268093642
20
53.552399958042336
30
0
10
183.83083816308744
20
53.552348210256646
30
0
0
SPLINE
5
409
100
AcDbEntity
8
0
100
AcDbSpline
70
0
71
2
72
6
73
3
74
0
42
0.000000001
43
0.0000000001
44
0.0000000001
40
0
40
0
40
0
40
1
40
1
40
1
10
183.83078870954688
20
53.952623199190825
30
0
10
184.05362246047832
20
53.952650730058949
30
0
10
184.1598667473022
20
54.069238919589949
30
0
0
SPLINE
5
410
100
AcDbEntity
8
0
100
AcDbSpline
70
0
71
2
72
6
73
3
74
0
42
0.000000001
43
0.0000000001
44
0.0000000001
40
0
40
0
40
0
40
1
40
1
40
1
10
184.1598667473022
20
54.069238919589949
30
0
10
184.26611073610289
20
54.185827109084137
30
0
10
184.26608371508746
20
54.40453413246604
30
0
0
LINE
5
411
100
AcDbEntity
8
0
100
AcDbLine
10
184.26608371508746
20
54.404534132466026
30
0
11
184.26591521611221
21
55.768358131952425
31
0
0
SPLINE
5
412
100
AcDbEntity
8
0
100
AcDbSpline
70
0
71
2
72
6
73
3
74
0
42
0.000000001
43
0.0000000001
44
0.0000000001
40
0
40
0
40
0
40
1
40
1
40
1
10
184.26591521611221
20
55.768358131952439
30
0
10
184.26588819509681
20
55.987065155334349
30
0
10
184.16064685922146
20
56.103627216046149
30
0
0
SPLINE
5
413
100
AcDbEntity
8
0
100
AcDbSpline
70
0
71
2
72
6
73
3
74
0
42
0.000000001
43
0.0000000001
44
0.0000000001
40
0
40
0
40
0
40
1
40
1
40
1
10
184.16064685922146
20
56.103627216046149
30
0
10
184.05540552338289
20
56.220188978734733
30
0
10
183.83050855768829
20
56.220161192958656
30
0
0
SPLINE
5
414
100
AcDbEntity
8
0
100
AcDbSpline
70
0
71
2
72
6
73
3
74
0
42
0.000000001
43
0.0000000001
44
0.0000000001
40
0
40
0
40
0
40
1
40
1
40
1
10
183.83050855768829
20
56.220161192958656
30
0
10
183.60561189001692
20
56.220133407219407
30
0
10
183.50039921053778
20
56.103545643165589
30
0
0
SPLINE
5
415
100
AcDbEntity
8
0
100
AcDbSpline
70
0
71
2
72
6
73
3
74
0
42
0.000000001
43
0.0000000001
44
0.0000000001
40
0
40
0
40
0
40
1
40
1
40
1
10
183.50039921053778
20
56.103545643165589
30
0
10
183.39518668010709
20
55.986957581106971
30
0
10
183.39521370112251
20
55.768250557725061
30
0
0
LINE
5
416
100
AcDbEntity
8
0
100
AcDbLine
10
183.39521370112251
20
55.768250557725061
30
0
11
183.39538220009774
21
54.404426558238669
31
0
0
SPLINE
5
417
100
AcDbEntity
8
0
100
AcDbSpline
70
0
71
2
72
6
73
3
74
0
42
0.000000001
43
0.0000000001
44
0.0000000001
40
0
40
0
40
0
40
1
40
1
40
1
10
183.39538220009774
20
54.404426558238669
30
0
10
183.39540922111314
20
54.185719534856759
30
0
10
183.50168216437012
20
54.069157601598931
30
0
0
SPLINE
5
418
100
AcDbEntity
8
0
100
AcDbSpline
70
0
71
2
72
6
73
3
74
0
42
0.000000001
43
0.0000000001
44
0.0000000001
40
0
40
0
40
0
40
1
40
1
40
1
10
183.50168216437012
20
54.069157601598931
30
0
10
183.60795525663866
20
53.952595668359507
30
0
10
183.83078870954688
20
53.952623199190825
30
0
0
SPLINE
5
419
100
AcDbEntity
8
0
100
AcDbSpline
70
0
71
2
72
6
73
3
74
0
42
0.000000001
43
0.0000000001
44
0.0000000001
40
0
40
0
40
0
40
1
40
1
40
1
10
186.16233760265234
20
53.552636264482473
30
0
10
185.74142987004021
20
53.552584261788844
30
0
10
185.52372651925219
20
53.777454333903577
30
0
0
SPLINE
5
420
100
AcDbEntity
8
0
100
AcDbSpline
70
0
71
2
72
6
73
3
74
0
42
0.000000001
43
0.0000000001
44
0.0000000001
40
0
40
0
40
0
40
1
40
1
40
1
10
185.52372651925219
20
53.777454333903577
30
0
10
185.30602346652421
20
54.002324108031907
30
0
10
185.3059737580389
20
54.404662609752457
30
0
0
LINE
5
421
100
AcDbEntity
8
0
100
AcDbLine
10
185.3059737580389
20
54.404662609752457
30
0
11
185.30580525906367
21
55.768486609238849
31
0
0
SPLINE
5
422
100
AcDbEntity
8
0
100
AcDbSpline
70
0
71
2
72
6
73
3
74
0
42
0.000000001
43
0.0000000001
44
0.0000000001
40
0
40
0
40
0
40
1
40
1
40
1
10
185.30580525906367
20
55.768486609238849
30
0
10
185.30575529567042
20
56.172888325722539
30
0
10
185.52443466074862
20
56.396780556039367
30
0
0
SPLINE
5
423
100
AcDbEntity
8
0
100
AcDbSpline
70
0
71
2
72
6
73
3
74
0
42
0.000000001
43
0.0000000001
44
0.0000000001
40
0
40
0
40
0
40
1
40
1
40
1
10
185.52443466074862
20
56.396780556039367
30
0
10
185.74311402582686
20
56.620672786356181
30
0
10
186.16195854367587
20
56.620724534141871
30
0
0
SPLINE
5
424
100
AcDbEntity
8
0
100
AcDbSpline
70
0
71
2
72
6
73
3
74
0
42
0.000000001
43
0.0000000001
44
0.0000000001
40
0
40
0
40
0
40
1
40
1
40
1
10
186.16195854367587
20
56.620724534141871
30
0
10
186.5828665743112
20
56.620776536872327
30
0
10
186.80056907414485
20
56.397969679447108
30
0
0
SPLINE
5
425
100
AcDbEntity
8
0
100
AcDbSpline
70
0
71
2
72
6
73
3
74
0
42
0.000000001
43
0.0000000001
44
0.0000000001
40
0
40
0
40
0
40
1
40
1
40
1
10
186.80056907414485
20
56.397969679447108
30
0
10
187.01827216998808
20
56.175163120118739
30
0
10
187.01832238828928
20
55.768698188871895
30
0
0
LINE
5
426
100
AcDbEntity
8
0
100
AcDbLine
10
187.01832238828928
20
55.768698188871895
30
0
11
187.01849088726451
21
54.404874189385509
31
0
0
SPLINE
5
427
100
AcDbEntity
8
0
100
AcDbSpline
70
0
71
2
72
6
73
3
74
0
42
0.000000001
43
0.0000000001
44
0.0000000001
40
0
40
0
40
0
40
1
40
1
40
1
10
187.01849088726451
20
54.404874189385495
30
0
10
187.01854085065776
20
54.000472472901805
30
0
10
186.79986178360278
20
53.776580242621804
30
0
0
SPLINE
5
428
100
AcDbEntity
8
0
100
AcDbSpline
70
0
71
2
72
6
73
3
74
0
42
0.000000001
43
0.0000000001
44
0.0000000001
40
0
40
0
40
0
40
1
40
1
40
1
10
186.79986178360278
20
53.776580242621804
30
0
10
186.58118212050135
20
53.552688012268163
30
0
10
186.16233760265234
20
53.552636264482473
30
0
0
SPLINE
5
429
100
AcDbEntity
8
0
100
AcDbSpline
70
0
71
2
72
6
73
3
74
0
42
0.000000001
43
0.0000000001
44
0.0000000001
40
0
40
0
40
0
40
1
40
1
40
1
10
186.16228814911182
20
53.952911253416644
30
0
10
186.38512160202001
20
53.952938784247948
30
0
10
186.49136618686711
20
54.069526973815776
30
0
0
SPLINE
5
430
100
AcDbEntity
8
0
100
AcDbSpline
70
0
71
2
72
6
73
3
74
0
42
0.000000001
43
0.0000000001
44
0.0000000001
40
0
40
0
40
0
40
1
40
1
40
1
10
186.49136618686711
20
54.069526973815776
30
0
10
186.5976101756678
20
54.186115163309964
30
0
10
186.59758315465237
20
54.404822186691874
30
0
0
LINE
5
431
100
AcDbEntity
8
0
100
AcDbLine
10
186.59758315465237
20
54.40482218669186
30
0
11
186.59741465567714
21
55.768646186178259
31
0
0
SPLINE
5
432
100
AcDbEntity
8
0
100
AcDbSpline
70
0
71
2
72
6
73
3
74
0
42
0.000000001
43
0.0000000001
44
0.0000000001
40
0
40
0
40
0
40
1
40
1
40
1
10
186.59741465567714
20
55.768646186178259
30
0
10
186.59738763466174
20
55.987353209560169
30
0
10
186.49214659680956
20
56.103915270308789
30
0
0
SPLINE
5
433
100
AcDbEntity
8
0
100
AcDbSpline
70
0
71
2
72
6
73
3
74
0
42
0.000000001
43
0.0000000001
44
0.0000000001
40
0
40
0
40
0
40
1
40
1
40
1
10
186.49214659680956
20
56.103915270308789
30
0
10
186.38690496294777
20
56.220477032960552
30
0
10
186.1620079972532
20
56.220449247184483
30
0
0
SPLINE
5
434
100
AcDbEntity
8
0
100
AcDbSpline
70
0
71
2
72
6
73
3
74
0
42
0.000000001
43
0.0000000001
44
0.0000000001
40
0
40
0
40
0
40
1
40
1
40
1
10
186.1620079972532
20
56.220449247184483
30
0
10
185.93711132958185
20
56.220421461445227
30
0
10
185.83189879911433
20
56.103833697409833
30
0
0
SPLINE
5
435
100
AcDbEntity
8
0
100
AcDbSpline
70
0
71
2
72
6
73
3
74
0
42
0.000000001
43
0.0000000001
44
0.0000000001
40
0
40
0
40
0
40
1
40
1
40
1
10
185.83189879911433
20
56.103833697409833
30
0
10
185.72668597066041
20
55.987245635314395
30
0
10
185.72671299167581
20
55.768538611932485
30
0
0
LINE
5
436
100
AcDbEntity
8
0
100
AcDbLine
10
185.72671299167581
20
55.768538611932485
30
0
11
185.72688149065104
21
54.404714612446092
31
0
0
SPLINE
5
437
100
AcDbEntity
8
0
100
AcDbSpline
70
0
71
2
72
6
73
3
74
0
42
0.000000001
43
0.0000000001
44
0.0000000001
40
0
40
0
40
0
40
1
40
1
40
1
10
185.72688149065104
20
54.404714612446085
30
0
10
185.72690851166647
20
54.186007589064182
30
0
10
185.83318160393503
20
54.069445655824765
30
0
0
SPLINE
5
438
100
AcDbEntity
8
0
100
AcDbSpline
70
0
71
2
72
6
73
3
74
0
42
0.000000001
43
0.0000000001
44
0.0000000001
40
0
40
0
40
0
40
1
40
1
40
1
10
185.83318160393503
20
54.069445655824765
30
0
10
185.9394546962036
20
53.952883722585334
30
0
10
186.16228814911182
20
53.952911253416644
30
0
0
SPLINE
5
439
100
AcDbEntity
8
0
100
AcDbSpline
70
0
71
2
72
6
73
3
74
0
42
0.000000001
43
0.0000000001
44
0.0000000001
40
0
40
0
40
0
40
1
40
1
40
1
10
188.49383734024047
20
53.552924318745113
30
0
10
188.07292901158189
20
53.552872315977844
30
0
10
187.8552262568403
20
53.777742388166217
30
0
0
SPLINE
5
440
100
AcDbEntity
8
0
100
AcDbSpline
70
0
71
2
72
6
73
3
74
0
42
0.000000001
43
0.0000000001
44
0.0000000001
40
0
40
0
40
0
40
1
40
1
40
1
10
187.8552262568403
20
53.777742388166217
30
0
10
187.63752290608915
20
54.002612162257734
30
0
10
187.63747319760384
20
54.404950663978283
30
0
0
LINE
5
441
100
AcDbEntity
8
0
100
AcDbLine
10
187.63747319760384
20
54.404950663978283
30
0
11
187.63730469862861
21
55.768774663464669
31
0
0
SPLINE
5
442
100
AcDbEntity
8
0
100
AcDbSpline
70
0
71
2
72
6
73
3
74
0
42
0.000000001
43
0.0000000001
44
0.0000000001
40
0
40
0
40
0
40
1
40
1
40
1
10
187.63730469862861
20
55.768774663464669
30
0
10
187.63725473523533
20
56.173176379948373
30
0
10
187.85593380229034
20
56.397068610228374
30
0
0
SPLINE
5
443
100
AcDbEntity
8
0
100
AcDbSpline
70
0
71
2
72
6
73
3
74
0
42
0.000000001
43
0.0000000001
44
0.0000000001
40
0
40
0
40
0
40
1
40
1
40
1
10
187.85593380229034
20
56.397068610228374
30
0
10
188.07461346539179
20
56.620960840582015
30
0
10
188.493458281264
20
56.621012588404518
30
0
0
SPLINE
5
444
100
AcDbEntity
8
0
100
AcDbSpline
70
0
71
2
72
6
73
3
74
0
42
0.000000001
43
0.0000000001
44
0.0000000001
40
0
40
0
40
0
40
1
40
1
40
1
10
188.493458281264
20
56.621012588404518
30
0
10
188.91436601387613
20
56.621064591098154
30
0
10
189.1320691097562
20
56.398257733746568
30
0
0
SPLINE
5
445
100
AcDbEntity
8
0
100
AcDbSpline
70
0
71
2
72
6
73
3
74
0
42
0.000000001
43
0.0000000001
44
0.0000000001
40
0
40
0
40
0
40
1
40
1
40
1
10
189.1320691097562
20
56.398257733746568
30
0
10
189.34977160955302
20
56.175451174344566
30
0
10
189.34982182785421
20
55.768986243097714
30
0
0
LINE
5
446
100
AcDbEntity
8
0
100
AcDbLine
10
189.34982182785421
20
55.768986243097714
30
0
11
189.34999032682947
21
54.405162243611329
31
0
0
SPLINE
5
447
100
AcDbEntity
8
0
100
AcDbSpline
70
0
71
2
72
6
73
3
74
0
42
0.000000001
43
0.0000000001
44
0.0000000001
40
0
40
0
40
0
40
1
40
1
40
1
10
189.34999032682947
20
54.405162243611329
30
0
10
189.35004029022269
20
54.000760527127625
30
0
10
189.13136122316772
20
53.776868296847624
30
0
0
SPLINE
5
448
100
AcDbEntity
8
0
100
AcDbSpline
70
0
71
2
72
6
73
3
74
0
42
0.000000001
43
0.0000000001
44
0.0000000001
40
0
40
0
40
0
40
1
40
1
40
1
10
189.13136122316772
20
53.776868296847624
30
0
10
188.91268156006623
20
53.552976066493983
30
0
10
188.49383734024047
20
53.552924318745113
30
0
0
SPLINE
5
449
100
AcDbEntity
8
0
100
AcDbSpline
70
0
71
2
72
6
73
3
74
0
42
0.000000001
43
0.0000000001
44
0.0000000001
40
0
40
0
40
0
40
1
40
1
40
1
10
188.49378788669995
20
53.953199307679292
30
0
10
188.71662104158497
20
53.953226838473782
30
0
10
188.82286562643205
20
54.069815028041603
30
0
0
SPLINE
5
450
100
AcDbEntity
8
0
100
AcDbSpline
70
0
71
2
72
6
73
3
74
0
42
0.000000001
43
0.0000000001
44
0.0000000001
40
0
40
0
40
0
40
1
40
1
40
1
10
188.82286562643205
20
54.069815028041603
30
0
10
188.9291096152327
20
54.186403217535783
30
0
10
188.92908259421731
20
54.405110240917693
30
0
0
LINE
5
451
100
AcDbEntity
8
0
100
AcDbLine
10
188.92908259421731
20
54.405110240917686
30
0
11
188.92891409524208
21
55.768934240404079
31
0
0
SPLINE
5
452
100
AcDbEntity
8
0
100
AcDbSpline
70
0
71
2
72
6
73
3
74
0
42
0.000000001
43
0.0000000001
44
0.0000000001
40
0
40
0
40
0
40
1
40
1
40
1
10
188.92891409524208
20
55.768934240404079
30
0
10
188.92888707422662
20
55.987641263785989
30
0
10
188.82364544032805
20
56.104203324460975
30
0
0
SPLINE
5
453
100
AcDbEntity
8
0
100
AcDbSpline
70
0
71
2
72
6
73
3
74
0
42
0.000000001
43
0.0000000001
44
0.0000000001
40
0
40
0
40
0
40
1
40
1
40
1
10
188.82364544032805
20
56.104203324460975
30
0
10
188.71840440251273
20
56.220765087186379
30
0
10
188.49350773484133
20
56.22073730144713
30
0
0
SPLINE
5
454
100
AcDbEntity
8
0
100
AcDbSpline
70
0
71
2
72
6
73
3
74
0
42
0.000000001
43
0.0000000001
44
0.0000000001
40
0
40
0
40
0
40
1
40
1
40
1
10
188.49350773484133
20
56.22073730144713
30
0
10
188.26861047112351
20
56.220709515634233
30
0
10
188.16339823867924
20
56.10412175163566
30
0
0
SPLINE
5
455
100
AcDbEntity
8
0
100
AcDbSpline
70
0
71
2
72
6
73
3
74
0
42
0.000000001
43
0.0000000001
44
0.0000000001
40
0
40
0
40
0
40
1
40
1
40
1
10
188.16339823867924
20
56.10412175163566
30
0
10
188.05818541022532
20
55.987533689540214
30
0
10
188.05821243124072
20
55.768826666158304
30
0
0
LINE
5
456
100
AcDbEntity
8
0
100
AcDbLine
10
188.05821243124072
20
55.768826666158304
30
0
11
188.05838093021595
21
54.405002666671919
31
0
0
SPLINE
5
457
100
AcDbEntity
8
0
100
AcDbSpline
70
0
71
2
72
6
73
3
74
0
42
0.000000001
43
0.0000000001
44
0.0000000001
40
0
40
0
40
0
40
1
40
1
40
1
10
188.05838093021595
20
54.405002666671919
30
0
10
188.0584079512314
20
54.186295643290009
30
0
10
188.16468134152316
20
54.069733710087398
30
0
0
SPLINE
5
458
100
AcDbEntity
8
0
100
AcDbSpline
70
0
71
2
72
6
73
3
74
0
42
0.000000001
43
0.0000000001
44
0.0000000001
40
0
40
0
40
0
40
1
40
1
40
1
10
188.16468134152316
20
54.069733710087398
30
0
10
188.27095413576853
20
53.95317177681116
30
0
10
188.49378788669995
20
53.953199307679292
30
0
0
LWPOLYLINE
5
459
100
AcDbEntity
8
0
100
AcDbPolyline
90
7
70
1
43
0.0
10
165.97434901398057
20
53.599992706956542
10
166.39525689877647
20
53.599986883580982
10
166.39529840459758
20
56.599987002503156
10
165.97439051980166
20
56.599992825878715
10
165.54728892094386
20
56.315267048803477
10
165.54728289774613
20
55.87991621352181
10
165.97438418259915
20
56.141946031984872
0
SPLINE
5
460
100
AcDbEntity
8
0
100
AcDbSpline
70
0
71
2
72
6
73
3
74
0
42
0.000000001
43
0.0000000001
44
0.0000000001
40
0
40
0
40
0
40
1
40
1
40
1
10
167.93239551365184
20
53.569016501092229
30
0
10
167.51148777786753
20
53.569022324465728
30
0
10
167.29381547173767
20
53.79392230345411
30
0
0
SPLINE
5
461
100
AcDbEntity
8
0
100
AcDbSpline
70
0
71
2
72
6
73
3
74
0
42
0.000000001
43
0.0000000001
44
0.0000000001
40
0
40
0
40
0
40
1
40
1
40
1
10
167.29381547173767
20
53.79392230345411
30
0
10
167.0761431656037
20
54.018821984419262
30
0
10
167.0761487320668
20
54.421160489172024
30
0
0
LINE
5
462
100
AcDbEntity
8
0
100
AcDbLine
10
167.0761487320668
20
54.421160489172024
30
0
11
167.07616760094453
21
55.784984498936822
31
0
0
SPLINE
5
463
100
AcDbEntity
8
0
100
AcDbSpline
70
0
71
2
72
6
73
3
74
0
42
0.000000001
43
0.0000000001
44
0.0000000001
40
0
40
0
40
0
40
1
40
1
40
1
10
167.07616760094453
20
55.784984498936808
30
0
10
167.07617319595278
20
56.189386218468272
30
0
10
167.29488331821929
20
56.413248403585392
30
0
0
SPLINE
5
464
100
AcDbEntity
8
0
100
AcDbSpline
70
0
71
2
72
6
73
3
74
0
42
0.000000001
43
0.0000000001
44
0.0000000001
40
0
40
0
40
0
40
1
40
1
40
1
10
167.29488331821929
20
56.413248403585392
30
0
10
167.51359344048583
20
56.637110588702512
30
0
10
167.93243796149142
20
56.637104793874158
30
0
0
SPLINE
5
465
100
AcDbEntity
8
0
100
AcDbSpline
70
0
71
2
72
6
73
3
74
0
42
0.000000001
43
0.0000000001
44
0.0000000001
40
0
40
0
40
0
40
1
40
1
40
1
10
167.93243796149142
20
56.637104793874158
30
0
10
168.35334599529898
20
56.637098970496531
30
0
10
168.57101818096231
20
56.414262206288925
30
0
0
SPLINE
5
466
100
AcDbEntity
8
0
100
AcDbSpline
70
0
71
2
72
6
73
3
74
0
42
0.000000001
43
0.0000000001
44
0.0000000001
40
0
40
0
40
0
40
1
40
1
40
1
10
168.57101818096231
20
56.414262206288925
30
0
10
168.78869036662985
20
56.191425740104528
30
0
10
168.78868474307643
20
55.78496080579437
30
0
0
LINE
5
467
100
AcDbEntity
8
0
100
AcDbLine
10
168.78868474307643
20
55.78496080579437
30
0
11
168.78866587419873
21
54.421136796029572
31
0
0
SPLINE
5
468
100
AcDbEntity
8
0
100
AcDbSpline
70
0
71
2
72
6
73
3
74
0
42
0.000000001
43
0.0000000001
44
0.0000000001
40
0
40
0
40
0
40
1
40
1
40
1
10
168.78866587419876
20
54.421136796029579
30
0
10
168.78866027919048
20
54.016735076498115
30
0
10
168.56995045494716
20
53.792872891376874
30
0
0
SPLINE
5
469
100
AcDbEntity
8
0
100
AcDbSpline
70
0
71
2
72
6
73
3
74
0
42
0.000000001
43
0.0000000001
44
0.0000000001
40
0
40
0
40
0
40
1
40
1
40
1
10
168.56995045494716
20
53.792872891376874
30
0
10
168.35124003465745
20
53.569010706263882
30
0
10
167.93239551365184
20
53.569016501092229
30
0
0
SPLINE
5
470
100
AcDbEntity
8
0
100
AcDbSpline
70
0
71
2
72
6
73
3
74
0
42
0.000000001
43
0.0000000001
44
0.0000000001
40
0
40
0
40
0
40
1
40
1
40
1
10
167.93240105156568
20
53.969291493043059
30
0
10
168.1552348041765
20
53.969288410077219
30
0
10
168.26149510737136
20
54.085862002222996
30
0
0
SPLINE
5
471
100
AcDbEntity
8
0
100
AcDbSpline
70
0
71
2
72
6
73
3
74
0
42
0.000000001
43
0.0000000001
44
0.0000000001
40
0
40
0
40
0
40
1
40
1
40
1
10
168.26149510737136
20
54.085862002222996
30
0
10
168.36775511254302
20
54.202435594372886
30
0
10
168.36775813841444
20
54.421142619403071
30
0
0
LINE
5
472
100
AcDbEntity
8
0
100
AcDbLine
10
168.36775813841444
20
54.421142619403071
30
0
11
168.36777700729218
21
55.784966629167869
31
0
0
SPLINE
5
473
100
AcDbEntity
8
0
100
AcDbSpline
70
0
71
2
72
6
73
3
74
0
42
0.000000001
43
0.0000000001
44
0.0000000001
40
0
40
0
40
0
40
1
40
1
40
1
10
168.36777700729215
20
55.784966629167869
30
0
10
168.36778003316357
20
56.003673654198053
30
0
10
168.26255471206534
20
56.120250172305205
30
0
0
SPLINE
5
474
100
AcDbEntity
8
0
100
AcDbSpline
70
0
71
2
72
6
73
3
74
0
42
0.000000001
43
0.0000000001
44
0.0000000001
40
0
40
0
40
0
40
1
40
1
40
1
10
168.26255471206534
20
56.120250172305205
30
0
10
168.15732939096296
20
56.236826392389133
30
0
10
167.93243242357346
20
56.236829503900111
30
0
0
SPLINE
5
475
100
AcDbEntity
8
0
100
AcDbSpline
70
0
71
2
72
6
73
3
74
0
42
0.000000001
43
0.0000000001
44
0.0000000001
40
0
40
0
40
0
40
1
40
1
40
1
10
167.93243242357346
20
56.236829503900111
30
0
10
167.70753575420716
20
56.236832615406954
30
0
10
167.60230705840576
20
56.12025930701185
30
0
0
SPLINE
5
476
100
AcDbEntity
8
0
100
AcDbSpline
70
0
71
2
72
6
73
3
74
0
42
0.000000001
43
0.0000000001
44
0.0000000001
40
0
40
0
40
0
40
1
40
1
40
1
10
167.60230705840576
20
56.12025930701185
30
0
10
167.49707851161187
20
56.003685700591447
30
0
10
167.49707548574042
20
55.784978675561248
30
0
0
LINE
5
477
100
AcDbEntity
8
0
100
AcDbLine
10
167.49707548574042
20
55.784978675561248
30
0
11
167.49705661686272
21
54.42115466579645
31
0
0
SPLINE
5
478
100
AcDbEntity
8
0
100
AcDbSpline
70
0
71
2
72
6
73
3
74
0
42
0.000000001
43
0.0000000001
44
0.0000000001
40
0
40
0
40
0
40
1
40
1
40
1
10
167.49705661686272
20
54.421154665796465
30
0
10
167.49705359099127
20
54.202447640766273
30
0
10
167.60331051947887
20
54.085871108386556
30
0
0
SPLINE
5
479
100
AcDbEntity
8
0
100
AcDbSpline
70
0
71
2
72
6
73
3
74
0
42
0.000000001
43
0.0000000001
44
0.0000000001
40
0
40
0
40
0
40
1
40
1
40
1
10
167.60331051947887
20
54.085871108386556
30
0
10
167.7095675969781
20
53.969294576004778
30
0
10
167.93240105156568
20
53.969291493043059
30
0
0
SPLINE
5
480
100
AcDbEntity
8
0
100
AcDbSpline
70
0
71
2
72
6
73
3
74
0
42
0.000000001
43
0.0000000001
44
0.0000000001
40
0
40
0
40
0
40
1
40
1
40
1
10
170.26389497078799
20
53.568984244160383
30
0
10
169.8429872350037
20
53.568990067533882
30
0
10
169.62531477986221
20
53.793890046524318
30
0
0
SPLINE
5
481
100
AcDbEntity
8
0
100
AcDbSpline
70
0
71
2
72
6
73
3
74
0
42
0.000000001
43
0.0000000001
44
0.0000000001
40
0
40
0
40
0
40
1
40
1
40
1
10
169.62531477986221
20
53.793890046524318
30
0
10
169.40764262273987
20
54.018789727487416
30
0
10
169.40764818920297
20
54.421128232240164
30
0
0
LINE
5
482
100
AcDbEntity
8
0
100
AcDbLine
10
169.40764818920297
20
54.421128232240164
30
0
11
169.4076670580807
21
55.784952242004962
31
0
0
SPLINE
5
483
100
AcDbEntity
8
0
100
AcDbSpline
70
0
71
2
72
6
73
3
74
0
42
0.000000001
43
0.0000000001
44
0.0000000001
40
0
40
0
40
0
40
1
40
1
40
1
10
169.4076670580807
20
55.784952242004962
30
0
10
169.40767265308895
20
56.189353961536419
30
0
10
169.62638277535547
20
56.413216146653546
30
0
0
SPLINE
5
484
100
AcDbEntity
8
0
100
AcDbSpline
70
0
71
2
72
6
73
3
74
0
42
0.000000001
43
0.0000000001
44
0.0000000001
40
0
40
0
40
0
40
1
40
1
40
1
10
169.62638277535547
20
56.413216146653546
30
0
10
169.84509289762201
20
56.637078331770667
30
0
10
170.26393741862762
20
56.637072536942306
30
0
0
SPLINE
5
485
100
AcDbEntity
8
0
100
AcDbSpline
70
0
71
2
72
6
73
3
74
0
42
0.000000001
43
0.0000000001
44
0.0000000001
40
0
40
0
40
0
40
1
40
1
40
1
10
170.26393741862762
20
56.637072536942306
30
0
10
170.68484545243513
20
56.637066713564685
30
0
10
170.90251734007529
20
56.4142299493612
30
0
0
SPLINE
5
486
100
AcDbEntity
8
0
100
AcDbSpline
70
0
71
2
72
6
73
3
74
0
42
0.000000001
43
0.0000000001
44
0.0000000001
40
0
40
0
40
0
40
1
40
1
40
1
10
170.90251734007529
20
56.4142299493612
30
0
10
171.12018982376605
20
56.191393483172682
30
0
10
171.12018420021261
20
55.784928548862524
30
0
0
LINE
5
487
100
AcDbEntity
8
0
100
AcDbLine
10
171.12018420021263
20
55.784928548862524
30
0
11
171.12016533133487
21
54.421104539097726
31
0
0
SPLINE
5
488
100
AcDbEntity
8
0
100
AcDbSpline
70
0
71
2
72
6
73
3
74
0
42
0.000000001
43
0.0000000001
44
0.0000000001
40
0
40
0
40
0
40
1
40
1
40
1
10
171.12016533133493
20
54.421104539097726
30
0
10
171.12015973632666
20
54.01670281956627
30
0
10
170.90144991208334
20
53.792840634445021
30
0
0
SPLINE
5
489
100
AcDbEntity
8
0
100
AcDbSpline
70
0
71
2
72
6
73
3
74
0
42
0.000000001
43
0.0000000001
44
0.0000000001
40
0
40
0
40
0
40
1
40
1
40
1
10
170.90144991208334
20
53.792840634445021
30
0
10
170.6827394917936
20
53.568978449332022
30
0
10
170.26389497078799
20
53.568984244160383
30
0
0
SPLINE
5
490
100
AcDbEntity
8
0
100
AcDbSpline
70
0
71
2
72
6
73
3
74
0
42
0.000000001
43
0.0000000001
44
0.0000000001
40
0
40
0
40
0
40
1
40
1
40
1
10
170.26390050870185
20
53.969259236111213
30
0
10
170.48673396328945
20
53.969256153149495
30
0
10
170.59299456450753
20
54.085829745291143
30
0
0
SPLINE
5
491
100
AcDbEntity
8
0
100
AcDbSpline
70
0
71
2
72
6
73
3
74
0
42
0.000000001
43
0.0000000001
44
0.0000000001
40
0
40
0
40
0
40
1
40
1
40
1
10
170.59299456450753
20
54.085829745291143
30
0
10
170.6992545696792
20
54.202403337441041
30
0
10
170.69925759555062
20
54.421110362471225
30
0
0
LINE
5
492
100
AcDbEntity
8
0
100
AcDbLine
10
170.69925759555062
20
54.421110362471225
30
0
11
170.69927646442835
21
55.784934372236023
31
0
0
SPLINE
5
493
100
AcDbEntity
8
0
100
AcDbSpline
70
0
71
2
72
6
73
3
74
0
42
0.000000001
43
0.0000000001
44
0.0000000001
40
0
40
0
40
0
40
1
40
1
40
1
10
170.69927646442832
20
55.784934372236023
30
0
10
170.69927949029974
20
56.003641397266207
30
0
10
170.59405446722474
20
56.120217915369238
30
0
0
SPLINE
5
494
100
AcDbEntity
8
0
100
AcDbSpline
70
0
71
2
72
6
73
3
74
0
42
0.000000001
43
0.0000000001
44
0.0000000001
40
0
40
0
40
0
40
1
40
1
40
1
10
170.59405446722474
20
56.120217915369238
30
0
10
170.48882884809913
20
56.236794135457288
30
0
10
170.26393188070961
20
56.236797246968251
30
0
0
SPLINE
5
495
100
AcDbEntity
8
0
100
AcDbSpline
70
0
71
2
72
6
73
3
74
0
42
0.000000001
43
0.0000000001
44
0.0000000001
40
0
40
0
40
0
40
1
40
1
40
1
10
170.26393188070961
20
56.236797246968251
30
0
10
170.03903521134333
20
56.236800358475108
30
0
10
169.93380666455354
20
56.120227050077929
30
0
0
SPLINE
5
496
100
AcDbEntity
8
0
100
AcDbSpline
70
0
71
2
72
6
73
3
74
0
42
0.000000001
43
0.0000000001
44
0.0000000001
40
0
40
0
40
0
40
1
40
1
40
1
10
169.93380666455354
20
56.120227050077929
30
0
10
169.82857781973644
20
56.003653443661648
30
0
10
169.82857479386499
20
55.784946418631463
30
0
0
LINE
5
497
100
AcDbEntity
8
0
100
AcDbLine
10
169.82857479386496
20
55.784946418631463
30
0
11
169.82855592498726
21
54.421122408866665
31
0
0
SPLINE
5
498
100
AcDbEntity
8
0
100
AcDbSpline
70
0
71
2
72
6
73
3
74
0
42
0.000000001
43
0.0000000001
44
0.0000000001
40
0
40
0
40
0
40
1
40
1
40
1
10
169.82855592498726
20
54.421122408866665
30
0
10
169.82855289911583
20
54.202415383836488
30
0
10
169.93480997661507
20
54.085838851454696
30
0
0
SPLINE
5
499
100
AcDbEntity
8
0
100
AcDbSpline
70
0
71
2
72
6
73
3
74
0
42
0.000000001
43
0.0000000001
44
0.0000000001
40
0
40
0
40
0
40
1
40
1
40
1
10
169.93480997661507
20
54.085838851454696
30
0
10
170.04106705411428
20
53.969262319072925
30
0
10
170.26390050870185
20
53.969259236111213
30
0
0
LWPOLYLINE
5
500
100
AcDbEntity
8
0
100
AcDbPolyline
90
7
70
1
43
0.0
10
140.17870462752339
20
54.451430218867067
10
139.72065903088267
20
54.452483609734308
10
140.69174904266981
20
51.450242291924333
10
141.09202312517613
20
51.449321761160583
10
142.07691159368568
20
54.447064815298191
10
141.61886601101475
20
54.448118206133287
10
140.89337601494361
20
52.097648231324001
0
LWPOLYLINE
5
501
100
AcDbEntity
8
0
100
AcDbPolyline
90
4
70
1
43
0.0
10
142.10996811564527
20
50.877515564886231
10
142.51230540747451
20
50.876590289254565
10
143.91403663261161
20
54.797723898180763
10
143.51169948979361
20
54.798649173469741
0
SPLINE
5
502
100
AcDbEntity
8
0
100
AcDbSpline
70
0
71
2
72
6
73
3
74
0
42
0.000000001
43
0.0000000001
44
0.0000000001
40
0
40
0
40
0
40
1
40
1
40
1
10
145.00390873374369
20
51.409376200311954
30
0
10
144.78726549636806
20
51.409874425836605
30
0
10
144.59341335571159
20
51.451585834305725
30
0
0
SPLINE
5
503
100
AcDbEntity
8
0
100
AcDbSpline
70
0
71
2
72
6
73
3
74
0
42
0.000000001
43
0.0000000001
44
0.0000000001
40
0
40
0
40
0
40
1
40
1
40
1
10
144.59341335571159
20
51.451585834305725
30
0
10
144.39956091703269
20
51.493297243460233
30
0
10
144.23159453806844
20
51.576214717914638
30
0
0
SPLINE
5
504
100
AcDbEntity
8
0
100
AcDbSpline
70
0
71
2
72
6
73
3
74
0
42
0.000000001
43
0.0000000001
44
0.0000000001
40
0
40
0
40
0
40
1
40
1
40
1
10
144.23159453806844
20
51.576214717914638
30
0
10
144.06362786108181
20
51.659132193054418
30
0
10
143.91742052714162
20
51.783265223915322
30
0
0
LINE
5
505
100
AcDbEntity
8
0
100
AcDbLine
10
143.91742052714162
20
51.783265223915322
30
0
11
144.18019578166781
21
52.104532203600328
31
0
0
SPLINE
5
506
100
AcDbEntity
8
0
100
AcDbSpline
70
0
71
2
72
6
73
3
74
0
42
0.000000001
43
0.0000000001
44
0.0000000001
40
0
40
0
40
0
40
1
40
1
40
1
10
144.18019578166781
20
52.104532203600328
30
0
10
144.3511055817643
20
51.955583124348564
30
0
10
144.55726135643775
20
51.880831002752828
30
0
0
SPLINE
5
507
100
AcDbEntity
8
0
100
AcDbSpline
70
0
71
2
72
6
73
3
74
0
42
0.000000001
43
0.0000000001
44
0.0000000001
40
0
40
0
40
0
40
1
40
1
40
1
10
144.55726135643775
20
51.880831002752828
30
0
10
144.76341742913363
20
51.806078880471716
30
0
10
145.00481977442891
20
51.805523715161257
30
0
0
SPLINE
5
508
100
AcDbEntity
8
0
100
AcDbSpline
70
0
71
2
72
6
73
3
74
0
42
0.000000001
43
0.0000000001
44
0.0000000001
40
0
40
0
40
0
40
1
40
1
40
1
10
145.00481977442891
20
51.805523715161257
30
0
10
145.33081638416502
20
51.804774004097631
30
0
10
145.51059824429393
20
51.925062361584715
30
0
0
SPLINE
5
509
100
AcDbEntity
8
0
100
AcDbSpline
70
0
71
2
72
6
73
3
74
0
42
0.000000001
43
0.0000000001
44
0.0000000001
40
0
40
0
40
0
40
1
40
1
40
1
10
145.51059824429393
20
51.925062361584715
30
0
10
145.69038010442284
20
52.045350719071799
30
0
10
145.69088781968335
20
52.266120375093223
30
0
0
LINE
5
510
100
AcDbEntity
8
0
100
AcDbLine
10
145.69088781968335
20
52.266120375093223
30
0
11
145.69089256523665
21
52.268183882438557
31
0
0
SPLINE
5
511
100
AcDbEntity
8
0
100
AcDbSpline
70
0
71
2
72
6
73
3
74
0
42
0.000000001
43
0.0000000001
44
0.0000000001
40
0
40
0
40
0
40
1
40
1
40
1
10
145.69089256523665
20
52.268183882438564
30
0
10
145.6912531854793
20
52.424992261315481
30
0
10
145.60996533450469
20
52.516995036798441
30
0
0
SPLINE
5
512
100
AcDbEntity
8
0
100
AcDbSpline
70
0
71
2
72
6
73
3
74
0
42
0.000000001
43
0.0000000001
44
0.0000000001
40
0
40
0
40
0
40
1
40
1
40
1
10
145.60996533450469
20
52.516995036798441
30
0
10
145.52867748421548
20
52.608998110303837
30
0
10
145.39982519331292
20
52.653654716636993
30
0
0
SPLINE
5
513
100
AcDbEntity
8
0
100
AcDbSpline
70
0
71
2
72
6
73
3
74
0
42
0.000000001
43
0.0000000001
44
0.0000000001
40
0
40
0
40
0
40
1
40
1
40
1
10
145.39982519331292
20
52.653654716636993
30
0
10
145.27097290309575
20
52.698311620992591
30
0
10
145.0667949273811
20
52.735920037818467
30
0
0
SPLINE
5
514
100
AcDbEntity
8
0
100
AcDbSpline
70
0
71
2
72
6
73
3
74
0
42
0.000000001
43
0.0000000001
44
0.0000000001
40
0
40
0
40
0
40
1
40
1
40
1
10
145.0667949273811
20
52.735920037818467
30
0
10
145.06060974694327
20
52.737997780452943
30
0
10
145.05338806727946
20
52.738014388518735
30
0
0
SPLINE
5
515
100
AcDbEntity
8
0
100
AcDbSpline
70
0
71
2
72
6
73
3
74
0
42
0.000000001
43
0.0000000001
44
0.0000000001
40
0
40
0
40
0
40
1
40
1
40
1
10
145.05338806727946
20
52.738014388518735
30
0
10
145.04616698366053
20
52.738030995213769
30
0
10
145.03998180253731
20
52.740108439825811
30
0
0
LINE
5
516
100
AcDbEntity
8
0
100
AcDbLine
10
145.03998180253731
20
52.740108439825811
30
0
11
145.00904700323025
21
52.746369242869463
31
0
0
SPLINE
5
517
100
AcDbEntity
8
0
100
AcDbSpline
70
0
71
2
72
6
73
3
74
0
42
0.000000001
43
0.0000000001
44
0.0000000001
40
0
40
0
40
0
40
1
40
1
40
1
10
145.00904700323028
20
52.746369242869456
30
0
10
144.70792812653877
20
52.798643737331957
30
0
10
144.51928872589528
20
52.864070935558019
30
0
0
SPLINE
5
518
100
AcDbEntity
8
0
100
AcDbSpline
70
0
71
2
72
6
73
3
74
0
42
0.000000001
43
0.0000000001
44
0.0000000001
40
0
40
0
40
0
40
1
40
1
40
1
10
144.51928872589528
20
52.864070935558019
30
0
10
144.33064932525181
20
52.929498133784094
30
0
10
144.1969330527518
20
53.102089454941193
30
0
0
SPLINE
5
519
100
AcDbEntity
8
0
100
AcDbSpline
70
0
71
2
72
6
73
3
74
0
42
0.000000001
43
0.0000000001
44
0.0000000001
40
0
40
0
40
0
40
1
40
1
40
1
10
144.1969330527518
20
53.102089454941193
30
0
10
144.06321678025179
20
53.2746807760983
30
0
10
144.06394751081567
20
53.592424101509152
30
0
0
LINE
5
520
100
AcDbEntity
8
0
100
AcDbLine
10
144.06394751081569
20
53.592424101509138
30
0
11
144.0639522556836
21
53.594487310832051
31
0
0
SPLINE
5
521
100
AcDbEntity
8
0
100
AcDbSpline
70
0
71
2
72
6
73
3
74
0
42
0.000000001
43
0.0000000001
44
0.0000000001
40
0
40
0
40
0
40
1
40
1
40
1
10
144.0639522556836
20
53.594487310832051
30
0
10
144.06459283135814
20
53.873028616029274
30
0
10
144.18987357056022
20
54.069783696401416
30
0
0
SPLINE
5
522
100
AcDbEntity
8
0
100
AcDbSpline
70
0
71
2
72
6
73
3
74
0
42
0.000000001
43
0.0000000001
44
0.0000000001
40
0
40
0
40
0
40
1
40
1
40
1
10
144.18987357056022
20
54.069783696401416
30
0
10
144.31515460744208
20
54.266538627076947
30
0
10
144.55473099366429
20
54.369151653003755
30
0
0
SPLINE
5
523
100
AcDbEntity
8
0
100
AcDbSpline
70
0
71
2
72
6
73
3
74
0
42
0.000000001
43
0.0000000001
44
0.0000000001
40
0
40
0
40
0
40
1
40
1
40
1
10
144.55473099366429
20
54.369151653003755
30
0
10
144.7943070818641
20
54.47176467961593
30
0
10
145.13062003623713
20
54.470991243527322
30
0
0
SPLINE
5
524
100
AcDbEntity
8
0
100
AcDbSpline
70
0
71
2
72
6
73
3
74
0
42
0.000000001
43
0.0000000001
44
0.0000000001
40
0
40
0
40
0
40
1
40
1
40
1
10
145.13062003623713
20
54.470991243527322
30
0
10
145.29155513178227
20
54.470621132863428
30
0
10
145.44725079415332
20
54.435187433526181
30
0
0
SPLINE
5
525
100
AcDbEntity
8
0
100
AcDbSpline
70
0
71
2
72
6
73
3
74
0
42
0.000000001
43
0.0000000001
44
0.0000000001
40
0
40
0
40
0
40
1
40
1
40
1
10
145.44725079415332
20
54.435187433526181
30
0
10
145.6029470518838
20
54.399753434795741
30
0
10
145.7544385989344
20
54.330285226917205
30
0
0
SPLINE
5
526
100
AcDbEntity
8
0
100
AcDbSpline
70
0
71
2
72
6
73
3
74
0
42
0.000000001
43
0.0000000001
44
0.0000000001
40
0
40
0
40
0
40
1
40
1
40
1
10
145.7544385989344
20
54.330285226917205
30
0
10
145.90592954994008
20
54.260817020409426
30
0
10
146.05217988708475
20
54.155253468814109
30
0
0
LINE
5
527
100
AcDbEntity
8
0
100
AcDbLine
10
146.05217988708475
20
54.155253468814109
30
0
11
145.81207176255461
21
53.821554442914334
31
0
0
SPLINE
5
528
100
AcDbEntity
8
0
100
AcDbSpline
70
0
71
2
72
6
73
3
74
0
42
0.000000001
43
0.0000000001
44
0.0000000001
40
0
40
0
40
0
40
1
40
1
40
1
10
145.81207176255461
20
53.821554442914334
30
0
10
145.64111036358511
20
53.947807622198567
30
0
10
145.47103540000225
20
54.011128906605066
30
0
0
SPLINE
5
529
100
AcDbEntity
8
0
100
AcDbSpline
70
0
71
2
72
6
73
3
74
0
42
0.000000001
43
0.0000000001
44
0.0000000001
40
0
40
0
40
0
40
1
40
1
40
1
10
145.47103540000225
20
54.011128906605066
30
0
10
145.300960435734
20
54.074449892989136
30
0
10
145.12970899555194
20
54.074843728678005
30
0
0
SPLINE
5
530
100
AcDbEntity
8
0
100
AcDbSpline
70
0
71
2
72
6
73
3
74
0
42
0.000000001
43
0.0000000001
44
0.0000000001
40
0
40
0
40
0
40
1
40
1
40
1
10
145.12970899555194
20
54.074843728678005
30
0
10
144.82228216378923
20
54.075550733874216
30
0
10
144.65178014975666
20
53.953177814815902
30
0
0
SPLINE
5
531
100
AcDbEntity
8
0
100
AcDbSpline
70
0
71
2
72
6
73
3
74
0
42
0.000000001
43
0.0000000001
44
0.0000000001
40
0
40
0
40
0
40
1
40
1
40
1
10
144.65178014975666
20
53.953177814815902
30
0
10
144.48127813538139
20
53.83080474674636
30
0
10
144.48076093004235
20
53.605908523067924
30
0
0
LINE
5
532
100
AcDbEntity
8
0
100
AcDbLine
10
144.48076093004235
20
53.605908523067924
30
0
11
144.48075618483176
21
53.603845164733805
31
0
0
SPLINE
5
533
100
AcDbEntity
8
0
100
AcDbSpline
70
0
71
2
72
6
73
3
74
0
42
0.000000001
43
0.0000000001
44
0.0000000001
40
0
40
0
40
0
40
1
40
1
40
1
10
144.48075618483176
20
53.603845164733805
30
0
10
144.48040030979971
20
53.449100144191
30
0
10
144.56788520406732
20
53.360177947403251
30
0
0
SPLINE
5
534
100
AcDbEntity
8
0
100
AcDbSpline
70
0
71
2
72
6
73
3
74
0
42
0.000000001
43
0.0000000001
44
0.0000000001
40
0
40
0
40
0
40
1
40
1
40
1
10
144.56788520406732
20
53.360177947403251
30
0
10
144.65537009833494
20
53.271255750615502
30
0
10
144.7862900450632
20
53.228657460411469
30
0
0
SPLINE
5
535
100
AcDbEntity
8
0
100
AcDbSpline
70
0
71
2
72
6
73
3
74
0
42
0.000000001
43
0.0000000001
44
0.0000000001
40
0
40
0
40
0
40
1
40
1
40
1
10
144.7862900450632
20
53.228657460411469
30
0
10
144.91721058749363
20
53.186059019825478
30
0
10
145.15025570600423
20
53.140131185804378
30
0
0
SPLINE
5
536
100
AcDbEntity
8
0
100
AcDbSpline
70
0
71
2
72
6
73
3
74
0
42
0.000000001
43
0.0000000001
44
0.0000000001
40
0
40
0
40
0
40
1
40
1
40
1
10
145.15025570600423
20
53.140131185804378
30
0
10
145.15850379774253
20
53.138048698987362
30
0
10
145.16572310462971
20
53.137000337248907
30
0
0
SPLINE
5
537
100
AcDbEntity
8
0
100
AcDbSpline
70
0
71
2
72
6
73
3
74
0
42
0.000000001
43
0.0000000001
44
0.0000000001
40
0
40
0
40
0
40
1
40
1
40
1
10
145.16572310462971
20
53.137000337248907
30
0
10
145.17294181615733
20
53.135952274903637
30
0
10
145.18118990858102
20
53.133870086109042
30
0
0
SPLINE
5
538
100
AcDbEntity
8
0
100
AcDbSpline
70
0
71
2
72
6
73
3
74
0
42
0.000000001
43
0.0000000001
44
0.0000000001
40
0
40
0
40
0
40
1
40
1
40
1
10
145.18118990858102
20
53.133870086109042
30
0
10
145.19150150766467
20
53.131782853738727
30
0
10
145.2038766154644
20
53.129691471859985
30
0
0
SPLINE
5
539
100
AcDbEntity
8
0
100
AcDbSpline
70
0
71
2
72
6
73
3
74
0
42
0.000000001
43
0.0000000001
44
0.0000000001
40
0
40
0
40
0
40
1
40
1
40
1
10
145.2038766154644
20
53.129691471859985
30
0
10
145.21625172189334
20
53.127599493936366
30
0
10
145.22656332166238
20
53.125512559588486
30
0
0
SPLINE
5
540
100
AcDbEntity
8
0
100
AcDbSpline
70
0
71
2
72
6
73
3
74
0
42
0.000000001
43
0.0000000001
44
0.0000000001
40
0
40
0
40
0
40
1
40
1
40
1
10
145.22656332166238
20
53.125512559588486
30
0
10
145.49878658532234
20
53.069177779350163
30
0
10
145.68120996285842
20
52.992417016126069
30
0
0
SPLINE
5
541
100
AcDbEntity
8
0
100
AcDbSpline
70
0
71
2
72
6
73
3
74
0
42
0.000000001
43
0.0000000001
44
0.0000000001
40
0
40
0
40
0
40
1
40
1
40
1
10
145.68120996285842
20
52.992417016126069
30
0
10
145.86363393643938
20
52.915656251531217
30
0
10
145.98600685549769
20
52.745154237498646
30
0
0
SPLINE
5
542
100
AcDbEntity
8
0
100
AcDbSpline
70
0
71
2
72
6
73
3
74
0
42
0.000000001
43
0.0000000001
44
0.0000000001
40
0
40
0
40
0
40
1
40
1
40
1
10
145.98600685549769
20
52.745154237498646
30
0
10
146.10837977455603
20
52.574652223466074
30
0
10
146.10770123925272
20
52.279604945663216
30
0
0
LINE
5
543
100
AcDbEntity
8
0
100
AcDbLine
10
146.10770123925272
20
52.279604945663216
30
0
11
146.10769174883151
21
52.275478228994984
31
0
0
SPLINE
5
544
100
AcDbEntity
8
0
100
AcDbSpline
70
0
71
2
72
6
73
3
74
0
42
0.000000001
43
0.0000000001
44
0.0000000001
40
0
40
0
40
0
40
1
40
1
40
1
10
146.10769174883148
20
52.27547822899497
30
0
10
146.10706066357818
20
52.001063640465979
30
0
10
145.97662679529066
20
51.806383780255075
30
0
0
SPLINE
5
545
100
AcDbEntity
8
0
100
AcDbSpline
70
0
71
2
72
6
73
3
74
0
42
0.000000001
43
0.0000000001
44
0.0000000001
40
0
40
0
40
0
40
1
40
1
40
1
10
145.97662679529066
20
51.806383780255075
30
0
10
145.84619233095827
20
51.611703921414936
30
0
10
145.59939693518595
20
51.51013895851878
30
0
0
SPLINE
5
546
100
AcDbEntity
8
0
100
AcDbSpline
70
0
71
2
72
6
73
3
74
0
42
0.000000001
43
0.0000000001
44
0.0000000001
40
0
40
0
40
0
40
1
40
1
40
1
10
145.59939693518595
20
51.51013895851878
30
0
10
145.35260094405413
20
51.408574295015811
30
0
10
145.00390873374369
20
51.409376200311954
30
0
0
LINE
5
547
100
AcDbEntity
8
0
100
AcDbLine
10
139.60387234022309
20
50.555725330174035
30
0
11
140.02476576227826
21
50.55224058802046
31
0
0
LINE
5
548
100
AcDbEntity
8
0
100
AcDbLine
10
139.99992843283385
20
47.552343286057962
30
0
11
139.57903501077868
21
47.555828028211536
31
0
0
LINE
5
549
100
AcDbEntity
8
0
100
AcDbLine
10
139.57903501077868
20
47.555828028211536
30
0
11
139.60387234022309
21
50.555725330174035
31
0
0
LINE
5
550
100
AcDbEntity
8
0
100
AcDbLine
10
140.01369658193667
20
49.215285086583705
30
0
11
141.25368163008153
21
49.205018762757653
31
0
0
LINE
5
551
100
AcDbEntity
8
0
100
AcDbLine
10
141.25368163008153
20
49.205018762757653
30
0
11
141.25036770959844
21
48.804757489158852
31
0
0
LINE
5
552
100
AcDbEntity
8
0
100
AcDbLine
10
141.25036770959844
20
48.804757489158852
30
0
11
140.01038266145355
21
48.815023812984904
31
0
0
LINE
5
553
100
AcDbEntity
8
0
100
AcDbLine
10
139.81019266998652
20
50.554017123030391
30
0
11
141.4917032141397
21
50.540095235997136
31
0
0
LINE
5
554
100
AcDbEntity
8
0
100
AcDbLine
10
141.4917032141397
20
50.540095235997136
30
0
11
141.48838929365658
21
50.139833962398335
31
0
0
LINE
5
555
100
AcDbEntity
8
0
100
AcDbLine
10
141.48838929365658
20
50.139833962398335
30
0
11
140.02145184179514
21
50.151979314421659
31
0
0
LINE
5
556
100
AcDbEntity
8
0
100
AcDbLine
10
142.37524424766912
20
49.096692220819889
30
0
11
143.13037673134158
21
49.090440182038819
31
0
0
SPLINE
5
557
100
AcDbEntity
8
0
100
AcDbSpline
70
0
71
2
72
6
73
3
74
0
42
0.000000001
43
0.0000000001
44
0.0000000001
40
0
40
0
40
0
40
1
40
1
40
1
10
143.13037673134158
20
49.090440182038819
30
0
10
143.26654811396895
20
49.089312765613933
30
0
10
143.37023784376049
20
49.152418214072981
30
0
0
SPLINE
5
558
100
AcDbEntity
8
0
100
AcDbSpline
70
0
71
2
72
6
73
3
74
0
42
0.000000001
43
0.0000000001
44
0.0000000001
40
0
40
0
40
0
40
1
40
1
40
1
10
143.37023784376049
20
49.152418214072981
30
0
10
143.47392756861734
20
49.215523066506002
30
0
10
143.53163934927457
20
49.332656097463072
30
0
0
SPLINE
5
559
100
AcDbEntity
8
0
100
AcDbSpline
70
0
71
2
72
6
73
3
74
0
42
0.000000001
43
0.0000000001
44
0.0000000001
40
0
40
0
40
0
40
1
40
1
40
1
10
143.53163934927457
20
49.332656097463072
30
0
10
143.58935112746445
20
49.44978883040713
30
0
10
143.59061520147242
20
49.602465961600871
30
0
0
SPLINE
5
560
100
AcDbEntity
8
0
100
AcDbSpline
70
0
71
2
72
6
73
3
74
0
42
0.000000001
43
0.0000000001
44
0.0000000001
40
0
40
0
40
0
40
1
40
1
40
1
10
143.59061520147242
20
49.602465961600871
30
0
10
143.5918963558278
20
49.757206087855657
30
0
10
143.53613193339308
20
49.875278483904857
30
0
0
SPLINE
5
561
100
AcDbEntity
8
0
100
AcDbSpline
70
0
71
2
72
6
73
3
74
0
42
0.000000001
43
0.0000000001
44
0.0000000001
40
0
40
0
40
0
40
1
40
1
40
1
10
143.53613193339308
20
49.875278483904857
30
0
10
143.48036751095836
20
49.993350879954058
30
0
10
143.377745412058
20
50.059195809885928
30
0
0
SPLINE
5
562
100
AcDbEntity
8
0
100
AcDbSpline
70
0
71
2
72
6
73
3
74
0
42
0.000000001
43
0.0000000001
44
0.0000000001
40
0
40
0
40
0
40
1
40
1
40
1
10
143.377745412058
20
50.059195809885928
30
0
10
143.27512331439135
20
50.125040888824309
30
0
10
143.13895193176401
20
50.126168305249195
30
0
0
LINE
5
563
100
AcDbEntity
8
0
100
AcDbLine
10
143.13895193176401
20
50.126168305249195
30
0
11
142.38381944809151
21
50.132420344030272
31
0
0
LINE
5
564
100
AcDbEntity
8
0
100
AcDbLine
10
142.18287644364014
20
50.534372741032726
30
0
11
143.12782324774827
21
50.526549154850066
31
0
0
SPLINE
5
565
100
AcDbEntity
8
0
100
AcDbSpline
70
0
71
2
72
6
73
3
74
0
42
0.000000001
43
0.0000000001
44
0.0000000001
40
0
40
0
40
0
40
1
40
1
40
1
10
143.12782324774827
20
50.526549154850066
30
0
10
143.39603972486785
20
50.524328485162386
30
0
10
143.5993488941599
20
50.408129734405811
30
0
0
SPLINE
5
566
100
AcDbEntity
8
0
100
AcDbSpline
70
0
71
2
72
6
73
3
74
0
42
0.000000001
43
0.0000000001
44
0.0000000001
40
0
40
0
40
0
40
1
40
1
40
1
10
143.5993488941599
20
50.408129734405811
30
0
10
143.80265806098456
20
50.291930685636231
30
0
10
143.91337725276944
20
50.082616202479208
30
0
0
SPLINE
5
567
100
AcDbEntity
8
0
100
AcDbSpline
70
0
71
2
72
6
73
3
74
0
42
0.000000001
43
0.0000000001
44
0.0000000001
40
0
40
0
40
0
40
1
40
1
40
1
10
143.91337725276944
20
50.082616202479208
30
0
10
144.02409644455432
20
49.873301719322178
30
0
10
144.0218245301235
20
49.598895809999952
30
0
0
SPLINE
5
568
100
AcDbEntity
8
0
100
AcDbSpline
70
0
71
2
72
6
73
3
74
0
42
0.000000001
43
0.0000000001
44
0.0000000001
40
0
40
0
40
0
40
1
40
1
40
1
10
144.0218245301235
20
49.598895809999952
30
0
10
144.01955261445897
20
49.32448975167123
30
0
10
143.90539138539839
20
49.118068784696831
30
0
0
SPLINE
5
569
100
AcDbEntity
8
0
100
AcDbSpline
70
0
71
2
72
6
73
3
74
0
42
0.000000001
43
0.0000000001
44
0.0000000001
40
0
40
0
40
0
40
1
40
1
40
1
10
143.90539138539839
20
49.118068784696831
30
0
10
143.79123015757148
20
48.911647966728928
30
0
10
143.58603342052535
20
48.799862890741665
30
0
0
SPLINE
5
570
100
AcDbEntity
8
0
100
AcDbSpline
70
0
71
2
72
6
73
3
74
0
42
0.000000001
43
0.0000000001
44
0.0000000001
40
0
40
0
40
0
40
1
40
1
40
1
10
143.58603342052535
20
48.799862890741665
30
0
10
143.3808366834792
20
48.688077814754401
30
0
10
143.11262020635962
20
48.690298484442081
30
0
0
LINE
5
571
100
AcDbEntity
8
0
100
AcDbLine
10
143.11262020635962
20
48.690298484442096
30
0
11
142.37193032718599
21
48.696430947221103
31
0
0
LINE
5
572
100
AcDbEntity
8
0
100
AcDbLine
10
141.96624005827434
20
50.536166358857386
30
0
11
142.38713336857464
21
50.532681617629073
31
0
0
LINE
5
573
100
AcDbEntity
8
0
100
AcDbLine
10
142.36229603913023
20
47.532784315666575
30
0
11
141.94140272882993
21
47.536269056894902
31
0
0
LINE
5
574
100
AcDbEntity
8
0
100
AcDbLine
10
141.94140272882993
20
47.536269056894902
30
0
11
141.96624005827434
21
50.536166358857386
31
0
0
LWPOLYLINE
5
575
100
AcDbEntity
8
0
100
AcDbPolyline
90
8
70
1
43
0.0
10
145.77285023367608
20
50.504649936301568
10
145.41385243745427
20
50.507622220228996
10
144.28313829842477
20
47.516880907248719
10
144.73704310585791
20
47.513122850854188
10
144.96861257093056
20
48.169412444460342
10
146.17931363881675
20
48.159388574222497
10
146.39998490638365
20
47.499354701751393
10
146.85388911779077
20
47.495596650291596
0
LWPOLYLINE
5
576
100
AcDbEntity
8
0
100
AcDbPolyline
90
3
70
1
43
0.0
10
146.04511223508555
20
48.560788689300516
10
145.10944172198722
20
48.568535473422088
10
145.58855097633904
20
49.92637605802944
0
LINE
5
577
100
AcDbEntity
8
0
100
AcDbLine
10
142.38381944809151
20
50.132420344030272
30
0
11
142.37524424766912
21
49.096692220819889
31
0
0
LINE
5
578
100
AcDbEntity
8
0
100
AcDbLine
10
142.37193032718599
20
48.696430947221103
30
0
11
142.36229603913023
21
47.532784315666575
31
0
0
LINE
5
579
100
AcDbEntity
8
0
100
AcDbLine
10
140.02145184179514
20
50.151979314421659
30
0
11
140.01369658193667
21
49.215285086583705
31
0
0
LINE
5
580
100
AcDbEntity
8
0
100
AcDbLine
10
140.01038266145355
20
48.815023812984904
30
0
11
139.99992843283385
21
47.552343286057962
31
0
0
LWPOLYLINE
5
581
100
AcDbEntity
8
0
100
AcDbPolyline
90
12
70
1
43
0.0
10
113.62994961445922
20
54.138452024216662
10
113.20904284267903
20
54.139420005030374
10
113.20600129529859
20
52.816864980202297
10
111.92264843969537
20
52.819816372350708
10
111.92568998707578
20
54.142371397178792
10
111.50478325254839
20
54.143339377906834
10
111.49788401720228
20
51.143347191949111
10
111.91879075172966
20
51.142379211221069
10
111.92172790927431
20
52.419542438855601
10
113.20508076487755
20
52.416591046707197
10
113.2021436073329
20
51.139427819072651
10
113.62305037911311
20
51.138459838258939
0
LINE
5
582
100
AcDbEntity
8
0
100
AcDbLine
10
114.78765449517363
20
51.536057589141521
30
0
11
115.33029434228537
21
51.534809652553236
31
0
0
SPLINE
5
583
100
AcDbEntity
8
0
100
AcDbSpline
70
0
71
2
72
6
73
3
74
0
42
0.000000001
43
0.0000000001
44
0.0000000001
40
0
40
0
40
0
40
1
40
1
40
1
10
115.33029434228537
20
51.53480965255325
30
0
10
115.66248028196773
20
51.534045707571238
30
0
10
115.84547602892494
20
51.705908967935478
30
0
0
SPLINE
5
584
100
AcDbEntity
8
0
100
AcDbSpline
70
0
71
2
72
6
73
3
74
0
42
0.000000001
43
0.0000000001
44
0.0000000001
40
0
40
0
40
0
40
1
40
1
40
1
10
115.84547602892494
20
51.705908967935478
30
0
10
116.02847117846652
20
51.877771633625606
30
0
10
116.02919241963725
20
52.191388689401876
30
0
0
LINE
5
585
100
AcDbEntity
8
0
100
AcDbLine
10
116.02919241963725
20
52.191388689401876
30
0
11
116.03122328102191
21
53.074467462498788
31
0
0
SPLINE
5
586
100
AcDbEntity
8
0
100
AcDbSpline
70
0
71
2
72
6
73
3
74
0
42
0.000000001
43
0.0000000001
44
0.0000000001
40
0
40
0
40
0
40
1
40
1
40
1
10
116.03122328102191
20
53.074467462498788
30
0
10
116.03194452150726
20
53.388084220252622
30
0
10
115.84974178684058
20
53.560787048204688
30
0
0
SPLINE
5
587
100
AcDbEntity
8
0
100
AcDbSpline
70
0
71
2
72
6
73
3
74
0
42
0.000000001
43
0.0000000001
44
0.0000000001
40
0
40
0
40
0
40
1
40
1
40
1
10
115.84974178684058
20
53.560787048204688
30
0
10
115.66753845647173
20
53.733490026538739
30
0
10
115.33535251678938
20
53.734253971520751
30
0
0
LINE
5
588
100
AcDbEntity
8
0
100
AcDbLine
10
115.33535251678938
20
53.734253971520751
30
0
11
114.79271266967764
21
53.735501908109036
31
0
0
LINE
5
589
100
AcDbEntity
8
0
100
AcDbLine
10
114.65745751049566
20
54.136089011796848
30
0
11
115.32389319522815
21
54.134556375594144
31
0
0
SPLINE
5
590
100
AcDbEntity
8
0
100
AcDbSpline
70
0
71
2
72
6
73
3
74
0
42
0.000000001
43
0.0000000001
44
0.0000000001
40
0
40
0
40
0
40
1
40
1
40
1
10
115.32389319522815
20
54.134556375594144
30
0
10
115.68496525752087
20
54.133725999719722
30
0
10
115.94052092093116
20
54.007278274682314
30
0
0
SPLINE
5
591
100
AcDbEntity
8
0
100
AcDbSpline
70
0
71
2
72
6
73
3
74
0
42
0.000000001
43
0.0000000001
44
0.0000000001
40
0
40
0
40
0
40
1
40
1
40
1
10
115.94052092093116
20
54.007278274682314
30
0
10
116.19607658434147
20
53.880830549644912
30
0
10
116.32963389931115
20
53.639119779024838
30
0
0
SPLINE
5
592
100
AcDbEntity
8
0
100
AcDbSpline
70
0
71
2
72
6
73
3
74
0
42
0.000000001
43
0.0000000001
44
0.0000000001
40
0
40
0
40
0
40
1
40
1
40
1
10
116.32963389931115
20
53.639119779024838
30
0
10
116.46319121393816
20
53.397408859393551
30
0
10
116.4624082884564
20
53.056969635385926
30
0
0
LINE
5
593
100
AcDbEntity
8
0
100
AcDbLine
10
116.46240828845642
20
53.056969635385926
30
0
11
116.46045334667191
21
52.206902956511499
31
0
0
SPLINE
5
594
100
AcDbEntity
8
0
100
AcDbSpline
70
0
71
2
72
6
73
3
74
0
42
0.000000001
43
0.0000000001
44
0.0000000001
40
0
40
0
40
0
40
1
40
1
40
1
10
116.46045334667191
20
52.206902956511499
30
0
10
116.45967042084746
20
51.86646358349266
30
0
10
116.32500277525685
20
51.62536966352215
30
0
0
SPLINE
5
595
100
AcDbEntity
8
0
100
AcDbSpline
70
0
71
2
72
6
73
3
74
0
42
0.000000001
43
0.0000000001
44
0.0000000001
40
0
40
0
40
0
40
1
40
1
40
1
10
116.32500277525685
20
51.62536966352215
30
0
10
116.19033512966624
20
51.38427574355164
30
0
10
115.93316912027026
20
51.259007150748097
30
0
0
SPLINE
5
596
100
AcDbEntity
8
0
100
AcDbSpline
70
0
71
2
72
6
73
3
74
0
42
0.000000001
43
0.0000000001
44
0.0000000001
40
0
40
0
40
0
40
1
40
1
40
1
10
115.93316912027026
20
51.259007150748097
30
0
10
115.67600281285183
20
51.133738558629922
30
0
10
115.31493075055914
20
51.134568934504337
30
0
0
LINE
5
597
100
AcDbEntity
8
0
100
AcDbLine
10
115.31493075055914
20
51.134568934504337
30
0
11
114.65055827514954
21
51.136096825839125
31
0
0
LINE
5
598
100
AcDbEntity
8
0
100
AcDbLine
10
114.37272657732973
20
54.136743822075168
30
0
11
114.7936332000987
21
54.135775841604143
31
0
0
LINE
5
599
100
AcDbEntity
8
0
100
AcDbLine
10
114.79271266967764
20
53.735501908109036
30
0
11
114.78765449517363
21
51.536057589141521
31
0
0
LINE
5
600
100
AcDbEntity
8
0
100
AcDbLine
10
114.78673396475259
20
51.135783655646421
30
0
11
114.3658273419836
21
51.136751636117445
31
0
0
LINE
5
601
100
AcDbEntity
8
0
100
AcDbLine
10
114.3658273419836
20
51.136751636117445
30
0
11
114.37272657732973
21
54.136743822075168
31
0
0
LINE
5
602
100
AcDbEntity
8
0
100
AcDbLine
10
119.19346435914919
20
52.741196910210569
30
0
11
119.19225912842833
21
52.21712684107225
31
0
0
SPLINE
5
603
100
AcDbEntity
8
0
100
AcDbSpline
70
0
71
2
72
6
73
3
74
0
42
0.000000001
43
0.0000000001
44
0.0000000001
40
0
40
0
40
0
40
1
40
1
40
1
10
119.19225912842833
20
52.21712684107225
30
0
10
119.19149043789302
20
51.882877394044549
30
0
10
119.06091836827866
20
51.628362676705699
30
0
0
SPLINE
5
604
100
AcDbEntity
8
0
100
AcDbSpline
70
0
71
2
72
6
73
3
74
0
42
0.000000001
43
0.0000000001
44
0.0000000001
40
0
40
0
40
0
40
1
40
1
40
1
10
119.06091836827866
20
51.628362676705699
30
0
10
118.93034629866429
20
51.373847959366842
30
0
10
118.69171833050486
20
51.2351253551195
30
0
0
SPLINE
5
605
100
AcDbEntity
8
0
100
AcDbSpline
70
0
71
2
72
6
73
3
74
0
42
0.000000001
43
0.0000000001
44
0.0000000001
40
0
40
0
40
0
40
1
40
1
40
1
10
118.69171833050486
20
51.2351253551195
30
0
10
118.45309036234542
20
51.096402750872151
30
0
10
118.13947420063647
20
51.097123989986741
30
0
0
SPLINE
5
606
100
AcDbEntity
8
0
100
AcDbSpline
70
0
71
2
72
6
73
3
74
0
42
0.000000001
43
0.0000000001
44
0.0000000001
40
0
40
0
40
0
40
1
40
1
40
1
10
118.13947420063647
20
51.097123989986741
30
0
10
117.82173042819196
20
51.097854721578685
30
0
10
117.58166114424954
20
51.229425031397078
30
0
0
SPLINE
5
607
100
AcDbEntity
8
0
100
AcDbSpline
70
0
71
2
72
6
73
3
74
0
42
0.000000001
43
0.0000000001
44
0.0000000001
40
0
40
0
40
0
40
1
40
1
40
1
10
117.58166114424954
20
51.229425031397078
30
0
10
117.34159186030712
20
51.360995341215478
30
0
10
117.21009271176999
20
51.600638158330113
30
0
0
SPLINE
5
608
100
AcDbEntity
8
0
100
AcDbSpline
70
0
71
2
72
6
73
3
74
0
42
0.000000001
43
0.0000000001
44
0.0000000001
40
0
40
0
40
0
40
1
40
1
40
1
10
117.21009271176999
20
51.600638158330113
30
0
10
117.07859415927771
20
51.840280974073984
30
0
10
117.07932014531636
20
52.155961239173152
30
0
0
LINE
5
609
100
AcDbEntity
8
0
100
AcDbLine
10
117.07932014531636
20
52.155961239173152
30
0
11
117.08135575156895
21
53.041103221592962
31
0
0
SPLINE
5
610
100
AcDbEntity
8
0
100
AcDbSpline
70
0
71
2
72
6
73
3
74
0
42
0.000000001
43
0.0000000001
44
0.0000000001
40
0
40
0
40
0
40
1
40
1
40
1
10
117.08135575156895
20
53.041103221592962
30
0
10
117.08212444210426
20
53.375352668620664
30
0
10
117.21269413928466
20
53.628835781298072
30
0
0
SPLINE
5
611
100
AcDbEntity
8
0
100
AcDbSpline
70
0
71
2
72
6
73
3
74
0
42
0.000000001
43
0.0000000001
44
0.0000000001
40
0
40
0
40
0
40
1
40
1
40
1
10
117.21269413928466
20
53.628835781298072
30
0
10
117.34326383612236
20
53.882318744964259
30
0
10
117.58189120823694
20
54.021041350582351
30
0
0
SPLINE
5
612
100
AcDbEntity
8
0
100
AcDbSpline
70
0
71
2
72
6
73
3
74
0
42
0.000000001
43
0.0000000001
44
0.0000000001
40
0
40
0
40
0
40
1
40
1
40
1
10
117.58189120823694
20
54.021041350582351
30
0
10
117.82051917639637
20
54.1597639548297
30
0
10
118.13413593415021
20
54.159042714344352
30
0
0
SPLINE
5
613
100
AcDbEntity
8
0
100
AcDbSpline
70
0
71
2
72
6
73
3
74
0
42
0.000000001
43
0.0000000001
44
0.0000000001
40
0
40
0
40
0
40
1
40
1
40
1
10
118.13413593415021
20
54.159042714344352
30
0
10
118.39204455007356
20
54.158449588719762
30
0
10
118.60946508744675
20
54.04756416377851
30
0
0
SPLINE
5
614
100
AcDbEntity
8
0
100
AcDbSpline
70
0
71
2
72
6
73
3
74
0
42
0.000000001
43
0.0000000001
44
0.0000000001
40
0
40
0
40
0
40
1
40
1
40
1
10
118.60946508744675
20
54.04756416377851
30
0
10
118.82688622086478
20
53.936678737466494
30
0
10
118.97291354304876
20
53.73414166549297
30
0
0
SPLINE
5
615
100
AcDbEntity
8
0
100
AcDbSpline
70
0
71
2
72
6
73
3
74
0
42
0.000000001
43
0.0000000001
44
0.0000000001
40
0
40
0
40
0
40
1
40
1
40
1
10
118.97291354304876
20
53.73414166549297
30
0
10
119.11894026850248
20
53.531604296867769
30
0
10
119.16990988624819
20
53.265324069516673
30
0
0
LINE
5
616
100
AcDbEntity
8
0
100
AcDbLine
10
119.16990988624819
20
53.265324069516673
30
0
11
118.71392781092261
21
53.266372714798493
31
0
0
SPLINE
5
617
100
AcDbEntity
8
0
100
AcDbSpline
70
0
71
2
72
6
73
3
74
0
42
0.000000001
43
0.0000000001
44
0.0000000001
40
0
40
0
40
0
40
1
40
1
40
1
10
118.71392781092261
20
53.266372714798493
30
0
10
118.6771352363169
20
53.41707672705958
30
0
10
118.5886636659926
20
53.525602381236403
30
0
0
SPLINE
5
618
100
AcDbEntity
8
0
100
AcDbSpline
70
0
71
2
72
6
73
3
74
0
42
0.000000001
43
0.0000000001
44
0.0000000001
40
0
40
0
40
0
40
1
40
1
40
1
10
118.5886636659926
20
53.525602381236403
30
0
10
118.50019209566833
20
53.634128035413227
30
0
10
118.38065346235318
20
53.691143140109567
30
0
0
SPLINE
5
619
100
AcDbEntity
8
0
100
AcDbSpline
70
0
71
2
72
6
73
3
74
0
42
0.000000001
43
0.0000000001
44
0.0000000001
40
0
40
0
40
0
40
1
40
1
40
1
10
118.38065346235318
20
53.691143140109567
30
0
10
118.26111423299318
20
53.748158246176665
30
0
10
118.13319167870416
20
53.748452436212311
30
0
0
SPLINE
5
620
100
AcDbEntity
8
0
100
AcDbSpline
70
0
71
2
72
6
73
3
74
0
42
0.000000001
43
0.0000000001
44
0.0000000001
40
0
40
0
40
0
40
1
40
1
40
1
10
118.13319167870416
20
53.748452436212311
30
0
10
117.94749747523936
20
53.748879486662005
30
0
10
117.80699103347906
20
53.660481464189331
30
0
0
SPLINE
5
621
100
AcDbEntity
8
0
100
AcDbSpline
70
0
71
2
72
6
73
3
74
0
42
0.000000001
43
0.0000000001
44
0.0000000001
40
0
40
0
40
0
40
1
40
1
40
1
10
117.80699103347906
20
53.660481464189331
30
0
10
117.66648518810634
20
53.572083589357106
30
0
10
117.58977602341255
20
53.412355962777326
30
0
0
SPLINE
5
622
100
AcDbEntity
8
0
100
AcDbSpline
70
0
71
2
72
6
73
3
74
0
42
0.000000001
43
0.0000000001
44
0.0000000001
40
0
40
0
40
0
40
1
40
1
40
1
10
117.58977602341255
20
53.412355962777326
30
0
10
117.51306745442096
20
53.252628185815567
30
0
10
117.51257871897486
20
53.040111516096957
30
0
0
LINE
5
623
100
AcDbEntity
8
0
100
AcDbLine
10
117.51257871897486
20
53.040111516096957
30
0
11
117.51054311272227
21
52.154969533677146
31
0
0
SPLINE
5
624
100
AcDbEntity
8
0
100
AcDbSpline
70
0
71
2
72
6
73
3
74
0
42
0.000000001
43
0.0000000001
44
0.0000000001
40
0
40
0
40
0
40
1
40
1
40
1
10
117.51054311272227
20
52.154969533677146
30
0
10
117.51009708211552
20
51.961022194898298
30
0
10
117.58816689812414
20
51.815381603866953
30
0
0
SPLINE
5
625
100
AcDbEntity
8
0
100
AcDbSpline
70
0
71
2
72
6
73
3
74
0
42
0.000000001
43
0.0000000001
44
0.0000000001
40
0
40
0
40
0
40
1
40
1
40
1
10
117.58816689812414
20
51.815381603866953
30
0
10
117.6662367134474
20
51.669740714813173
30
0
10
117.80944872935987
20
51.588943389467481
30
0
0
SPLINE
5
626
100
AcDbEntity
8
0
100
AcDbSpline
70
0
71
2
72
6
73
3
74
0
42
0.000000001
43
0.0000000001
44
0.0000000001
40
0
40
0
40
0
40
1
40
1
40
1
10
117.80944872935987
20
51.588943389467481
30
0
10
117.95266074527234
20
51.508146064121789
30
0
10
118.1404184560825
20
51.507714268118789
30
0
0
SPLINE
5
627
100
AcDbEntity
8
0
100
AcDbSpline
70
0
71
2
72
6
73
3
74
0
42
0.000000001
43
0.0000000001
44
0.0000000001
40
0
40
0
40
0
40
1
40
1
40
1
10
118.1404184560825
20
51.507714268118789
30
0
10
118.32611265954732
20
51.507287217669088
30
0
10
118.46660664275024
20
51.590527069194053
30
0
0
SPLINE
5
628
100
AcDbEntity
8
0
100
AcDbSpline
70
0
71
2
72
6
73
3
74
0
42
0.000000001
43
0.0000000001
44
0.0000000001
40
0
40
0
40
0
40
1
40
1
40
1
10
118.46660664275024
20
51.590527069194053
30
0
10
118.60710122199805
20
51.673766919348274
30
0
10
118.68380741821298
20
51.832462942637363
30
0
0
SPLINE
5
629
100
AcDbEntity
8
0
100
AcDbSpline
70
0
71
2
72
6
73
3
74
0
42
0.000000001
43
0.0000000001
44
0.0000000001
40
0
40
0
40
0
40
1
40
1
40
1
10
118.68380741821298
20
51.832462942637363
30
0
10
118.76051361442791
20
51.991158965926452
30
0
10
118.76101658482048
20
52.209865412624978
30
0
0
LINE
5
630
100
AcDbEntity
8
0
100
AcDbLine
10
118.76101658482045
20
52.209865412624978
30
0
11
118.76131551972405
21
52.339851176236891
31
0
0
LINE
5
631
100
AcDbEntity
8
0
100
AcDbLine
10
118.76131551972405
20
52.339851176236891
30
0
11
118.15265178218979
21
52.341250951340157
31
0
0
LINE
5
632
100
AcDbEntity
8
0
100
AcDbLine
10
118.15265178218979
20
52.341250951340157
30
0
11
118.15357705816413
21
52.743588392180605
31
0
0
LINE
5
633
100
AcDbEntity
8
0
100
AcDbLine
10
118.15357705816413
20
52.743588392180605
30
0
11
119.19346435914919
21
52.741196910210569
31
0
0
LWPOLYLINE
5
634
100
AcDbEntity
8
0
100
AcDbPolyline
90
8
70
1
43
0.0
10
112.85482268494977
20
47.838134987621423
10
112.87698890177454
20
50.437765614447379
10
113.72496363966718
20
50.430535205746956
10
113.7283765321184
20
50.830795647680716
10
111.6115344808739
20
50.848845281120006
10
111.60812158842268
20
50.448584839186246
10
112.45609631700242
20
50.441354430565241
10
112.43393010017766
20
47.841723803739271
0
LINE
5
635
100
AcDbEntity
8
0
100
AcDbLine
10
114.46803402619838
20
49.493628769064287
30
0
11
115.25411263358839
21
49.486926128822653
31
0
0
SPLINE
5
636
100
AcDbEntity
8
0
100
AcDbSpline
70
0
71
2
72
6
73
3
74
0
42
0.000000001
43
0.0000000001
44
0.0000000001
40
0
40
0
40
0
40
1
40
1
40
1
10
115.25411263358839
20
49.486926128822653
30
0
10
115.37377831701981
20
49.485905777908926
30
0
10
115.46711487171942
20
49.542883680055319
30
0
0
SPLINE
5
637
100
AcDbEntity
8
0
100
AcDbSpline
70
0
71
2
72
6
73
3
74
0
42
0.000000001
43
0.0000000001
44
0.0000000001
40
0
40
0
40
0
40
1
40
1
40
1
10
115.46711487171942
20
49.542883680055319
30
0
10
115.56045142641904
20
49.599861582201697
30
0
10
115.61190569168035
20
49.705685252179563
30
0
0
SPLINE
5
638
100
AcDbEntity
8
0
100
AcDbSpline
70
0
71
2
72
6
73
3
74
0
42
0.000000001
43
0.0000000001
44
0.0000000001
40
0
40
0
40
0
40
1
40
1
40
1
10
115.61190569168035
20
49.705685252179563
30
0
10
115.66335995821221
20
49.81150907116362
30
0
10
115.66453863724958
20
49.949743310634062
30
0
0
SPLINE
5
639
100
AcDbEntity
8
0
100
AcDbSpline
70
0
71
2
72
6
73
3
74
0
42
0.000000001
43
0.0000000001
44
0.0000000001
40
0
40
0
40
0
40
1
40
1
40
1
10
115.66453863724958
20
49.949743310634062
30
0
10
115.66571731755745
20
50.087977699110695
30
0
10
115.61607505145119
20
50.194663386796528
30
0
0
SPLINE
5
640
100
AcDbEntity
8
0
100
AcDbSpline
70
0
71
2
72
6
73
3
74
0
42
0.000000001
43
0.0000000001
44
0.0000000001
40
0
40
0
40
0
40
1
40
1
40
1
10
115.61607505145119
20
50.194663386796528
30
0
10
115.56643278661542
20
50.301349223488565
30
0
10
115.47511281770987
20
50.359901632604561
30
0
0
SPLINE
5
641
100
AcDbEntity
8
0
100
AcDbSpline
70
0
71
2
72
6
73
3
74
0
42
0.000000001
43
0.0000000001
44
0.0000000001
40
0
40
0
40
0
40
1
40
1
40
1
10
115.47511281770987
20
50.359901632604561
30
0
10
115.38379284753378
20
50.418453892714368
30
0
10
115.26206432233401
20
50.41949183281843
30
0
0
LINE
5
642
100
AcDbEntity
8
0
100
AcDbLine
10
115.26206432233403
20
50.41949183281843
30
0
11
114.47598571494402
21
50.426194473060065
31
0
0
LINE
5
643
100
AcDbEntity
8
0
100
AcDbLine
10
114.24213068086659
20
50.828478320561231
30
0
11
115.24897150305563
21
50.819893311697875
31
0
0
SPLINE
5
644
100
AcDbEntity
8
0
100
AcDbSpline
70
0
71
2
72
6
73
3
74
0
42
0.000000001
43
0.0000000001
44
0.0000000001
40
0
40
0
40
0
40
1
40
1
40
1
10
115.24897150305563
20
50.819893311697882
30
0
10
115.50893486375061
20
50.817676687474346
30
0
10
115.70505542805591
20
50.708710083381746
30
0
0
SPLINE
5
645
100
AcDbEntity
8
0
100
AcDbSpline
70
0
71
2
72
6
73
3
74
0
42
0.000000001
43
0.0000000001
44
0.0000000001
40
0
40
0
40
0
40
1
40
1
40
1
10
115.70505542805591
20
50.708710083381746
30
0
10
115.90117599490227
20
50.599743777301533
30
0
10
116.00781390516306
20
50.401784822432496
30
0
0
SPLINE
5
646
100
AcDbEntity
8
0
100
AcDbSpline
70
0
71
2
72
6
73
3
74
0
42
0.000000001
43
0.0000000001
44
0.0000000001
40
0
40
0
40
0
40
1
40
1
40
1
10
116.00781390516306
20
50.401784822432496
30
0
10
116.11445181415333
20
50.203825718557262
30
0
10
116.11225278420224
20
49.945925795655405
30
0
0
SPLINE
5
647
100
AcDbEntity
8
0
100
AcDbSpline
70
0
71
2
72
6
73
3
74
0
42
0.000000001
43
0.0000000001
44
0.0000000001
40
0
40
0
40
0
40
1
40
1
40
1
10
116.11225278420224
20
49.945925795655405
30
0
10
116.11005375552169
20
49.688026021759732
30
0
10
115.9990240091073
20
49.491922751173441
30
0
0
SPLINE
5
648
100
AcDbEntity
8
0
100
AcDbSpline
70
0
71
2
72
6
73
3
74
0
42
0.000000001
43
0.0000000001
44
0.0000000001
40
0
40
0
40
0
40
1
40
1
40
1
10
115.9990240091073
20
49.491922751173441
30
0
10
115.88799456324637
20
49.295819776058487
30
0
10
115.69004440551355
20
49.190213584694256
30
0
0
LINE
5
649
100
AcDbEntity
8
0
100
AcDbLine
10
115.09122381276492
20
49.088025188962646
30
0
11
114.4646211312061
21
49.093368029118132
31
0
0
LINE
5
650
100
AcDbEntity
8
0
100
AcDbLine
10
114.05850587615799
20
50.830044030394603
30
0
11
114.4793986099363
21
50.826455213006227
31
0
0
LINE
5
651
100
AcDbEntity
8
0
100
AcDbLine
10
114.4538019089289
20
47.824501004465759
30
0
11
114.03290917515059
21
47.828089821854142
31
0
0
LINE
5
652
100
AcDbEntity
8
0
100
AcDbLine
10
114.03290917515059
20
47.828089821854142
30
0
11
114.05850587615799
21
50.830044030394603
31
0
0
LINE
5
653
100
AcDbEntity
8
0
100
AcDbLine
10
115.53941242974942
20
49.128045682163773
30
0
11
116.21989992533358
21
47.809442052951063
31
0
0
LINE
5
654
100
AcDbEntity
8
0
100
AcDbLine
10
116.21989992533358
20
47.809442052951063
30
0
11
115.72060579380053
21
47.813699373919938
31
0
0
LINE
5
655
100
AcDbEntity
8
0
100
AcDbLine
10
115.72060579380053
20
47.813699373919938
30
0
11
115.09122381276492
21
49.088025188962646
31
0
0
LWPOLYLINE
5
656
100
AcDbEntity
8
0
100
AcDbPolyline
90
12
70
1
43
0.0
10
118.46754435311465
20
50.790386283209742
10
117.22037958568201
20
49.232720694834882
10
117.23375100274721
20
50.800906443512147
10
116.81285856698128
20
50.804495258359466
10
116.78727945770527
20
47.804604189599743
10
117.20817189347117
20
47.80101537475241
10
117.21559501449218
20
48.671591211185124
10
117.70995953852801
20
49.262204316745567
10
118.56988348639302
20
47.789404496610707
10
119.08568273617195
20
47.785006441790649
10
118.01195960820277
20
49.623001239578883
10
118.98540704068672
20
50.785970634117241
0
SPLINE
5
657
100
AcDbEntity
8
0
100
AcDbSpline
70
0
71
2
72
6
73
3
74
0
42
0.000000001
43
0.0000000001
44
0.0000000001
40
0
40
0
40
0
40
0.36077018205534322
40
0.36077018205534322
40
0.36077018205534322
10
115.69004440551355
20
49.190213584694256
30
0
10
115.61862978263967
20
49.152113913212361
30
0
10
115.53941242974942
20
49.128045682163773
30
0
0
SPLINE
5
658
100
AcDbEntity
8
0
100
AcDbSpline
70
0
71
2
72
6
73
3
74
0
42
0.000000001
43
0.0000000001
44
0.0000000001
40
0
40
0
40
0
40
1
40
1
40
1
10
8.2835886078920336
20
36.920298769230548
30
0
10
8.0669453705164091
20
36.9207969947552
30
0
10
7.8730930063430975
20
36.962508403738362
30
0
0
SPLINE
5
659
100
AcDbEntity
8
0
100
AcDbSpline
70
0
71
2
72
6
73
3
74
0
42
0.000000001
43
0.0000000001
44
0.0000000001
40
0
40
0
40
0
40
1
40
1
40
1
10
7.8730930063430975
20
36.962508403738362
30
0
10
7.6792407166753938
20
37.004219812550176
30
0
10
7.511274114194352
20
37.087137287518608
30
0
0
SPLINE
5
660
100
AcDbEntity
8
0
100
AcDbSpline
70
0
71
2
72
6
73
3
74
0
42
0.000000001
43
0.0000000001
44
0.0000000001
40
0
40
0
40
0
40
1
40
1
40
1
10
7.511274114194352
20
37.087137287518608
30
0
10
7.3433075489661137
20
37.170054762401378
30
0
10
7.197100196399532
20
37.294187793305113
30
0
0
LINE
5
661
100
AcDbEntity
8
0
100
AcDbLine
10
7.1971001963995302
20
37.294187793305113
30
0
11
7.4598755068049316
21
37.615454772861611
31
0
0
SPLINE
5
662
100
AcDbEntity
8
0
100
AcDbSpline
70
0
71
2
72
6
73
3
74
0
42
0.000000001
43
0.0000000001
44
0.0000000001
40
0
40
0
40
0
40
1
40
1
40
1
10
7.4598755068049316
20
37.615454772861611
30
0
10
7.6307851578901884
20
37.466505693952541
30
0
10
7.8369411560804636
20
37.391753571842777
30
0
0
SPLINE
5
663
100
AcDbEntity
8
0
100
AcDbSpline
70
0
71
2
72
6
73
3
74
0
42
0.000000001
43
0.0000000001
44
0.0000000001
40
0
40
0
40
0
40
1
40
1
40
1
10
7.8369411560804636
20
37.391753571842777
30
0
10
8.0430971542707379
20
37.317001449733013
30
0
10
8.2844996485772491
20
37.316446284079859
30
0
0
SPLINE
5
664
100
AcDbEntity
8
0
100
AcDbSpline
70
0
71
2
72
6
73
3
74
0
42
0.000000001
43
0.0000000001
44
0.0000000001
40
0
40
0
40
0
40
1
40
1
40
1
10
8.2844996485772491
20
37.316446284079859
30
0
10
8.610496109302133
20
37.31569657335892
30
0
10
8.7902779694310489
20
37.435984930846004
30
0
0
SPLINE
5
665
100
AcDbEntity
8
0
100
AcDbSpline
70
0
71
2
72
6
73
3
74
0
42
0.000000001
43
0.0000000001
44
0.0000000001
40
0
40
0
40
0
40
1
40
1
40
1
10
8.7902779694310489
20
37.435984930846004
30
0
10
8.9700599785711841
20
37.5562732879904
30
0
10
8.970567693831681
20
37.777042944011818
30
0
0
LINE
5
666
100
AcDbEntity
8
0
100
AcDbLine
10
8.970567693831681
20
37.777042944011818
30
0
11
8.9705724393849788
21
37.779106451357151
31
0
0
SPLINE
5
667
100
AcDbEntity
8
0
100
AcDbSpline
70
0
71
2
72
6
73
3
74
0
42
0.000000001
43
0.0000000001
44
0.0000000001
40
0
40
0
40
0
40
1
40
1
40
1
10
8.9705724393849788
20
37.779106451357158
30
0
10
8.9709330596276526
20
37.935914830234076
30
0
10
8.8896450596418291
20
38.027917606059724
30
0
0
SPLINE
5
668
100
AcDbEntity
8
0
100
AcDbSpline
70
0
71
2
72
6
73
3
74
0
42
0.000000001
43
0.0000000001
44
0.0000000001
40
0
40
0
40
0
40
1
40
1
40
1
10
8.8896450596418291
20
38.027917606059724
30
0
10
8.8083570603413825
20
38.119920679907807
30
0
10
8.6795047694388288
20
38.16457728624097
30
0
0
SPLINE
5
669
100
AcDbEntity
8
0
100
AcDbSpline
70
0
71
2
72
6
73
3
74
0
42
0.000000001
43
0.0000000001
44
0.0000000001
40
0
40
0
40
0
40
1
40
1
40
1
10
8.6795047694388288
20
38.16457728624097
30
0
10
8.5506526282328696
20
38.209234190253881
30
0
10
8.3464743544957933
20
38.246842607765132
30
0
0
SPLINE
5
670
100
AcDbEntity
8
0
100
AcDbSpline
70
0
71
2
72
6
73
3
74
0
42
0.000000001
43
0.0000000001
44
0.0000000001
40
0
40
0
40
0
40
1
40
1
40
1
10
8.3464743544957933
20
38.246842607765132
30
0
10
8.3402893230691753
20
38.24892035005692
30
0
10
8.3330679414278084
20
38.24893695743733
30
0
0
SPLINE
5
671
100
AcDbEntity
8
0
100
AcDbSpline
70
0
71
2
72
6
73
3
74
0
42
0.000000001
43
0.0000000001
44
0.0000000001
40
0
40
0
40
0
40
1
40
1
40
1
10
8.3330679414278084
20
38.24893695743733
30
0
10
8.3258464107752239
20
38.248953565160434
30
0
10
8.319661378663227
20
38.251031009429788
30
0
0
LINE
5
672
100
AcDbEntity
8
0
100
AcDbLine
10
8.319661378663227
20
38.251031009429788
30
0
11
8.2887265793561884
21
38.25729181247344
31
0
0
SPLINE
5
673
100
AcDbEntity
8
0
100
AcDbSpline
70
0
71
2
72
6
73
3
74
0
42
0.000000001
43
0.0000000001
44
0.0000000001
40
0
40
0
40
0
40
1
40
1
40
1
10
8.2887265793561884
20
38.25729181247344
30
0
10
7.9876080006871062
20
38.309566306250552
30
0
10
7.7989684510324082
20
38.374993504819308
30
0
0
SPLINE
5
674
100
AcDbEntity
8
0
100
AcDbSpline
70
0
71
2
72
6
73
3
74
0
42
0.000000001
43
0.0000000001
44
0.0000000001
40
0
40
0
40
0
40
1
40
1
40
1
10
7.7989684510324082
20
38.374993504819308
30
0
10
7.6103288268721005
20
38.440420703559411
30
0
10
7.4766125916249058
20
38.613012024630848
30
0
0
SPLINE
5
675
100
AcDbEntity
8
0
100
AcDbSpline
70
0
71
2
72
6
73
3
74
0
42
0.000000001
43
0.0000000001
44
0.0000000001
40
0
40
0
40
0
40
1
40
1
40
1
10
7.4766125916249058
20
38.613012024630848
30
0
10
7.342896356377711
20
38.785603345702278
30
0
10
7.3436270869415887
20
39.10334667111313
30
0
0
LINE
5
676
100
AcDbEntity
8
0
100
AcDbLine
10
7.3436270869415896
20
39.10334667111313
30
0
11
7.3436318318095095
21
39.105409880436028
31
0
0
SPLINE
5
677
100
AcDbEntity
8
0
100
AcDbSpline
70
0
71
2
72
6
73
3
74
0
42
0.000000001
43
0.0000000001
44
0.0000000001
40
0
40
0
40
0
40
1
40
1
40
1
10
7.3436318318095095
20
39.105409880436028
30
0
10
7.3442724074840635
20
39.383951185633258
30
0
10
7.4695532956973745
20
39.580706265662698
30
0
0
SPLINE
5
678
100
AcDbEntity
8
0
100
AcDbSpline
70
0
71
2
72
6
73
3
74
0
42
0.000000001
43
0.0000000001
44
0.0000000001
40
0
40
0
40
0
40
1
40
1
40
1
10
7.4695532956973745
20
39.580706265662698
30
0
10
7.5948341835679951
20
39.777461196680925
30
0
10
7.8344105697902231
20
39.880074222607725
30
0
0
SPLINE
5
679
100
AcDbEntity
8
0
100
AcDbSpline
70
0
71
2
72
6
73
3
74
0
42
0.000000001
43
0.0000000001
44
0.0000000001
40
0
40
0
40
0
40
1
40
1
40
1
10
7.8344105697902231
20
39.880074222607725
30
0
10
8.0739869560124493
20
39.982687248534532
30
0
10
8.4102997613742705
20
39.981913812788605
30
0
0
SPLINE
5
680
100
AcDbEntity
8
0
100
AcDbSpline
70
0
71
2
72
6
73
3
74
0
42
0.000000001
43
0.0000000001
44
0.0000000001
40
0
40
0
40
0
40
1
40
1
40
1
10
8.4102997613742705
20
39.981913812788605
30
0
10
8.5712347079082036
20
39.981543702467405
30
0
10
8.7269308173128781
20
39.946110002102088
30
0
0
SPLINE
5
681
100
AcDbEntity
8
0
100
AcDbSpline
70
0
71
2
72
6
73
3
74
0
42
0.000000001
43
0.0000000001
44
0.0000000001
40
0
40
0
40
0
40
1
40
1
40
1
10
8.7269308173128781
20
39.946110002102088
30
0
10
8.8826269260321737
20
39.910676003714336
30
0
10
9.0341181750603106
20
39.841207796521175
30
0
0
SPLINE
5
682
100
AcDbEntity
8
0
100
AcDbSpline
70
0
71
2
72
6
73
3
74
0
42
0.000000001
43
0.0000000001
44
0.0000000001
40
0
40
0
40
0
40
1
40
1
40
1
10
9.0341181750603106
20
39.841207796521175
30
0
10
9.1856094240884456
20
39.771739589328028
30
0
10
9.3318594632106731
20
39.666176038418094
30
0
0
LINE
5
683
100
AcDbEntity
8
0
100
AcDbLine
10
9.3318594632106731
20
39.666176038418087
30
0
11
9.0917516367029663
21
39.332477011832935
31
0
0
SPLINE
5
684
100
AcDbEntity
8
0
100
AcDbSpline
70
0
71
2
72
6
73
3
74
0
42
0.000000001
43
0.0000000001
44
0.0000000001
40
0
40
0
40
0
40
1
40
1
40
1
10
9.0917516367029663
20
39.332477011832928
30
0
10
8.9207897906998195
20
39.458730192145232
30
0
10
8.7507149761281706
20
39.522051476209043
30
0
0
SPLINE
5
685
100
AcDbEntity
8
0
100
AcDbSpline
70
0
71
2
72
6
73
3
74
0
42
0.000000001
43
0.0000000001
44
0.0000000001
40
0
40
0
40
0
40
1
40
1
40
1
10
8.7507149761281706
20
39.522051476209043
30
0
10
8.5806400118599235
20
39.585372462593106
30
0
10
8.409388720689055
20
39.585766297939301
30
0
0
SPLINE
5
686
100
AcDbEntity
8
0
100
AcDbSpline
70
0
71
2
72
6
73
3
74
0
42
0.000000001
43
0.0000000001
44
0.0000000001
40
0
40
0
40
0
40
1
40
1
40
1
10
8.409388720689055
20
39.585766297939301
30
0
10
8.1019616654095294
20
39.586473303649534
30
0
10
7.9314596513769589
20
39.464100384591219
30
0
0
SPLINE
5
687
100
AcDbEntity
8
0
100
AcDbSpline
70
0
71
2
72
6
73
3
74
0
42
0.000000001
43
0.0000000001
44
0.0000000001
40
0
40
0
40
0
40
1
40
1
40
1
10
7.9314596513769589
20
39.464100384591219
30
0
10
7.7609577115073076
20
39.341727316350337
30
0
10
7.7604405061682815
20
39.116831092671895
30
0
0
LINE
5
688
100
AcDbEntity
8
0
100
AcDbLine
10
7.7604405061682815
20
39.116831092671895
30
0
11
7.7604357609576713
21
39.114767734337775
31
0
0
SPLINE
5
689
100
AcDbEntity
8
0
100
AcDbSpline
70
0
71
2
72
6
73
3
74
0
42
0.000000001
43
0.0000000001
44
0.0000000001
40
0
40
0
40
0
40
1
40
1
40
1
10
7.7604357609576713
20
39.114767734337775
30
0
10
7.7600798859256077
20
38.960022713794984
30
0
10
7.8475647801932302
20
38.871100517007228
30
0
0
SPLINE
5
690
100
AcDbEntity
8
0
100
AcDbSpline
70
0
71
2
72
6
73
3
74
0
42
0.000000001
43
0.0000000001
44
0.0000000001
40
0
40
0
40
0
40
1
40
1
40
1
10
7.8475647801932302
20
38.871100517007228
30
0
10
7.9350495999552448
20
38.78217832039082
30
0
10
8.0659699192115397
20
38.739580029330071
30
0
0
SPLINE
5
691
100
AcDbEntity
8
0
100
AcDbSpline
70
0
71
2
72
6
73
3
74
0
42
0.000000001
43
0.0000000001
44
0.0000000001
40
0
40
0
40
0
40
1
40
1
40
1
10
8.0659699192115397
20
38.739580029330071
30
0
10
8.1968901636195373
20
38.696981589429456
30
0
10
8.4299351331189243
20
38.651053755751043
30
0
0
SPLINE
5
692
100
AcDbEntity
8
0
100
AcDbSpline
70
0
71
2
72
6
73
3
74
0
42
0.000000001
43
0.0000000001
44
0.0000000001
40
0
40
0
40
0
40
1
40
1
40
1
10
8.4299351331189243
20
38.651053755751043
30
0
10
8.4381835228796618
20
38.648971268248651
30
0
10
8.4454025317443779
20
38.647922907195571
30
0
0
SPLINE
5
693
100
AcDbEntity
8
0
100
AcDbSpline
70
0
71
2
72
6
73
3
74
0
42
0.000000001
43
0.0000000001
44
0.0000000001
40
0
40
0
40
0
40
1
40
1
40
1
10
8.4454025317443779
20
38.647922907195571
30
0
10
8.4526216903056905
20
38.646874843822232
30
0
10
8.4608699317405858
20
38.644792654684956
30
0
0
SPLINE
5
694
100
AcDbEntity
8
0
100
AcDbSpline
70
0
71
2
72
6
73
3
74
0
42
0.000000001
43
0.0000000001
44
0.0000000001
40
0
40
0
40
0
40
1
40
1
40
1
10
8.4608699317405858
20
38.644792654684956
30
0
10
8.4711815308242233
20
38.642705422314641
30
0
10
8.4835564896127309
20
38.64061404077858
30
0
0
SPLINE
5
695
100
AcDbEntity
8
0
100
AcDbSpline
70
0
71
2
72
6
73
3
74
0
42
0.000000001
43
0.0000000001
44
0.0000000001
40
0
40
0
40
0
40
1
40
1
40
1
10
8.4835564896127309
20
38.64061404077858
30
0
10
8.4959312980192649
20
38.638522063540343
30
0
10
8.5062428977882796
20
38.636435129192456
30
0
0
SPLINE
5
696
100
AcDbEntity
8
0
100
AcDbSpline
70
0
71
2
72
6
73
3
74
0
42
0.000000001
43
0.0000000001
44
0.0000000001
40
0
40
0
40
0
40
1
40
1
40
1
10
8.5062428977882796
20
38.636435129192456
30
0
10
8.7784661614482378
20
38.58010034895414
30
0
10
8.9608898370067642
20
38.503339585044671
30
0
0
SPLINE
5
697
100
AcDbEntity
8
0
100
AcDbSpline
70
0
71
2
72
6
73
3
74
0
42
0.000000001
43
0.0000000001
44
0.0000000001
40
0
40
0
40
0
40
1
40
1
40
1
10
8.9608898370067642
20
38.503339585044671
30
0
10
9.1433135125652889
20
38.426578821135195
30
0
10
9.2656865806348261
20
38.256076806759935
30
0
0
SPLINE
5
698
100
AcDbEntity
8
0
100
AcDbSpline
70
0
71
2
72
6
73
3
74
0
42
0.000000001
43
0.0000000001
44
0.0000000001
40
0
40
0
40
0
40
1
40
1
40
1
10
9.2656865806348261
20
38.256076806759935
30
0
10
9.3880596487043615
20
38.085574792384676
30
0
10
9.3873811134010605
20
37.790527514581811
30
0
0
LINE
5
699
100
AcDbEntity
8
0
100
AcDbLine
10
9.3873811134010605
20
37.790527514581804
30
0
11
9.3873716229798418
21
37.786400797913579
31
0
0
SPLINE
5
700
100
AcDbEntity
8
0
100
AcDbSpline
70
0
71
2
72
6
73
3
74
0
42
0.000000001
43
0.0000000001
44
0.0000000001
40
0
40
0
40
0
40
1
40
1
40
1
10
9.3873716229798418
20
37.786400797913579
30
0
10
9.3867405377265083
20
37.511986209384581
30
0
10
9.256306222405339
20
37.317306350201747
30
0
0
SPLINE
5
701
100
AcDbEntity
8
0
100
AcDbSpline
70
0
71
2
72
6
73
3
74
0
42
0.000000001
43
0.0000000001
44
0.0000000001
40
0
40
0
40
0
40
1
40
1
40
1
10
9.256306222405339
20
37.317306350201747
30
0
10
9.1258719070841714
20
37.122626491018913
30
0
10
8.8790763623006317
20
37.021061528465445
30
0
0
SPLINE
5
702
100
AcDbEntity
8
0
100
AcDbSpline
70
0
71
2
72
6
73
3
74
0
42
0.000000001
43
0.0000000001
44
0.0000000001
40
0
40
0
40
0
40
1
40
1
40
1
10
8.8790763623006317
20
37.021061528465445
30
0
10
8.6322809672136867
20
36.919496863591725
30
0
10
8.2835886078920336
20
36.920298769230548
30
0
0
LINE
5
703
100
AcDbEntity
8
0
100
AcDbLine
10
10.408296625186921
20
38.510327308882033
30
0
11
11.163452694983603
21
38.508590637875699
31
0
0
SPLINE
5
704
100
AcDbEntity
8
0
100
AcDbSpline
70
0
71
2
72
6
73
3
74
0
42
0.000000001
43
0.0000000001
44
0.0000000001
40
0
40
0
40
0
40
1
40
1
40
1
10
11.163452694983603
20
38.508590637875699
30
0
10
11.299628384586651
20
38.508277467682987
30
0
10
11.402938926659195
20
38.572001792600098
30
0
0
SPLINE
5
705
100
AcDbEntity
8
0
100
AcDbSpline
70
0
71
2
72
6
73
3
74
0
42
0.000000001
43
0.0000000001
44
0.0000000001
40
0
40
0
40
0
40
1
40
1
40
1
10
11.402938926659195
20
38.572001792600098
30
0
10
11.506249467360982
20
38.635725521472331
30
0
10
11.56325982856016
20
38.753201541509441
30
0
0
SPLINE
5
706
100
AcDbEntity
8
0
100
AcDbSpline
70
0
71
2
72
6
73
3
74
0
42
0.000000001
43
0.0000000001
44
0.0000000001
40
0
40
0
40
0
40
1
40
1
40
1
10
11.56325982856016
20
38.753201541509441
30
0
10
11.620270189073963
20
38.870677263524108
30
0
10
11.620621319580792
20
39.023359223755222
30
0
0
SPLINE
5
707
100
AcDbEntity
8
0
100
AcDbSpline
70
0
71
2
72
6
73
3
74
0
42
0.000000001
43
0.0000000001
44
0.0000000001
40
0
40
0
40
0
40
1
40
1
40
1
10
11.620621319580792
20
39.023359223755222
30
0
10
11.620977194612855
20
39.178104244298027
30
0
10
11.564507764463066
20
39.295841090598728
30
0
0
SPLINE
5
708
100
AcDbEntity
8
0
100
AcDbSpline
70
0
71
2
72
6
73
3
74
0
42
0.000000001
43
0.0000000001
44
0.0000000001
40
0
40
0
40
0
40
1
40
1
40
1
10
11.564507764463066
20
39.295841090598728
30
0
10
11.508038334313275
20
39.413577936899436
30
0
10
11.405024355395712
20
39.478808068955225
30
0
0
SPLINE
5
709
100
AcDbEntity
8
0
100
AcDbSpline
70
0
71
2
72
6
73
3
74
0
42
0.000000001
43
0.0000000001
44
0.0000000001
40
0
40
0
40
0
40
1
40
1
40
1
10
11.405024355395712
20
39.478808068955225
30
0
10
11.302010376820842
20
39.544038350022234
30
0
10
11.165834687217792
20
39.544351520214946
30
0
0
LINE
5
710
100
AcDbEntity
8
0
100
AcDbLine
10
11.165834687217792
20
39.544351520214938
30
0
11
10.410678617421112
21
39.54608819122128
31
0
0
LINE
5
711
100
AcDbEntity
8
0
100
AcDbLine
10
10.207335464426382
20
39.946831880348135
30
0
11
11.152312454356117
21
39.944658668470879
31
0
0
SPLINE
5
712
100
AcDbEntity
8
0
100
AcDbSpline
70
0
71
2
72
6
73
3
74
0
42
0.000000001
43
0.0000000001
44
0.0000000001
40
0
40
0
40
0
40
1
40
1
40
1
10
11.152312454356114
20
39.944658668470879
30
0
10
11.420537414916412
20
39.944041817821308
30
0
10
11.624537452943676
20
39.829060816218423
30
0
0
SPLINE
5
713
100
AcDbEntity
8
0
100
AcDbSpline
70
0
71
2
72
6
73
3
74
0
42
0.000000001
43
0.0000000001
44
0.0000000001
40
0
40
0
40
0
40
1
40
1
40
1
10
11.624537452943676
20
39.829060816218423
30
0
10
11.828537490285562
20
39.714079516593102
30
0
10
11.940506580274018
20
39.505430811347971
30
0
0
SPLINE
5
714
100
AcDbEntity
8
0
100
AcDbSpline
70
0
71
2
72
6
73
3
74
0
42
0.000000001
43
0.0000000001
44
0.0000000001
40
0
40
0
40
0
40
1
40
1
40
1
10
11.940506580274018
20
39.505430811347971
30
0
10
12.052475670262472
20
39.296782106102832
30
0
10
12.051844585009139
20
39.022367517573841
30
0
0
SPLINE
5
715
100
AcDbEntity
8
0
100
AcDbSpline
70
0
71
2
72
6
73
3
74
0
42
0.000000001
43
0.0000000001
44
0.0000000001
40
0
40
0
40
0
40
1
40
1
40
1
10
12.051844585009139
20
39.022367517573841
30
0
10
12.051213499413116
20
38.747952780033629
30
0
10
11.93828829112344
20
38.540852885817031
30
0
0
SPLINE
5
716
100
AcDbEntity
8
0
100
AcDbSpline
70
0
71
2
72
6
73
3
74
0
42
0.000000001
43
0.0000000001
44
0.0000000001
40
0
40
0
40
0
40
1
40
1
40
1
10
11.93828829112344
20
38.540852885817031
30
0
10
11.82536308317645
20
38.333753140611655
30
0
10
11.62083872250828
20
38.220743104551751
30
0
0
SPLINE
5
717
100
AcDbEntity
8
0
100
AcDbSpline
70
0
71
2
72
6
73
3
74
0
42
0.000000001
43
0.0000000001
44
0.0000000001
40
0
40
0
40
0
40
1
40
1
40
1
10
11.62083872250828
20
38.220743104551751
30
0
10
11.416314361840104
20
38.107733068491846
30
0
10
11.14808940127981
20
38.108349919141411
30
0
0
LINE
5
718
100
AcDbEntity
8
0
100
AcDbLine
10
11.14808940127981
20
38.108349919141411
30
0
11
10.407376094765864
21
38.110053375386926
31
0
0
LINE
5
719
100
AcDbEntity
8
0
100
AcDbLine
10
9.9906922270507579
20
39.947330105872787
30
0
11
10.411599147842169
21
39.946362124716387
31
0
0
LINE
5
720
100
AcDbEntity
8
0
100
AcDbLine
10
10.40469991249603
20
36.946369938758664
30
0
11
9.9837929917046182
21
36.947337919915071
31
0
0
LINE
5
721
100
AcDbEntity
8
0
100
AcDbLine
10
9.9837929917046182
20
36.947337919915071
30
0
11
9.9906922270507579
21
39.947330105872787
31
0
0
LINE
5
722
100
AcDbEntity
8
0
100
AcDbLine
10
13.036287133245633
20
37.340593993624495
30
0
11
13.578926980357357
21
37.339346057036217
31
0
0
SPLINE
5
723
100
AcDbEntity
8
0
100
AcDbSpline
70
0
71
2
72
6
73
3
74
0
42
0.000000001
43
0.0000000001
44
0.0000000001
40
0
40
0
40
0
40
1
40
1
40
1
10
13.578926980357359
20
37.339346057036217
30
0
10
13.911112920039725
20
37.338582112054198
30
0
10
14.094108666996942
20
37.510445372418445
30
0
0
SPLINE
5
724
100
AcDbEntity
8
0
100
AcDbSpline
70
0
71
2
72
6
73
3
74
0
42
0.000000001
43
0.0000000001
44
0.0000000001
40
0
40
0
40
0
40
1
40
1
40
1
10
14.094108666996942
20
37.510445372418445
30
0
10
14.27710381653853
20
37.682308038108573
30
0
10
14.277825057709252
20
37.995925093884843
30
0
0
LINE
5
725
100
AcDbEntity
8
0
100
AcDbLine
10
14.277825057709252
20
37.99592509388485
30
0
11
14.279855919093922
21
38.879003866981755
31
0
0
SPLINE
5
726
100
AcDbEntity
8
0
100
AcDbSpline
70
0
71
2
72
6
73
3
74
0
42
0.000000001
43
0.0000000001
44
0.0000000001
40
0
40
0
40
0
40
1
40
1
40
1
10
14.279855919093924
20
38.879003866981755
30
0
10
14.28057715957927
20
39.192620624735589
30
0
10
14.098374424912603
20
39.365323452687662
30
0
0
SPLINE
5
727
100
AcDbEntity
8
0
100
AcDbSpline
70
0
71
2
72
6
73
3
74
0
42
0.000000001
43
0.0000000001
44
0.0000000001
40
0
40
0
40
0
40
1
40
1
40
1
10
14.098374424912603
20
39.365323452687662
30
0
10
13.916171094543749
20
39.538026431021706
30
0
10
13.583985154861384
20
39.538790376003725
30
0
0
LINE
5
728
100
AcDbEntity
8
0
100
AcDbLine
10
13.583985154861384
20
39.538790376003725
30
0
11
13.041345307749657
21
39.540038312592003
31
0
0
LINE
5
729
100
AcDbEntity
8
0
100
AcDbLine
10
12.906090446590104
20
39.940625415594447
30
0
11
13.572525833300171
21
39.939092780077111
31
0
0
SPLINE
5
730
100
AcDbEntity
8
0
100
AcDbSpline
70
0
71
2
72
6
73
3
74
0
42
0.000000001
43
0.0000000001
44
0.0000000001
40
0
40
0
40
0
40
1
40
1
40
1
10
13.572525833300171
20
39.939092780077118
30
0
10
13.933597895592877
20
39.938262404202689
30
0
10
14.189153559003183
20
39.811814679165288
30
0
0
SPLINE
5
731
100
AcDbEntity
8
0
100
AcDbSpline
70
0
71
2
72
6
73
3
74
0
42
0.000000001
43
0.0000000001
44
0.0000000001
40
0
40
0
40
0
40
1
40
1
40
1
10
14.189153559003183
20
39.811814679165288
30
0
10
14.444709222413483
20
39.685366954127886
30
0
10
14.578266537383172
20
39.443656183507812
30
0
0
SPLINE
5
732
100
AcDbEntity
8
0
100
AcDbSpline
70
0
71
2
72
6
73
3
74
0
42
0.000000001
43
0.0000000001
44
0.0000000001
40
0
40
0
40
0
40
1
40
1
40
1
10
14.578266537383172
20
39.443656183507812
30
0
10
14.711823852010166
20
39.201945263876517
30
0
10
14.711040926528401
20
38.8615060398689
30
0
0
LINE
5
733
100
AcDbEntity
8
0
100
AcDbLine
10
14.711040926528401
20
38.8615060398689
30
0
11
14.709085984743913
21
38.011439360994473
31
0
0
SPLINE
5
734
100
AcDbEntity
8
0
100
AcDbSpline
70
0
71
2
72
6
73
3
74
0
42
0.000000001
43
0.0000000001
44
0.0000000001
40
0
40
0
40
0
40
1
40
1
40
1
10
14.709085984743911
20
38.011439360994473
30
0
10
14.708303058919459
20
37.670999987975634
30
0
10
14.573635413328848
20
37.429906068005124
30
0
0
SPLINE
5
735
100
AcDbEntity
8
0
100
AcDbSpline
70
0
71
2
72
6
73
3
74
0
42
0.000000001
43
0.0000000001
44
0.0000000001
40
0
40
0
40
0
40
1
40
1
40
1
10
14.573635413328848
20
37.429906068005124
30
0
10
14.438967767738236
20
37.188812148034614
30
0
10
14.181802056364692
20
37.063543554545689
30
0
0
SPLINE
5
736
100
AcDbEntity
8
0
100
AcDbSpline
70
0
71
2
72
6
73
3
74
0
42
0.000000001
43
0.0000000001
44
0.0000000001
40
0
40
0
40
0
40
1
40
1
40
1
10
14.181802056364692
20
37.063543554545689
30
0
10
13.924635152901404
20
36.938274963798264
30
0
10
13.563563686653568
20
36.939105338301928
30
0
0
LINE
5
737
100
AcDbEntity
8
0
100
AcDbLine
10
13.563563686653568
20
36.939105338301935
30
0
11
12.899191211243963
21
36.940633229636717
31
0
0
LINE
5
738
100
AcDbEntity
8
0
100
AcDbLine
10
12.621359215401737
20
39.941280226558135
30
0
11
13.042265838170714
21
39.94031224608711
31
0
0
LINE
5
739
100
AcDbEntity
8
0
100
AcDbLine
10
13.041345307749657
20
39.540038312592003
30
0
11
13.036287133245633
21
37.340593993624495
31
0
0
LINE
5
740
100
AcDbEntity
8
0
100
AcDbLine
10
13.035366602824574
20
36.940320060129388
30
0
11
12.614459980055596
21
36.941288040600412
31
0
0
LINE
5
741
100
AcDbEntity
8
0
100
AcDbLine
10
12.614459980055596
20
36.941288040600412
30
0
11
12.621359215401737
21
39.941280226558135
31
0
0
LWPOLYLINE
5
742
100
AcDbEntity
8
0
100
AcDbPolyline
90
13
70
1
43
0.0
10
8.1025979800614678
20
36.652231367064878
10
7.7085275577219159
20
36.65566115881775
10
6.8103041409097216
20
34.68266101367702
10
5.9465583557216428
20
36.670996457016386
10
5.5524879706335826
20
36.674426248445037
10
5.5263784597648158
20
33.674539749142447
10
5.9369543849759516
20
33.670966301752365
10
5.9545984134068286
20
35.698200092118583
10
6.6585738164123409
20
34.081482779086805
10
6.9515475633633548
20
34.078932882205095
10
7.6839054948455683
20
35.723263408073265
10
7.6659123577241042
20
33.655918316773466
10
8.0764884691927001
20
33.652344867762295
0
LINE
5
743
100
AcDbEntity
8
0
100
AcDbLine
10
9.6623736822786928
20
36.638655859905434
30
0
11
10.021369887733947
21
36.635531336584265
31
0
0
LINE
5
744
100
AcDbEntity
8
0
100
AcDbLine
10
10.021369887733947
20
36.635531336584265
30
0
11
11.101132906164988
21
33.626019876194263
31
0
0
LINE
5
745
100
AcDbEntity
8
0
100
AcDbLine
10
11.101132906164988
20
33.626019876194263
30
0
11
10.647230329271446
21
33.629970417078788
31
0
0
LINE
5
746
100
AcDbEntity
8
0
100
AcDbLine
10
10.647230329271446
20
33.629970417078788
30
0
11
9.8368257130602075
21
36.057335664560107
31
0
0
LINE
5
747
100
AcDbEntity
8
0
100
AcDbLine
10
8.9842945170155968
20
33.644443778211986
30
0
11
8.5303913440981791
21
33.648394324284013
31
0
0
LINE
5
748
100
AcDbEntity
8
0
100
AcDbLine
10
8.5303913440981791
20
33.648394324284013
30
0
11
9.6623736822786928
21
36.638655859905434
31
0
0
LINE
5
749
100
AcDbEntity
8
0
100
AcDbLine
10
9.357140674544004
20
34.69969838065974
30
0
11
10.292807818283553
21
34.691554802073
31
0
0
LINE
5
750
100
AcDbEntity
8
0
100
AcDbLine
10
10.42683898589792
20
34.290097811529833
30
0
11
9.2161422777582835
21
34.300635109813101
31
0
0
SPLINE
5
751
100
AcDbEntity
8
0
100
AcDbSpline
70
0
71
2
72
6
73
3
74
0
42
0.000000001
43
0.0000000001
44
0.0000000001
40
0
40
0
40
0
40
1
40
1
40
1
10
12.536848372571994
20
33.582573839301574
30
0
10
12.225306097865726
20
33.585285347356695
30
0
10
11.990273367341134
20
33.725575454890397
30
0
0
SPLINE
5
752
100
AcDbEntity
8
0
100
AcDbSpline
70
0
71
2
72
6
73
3
74
0
42
0.000000001
43
0.0000000001
44
0.0000000001
40
0
40
0
40
0
40
1
40
1
40
1
10
11.990273367341134
20
33.725575454890397
30
0
10
11.755240043386411
20
33.865865865623526
30
0
10
11.627467869890511
20
34.120770112990819
30
0
0
SPLINE
5
753
100
AcDbEntity
8
0
100
AcDbSpline
70
0
71
2
72
6
73
3
74
0
42
0.000000001
43
0.0000000001
44
0.0000000001
40
0
40
0
40
0
40
1
40
1
40
1
10
11.627467869890511
20
34.120770112990819
30
0
10
11.499695100370737
20
34.375674365545606
30
0
10
11.502604140398279
20
34.709912335319231
30
0
0
LINE
5
754
100
AcDbEntity
8
0
100
AcDbLine
10
11.502604140398278
20
34.709912335319231
30
0
11
11.509768991039044
21
35.533127247876664
31
0
0
SPLINE
5
755
100
AcDbEntity
8
0
100
AcDbSpline
70
0
71
2
72
6
73
3
74
0
42
0.000000001
43
0.0000000001
44
0.0000000001
40
0
40
0
40
0
40
1
40
1
40
1
10
11.509768991039046
20
35.533127247876664
30
0
10
11.512678028472843
20
35.867364919638348
30
0
10
11.644868224966737
20
36.120006733646498
30
0
0
SPLINE
5
756
100
AcDbEntity
8
0
100
AcDbSpline
70
0
71
2
72
6
73
3
74
0
42
0.000000001
43
0.0000000001
44
0.0000000001
40
0
40
0
40
0
40
1
40
1
40
1
10
11.644868224966737
20
36.120006733646498
30
0
10
11.777057824139888
20
36.372648403836166
30
0
10
12.014506369863138
20
36.509858066261984
30
0
0
SPLINE
5
757
100
AcDbEntity
8
0
100
AcDbSpline
70
0
71
2
72
6
73
3
74
0
42
0.000000001
43
0.0000000001
44
0.0000000001
40
0
40
0
40
0
40
1
40
1
40
1
10
12.014506369863138
20
36.509858066261984
30
0
10
12.251954319562511
20
36.647067733875296
30
0
10
12.563496594268777
20
36.644356225820175
30
0
0
SPLINE
5
758
100
AcDbEntity
8
0
100
AcDbSpline
70
0
71
2
72
6
73
3
74
0
42
0.000000001
43
0.0000000001
44
0.0000000001
40
0
40
0
40
0
40
1
40
1
40
1
10
12.563496594268777
20
36.644356225820175
30
0
10
12.821396124335491
20
36.64211159737016
30
0
10
13.037071029133651
20
36.529845170205981
30
0
0
SPLINE
5
759
100
AcDbEntity
8
0
100
AcDbSpline
70
0
71
2
72
6
73
3
74
0
42
0.000000001
43
0.0000000001
44
0.0000000001
40
0
40
0
40
0
40
1
40
1
40
1
10
13.037071029133651
20
36.529845170205981
30
0
10
13.252745933931806
20
36.417578743041808
30
0
10
13.396441004921726
20
36.214119723980851
30
0
0
SPLINE
5
760
100
AcDbEntity
8
0
100
AcDbSpline
70
0
71
2
72
6
73
3
74
0
42
0.000000001
43
0.0000000001
44
0.0000000001
40
0
40
0
40
0
40
1
40
1
40
1
10
13.396441004921726
20
36.214119723980851
30
0
10
13.540136669341772
20
36.010660401720465
30
0
10
13.589400119572762
20
35.744059250405201
30
0
0
LINE
5
761
100
AcDbEntity
8
0
100
AcDbLine
10
13.589400119572762
20
35.744059250405201
30
0
11
13.158192343710764
21
35.747812267098624
31
0
0
SPLINE
5
762
100
AcDbEntity
8
0
100
AcDbSpline
70
0
71
2
72
6
73
3
74
0
42
0.000000001
43
0.0000000001
44
0.0000000001
40
0
40
0
40
0
40
1
40
1
40
1
10
13.158192343710766
20
35.747812267098624
30
0
10
13.120212931167639
20
35.88845076310313
30
0
10
13.029361518126548
20
35.999630789059999
30
0
0
SPLINE
5
763
100
AcDbEntity
8
0
100
AcDbSpline
70
0
71
2
72
6
73
3
74
0
42
0.000000001
43
0.0000000001
44
0.0000000001
40
0
40
0
40
0
40
1
40
1
40
1
10
13.029361518126548
20
35.999630789059999
30
0
10
12.938509509061578
20
36.110810820204364
30
0
10
12.815238488948722
20
36.171720992438232
30
0
0
SPLINE
5
764
100
AcDbEntity
8
0
100
AcDbSpline
70
0
71
2
72
6
73
3
74
0
42
0.000000001
43
0.0000000001
44
0.0000000001
40
0
40
0
40
0
40
1
40
1
40
1
10
12.815238488948722
20
36.171720992438232
30
0
10
12.691967468835866
20
36.232631164672107
30
0
10
12.55992314785126
20
36.233780412363515
30
0
0
SPLINE
5
765
100
AcDbEntity
8
0
100
AcDbSpline
70
0
71
2
72
6
73
3
74
0
42
0.000000001
43
0.0000000001
44
0.0000000001
40
0
40
0
40
0
40
1
40
1
40
1
10
12.55992314785126
20
36.233780412363515
30
0
10
12.376298920853305
20
36.235378585744932
30
0
10
12.237292738718001
20
36.147864148008914
30
0
0
SPLINE
5
766
100
AcDbEntity
8
0
100
AcDbSpline
70
0
71
2
72
6
73
3
74
0
42
0.000000001
43
0.0000000001
44
0.0000000001
40
0
40
0
40
0
40
1
40
1
40
1
10
12.237292738718001
20
36.147864148008914
30
0
10
12.098286557879563
20
36.060349859278872
30
0
10
12.020556151818544
20
35.901116713814673
30
0
0
SPLINE
5
767
100
AcDbEntity
8
0
100
AcDbSpline
70
0
71
2
72
6
73
3
74
0
42
0.000000001
43
0.0000000001
44
0.0000000001
40
0
40
0
40
0
40
1
40
1
40
1
10
12.020556151818544
20
35.901116713814673
30
0
10
11.942826340484526
20
35.741883414157016
30
0
10
11.940976766901041
20
35.52937423118324
30
0
0
LINE
5
768
100
AcDbEntity
8
0
100
AcDbLine
10
11.940976766901043
20
35.52937423118324
30
0
11
11.933811916260277
21
34.706159318625808
31
0
0
SPLINE
5
769
100
AcDbEntity
8
0
100
AcDbSpline
70
0
71
2
72
6
73
3
74
0
42
0.000000001
43
0.0000000001
44
0.0000000001
40
0
40
0
40
0
40
1
40
1
40
1
10
11.933811916260275
20
34.706159318625808
30
0
10
11.931980297888769
20
34.495713123284204
30
0
10
12.006917792987144
20
34.334119586346034
30
0
0
SPLINE
5
770
100
AcDbEntity
8
0
100
AcDbSpline
70
0
71
2
72
6
73
3
74
0
42
0.000000001
43
0.0000000001
44
0.0000000001
40
0
40
0
40
0
40
1
40
1
40
1
10
12.006917792987144
20
34.334119586346034
30
0
10
12.081855881515644
20
34.172525746208429
30
0
10
12.219326736753601
20
34.08363678617404
30
0
0
SPLINE
5
771
100
AcDbEntity
8
0
100
AcDbSpline
70
0
71
2
72
6
73
3
74
0
42
0.000000001
43
0.0000000001
44
0.0000000001
40
0
40
0
40
0
40
1
40
1
40
1
10
12.219326736753601
20
34.08363678617404
30
0
10
12.356797591991562
20
33.994747826139651
30
0
10
12.540421818989513
20
33.993149652758234
30
0
0
SPLINE
5
772
100
AcDbEntity
8
0
100
AcDbSpline
70
0
71
2
72
6
73
3
74
0
42
0.000000001
43
0.0000000001
44
0.0000000001
40
0
40
0
40
0
40
1
40
1
40
1
10
12.540421818989513
20
33.993149652758234
30
0
10
12.674529574624206
20
33.991982445964226
30
0
10
12.79777447303265
20
34.046620481161092
30
0
0
SPLINE
5
773
100
AcDbEntity
8
0
100
AcDbSpline
70
0
71
2
72
6
73
3
74
0
42
0.000000001
43
0.0000000001
44
0.0000000001
40
0
40
0
40
0
40
1
40
1
40
1
10
12.79777447303265
20
34.046620481161092
30
0
10
12.921019368847348
20
34.101258218346018
30
0
10
13.013783801870527
20
34.209808646420882
30
0
0
SPLINE
5
774
100
AcDbEntity
8
0
100
AcDbSpline
70
0
71
2
72
6
73
3
74
0
42
0.000000001
43
0.0000000001
44
0.0000000001
40
0
40
0
40
0
40
1
40
1
40
1
10
13.013783801870527
20
34.209808646420882
30
0
10
13.106547636276087
20
34.318358781671293
30
0
10
13.14705899048902
20
34.468631044985628
30
0
0
LINE
5
775
100
AcDbEntity
8
0
100
AcDbLine
10
13.14705899048902
20
34.468631044985628
30
0
11
13.578266766351017
21
34.464878028292205
31
0
0
SPLINE
5
776
100
AcDbEntity
8
0
100
AcDbSpline
70
0
71
2
72
6
73
3
74
0
42
0.000000001
43
0.0000000001
44
0.0000000001
40
0
40
0
40
0
40
1
40
1
40
1
10
13.578266766351014
20
34.464878028292205
30
0
10
13.524370403258448
20
34.199174579350966
30
0
10
13.376124040646269
20
33.998256472432942
30
0
0
SPLINE
5
777
100
AcDbEntity
8
0
100
AcDbSpline
70
0
71
2
72
6
73
3
74
0
42
0.000000001
43
0.0000000001
44
0.0000000001
40
0
40
0
40
0
40
1
40
1
40
1
10
13.376124040646269
20
33.998256472432942
30
0
10
13.227877079416468
20
33.797338072690465
30
0
10
13.010280773702547
20
33.688842621322316
30
0
0
SPLINE
5
778
100
AcDbEntity
8
0
100
AcDbSpline
70
0
71
2
72
6
73
3
74
0
42
0.000000001
43
0.0000000001
44
0.0000000001
40
0
40
0
40
0
40
1
40
1
40
1
10
13.010280773702547
20
33.688842621322316
30
0
10
12.792684467988625
20
33.580347169954159
30
0
10
12.536848372571994
20
33.582573839301574
30
0
0
LWPOLYLINE
5
779
100
AcDbEntity
8
0
100
AcDbPolyline
90
12
70
1
43
0.0
10
16.320306639228463
20
36.580708543252356
10
15.899414844569135
20
36.584371774807778
10
15.887904392989654
20
35.261863342239991
10
14.604596450582459
20
35.273032612369768
10
14.61610690216194
20
36.595541044937555
10
14.195215107502612
20
36.599204276492976
10
14.169105596633845
20
33.599317777190386
10
14.589997391293172
20
33.595654545634957
10
14.601112789302942
20
34.872772780115781
10
15.884420731710136
20
34.861603509986004
10
15.873305333700369
20
33.584485275505187
10
16.294197128359695
20
33.580822043949759
0
LINE
5
780
100
AcDbEntity
8
0
100
AcDbLine
10
10.410678617421112
20
39.54608819122128
30
0
11
10.408296625186921
21
38.510327308882033
31
0
0
LINE
5
781
100
AcDbEntity
8
0
100
AcDbLine
10
10.407376094765864
20
38.110053375386926
30
0
11
10.40469991249603
21
36.946369938758664
31
0
0
LINE
5
782
100
AcDbEntity
8
0
100
AcDbLine
10
9.8368257130602075
20
36.057335664560107
30
0
11
9.357140674544004
21
34.69969838065974
31
0
0
LINE
5
783
100
AcDbEntity
8
0
100
AcDbLine
10
9.2161422777582835
20
34.300635109813101
30
0
11
8.9842945170155968
21
33.644443778211986
31
0
0
LINE
5
784
100
AcDbEntity
8
0
100
AcDbLine
10
114.47598571494402
20
50.426194473060065
30
0
11
114.46803402619838
21
49.493628769064287
31
0
0
LINE
5
785
100
AcDbEntity
8
0
100
AcDbLine
10
114.4646211312061
20
49.093368029118132
30
0
11
114.4538019089289
21
47.824501004465759
31
0
0
LINE
5
786
100
AcDbEntity
8
0
100
AcDbLine
10
202.60697793948492
20
39.995248282356826
30
0
11
202.6105042178836
21
39.085351469809957
31
0
0
LINE
5
787
100
AcDbEntity
8
0
100
AcDbLine
10
202.61205546137589
20
38.68507918568563
30
0
11
202.61550177993669
21
37.795814664010564
31
0
0
LINE
5
788
100
AcDbEntity
8
0
100
AcDbLine
10
253.37499560938809
20
33.87989850195914
30
0
11
253.37669441184744
21
32.943173710683389
31
0
0
LINE
5
789
100
AcDbEntity
8
0
100
AcDbLine
10
253.37742033159347
20
32.542899376941605
30
0
11
253.37971034761017
21
31.280177649955338
31
0
0
ENDSEC
0
SECTION
2
OBJECTS
0
DICTIONARY
5
C
100
AcDbDictionary
3
ACAD_GROUP
350
D
3
ACAD_MLINESTYLE
350
17
0
DICTIONARY
5
D
100
AcDbDictionary
0
DICTIONARY
5
1A
330
C
100
AcDbDictionary
0
DICTIONARY
5
17
100
AcDbDictionary
0
ENDSEC
0
EOF
